<svg xmlns="http://www.w3.org/2000/svg" xmlns:xlink="http://www.w3.org/1999/xlink" width="313.187" height="79.68" viewBox="0 0 939.951 238.97" xmlns:v="https://vecta.io/nano"><style><![CDATA[.B{stroke-linecap:butt}.C{stroke-linejoin:bevel}]]></style><g fill="none" fill-rule="evenodd" stroke="#000"><path d="M519.006 51.065v102.047" stroke-width="3.189" class="B C"/><g fill="#000" stroke="none"><use xlink:href="#B"/><use xlink:href="#B" x="177.784"/><use xlink:href="#B" x="402.607"/></g><g class="B C"><path d="M358.76 146.734c41.457 31.093 176.988 31.093 218.445 0" stroke-width="1.594"/><path d="M358.76 146.734c41.457 27.106 176.988 27.106 218.445 0-41.457 35.08-176.988 35.08-218.445 0" stroke-width=".797" fill="#000"/></g><use xlink:href="#B" x="593.946" fill="#000" stroke="none"/><path d="M0 153.112h939.95M0 127.6h939.95M0 102.1h939.95M0 76.577h939.95M0 51.065h939.95" stroke-width="2.392" class="B C"/><g fill="#000" stroke="none"><path d="M46.177 163.93c-7.756.102-12.96 6.633-12.96 11.53 0 11.43 11.123 17.552 20 17.552 8.164 0 20.614-5.817 20.614-17.042 0-1.327-.102-2.653-.5-4.082l-5.204-21.022C81.7 145.15 87.2 130.15 87.312 122.19v-.5c0-15.5-10.205-23.063-21.022-24.695-1.123-.204-2.45-.204-3.776-.204-2.755 0-5.715.306-7.347.918L50.26 79.026c12.348-12.552 19.9-26.43 19.9-42.452v-.612c-.204-17.654-11.633-34.186-15.92-34.9-4.592 1.53-15.5 19.287-15.715 32.96v1.123c0 13.062 3.368 20.614 6.02 31.33-8.266 8.572-25.4 26.94-25.4 46.84 0 21.022 13.674 39.4 36.94 39.4a46.78 46.78 0 0 0 9.694-1.02l5.102 21.022a11.72 11.72 0 0 1 .408 3.163c0 8.878-9.388 14.695-17.858 14.695-5.306 0-11.633-4.592-12.144-8.674 1.225.918 2.653 1.225 4.082 1.225 5.102 0 10.817-4.5 10.817-8.878 0-5.102-3.572-10.103-10-10.307zM57.3 12.287c4.592 1.123 7.96 13.572 7.96 21.43-.102 11.123-12.042 23.675-18.675 30.818-2.04-8.368-4.388-14.5-4.388-27.247 0-13.47 11.327-24.593 15.103-25.002zM52.197 98.72c-8.776 3.368-12.144 10-12.144 18.777 0 1.02 0 2.04.102 3.06.918 12.144 9.286 18.777 14.083 20.103-5.715-4.592-9.694-8.776-9.797-16.328 0-6.94 2.96-12.246 11.02-14.083l9.286 37.35c-2.347.714-7.347 1.02-10.817 1.02-1.123 0-2.143 0-2.755-.102-16.94-1.735-24.9-17.552-24.9-31.226.102-15 18.062-32.043 21.94-36.33l3.98 17.756zm5.715 11.123c1.94-.306 3.878-.5 5.715-.5 9.184 0 16.02 4.082 17.348 9.9.408 2.04.612 3.98.612 5.92 0 9.9-5.715 17.96-14.5 21.838l-9.184-37.145zm316.375 109.6l-5.734 1.83v-10.38l5.734-1.928v10.48zm0-24.813v8.897l-5.734 1.977v-8.996h-1.483v9.392l-3.36 1.087v5.437l3.36-1.087v10.38l-3.36 1.087v5.437l3.36-1.087v8.502h1.483v-8.996l5.734-1.878v8.996h1.483v-9.392l3.46-1.087v-5.437l-3.46 1.087v-10.38l3.46-1.087v-5.437l-3.46 1.087v-8.502h-1.483zM599.1 219.453l-5.734 1.83v-10.38l5.734-1.928v10.48zm0-24.813v8.897l-5.734 1.977v-8.996h-1.483v9.392l-3.36 1.087v5.437l3.36-1.087v10.38l-3.36 1.087v5.437l3.36-1.087v8.502h1.483v-8.996l5.734-1.878v8.996h1.483v-9.392l3.46-1.087v-5.437l-3.46 1.087v-10.38l3.46-1.087v-5.437l-3.46 1.087v-8.502H599.1z"/><use xlink:href="#C"/><use xlink:href="#C" x="187.352"/><path d="M320.154 115.66l4.592-1.633c1.123-.408 1.633-2.96 1.633-5.306 0-2.04-.408-3.878-1.327-3.878-.102 0-.204.102-.306.102l-4.592 1.633V93.62c0-.5-.5-.714-1.02-.714s-1.02.204-1.02.714v13.674l-8.98 3.368V96.884c0-.5-.612-.714-1.123-.714s-1.02.204-1.02.714v14.49l-4.694 1.94c-.816.408-1.327 2.857-1.327 5.102 0 1.94.306 3.776 1.327 3.776l4.694-1.735v18.164l-4.694 1.735c-.918.408-1.327 2.755-1.327 5 0 2.143.408 4.082 1.327 4.082l4.694-1.837v13.776c0 .5.5.816 1.02.816s1.123-.306 1.123-.816v-14.593l8.98-3.266v15c0 .5.5.714 1.02.714s1.02-.204 1.02-.714v-15.715l4.592-1.633c1.123-.408 1.633-3.06 1.633-5.306 0-2.04-.408-3.776-1.327-3.776-.102 0-.204.102-.306.102l-4.592 1.633V115.66zm-2.04.816v18.062l-8.98 3.266v-18.062l8.98-3.266z"/><use xlink:href="#C" x="412.175"/><use xlink:href="#C" x="593.947"/></g></g><defs ><path id="B" d="M169.22 214.195h10.447v14.946q-2.438.778-4.96 1.177-2.523.4-5.844.4-6.98 0-10.868-4.14-3.89-4.162-3.89-11.646 0-4.793 1.913-8.387 1.934-3.616 5.55-5.508 3.616-1.913 8.47-1.913 4.92 0 9.165 1.808l-1.387 3.153q-4.162-1.766-8.01-1.766-5.613 0-8.766 3.342-3.153 3.342-3.153 9.27 0 6.222 3.027 9.438 3.048 3.216 8.934 3.216 3.195 0 6.243-.736v-9.46h-6.874v-3.195z"/><path id="C" d="M146.693 127.805c0 9.797 12.756 12.552 21.838 12.552h.5c8.572-.102 21.124-2.857 21.124-12.756 0-8.572-12.858-12.654-21.532-12.654-9.082 0-21.94 4.082-21.94 12.858zm13.266-8.062c1.53-1.53 4.184-2.347 6.837-2.347 2.143 0 4.286.5 6.02 1.735 3.266 2.347 5.817 8.368 5.817 12.756 0 1.123-.102 2.143-.5 2.96-1.123 2.245-5.204 3.878-8.98 3.878-1.633 0-3.266-.306-4.5-1.02-3.674-2.04-6.837-7.347-6.837-12.144 0-2.143.612-4.184 2.143-5.817z"/></defs></svg>