<svg xmlns="http://www.w3.org/2000/svg" xmlns:xlink="http://www.w3.org/1999/xlink" width="344.53" height="86.922" viewBox="0 0 1034.026 260.688" xmlns:v="https://vecta.io/nano"><style><![CDATA[.B{stroke:none}.C{stroke-linecap:butt}.D{stroke-width:2.392}.E{stroke-linejoin:bevel}]]></style><g fill="none" stroke="#000" fill-rule="evenodd"><g fill="#000" class="B"><use xlink:href="#B"/><use xlink:href="#C"/><use xlink:href="#D"/><use xlink:href="#D" x="24.654"/><path d="M300.19 20.874c0-6.283-3.453-11.094-8.717-11.094-5.094 0-8.377 4.585-8.377 9.51 0 4.698 2.604 7.925 7.132 7.925 2.491 0 4.472-.736 6-2.151-1.245 5.377-6.849 10.528-12.227 11.434l.113.679c9.453-1.019 16.076-6.679 16.076-16.302zm-8.264 4.528c-3.566 0-5.321-2.491-5.321-7.472 0-4.132 1.925-7.245 4.642-7.245 3.566 0 5.321 3.396 5.321 10.189 0 .906-.057 1.755-.113 2.491-1.132 1.359-2.66 2.038-4.528 2.038z"/><use xlink:href="#B" x="276.643"/><use xlink:href="#C" x="276.643"/><use xlink:href="#D" x="276.643"/><use xlink:href="#D" x="301.297"/><use xlink:href="#E"/><use xlink:href="#E" x="15.588"/><use xlink:href="#B" x="510.236"/><path d="M759.498 36.383v-.906c-2.717 0-3.34-.849-3.34-4.302V19.912c0-1.359-1.132-4.698-2.038-5.604-.849-.849-2.038-1.245-3.679-1.245-3.226 0-6.057 1.359-8.547 4.189-.566-2.83-2.264-4.189-5.094-4.189-3.057 0-5.604 1.359-7.868 4.076v-4.076l-7.642 2.434v.906h2.434c.623.226.906.906.906 2.038v12.736c0 3.453-.623 4.302-3.34 4.302v.906h10.698v-.906c-2.208 0-3.057-.849-3.057-3.566V18.78c1.698-2.208 3.566-3.283 5.604-3.283 2.377 0 3.566 1.359 3.566 4.189v11.83c0 3.226-.849 3.962-3.057 3.962v.906h10.698v-.906c-2.717 0-3.34-.849-3.34-4.302l.057-3.962v-5.094c-.057-1.811-.113-3-.283-3.453 1.811-2.094 3.792-3.17 5.83-3.17 2.547 0 3.849 1.359 3.849 4.189v11.83c0 3.226-.849 3.962-3.057 3.962v.906z"/><use xlink:href="#C" x="548.819"/><path d="M792.853 3.496c0-1.189-1.189-2.434-2.547-2.434s-2.66 1.302-2.66 2.66c0 1.245 1.189 2.434 2.547 2.434 1.415 0 2.66-1.245 2.66-2.66zm-8.66 13.076c1.075-.283 1.868-.396 2.321-.396 1.019 0 1.528 1.019 1.528 3.057v19.812c0 3.679-.623 5.604-1.925 5.604-1.245 0-3.736-3.17-5.038-3.17-1.189 0-1.755.679-1.755 2.038 0 2.264 2.434 3.34 4.868 3.34 5.434 0 8.151-4.245 8.151-12.793V12.496l-8.151 2.943zm28.547-6.793h-14.717l-2.377 6.226.679.453c1.075-2.321 2.66-3.509 4.868-3.509h8.038l-7.585 23.547h2.377z"/><use xlink:href="#C" x="601.775"/><use xlink:href="#D" x="601.776"/><use xlink:href="#D" x="626.43"/><use xlink:href="#E" x="325.133"/><use xlink:href="#E" x="340.721"/></g><path d="M0 217.499h1034.025M0 191.987h1034.025M0 166.476h1034.025M0 140.964h1034.025M0 115.452h1034.025" class="C D E"/><path d="M46.177 228.316c-7.756.102-12.96 6.633-12.96 11.531 0 11.429 11.123 17.552 20.001 17.552 8.164 0 20.614-5.817 20.614-17.042 0-1.327-.102-2.653-.51-4.082l-5.204-21.022c13.572-5.715 19.083-20.716 19.185-28.675v-.51c0-15.511-10.205-23.063-21.022-24.695-1.123-.204-2.449-.204-3.776-.204-2.755 0-5.715.306-7.347.918l-4.898-18.675c12.348-12.552 19.899-26.43 19.899-42.452v-.612c-.204-17.654-11.633-34.186-15.919-34.9-4.592 1.531-15.511 19.287-15.715 32.961v1.123c0 13.062 3.368 20.614 6.021 31.329-8.266 8.572-25.41 26.94-25.41 46.84 0 21.022 13.674 39.39 36.941 39.39a46.78 46.78 0 0 0 9.694-1.02l5.102 21.022c.306 1.123.408 2.143.408 3.163 0 8.878-9.388 14.695-17.858 14.695-5.306 0-11.633-4.592-12.144-8.674 1.225.918 2.653 1.225 4.082 1.225 5.102 0 10.817-4.49 10.817-8.878 0-5.102-3.572-10.103-10.001-10.307zM57.3 76.674c4.592 1.123 7.96 13.572 7.96 21.43-.102 11.123-12.042 23.675-18.675 30.818-2.041-8.368-4.388-14.491-4.388-27.247 0-13.47 11.327-24.593 15.103-25.002zm-5.102 86.434c-8.776 3.368-12.144 10.001-12.144 18.777 0 1.02 0 2.041.102 3.061.918 12.144 9.286 18.777 14.083 20.103-5.715-4.592-9.694-8.776-9.797-16.328 0-6.939 2.959-12.246 11.021-14.083l9.286 37.349c-2.347.714-7.347 1.02-10.817 1.02-1.123 0-2.143 0-2.755-.102-16.94-1.735-24.9-17.552-24.9-31.226.102-15.001 18.062-32.043 21.94-36.329zm5.715 11.123c1.939-.306 3.878-.51 5.715-.51 9.184 0 16.021 4.082 17.348 9.899.408 2.041.612 3.98.612 5.919 0 9.899-5.715 17.96-14.491 21.838z" fill="#000" class="B"/><path d="M202.5 243.011h74.144" class="C D E"/><g fill="#000" class="B"><use xlink:href="#F"/><use xlink:href="#F" x="41.456" y="-12.756"/><use xlink:href="#F" y="-25.512"/><use xlink:href="#F" y="-51.023"/></g><path d="M484.725 243.011h74.144" class="C D E"/><g fill="#000" class="B"><use xlink:href="#F" x="282.224"/><use xlink:href="#F" x="282.224" y="-25.512"/><use xlink:href="#F" x="323.681" y="-38.268"/><use xlink:href="#F" x="282.224" y="-51.023"/></g><path d="M763.76 243.011h74.144" class="C D E"/><g fill="#000" class="B"><use xlink:href="#F" x="561.26"/><use xlink:href="#F" x="561.26" y="-25.512"/><use xlink:href="#F" x="561.26" y="-51.023"/><use xlink:href="#F" x="602.716" y="-63.779"/><use xlink:href="#F" x="561.26" y="-76.535"/></g></g><defs ><path id="B" d="M207.522 44.874l-1.019-1.472c-3.623 4.019-7.925 6-12.906 6-8.547 0-14.038-6.793-14.038-16.868 0-10.245 5.208-17.321 13.698-17.321 6.623 0 11.094 4.359 12.453 10.981h1.585V12.949h-1.925c-.509 1.415-1.245 2.151-2.151 2.151-.509 0-6.849-2.377-10.755-2.377-11.038 0-19.132 9.283-19.132 20.264 0 11.264 7.472 18.849 18.679 18.849 6.566 0 11.717-2.321 15.51-6.962z"/><path id="C" d="M232.847 32.591c-1.189.849-2.038 1.245-2.66 1.245-.792 0-1.132-.679-1.132-2.038V20.308c0-4.642-2.717-7.245-7.302-7.245-3.962 0-8.434 2.491-8.434 5.717 0 1.472.623 2.208 1.981 2.208 1.245 0 2.377-1.019 2.377-2.208 0-.453-.226-1.528-.226-1.981 0-1.585 1.811-2.547 3.566-2.547 2.491 0 3.792 1.472 3.792 4.302v3.057c-9.51 3-12.51 5.377-12.51 9.906 0 2.66 1.925 5.434 4.755 5.434 2.094 0 4.755-1.302 7.925-3.849.057 2.547 1.075 3.736 3.057 3.736 1.585 0 3.17-.906 4.811-2.717zm-8.038-.792c-1.811 1.359-3.34 2.038-4.698 2.038-2.208 0-3.34-1.868-3.34-4.076 0-2.094.849-3.679 2.604-4.698.623-.396 2.434-1.075 5.434-2.038z"/><path id="D" d="M253.316 2.081l-8.264 2.377v.906h2.83c.792.226 1.132 1.075 1.132 2.434v7.642c-1.359-1.245-3.057-1.925-5.094-1.925-6.226 0-10.415 6.793-10.415 12.736 0 6 3.736 11.038 9.113 11.038 2.774 0 4.925-1.189 6.396-3.623v3.849c2.264-1.415 5.038-2.434 8.264-3v-.962c-.226 0-.566.057-1.132.113h-.906c-1.302 0-1.925-.849-1.925-2.547zm-4.302 29.378c-.849 2.151-2.377 3.226-4.585 3.226-4.076 0-6.509-4.076-6.509-9.962 0-5.434 2.208-9.679 6.283-9.679 2.094 0 3.623 1.132 4.528 3.34.17.566.283.906.283 1.019z"/><path id="E" d="M572.418 36.497v-.906c-3.226 0-3.736-.453-3.736-3.736V9.666l-7.472 3.962v.679c1.585-.623 2.66-.906 3.17-.906.679 0 1.019.679 1.019 2.038v16.415c0 3.34-.623 3.736-3.849 3.736v.906z"/><path id="F" d="M217.648 243.215c0 9.797 12.756 12.552 21.838 12.552h.51c8.572-.102 21.124-2.857 21.124-12.756 0-8.572-12.858-12.654-21.532-12.654-9.082 0-21.94 4.082-21.94 12.858zm13.266-8.062c1.531-1.531 4.184-2.347 6.837-2.347 2.143 0 4.286.51 6.021 1.735 3.266 2.347 5.817 8.368 5.817 12.756 0 1.123-.102 2.143-.51 2.959-1.123 2.245-5.204 3.878-8.98 3.878-1.633 0-3.266-.306-4.49-1.02-3.674-2.041-6.837-7.347-6.837-12.144 0-2.143.612-4.184 2.143-5.817z"/></defs></svg>