<svg xmlns="http://www.w3.org/2000/svg" xmlns:xlink="http://www.w3.org/1999/xlink" width="568.728" height="93.555" viewBox="0 0 1706.899 280.58" xmlns:v="https://vecta.io/nano"><style><![CDATA[.U{fill:#000}.V{stroke:none}.W{fill:#72ac51}.X{stroke-width:2.392}.Y{stroke-linejoin:bevel}]]></style><g fill="none" stroke="#000" fill-rule="evenodd"><g class="U V"><use xlink:href="#B"/><use xlink:href="#C"/><use xlink:href="#D"/><use xlink:href="#E"/><use xlink:href="#F"/><use xlink:href="#G"/><use xlink:href="#B" x="252.726"/><use xlink:href="#C" x="252.726"/><use xlink:href="#D" x="252.726"/><use xlink:href="#H"/><use xlink:href="#F" x="255.932"/><use xlink:href="#G" x="255.932"/><use xlink:href="#B" x="504.655"/><use xlink:href="#C" x="504.655"/><use xlink:href="#D" x="504.655"/><use xlink:href="#E" x="504.655"/><use xlink:href="#I"/><use xlink:href="#G" x="505.76"/><use xlink:href="#B" x="751.002"/><use xlink:href="#C" x="751.002"/><use xlink:href="#D" x="751.002"/><use xlink:href="#H" x="498.276"/><use xlink:href="#I" x="249.553"/><use xlink:href="#G" x="755.313"/><use xlink:href="#B" x="1004.532"/><path d="M1243.171 37.515l-12.453-23.887-12.453 23.887zm-19.245-3.396l6.793-13.698 6.793 13.698z"/><use xlink:href="#D" x="1012.049"/><use xlink:href="#H" x="759.324"/><use xlink:href="#J"/><use xlink:href="#J" x="15.589"/><use xlink:href="#G" x="1028.08"/></g><g class="U V"><path d="M1468.763 48.836l-1.019-1.472c-3.623 4.019-7.925 6-12.906 6-8.547 0-14.038-6.793-14.038-16.868 0-10.245 5.208-17.321 13.698-17.321 6.623 0 11.094 4.359 12.453 10.981h1.585V16.911h-1.925c-.509 1.415-1.245 2.151-2.151 2.151-.509 0-6.849-2.377-10.755-2.377-11.038 0-19.132 9.283-19.132 20.264 0 11.264 7.472 18.849 18.679 18.849 6.566 0 11.717-2.321 15.51-6.962zm20.91-35.095h-14.717l-2.377 6.226.679.453c1.075-2.321 2.66-3.509 4.868-3.509h8.038l-7.585 23.547h2.377zm12.713 32.718c-4.755-3.509-6.566-7.811-6.566-16.189s1.811-12.679 6.566-16.189l-.679-.679c-6.17 3.906-9.283 9.566-9.283 16.981 0 7.302 3.113 12.962 9.283 16.868z"/><use xlink:href="#E" x="1258.052" y="0.001"/><use xlink:href="#I" x="753.397"/><use xlink:href="#E" x="1299.51" y="0.001"/><path d="M1580.675 40.459v-.906c-3.226 0-3.736-.453-3.736-3.736V13.628l-7.472 3.962v.679c1.585-.623 2.66-.906 3.17-.906.679 0 1.019.679 1.019 2.038v16.415c0 3.34-.623 3.736-3.849 3.736v.906zm6.984.566c7.245 0 12-3.623 12-9.396 0-3.17-1.868-5.943-4.868-7.019 2.264-1.415 3.396-3.283 3.396-5.547 0-3.17-2.434-5.321-5.774-5.321-3.962 0-6.17 1.925-8.151 6.906l.566.226c1.528-3 3.566-4.528 6.226-4.528 2.547 0 4.189 1.642 4.189 4.076 0 3.453-3.283 5.66-6.906 6.566v.566c.509-.057 1.019-.057 1.528-.057 4.302 0 6.849 2.038 6.849 5.943 0 3.34-1.868 6-5.208 6-2.094 0-5.094-2.151-5.547-2.151-1.189 0-1.811.396-1.811 1.132 0 1.755 1.189 2.604 3.509 2.604zm25.237-10.642c0-7.415-3.113-13.076-9.283-16.981l-.679.679c4.755 3.509 6.566 8.094 6.566 16.189s-1.811 12.679-6.566 16.189l.679.792c6.17-3.906 9.283-9.566 9.283-16.868z"/></g><path d="M0 237.405h1706.9M0 211.893h1706.9M0 186.382h1706.9M0 160.87h1706.9M0 135.358h1706.9" class="X Y"/><path d="M46.177 248.222c-7.756.102-12.96 6.633-12.96 11.531 0 11.429 11.123 17.552 20.001 17.552 8.164 0 20.614-5.817 20.614-17.042 0-1.327-.102-2.653-.51-4.082l-5.204-21.022c13.572-5.715 19.083-20.716 19.185-28.675v-.51c0-15.511-10.205-23.063-21.022-24.695-1.123-.204-2.449-.204-3.776-.204-2.755 0-5.715.306-7.347.918l-4.898-18.675c12.348-12.552 19.899-26.43 19.899-42.452v-.612c-.204-17.654-11.633-34.186-15.919-34.9-4.592 1.531-15.511 19.287-15.715 32.961v1.123c0 13.062 3.368 20.614 6.021 31.329-8.266 8.572-25.41 26.94-25.41 46.84 0 21.022 13.674 39.39 36.941 39.39a46.78 46.78 0 0 0 9.694-1.02l5.102 21.022c.306 1.123.408 2.143.408 3.163 0 8.878-9.388 14.695-17.858 14.695-5.306 0-11.633-4.592-12.144-8.674 1.225.918 2.653 1.225 4.082 1.225 5.102 0 10.817-4.49 10.817-8.878 0-5.102-3.572-10.103-10.001-10.307zM57.3 96.58c4.592 1.123 7.96 13.572 7.96 21.43-.102 11.123-12.042 23.675-18.675 30.818-2.041-8.368-4.388-14.491-4.388-27.247 0-13.47 11.327-24.593 15.103-25.002zm-5.102 86.434c-8.776 3.368-12.144 10.001-12.144 18.777 0 1.02 0 2.041.102 3.061.918 12.144 9.286 18.777 14.083 20.103-5.715-4.592-9.694-8.776-9.797-16.328 0-6.939 2.959-12.246 11.021-14.083l9.286 37.349c-2.347.714-7.347 1.02-10.817 1.02-1.123 0-2.143 0-2.755-.102-16.94-1.735-24.9-17.552-24.9-31.226.102-15.001 18.062-32.043 21.94-36.329zm5.715 11.123c1.939-.306 3.878-.51 5.715-.51 9.184 0 16.021 4.082 17.348 9.899.408 2.041.612 3.98.612 5.919 0 9.899-5.715 17.96-14.491 21.838z" class="U V"/><path d="M202.5 262.917h74.144" class="X Y"/><g class="V"><g class="U"><use xlink:href="#K"/><use xlink:href="#K" y="-25.512"/></g><use xlink:href="#K" y="-51.023" class="W"/><g class="U"><use xlink:href="#K" y="-76.535"/><use xlink:href="#L"/></g><use xlink:href="#L" x="-23.121" y="25.512" class="W"/></g><path d="M456.821 262.917h74.144" class="X Y"/><g class="V"><g class="U"><use xlink:href="#K" x="254.321"/><use xlink:href="#K" x="254.321" y="-25.512"/></g><use xlink:href="#K" x="254.321" y="-51.023" class="W"/><g class="U"><use xlink:href="#K" x="254.321" y="-76.535"/><use xlink:href="#L" x="254.32"/></g><use xlink:href="#M" class="W"/></g><path d="M707.953 262.917h74.144" class="X Y"/><g class="V"><g class="U"><use xlink:href="#K" x="505.452"/><use xlink:href="#K" x="505.452" y="-25.512"/><use xlink:href="#K" x="505.452" y="-51.023"/><use xlink:href="#K" x="505.452" y="-76.535"/></g><g class="W"><use xlink:href="#K" x="505.452" y="-102.047"/><use xlink:href="#L" x="505.452" y="-25.512"/></g><g class="U"><path d="M692.633 246.692v-54.799l-15.613 5.511v-20.511h-2.551v54.799l15.613-5.409v20.409zm-15.613-41.023l13.062-4.796v17.144l-13.062 4.694z"/><use xlink:href="#L" x="460.807"/></g></g><path d="M955.896 262.917h74.144" class="X Y"/><g class="V"><g class="U"><use xlink:href="#K" x="753.395"/><use xlink:href="#K" x="753.395" y="-25.512"/><use xlink:href="#K" x="753.395" y="-51.023"/><use xlink:href="#K" x="753.395" y="-76.535"/></g><g class="W"><use xlink:href="#K" x="753.395" y="-102.047"/><use xlink:href="#M" x="522.194" y="-51.024"/></g><use xlink:href="#L" x="724.694" class="U"/></g><path d="M1218.986 262.917h74.144" class="X Y"/><g class="V"><g class="U"><use xlink:href="#K" x="1016.486"/><use xlink:href="#K" x="1016.486" y="-25.512"/><use xlink:href="#K" x="1016.486" y="-51.023"/><use xlink:href="#K" x="1016.486" y="-76.535"/></g><g class="W"><use xlink:href="#K" x="1016.486" y="-127.559"/><path d="M1221.04 123.418l4.592-1.633c1.123-.408 1.633-2.959 1.633-5.306 0-2.041-.408-3.878-1.327-3.878-.102 0-.204.102-.306.102l-4.592 1.633v-12.96c0-.51-.51-.714-1.02-.714s-1.02.204-1.02.714v13.674l-8.98 3.368v-13.776c0-.51-.612-.714-1.123-.714s-1.02.204-1.02.714v14.491l-4.694 1.939c-.816.408-1.327 2.857-1.327 5.102 0 1.939.306 3.776 1.327 3.776l4.694-1.735v18.164l-4.694 1.735c-.918.408-1.327 2.755-1.327 5 0 2.143.408 4.082 1.327 4.082l4.694-1.837v13.776c0 .51.51.816 1.02.816s1.123-.306 1.123-.816v-14.593l8.98-3.266v15.001c0 .51.51.714 1.02.714s1.02-.204 1.02-.714v-15.715l4.592-1.633c1.123-.408 1.633-3.061 1.633-5.306 0-2.041-.408-3.776-1.327-3.776-.102 0-.204.102-.306.102l-4.592 1.633zm-2.041.816v18.062l-8.98 3.266V127.5z"/></g><path d="M1198.086 221.18V166.38l-15.613 5.511v-20.511h-2.551v54.799l15.613-5.409v20.409zm-15.613-41.023l13.062-4.796v17.144l-13.062 4.694z" class="U"/></g><path d="M1489.252 262.917h74.144m-74.144-153.071h74.144" class="X Y"/><g class="V"><g class="U"><use xlink:href="#K" x="1286.752"/><use xlink:href="#K" x="1286.752" y="-25.512"/><use xlink:href="#K" x="1286.752" y="-51.023"/><use xlink:href="#K" x="1286.752" y="-76.535"/></g><g class="W"><use xlink:href="#K" x="1286.752" y="-102.047"/><use xlink:href="#K" x="1286.752" y="-153.071"/><use xlink:href="#L" x="1286.751" y="-25.512"/></g><use xlink:href="#L" x="1263.631" class="U"/><path d="M1456.52 100.152c1.531-1.429 3.47-2.143 5.102-2.143 2.551 0 4.592 1.633 4.592 5.409 0 5.817-6.123 12.756-10.001 16.123zm17.45 3.266c0-6.837-3.368-9.184-7.449-9.184-3.368 0-7.143 1.633-10.001 3.572V63.109h-2.347v63.269c5.613-3.674 19.797-16.226 19.797-22.961z" class="W"/></g></g><defs ><path id="B" d="M210.711 48.836l-1.019-1.472c-3.623 4.019-7.925 6-12.906 6-8.547 0-14.038-6.793-14.038-16.868 0-10.245 5.208-17.321 13.698-17.321 6.623 0 11.094 4.359 12.453 10.981h1.585V16.911h-1.925c-.509 1.415-1.245 2.151-2.151 2.151-.509 0-6.849-2.377-10.755-2.377-11.038 0-19.132 9.283-19.132 20.264 0 11.264 7.472 18.849 18.679 18.849 6.566 0 11.717-2.321 15.51-6.962z"/><path id="C" d="M231.621 13.741h-14.717l-2.377 6.226.679.453c1.075-2.321 2.66-3.509 4.868-3.509h8.038l-7.585 23.547h2.377z"/><path id="D" d="M244.334 46.458c-4.755-3.509-6.566-7.811-6.566-16.189s1.811-12.679 6.566-16.189l-.679-.679c-6.17 3.906-9.283 9.566-9.283 16.981 0 7.302 3.113 12.962 9.283 16.868z"/><path id="E" d="M250.447 43.741l3.962-3.17c4.925-3.962 11.321-6.736 11.321-13.019 0-4.359-2.887-7.359-7.132-7.359-2.604 0-3.283.283-6.113 3.509l.453-20.378h-2.491zm6.453-21.057c2.547 0 4.189 2.264 4.189 4.981 0 3.453-2.66 7.359-8.038 11.66-.396-1.189-.566-2.83-.566-4.868 0-1.132.17-3.792.453-7.925 1.075-1.642 1.981-3.849 3.962-3.849z"/><path id="F" d="M284.674 13.628l-.566-.453c-.283.679-1.189 1.019-2.717 1.019h-7.019l-4.415 9.962c7.415.623 11.094 3.509 11.094 8.717 0 3.17-2.094 6.679-4.981 6.679-1.359 0-5.208-2.717-5.547-2.717a1.91 1.91 0 0 0-1.925 1.925c0 1.472 2.264 2.377 4.755 2.377 6.113 0 10.415-4.132 10.415-10.189 0-5.717-3.566-9.113-10.642-10.076l1.585-3.509h8.151z"/><path id="G" d="M296.913 30.383c0-7.415-3.113-13.076-9.283-16.981l-.679.679c4.755 3.509 6.566 8.094 6.566 16.189s-1.811 12.679-6.566 16.189l.679.792c6.17-3.906 9.283-9.566 9.283-16.868z"/><path id="H" d="M514.946 29.477l-6.566 2.094V19.685l6.566-2.208zm0-28.415v10.189l-6.566 2.264V3.213h-1.698v10.755l-3.849 1.245v6.226l3.849-1.245v11.887l-3.849 1.245v6.226l3.849-1.245v9.736h1.698V37.741l6.566-2.151v10.302h1.698V35.138l3.962-1.245v-6.226l-3.962 1.245V17.024l3.962-1.245V9.552l-3.962 1.245V1.062z"/><path id="I" d="M790.235 24.836c0-6.283-3.453-11.094-8.717-11.094-5.094 0-8.377 4.585-8.377 9.51 0 4.698 2.604 7.925 7.132 7.925 2.491 0 4.472-.736 6-2.151-1.245 5.377-6.849 10.528-12.227 11.434l.113.679c9.453-1.019 16.076-6.679 16.076-16.302zm-8.264 4.528c-3.566 0-5.321-2.491-5.321-7.472 0-4.132 1.925-7.245 4.642-7.245 3.566 0 5.321 3.396 5.321 10.189 0 .906-.057 1.755-.113 2.491-1.132 1.359-2.66 2.038-4.528 2.038z"/><path id="J" d="M1296.42 40.458v-.906c-3.226 0-3.736-.453-3.736-3.736V13.628l-7.472 3.962v.679c1.585-.623 2.66-.906 3.17-.906.679 0 1.019.679 1.019 2.038v16.415c0 3.34-.623 3.736-3.849 3.736v.906z"/><path id="K" d="M217.648 263.121c0 9.797 12.756 12.552 21.838 12.552h.51c8.572-.102 21.124-2.857 21.124-12.756 0-8.572-12.858-12.654-21.532-12.654-9.082 0-21.94 4.082-21.94 12.858zm13.266-8.062c1.531-1.531 4.184-2.347 6.837-2.347 2.143 0 4.286.51 6.021 1.735 3.266 2.347 5.817 8.368 5.817 12.756 0 1.123-.102 2.143-.51 2.959-1.123 2.245-5.204 3.878-8.98 3.878-1.633 0-3.266-.306-4.49-1.02-3.674-2.041-6.837-7.347-6.837-12.144 0-2.143.612-4.184 2.143-5.817z"/><path id="L" d="M192.889 176.687c1.531-1.429 3.47-2.143 5.102-2.143 2.551 0 4.592 1.633 4.592 5.409 0 5.817-6.123 12.756-10.001 16.123zm17.45 3.266c0-6.837-3.368-9.184-7.449-9.184-3.368 0-7.143 1.633-10.001 3.572v-34.696h-2.347v63.269c5.613-3.674 19.797-16.226 19.797-22.961z"/><path id="M" d="M435.755 199.954l4.592-1.633c1.123-.408 1.633-2.959 1.633-5.306 0-2.041-.408-3.878-1.327-3.878-.102 0-.204.102-.306.102l-4.592 1.633v-12.96c0-.51-.51-.714-1.02-.714s-1.02.204-1.02.714v13.674l-8.98 3.368v-13.776c0-.51-.612-.714-1.123-.714s-1.02.204-1.02.714v14.491l-4.694 1.939c-.816.408-1.327 2.857-1.327 5.102 0 1.939.306 3.776 1.327 3.776l4.694-1.735v18.164l-4.694 1.735c-.918.408-1.327 2.755-1.327 5 0 2.143.408 4.082 1.327 4.082l4.694-1.837v13.776c0 .51.51.816 1.02.816s1.123-.306 1.123-.816v-14.593l8.98-3.266v15.001c0 .51.51.714 1.02.714s1.02-.204 1.02-.714v-15.715l4.592-1.633c1.123-.408 1.633-3.061 1.633-5.306 0-2.041-.408-3.776-1.327-3.776-.102 0-.204.102-.306.102l-4.592 1.633zm-2.041.816v18.062l-8.98 3.266v-18.062z"/></defs></svg>