<svg xmlns="http://www.w3.org/2000/svg" width="184.619" height="62.85" viewBox="0 0 554.085 188.498" fill="none" fill-rule="evenodd" stroke="#000" xmlns:v="https://vecta.io/nano"><g stroke-linecap="butt" stroke-width="2.392" stroke-linejoin="bevel"><path d="M0 119.054h554.085M0 93.542h554.085"/><path d="M0 68.03h554.085" stroke="#72ac51"/><path d="M0 42.52h554.085M0 17.007h554.085"/></g><path d="M67.198 118.544c15 0 23.777-7.55 23.777-21.328 0-13.98-8.266-26.124-20.4-26.124-4.5 0-7.858 2.143-11.43 5.5-2.45 0-3.98-5.204-3.98-10.307 0-3.878 1.53-7.245 3.674-7.245h.5c2.755 1.94 6.94 2.857 12.348 2.857 10.5 0 18.88-11.633 18.88-24.287 0-13.674-9.694-21.634-24.593-21.634-5.306 0-10.613.816-14.287 5.613-2.347 3.06-3.572 6.43-3.572 10.103 0 5.204 3.776 9.286 8.98 9.286 4.286 0 8.062-5 8.062-8.98 0-2.96-1.43-4.796-6.43-7.04-1.53-.714-2.245-1.327-2.245-1.837 0-1.735 2.245-2.653 6.735-2.653 11.327 0 14.593 3.368 14.593 19.797 0 10-3.572 17.246-9.694 17.246-3.47 0-8.164-3.572-14.185-10.817-1.02 10.103-5 18.37-10.103 18.37-.5 0-.918-.102-1.43-.204V16.395H38.32v101.64h4.08V71.092a5.94 5.94 0 0 1 1.939-.306c4.694 0 8.266 7.347 9.592 17.858 5-8.062 9.9-12.144 14.695-12.144 5.613 0 9.5 8.266 9.5 17.858 0 15.92-3.163 20.5-12.246 20.5-5.204 0-7.858-1.123-7.858-3.368 0-1.225 7.245-3.776 7.245-8.368s-3.878-8.776-8.47-8.776c-4.388 0-7.96 4.898-7.96 9.082 0 9.184 8.47 15.103 18.37 15.103zM19.134 16.395v101.64H31.9V16.395H19.134zm221.92 169.48L230.63 158.63h-.168q.294 3.237.294 7.694v19.55h-3.3v-30.733h5.38l9.733 25.35h.168l9.817-25.35h5.34v30.733h-3.574v-19.802q0-3.405.294-7.4h-.168l-10.5 27.2h-2.88zm28.2 0h-3.5v-23.04h3.5v23.04zm-3.784-29.282q0-1.198.6-1.745.6-.568 1.47-.568.84 0 1.45.568.6.568.6 1.745 0 1.177-.6 1.766-.6.568-1.45.568-.883 0-1.47-.568-.6-.6-.6-1.766zm26.823 26.192h-.2q-2.417 3.5-7.23 3.5-4.52 0-7.042-3.1-2.502-3.1-2.502-8.787 0-5.697 2.523-8.85 2.523-3.153 7.02-3.153 4.688 0 7.2 3.405h.273l-.147-1.66-.084-1.62v-9.375h3.5v32.7h-2.838l-.462-3.1zm-6.98.6q3.574 0 5.17-1.934 1.62-1.955 1.62-6.285v-.736q0-4.898-1.64-6.98-1.62-2.102-5.192-2.102-3.07 0-4.7 2.396-1.62 2.375-1.62 6.727 0 4.414 1.62 6.664 1.62 2.25 4.75 2.25zm33.383-.6h-.2q-2.417 3.5-7.23 3.5-4.52 0-7.042-3.1-2.502-3.1-2.502-8.787 0-5.697 2.523-8.85 2.523-3.153 7.02-3.153 4.688 0 7.2 3.405h.273l-.147-1.66-.084-1.62v-9.375h3.5v32.7h-2.838l-.462-3.1zm-6.98.6q3.574 0 5.17-1.934 1.62-1.955 1.62-6.285v-.736q0-4.898-1.64-6.98-1.62-2.102-5.192-2.102-3.07 0-4.7 2.396-1.62 2.375-1.62 6.727 0 4.414 1.62 6.664 1.62 2.25 4.75 2.25zm21.2 2.5h-3.5v-32.7h3.5v32.7zm17.173.42q-5.108 0-8.072-3.1-2.943-3.1-2.943-8.64 0-5.57 2.733-8.85 2.754-3.28 7.378-3.28 4.33 0 6.853 2.86 2.523 2.838 2.523 7.505v2.207h-15.87q.105 4.057 2.04 6.16 1.955 2.102 5.487 2.102 3.72 0 7.357-1.556v3.1q-1.85.8-3.5 1.135-1.64.357-3.973.357zm-.946-20.958q-2.775 0-4.435 1.808-1.64 1.808-1.934 5.003h12.045q0-3.3-1.47-5.045-1.47-1.766-4.204-1.766zm40.3-7.442q-5.066 0-8 3.384-2.922 3.363-2.922 9.228 0 6.033 2.817 9.333 2.838 3.28 8.072 3.28 3.216 0 7.336-1.156v3.132q-3.195 1.198-7.883 1.198-6.8 0-10.5-4.12-3.68-4.12-3.68-11.7 0-4.75 1.766-8.324 1.787-3.574 5.13-5.508 3.363-1.934 7.904-1.934 4.835 0 8.45 1.766l-1.514 3.07q-3.5-1.64-6.98-1.64zm-99.246-89.66c0 9.797 12.756 12.552 21.838 12.552h.5c8.572-.102 21.124-2.857 21.124-12.756 0-8.572-12.858-12.654-21.532-12.654-9.082 0-21.94 4.082-21.94 12.858zm13.266-8.062c1.53-1.53 4.184-2.347 6.837-2.347 2.143 0 4.286.5 6.02 1.735 3.266 2.347 5.817 8.368 5.817 12.756 0 1.123-.102 2.143-.5 2.96-1.123 2.245-5.204 3.878-8.98 3.878-1.633 0-3.266-.306-4.5-1.02-3.674-2.04-6.837-7.347-6.837-12.144 0-2.143.612-4.184 2.143-5.817z" fill="#000" stroke="none"/></svg>