<svg xmlns="http://www.w3.org/2000/svg" xmlns:xlink="http://www.w3.org/1999/xlink" width="544.29" height="111.621" viewBox="0 0 1633.553 334.76" xmlns:v="https://vecta.io/nano"><style><![CDATA[.B{stroke-linecap:butt}.C{stroke-width:2.392}.D{stroke-linejoin:bevel}.E{stroke:none}]]></style><g fill="none" stroke="#000" fill-rule="evenodd"><path d="M0 153.112h1633.553M0 127.6h1633.553M0 102.089h1633.553M0 76.577h1633.553M0 51.065h1633.553" class="B C D"/><g fill="#000" class="E"><path d="M46.177 163.929c-7.756.102-12.96 6.633-12.96 11.531 0 11.429 11.123 17.552 20.001 17.552 8.164 0 20.614-5.817 20.614-17.042 0-1.327-.102-2.653-.51-4.082l-5.204-21.022c13.572-5.715 19.083-20.716 19.185-28.675v-.51c0-15.511-10.205-23.063-21.022-24.695-1.123-.204-2.449-.204-3.776-.204-2.755 0-5.715.306-7.347.918l-4.898-18.675c12.348-12.552 19.899-26.43 19.899-42.452v-.612c-.204-17.654-11.633-34.186-15.919-34.9-4.592 1.531-15.511 19.287-15.715 32.961v1.123c0 13.062 3.368 20.614 6.021 31.329-8.266 8.572-25.41 26.94-25.41 46.84 0 21.022 13.674 39.39 36.941 39.39a46.78 46.78 0 0 0 9.694-1.02l5.102 21.022c.306 1.123.408 2.143.408 3.163 0 8.878-9.388 14.695-17.858 14.695-5.306 0-11.633-4.592-12.144-8.674 1.225.918 2.653 1.225 4.082 1.225 5.102 0 10.817-4.49 10.817-8.878 0-5.102-3.572-10.103-10.001-10.307zM57.3 12.287c4.592 1.123 7.96 13.572 7.96 21.43-.102 11.123-12.042 23.675-18.675 30.818-2.041-8.368-4.388-14.491-4.388-27.247 0-13.47 11.327-24.593 15.103-25.002zm-5.102 86.434c-8.776 3.368-12.144 10.001-12.144 18.777 0 1.02 0 2.041.102 3.061.918 12.144 9.286 18.777 14.083 20.103-5.715-4.592-9.694-8.776-9.797-16.328 0-6.939 2.959-12.246 11.021-14.083l9.286 37.349c-2.347.714-7.347 1.02-10.817 1.02-1.123 0-2.143 0-2.755-.102-16.94-1.735-24.9-17.552-24.9-31.226.102-15.001 18.062-32.043 21.94-36.329zm5.715 11.123c1.939-.306 3.878-.51 5.715-.51 9.184 0 16.021 4.082 17.348 9.899.408 2.041.612 3.98.612 5.919 0 9.899-5.715 17.96-14.491 21.838z"/><use xlink:href="#B"/><use xlink:href="#C"/><path d="M179.623 262.186v-14.988q0-2.754-1.177-4.12-1.177-1.387-3.658-1.387-3.258 0-4.814 1.871-1.556 1.871-1.556 5.76v12.865h-3.489v-14.988q0-2.754-1.177-4.12-1.177-1.387-3.679-1.387-3.279 0-4.814 1.976-1.514 1.955-1.514 6.432v12.087h-3.489v-23.039h2.838l.568 3.153h.168q.988-1.682 2.775-2.628 1.808-.946 4.036-.946 5.402 0 7.063 3.91h.168q1.03-1.808 2.985-2.859 1.955-1.051 4.456-1.051 3.91 0 5.844 2.018 1.955 1.997 1.955 6.411v15.03z"/><use xlink:href="#D"/><path d="M216.977 262.186v-14.904q0-2.817-1.282-4.204-1.282-1.387-4.015-1.387-3.616 0-5.297 1.955-1.682 1.955-1.682 6.453v12.087h-3.49v-23.039h2.838l.568 3.153h.168q1.072-1.703 3.006-2.628 1.934-.946 4.309-.946 4.162 0 6.264 2.018 2.102 1.997 2.102 6.411v15.03z"/><use xlink:href="#D" x="37.333"/><use xlink:href="#E"/><use xlink:href="#F"/><use xlink:href="#G"/><use xlink:href="#B" x="196.674"/><use xlink:href="#E" x="108.637"/><use xlink:href="#D" x="177.418"/><use xlink:href="#H"/><use xlink:href="#I"/><use xlink:href="#F" x="157.322"/><use xlink:href="#J"/><path d="M165.328 321.182l12.739-27.517h-16.754v-3.216h20.454v2.796l-12.571 27.937z"/><use xlink:href="#K"/><use xlink:href="#L"/><path d="M252.713 321.182h-3.49v-32.709h3.49z"/><use xlink:href="#M"/><use xlink:href="#E" x="47.423" y="58.996"/><use xlink:href="#I" x="-94.679" y="58.996"/><use xlink:href="#G" x="36.24" y="58.996"/><use xlink:href="#N"/><use xlink:href="#E" x="133.694" y="58.996"/><use xlink:href="#O"/><use xlink:href="#P"/><use xlink:href="#D" x="384.533"/><use xlink:href="#Q"/><path d="M632.033 250.646q0 5.634-2.838 8.808-2.838 3.153-7.841 3.153-3.09 0-5.486-1.45-2.396-1.45-3.7-4.162-1.303-2.712-1.303-6.348 0-5.634 2.817-8.766 2.817-3.153 7.82-3.153 4.835 0 7.673 3.216 2.859 3.216 2.859 8.703zm-17.553 0q0 4.414 1.766 6.727 1.766 2.312 5.192 2.312 3.426 0 5.192-2.291 1.787-2.312 1.787-6.748 0-4.393-1.787-6.664-1.766-2.291-5.234-2.291-3.426 0-5.171 2.249-1.745 2.249-1.745 6.706zm34.16-11.919q1.535 0 2.754.252l-.483 3.237q-1.429-.315-2.523-.315-2.796 0-4.793 2.27-1.976 2.27-1.976 5.655v12.36h-3.489v-23.039h2.88l.399 4.267h.168q1.282-2.249 3.09-3.468 1.808-1.219 3.973-1.219z"/><use xlink:href="#E" x="428.341"/><use xlink:href="#D" x="497.122"/><use xlink:href="#H" x="319.704"/><use xlink:href="#I" x="319.705"/><use xlink:href="#F" x="477.026"/><use xlink:href="#J" x="370.856"/><path d="M542.469 290.008q4.204 0 6.664 1.955 2.459 1.955 2.459 5.402 0 2.27-1.408 4.141-1.408 1.871-4.499 3.405 3.742 1.787 5.318 3.763 1.577 1.955 1.577 4.541 0 3.826-2.67 6.117-2.67 2.27-7.315 2.27-4.919 0-7.568-2.144-2.649-2.165-2.649-6.117 0-5.276 6.432-8.219-2.901-1.64-4.162-3.532-1.261-1.913-1.261-4.267 0-3.342 2.459-5.318 2.48-1.997 6.622-1.997zm-6.643 23.417q0 2.523 1.745 3.931 1.766 1.408 4.94 1.408 3.132 0 4.877-1.471 1.745-1.471 1.745-4.036 0-2.039-1.64-3.616-1.64-1.598-5.718-3.09-3.132 1.345-4.541 2.985-1.408 1.619-1.408 3.889zm6.601-20.58q-2.628 0-4.12 1.261-1.492 1.261-1.492 3.363 0 1.934 1.24 3.321 1.24 1.387 4.583 2.775 3.006-1.261 4.246-2.712 1.261-1.45 1.261-3.384 0-2.123-1.535-3.363-1.514-1.261-4.183-1.261z"/><use xlink:href="#F" x="310.651" y="58.996"/><use xlink:href="#R"/><path d="M623.568 321.182h-3.49v-32.709h3.49z"/><use xlink:href="#S"/><use xlink:href="#E" x="418.279" y="58.996"/><use xlink:href="#I" x="276.177" y="58.996"/><use xlink:href="#G" x="407.095" y="58.996"/><use xlink:href="#N" x="370.856"/><use xlink:href="#E" x="504.549" y="58.996"/><use xlink:href="#O" x="370.855"/><use xlink:href="#P" x="377.543"/><use xlink:href="#L" x="727.097" y="-58.996"/><path d="M973.525 272.529q-1.997 0-3.237-.526v-2.838q1.45.42 2.859.42 1.64 0 2.396-.904.778-.883.778-2.712v-26.823h3.49v26.571q0 6.811-6.285 6.811zm2.502-39.625q0-1.198.589-1.745.589-.568 1.471-.568.841 0 1.45.568.61.568.61 1.745 0 1.177-.61 1.766-.61.568-1.45.568-.883 0-1.471-.568-.589-.589-.589-1.766zm31.11 17.742q0 5.634-2.838 8.808-2.838 3.153-7.841 3.153-3.09 0-5.487-1.45-2.396-1.45-3.7-4.162-1.303-2.712-1.303-6.348 0-5.634 2.817-8.766 2.817-3.153 7.82-3.153 4.835 0 7.673 3.216 2.859 3.216 2.859 8.703zm-17.553 0q0 4.414 1.766 6.727 1.766 2.312 5.192 2.312 3.426 0 5.192-2.291 1.787-2.312 1.787-6.748 0-4.393-1.787-6.664-1.766-2.291-5.234-2.291-3.426 0-5.171 2.249-1.745 2.249-1.745 6.706zm34.16-11.919q1.535 0 2.754.252l-.483 3.237q-1.429-.315-2.523-.315-2.796 0-4.793 2.27-1.976 2.27-1.976 5.655v12.36h-3.49v-23.039h2.88l.399 4.267h.168q1.282-2.249 3.09-3.468 1.808-1.219 3.973-1.219z"/><use xlink:href="#E" x="803.445"/><use xlink:href="#C" x="923.181"/><use xlink:href="#H" x="694.808"/><use xlink:href="#I" x="694.809"/><use xlink:href="#K" x="912.334" y="-58.996"/><use xlink:href="#J" x="747.153"/><path d="M928.793 303.567q0 18.036-13.958 18.036-2.438 0-3.868-.42v-3.006q1.682.547 3.826.547 5.045 0 7.61-3.111 2.586-3.132 2.817-9.586h-.252q-1.156 1.745-3.069 2.67-1.913.904-4.309.904-4.078 0-6.474-2.438-2.396-2.438-2.396-6.811 0-4.793 2.67-7.568 2.691-2.775 7.063-2.775 3.132 0 5.465 1.619 2.354 1.598 3.616 4.688 1.261 3.069 1.261 7.252zm-10.342-10.574q-3.006 0-4.646 1.934-1.64 1.934-1.64 5.381 0 3.027 1.514 4.772 1.514 1.724 4.604 1.724 1.913 0 3.511-.778 1.619-.778 2.544-2.123.925-1.345.925-2.817 0-2.207-.862-4.078-.862-1.871-2.417-2.943-1.535-1.072-3.532-1.072z"/><use xlink:href="#F" x="686.948" y="58.996"/><use xlink:href="#R" x="376.297"/><path d="M999.865 321.182h-3.49v-32.709h3.49z"/><use xlink:href="#S" x="376.297"/><use xlink:href="#E" x="794.576" y="58.996"/><use xlink:href="#I" x="652.474" y="58.996"/><use xlink:href="#G" x="783.392" y="58.996"/><use xlink:href="#N" x="747.153"/><use xlink:href="#E" x="880.846" y="58.996"/><use xlink:href="#O" x="747.152"/><use xlink:href="#L" x="1006.199" y="-58.996"/><path d="M1258.702 239.147v14.946q0 2.817 1.282 4.204 1.282 1.387 4.015 1.387 3.616 0 5.276-1.976 1.682-1.976 1.682-6.453v-12.108h3.489v23.039h-2.88l-.505-3.09h-.189q-1.072 1.703-2.985 2.607-1.892.904-4.33.904-4.204 0-6.306-1.997-2.081-1.997-2.081-6.39v-15.072zm41.979 0v2.207l-4.267.505q.589.736 1.051 1.934.462 1.177.462 2.67 0 3.384-2.312 5.402-2.312 2.018-6.348 2.018-1.03 0-1.934-.168-2.228 1.177-2.228 2.964 0 .946.778 1.408.778.441 2.67.441h4.078q3.742 0 5.739 1.577 2.018 1.577 2.018 4.583 0 3.826-3.069 5.823-3.069 2.018-8.955 2.018-4.52 0-6.979-1.682-2.438-1.682-2.438-4.751 0-2.102 1.345-3.637 1.345-1.535 3.784-2.081-.883-.399-1.492-1.24-.589-.841-.589-1.955 0-1.261.673-2.207.673-.946 2.123-1.829-1.787-.736-2.922-2.502-1.114-1.766-1.114-4.036 0-3.784 2.27-5.823 2.27-2.06 6.432-2.06 1.808 0 3.258.42zm-18.372 26.907q0 1.871 1.577 2.838 1.577.967 4.52.967 4.393 0 6.496-1.324 2.123-1.303 2.123-3.553 0-1.871-1.156-2.607-1.156-.715-4.351-.715h-4.183q-2.375 0-3.7 1.135-1.324 1.135-1.324 3.258zm1.892-19.529q0 2.417 1.366 3.658 1.366 1.24 3.805 1.24 5.108 0 5.108-4.961 0-5.192-5.171-5.192-2.459 0-3.784 1.324-1.324 1.324-1.324 3.931zm50.618 15.661v-14.988q0-2.754-1.177-4.12-1.177-1.387-3.658-1.387-3.258 0-4.814 1.871-1.556 1.871-1.556 5.76v12.865h-3.49v-14.988q0-2.754-1.177-4.12-1.177-1.387-3.679-1.387-3.279 0-4.814 1.976-1.514 1.955-1.514 6.432v12.087h-3.49v-23.039h2.838l.568 3.153h.168q.988-1.682 2.775-2.628 1.808-.946 4.036-.946 5.402 0 7.063 3.91h.168q1.03-1.808 2.985-2.859 1.955-1.051 4.456-1.051 3.91 0 5.844 2.018 1.955 1.997 1.955 6.411v15.03z"/><use xlink:href="#G" x="1060.013"/><use xlink:href="#Q" x="783.865"/><use xlink:href="#I" x="994.848"/><path d="M1420.964 262.607q-5.108 0-8.072-3.111-2.943-3.111-2.943-8.64 0-5.571 2.733-8.85 2.754-3.279 7.378-3.279 4.33 0 6.853 2.859 2.523 2.838 2.523 7.505v2.207h-15.871q.105 4.057 2.039 6.159 1.955 2.102 5.486 2.102 3.721 0 7.357-1.556v3.111q-1.85.799-3.511 1.135-1.64.357-3.973.357zm-.946-20.958q-2.775 0-4.435 1.808-1.64 1.808-1.934 5.003h12.045q0-3.3-1.471-5.045-1.471-1.766-4.204-1.766z"/><use xlink:href="#B" x="1322.441"/><use xlink:href="#E" x="1234.404"/><use xlink:href="#D" x="1303.185"/><use xlink:href="#H" x="1125.767"/><use xlink:href="#I" x="1125.768"/><use xlink:href="#K" x="1343.293" y="-58.996"/><use xlink:href="#J" x="1109.879"/><path d="M1284.246 321.182h-3.405v-21.904q0-2.733.168-5.171-.441.441-.988.925-.547.483-5.003 4.099l-1.85-2.396 8.135-6.285h2.943zm32.078-15.408q0 7.967-2.523 11.898-2.502 3.931-7.673 3.931-4.961 0-7.547-4.015-2.586-4.036-2.586-11.814 0-8.03 2.502-11.919 2.502-3.889 7.631-3.889 5.003 0 7.589 4.057 2.607 4.057 2.607 11.751zm-16.796 0q0 6.706 1.577 9.775 1.577 3.048 5.024 3.048 3.489 0 5.045-3.09 1.577-3.111 1.577-9.733 0-6.622-1.577-9.691-1.556-3.09-5.045-3.09-3.447 0-5.024 3.048-1.577 3.027-1.577 9.733z"/><use xlink:href="#K" x="1134.515"/><use xlink:href="#L" x="1134.515"/><path d="M1387.228 321.182h-3.489v-32.709h3.489z"/><use xlink:href="#M" x="1134.515"/><use xlink:href="#E" x="1181.938" y="58.996"/><use xlink:href="#I" x="1039.836" y="58.996"/><use xlink:href="#G" x="1170.755" y="58.996"/><use xlink:href="#N" x="1134.515"/><use xlink:href="#E" x="1268.209" y="58.996"/><use xlink:href="#O" x="1134.515"/></g><path d="M239.971 178.624h74.144" class="B C D"/><g fill="#000" class="E"><use xlink:href="#T"/><use xlink:href="#T" y="-63.779"/><path d="M240.596 99.333c-3.368 0-7.143 1.633-10.001 3.572V68.209h-2.347v34.492c-1.327-2.449-3.674-3.368-6.225-3.368-3.368 0-7.143 1.633-10.001 3.572V68.209h-2.347v63.269c4.592-3.061 15.001-12.042 18.573-18.879v18.879c5.613-3.674 19.797-16.226 19.797-22.961 0-6.837-3.368-9.184-7.449-9.184zm-28.675 25.308v-19.389c2.143-1.429 3.572-2.143 5.204-2.143 2.551 0 4.592 1.633 4.592 5.409 0 5.817-5.817 12.756-9.797 16.123zm18.471 0v-19.389c1.837-1.429 3.674-2.143 5.306-2.143 2.551 0 4.592 1.633 4.592 5.409 0 5.817-6.123 12.756-9.899 16.123z"/></g><path d="M609.095 178.624h74.144" class="B C D"/><g fill="#000" class="E"><use xlink:href="#T" x="369.124"/><use xlink:href="#T" x="369.124" y="-63.779"/><path d="M599.483 105.15c1.531-1.429 3.47-2.143 5.102-2.143 2.551 0 4.592 1.633 4.592 5.409 0 5.817-6.123 12.756-10.001 16.123zm17.45 3.266c0-6.837-3.368-9.184-7.449-9.184-3.368 0-7.143 1.633-10.001 3.572V68.107h-2.347v63.269c5.613-3.674 19.797-16.226 19.797-22.961z"/></g><path d="M986.191 178.624h74.144" class="B C D"/><g fill="#000" class="E"><use xlink:href="#T" x="746.221"/><use xlink:href="#T" x="746.221" y="-63.779"/><path d="M993.991 149.643V94.843l-15.613 5.511V79.842h-2.551v54.799l15.613-5.409v20.409zm-15.613-41.023l13.062-4.796v17.144l-13.062 4.694z"/></g><path d="M1362.49 178.624h74.144" class="B C D"/><g fill="#000" class="E"><use xlink:href="#T" x="1122.52"/><use xlink:href="#T" x="1122.52" y="-63.779"/><path d="M1364.544 102.905l4.592-1.633c1.123-.408 1.633-2.959 1.633-5.306 0-2.041-.408-3.878-1.327-3.878-.102 0-.204.102-.306.102l-4.592 1.633v-12.96c0-.51-.51-.714-1.02-.714s-1.02.204-1.02.714v13.674l-8.98 3.368V84.128c0-.51-.612-.714-1.123-.714s-1.02.204-1.02.714v14.491l-4.694 1.939c-.816.408-1.327 2.857-1.327 5.102 0 1.939.306 3.776 1.327 3.776l4.694-1.735v18.164l-4.694 1.735c-.918.408-1.327 2.755-1.327 5 0 2.143.408 4.082 1.327 4.082l4.694-1.837v13.776c0 .51.51.816 1.02.816s1.123-.306 1.123-.816v-14.593l8.98-3.266v15.001c0 .51.51.714 1.02.714s1.02-.204 1.02-.714V130.05l4.592-1.633c1.123-.408 1.633-3.061 1.633-5.306 0-2.041-.408-3.776-1.327-3.776-.102 0-.204.102-.306.102l-4.592 1.633zm-2.041.816v18.062l-8.98 3.266v-18.062z"/></g></g><defs ><path id="B" d="M128.604 259.096h-.189q-2.417 3.511-7.231 3.511-4.52 0-7.042-3.09-2.502-3.09-2.502-8.787 0-5.697 2.523-8.85 2.523-3.153 7.021-3.153 4.688 0 7.189 3.405h.273l-.147-1.661-.084-1.619v-9.375h3.489v32.709h-2.838zm-6.979.589q3.574 0 5.171-1.934 1.619-1.955 1.619-6.285v-.736q0-4.898-1.64-6.979-1.619-2.102-5.192-2.102-3.069 0-4.709 2.396-1.619 2.375-1.619 6.727 0 4.414 1.619 6.664 1.619 2.249 4.751 2.249z"/><path id="C" d="M142.815 262.186h-3.49v-23.039h3.49zm-3.784-29.282q0-1.198.589-1.745.589-.568 1.471-.568.841 0 1.45.568.61.568.61 1.745 0 1.177-.61 1.766-.61.568-1.45.568-.883 0-1.471-.568-.589-.589-.589-1.766z"/><path id="D" d="M193.77 262.186h-3.489v-23.039h3.489zm-3.784-29.282q0-1.198.589-1.745.589-.568 1.471-.568.841 0 1.45.568.61.568.61 1.745 0 1.177-.61 1.766-.61.568-1.45.568-.883 0-1.471-.568-.589-.589-.589-1.766z"/><path id="E" d="M253.407 255.901q0 3.216-2.396 4.961-2.396 1.745-6.727 1.745-4.583 0-7.147-1.45v-3.237q1.661.841 3.553 1.324 1.913.483 3.679.483 2.733 0 4.204-.862 1.471-.883 1.471-2.67 0-1.345-1.177-2.291-1.156-.967-4.541-2.27-3.216-1.198-4.583-2.081-1.345-.904-2.018-2.039-.652-1.135-.652-2.712 0-2.817 2.291-4.435 2.291-1.64 6.285-1.64 3.721 0 7.273 1.514l-1.24 2.838q-3.468-1.429-6.285-1.429-2.48 0-3.742.778-1.261.778-1.261 2.144 0 .925.462 1.577.483.652 1.535 1.24 1.051.589 4.036 1.703 4.099 1.492 5.529 3.006 1.45 1.514 1.45 3.805z"/><path id="F" d="M274.827 262.186v-14.904q0-2.817-1.282-4.204-1.282-1.387-4.015-1.387-3.637 0-5.318 1.976-1.661 1.976-1.661 6.474v12.045h-3.49v-32.709h3.49v9.901q0 1.787-.168 2.964h.21q1.03-1.661 2.922-2.607 1.913-.967 4.351-.967 4.225 0 6.327 2.018 2.123 1.997 2.123 6.369v15.03z"/><path id="G" d="M295.197 262.607q-5.108 0-8.072-3.111-2.943-3.111-2.943-8.64 0-5.571 2.733-8.85 2.754-3.279 7.378-3.279 4.33 0 6.853 2.859 2.523 2.838 2.523 7.505v2.207h-15.871q.105 4.057 2.039 6.159 1.955 2.102 5.487 2.102 3.721 0 7.357-1.556v3.111q-1.85.799-3.511 1.135-1.64.357-3.973.357zm-.946-20.958q-2.775 0-4.435 1.808-1.64 1.808-1.934 5.003h12.045q0-3.3-1.471-5.045-1.471-1.766-4.204-1.766z"/><path id="H" d="M384.179 250.394l-8.009-11.246h3.973l6.075 8.829 6.054-8.829h3.931l-8.009 11.246 8.429 11.793h-3.952l-6.453-9.333-6.517 9.333h-3.952z"/><path id="I" d="M408.605 259.727q.925 0 1.787-.126.862-.147 1.366-.294v2.67q-.568.273-1.682.441-1.093.189-1.976.189-6.685 0-6.685-7.042v-13.706h-3.3v-1.682l3.3-1.45 1.471-4.919h2.018v5.339h6.685v2.712h-6.685v13.559q0 2.081.988 3.195.988 1.114 2.712 1.114z"/><path id="J" d="M148.28 309.39q0-5.571 1.619-10.426 1.64-4.856 4.709-8.514h3.405q-3.027 4.057-4.562 8.913-1.514 4.856-1.514 9.985 0 5.045 1.556 9.859 1.556 4.814 4.477 8.787h-3.363q-3.09-3.574-4.709-8.345-1.619-4.772-1.619-10.258z"/><path id="K" d="M214.623 321.182v-14.904q0-2.817-1.282-4.204-1.282-1.387-4.015-1.387-3.637 0-5.318 1.976-1.661 1.976-1.661 6.474v12.045h-3.489v-32.709h3.489v9.901q0 1.787-.168 2.964h.21q1.03-1.661 2.922-2.607 1.913-.967 4.351-.967 4.225 0 6.327 2.018 2.123 1.997 2.123 6.369v15.03z"/><path id="L" d="M239.428 321.182l-.694-3.279h-.168q-1.724 2.165-3.447 2.943-1.703.757-4.267.757-3.426 0-5.381-1.766-1.934-1.766-1.934-5.024 0-6.979 11.162-7.315l3.91-.126v-1.429q0-2.712-1.177-3.994-1.156-1.303-3.721-1.303-2.88 0-6.517 1.766l-1.072-2.67q1.703-.925 3.721-1.45 2.039-.526 4.078-.526 4.12 0 6.096 1.829 1.997 1.829 1.997 5.865v15.724zm-7.883-2.459q3.258 0 5.108-1.787 1.871-1.787 1.871-5.003v-2.081l-3.489.147q-4.162.147-6.012 1.303-1.829 1.135-1.829 3.553 0 1.892 1.135 2.88 1.156.988 3.216.988z"/><path id="M" d="M270.539 300.855h-5.865v20.327h-3.489v-20.327h-4.12v-1.577l4.12-1.261v-1.282q0-8.493 7.42-8.493 1.829 0 4.288.736l-.904 2.796q-2.018-.652-3.447-.652-1.976 0-2.922 1.324-.946 1.303-.946 4.204v1.492h5.865z"/><path id="N" d="M356.557 321.603q-2.249 0-4.12-.82-1.85-.841-3.111-2.565h-.252q.252 2.018.252 3.826v9.481h-3.489v-33.381h2.838l.483 3.153h.168q1.345-1.892 3.132-2.733 1.787-.841 4.099-.841 4.583 0 7.063 3.132 2.502 3.132 2.502 8.787 0 5.676-2.544 8.829-2.523 3.132-7.021 3.132zm-.505-20.916q-3.532 0-5.108 1.955-1.577 1.955-1.619 6.222v.778q0 4.856 1.619 6.958 1.619 2.081 5.192 2.081 2.985 0 4.667-2.417 1.703-2.417 1.703-6.664 0-4.309-1.703-6.601-1.682-2.312-4.751-2.312z"/><path id="O" d="M400.071 309.39q0 5.529-1.64 10.3-1.619 4.772-4.688 8.303h-3.363q2.922-3.952 4.477-8.766 1.556-4.835 1.556-9.88 0-5.129-1.535-9.985-1.514-4.856-4.541-8.913h3.405q3.09 3.679 4.709 8.556 1.619 4.856 1.619 10.384z"/><path id="P" d="M564.156 262.186v-14.988q0-2.754-1.177-4.12-1.177-1.387-3.658-1.387-3.258 0-4.814 1.871-1.556 1.871-1.556 5.76v12.865h-3.49v-14.988q0-2.754-1.177-4.12-1.177-1.387-3.679-1.387-3.279 0-4.814 1.976-1.514 1.955-1.514 6.432v12.087h-3.489v-23.039h2.838l.568 3.153h.168q.988-1.682 2.775-2.628 1.808-.946 4.036-.946 5.402 0 7.063 3.91h.168q1.03-1.808 2.985-2.859 1.955-1.051 4.456-1.051 3.91 0 5.844 2.018 1.955 1.997 1.955 6.411v15.03z"/><path id="Q" d="M601.51 262.186v-14.904q0-2.817-1.282-4.204-1.282-1.387-4.015-1.387-3.616 0-5.297 1.955-1.682 1.955-1.682 6.453v12.087h-3.489v-23.039h2.838l.568 3.153h.168q1.072-1.703 3.006-2.628 1.934-.946 4.309-.946 4.162 0 6.264 2.018 2.102 1.997 2.102 6.411v15.03z"/><path id="R" d="M610.283 321.182l-.694-3.279h-.168q-1.724 2.165-3.447 2.943-1.703.757-4.267.757-3.426 0-5.381-1.766-1.934-1.766-1.934-5.024 0-6.979 11.162-7.315l3.91-.126v-1.429q0-2.712-1.177-3.994-1.156-1.303-3.721-1.303-2.88 0-6.517 1.766l-1.072-2.67q1.703-.925 3.721-1.45 2.039-.526 4.078-.526 4.12 0 6.096 1.829 1.997 1.829 1.997 5.865v15.724zm-7.883-2.459q3.258 0 5.108-1.787 1.871-1.787 1.871-5.003v-2.081l-3.49.147q-4.162.147-6.012 1.303-1.829 1.135-1.829 3.553 0 1.892 1.135 2.88 1.156.988 3.216.988z"/><path id="S" d="M641.394 300.855h-5.865v20.327h-3.49v-20.327h-4.12v-1.577l4.12-1.261v-1.282q0-8.493 7.42-8.493 1.829 0 4.288.736l-.904 2.796q-2.018-.652-3.447-.652-1.976 0-2.922 1.324-.946 1.303-.946 4.204v1.492h5.865z"/><path id="T" d="M255.118 178.828c0 9.797 12.756 12.552 21.838 12.552h.51c8.572-.102 21.124-2.857 21.124-12.756 0-8.572-12.858-12.654-21.532-12.654-9.082 0-21.94 4.082-21.94 12.858zm13.266-8.062c1.531-1.531 4.184-2.347 6.837-2.347 2.143 0 4.286.51 6.021 1.735 3.266 2.347 5.817 8.368 5.817 12.756 0 1.123-.102 2.143-.51 2.959-1.123 2.245-5.204 3.878-8.98 3.878-1.633 0-3.266-.306-4.49-1.02-3.674-2.041-6.837-7.347-6.837-12.144 0-2.143.612-4.184 2.143-5.817z"/></defs></svg>