<svg xmlns="http://www.w3.org/2000/svg" xmlns:xlink="http://www.w3.org/1999/xlink" width="312.918" height="71.698" viewBox="0 0 939.153 215.026" xmlns:v="https://vecta.io/nano"><g fill="none" fill-rule="evenodd" stroke="#000"><g stroke-linecap="butt" stroke-width="2.392" stroke-linejoin="bevel"><path d="M0 141.275h939.153M0 115.763h939.153M0 90.252h939.153"/><path d="M0 64.74h939.153" fill="#666" stroke="#72ac51"/><path d="M0 39.228h939.153"/></g><g fill="#000" stroke="none"><path d="M80.26 76.067c0 2.653 2.04 5.715 5.92 5.715 3.47 0 5.92-3.06 5.92-5.715 0-3.163-2.45-5.817-5.92-5.817-3.878 0-5.92 2.653-5.92 5.817zm0-22.96c0 2.653 2.04 5.5 5.92 5.5 3.47 0 5.92-2.857 5.92-5.5 0-3.163-2.45-5.715-5.92-5.715-3.878 0-5.92 2.55-5.92 5.715zm-60.514 70.3C42.8 112.192 75.974 96.374 75.974 63.82c0-15.613-14.083-25.002-28.47-25.002-10.103 0-25.92 9.5-25.92 22.552 0 7.55 6.225 11.123 12.246 11.123 5.817 0 11.43-3.266 11.43-9.694 0-4.5-3.368-8.47-8.266-8.47-.612 0-1.327.102-2.04.204-1.327.204-3.163.816-3.878.816-2.245 0-3.266-1.225-3.266-2.755 0-.5.102-.918.306-1.43 3.47-5.613 8.572-8.062 15.817-9.184.714-.102 1.43-.204 2.143-.204 10.817 0 15.103 13.266 15.103 22.86 0 6.837-2.55 16.94-6.53 23.88-9.082 15.92-19.4 22.348-35.512 32.655l.612 2.245zm290.21 87.867h-3.574V180.55h17.132v3.174h-13.56v11.246h12.74v3.174h-12.74v13.138zm287.468 0l-10.426-27.243h-.168q.294 3.237.294 7.694v19.55h-3.3v-30.733h5.38l9.733 25.35h.168l9.817-25.35h5.34v30.733h-3.574v-19.802q0-3.405.294-7.4h-.168l-10.5 27.2h-2.88zm28.2 0h-3.5v-23.04h3.5v23.04zm-3.784-29.282q0-1.198.6-1.745.6-.568 1.47-.568.84 0 1.45.568.6.568.6 1.745 0 1.177-.6 1.766-.6.568-1.45.568-.883 0-1.47-.568-.6-.6-.6-1.766zm26.823 26.192h-.2q-2.417 3.5-7.23 3.5-4.52 0-7.042-3.1-2.502-3.1-2.502-8.787 0-5.697 2.523-8.85 2.523-3.153 7.02-3.153 4.688 0 7.2 3.405h.273l-.147-1.66-.084-1.62v-9.375h3.5v32.7h-2.838l-.462-3.1zm-6.98.6q3.574 0 5.17-1.934 1.62-1.955 1.62-6.285v-.736q0-4.898-1.64-6.98-1.62-2.102-5.192-2.102-3.07 0-4.7 2.396-1.62 2.375-1.62 6.727 0 4.414 1.62 6.664 1.62 2.25 4.75 2.25zm33.383-.6h-.2q-2.417 3.5-7.23 3.5-4.52 0-7.042-3.1-2.502-3.1-2.502-8.787 0-5.697 2.523-8.85 2.523-3.153 7.02-3.153 4.688 0 7.2 3.405h.273l-.147-1.66-.084-1.62v-9.375h3.5v32.7h-2.838l-.462-3.1zm-6.98.6q3.574 0 5.17-1.934 1.62-1.955 1.62-6.285v-.736q0-4.898-1.64-6.98-1.62-2.102-5.192-2.102-3.07 0-4.7 2.396-1.62 2.375-1.62 6.727 0 4.414 1.62 6.664 1.62 2.25 4.75 2.25zm21.2 2.5h-3.5v-32.7h3.5v32.7zm17.175.42q-5.108 0-8.072-3.1-2.943-3.1-2.943-8.64 0-5.57 2.733-8.85 2.754-3.28 7.378-3.28 4.33 0 6.853 2.86 2.523 2.838 2.523 7.505v2.207h-15.87q.105 4.057 2.04 6.16 1.955 2.102 5.487 2.102 3.72 0 7.357-1.556v3.1q-1.85.8-3.5 1.135-1.64.357-3.973.357zm-.946-20.958q-2.775 0-4.435 1.808-1.64 1.808-1.934 5.003H711.2q0-3.3-1.47-5.045-1.47-1.766-4.204-1.766zm40.296-7.442q-5.066 0-8 3.384-2.922 3.363-2.922 9.228 0 6.033 2.817 9.333 2.838 3.28 8.072 3.28 3.216 0 7.336-1.156v3.132q-3.195 1.198-7.883 1.198-6.8 0-10.5-4.12-3.68-4.12-3.68-11.7 0-4.75 1.766-8.324 1.787-3.574 5.13-5.508 3.363-1.934 7.904-1.934 4.835 0 8.45 1.766l-1.514 3.07q-3.5-1.64-6.98-1.64z"/><use xlink:href="#B"/></g><path d="M630.62 13.716h74.144" stroke-linecap="butt" stroke-width="2.392" stroke-linejoin="bevel"/><use xlink:href="#B" x="351.585" y="-51.024" fill="#000" stroke="none"/></g><defs ><path id="B" d="M294.183 64.944c0 9.797 12.756 12.552 21.838 12.552h.5c8.572-.102 21.124-2.857 21.124-12.756 0-8.572-12.858-12.654-21.532-12.654-9.082 0-21.94 4.082-21.94 12.858zm13.266-8.062c1.53-1.53 4.184-2.347 6.837-2.347 2.143 0 4.286.5 6.02 1.735 3.266 2.347 5.817 8.368 5.817 12.756 0 1.123-.102 2.143-.5 2.96-1.123 2.245-5.204 3.878-8.98 3.878-1.633 0-3.266-.306-4.5-1.02-3.674-2.04-6.837-7.347-6.837-12.144 0-2.143.612-4.184 2.143-5.817z"/></defs></svg>