<svg xmlns="http://www.w3.org/2000/svg" xmlns:xlink="http://www.w3.org/1999/xlink" width="269.091" height="150.932" viewBox="0 0 807.609 452.661" xmlns:v="https://vecta.io/nano"><style><![CDATA[.B{stroke-linecap:butt}.C{stroke-linejoin:bevel}.D{stroke:none}.E{stroke-width:2.392}]]></style><g fill="none" stroke="#000" fill-rule="evenodd"><path d="M33.485 103.905v344.409" stroke-width="3.189" class="B C"/><path d="M0 276.796c9.184 6.544 15.307 15.498 15.307 27.897 0 16.876-12.926 47.873-12.926 76.459 0 18.943 5.442 39.952 22.79 66.127-8.504-15.498-14.286-28.242-14.286-45.462v-4.133c1.02-25.831 14.286-55.45 14.286-74.737 0-24.109-6.803-34.097-24.491-46.84 18.028-11.71 24.491-23.42 24.491-46.84 0-19.287-13.266-48.906-14.286-74.737v-3.789c0-16.876 6.463-29.619 14.286-45.462v-1.378c-17.348 24.797-22.79 48.906-22.79 67.16 0 28.93 12.926 59.583 12.926 76.459 0 12.399-6.123 21.353-15.307 27.897zM268.112 33.327l-1.019-1.472c-3.623 4.019-7.925 6-12.906 6-8.547 0-14.038-6.793-14.038-16.868 0-10.245 5.208-17.321 13.698-17.321 6.623 0 11.094 4.359 12.453 10.981h1.585V1.402h-1.925c-.509 1.415-1.245 2.151-2.151 2.151-.509 0-6.849-2.377-10.755-2.377-11.038 0-19.132 9.283-19.132 20.264 0 11.264 7.472 18.849 18.679 18.849 6.566 0 11.717-2.321 15.51-6.962zm21.136-31.359l-2.943-.906-17.717 49.642 2.491.792zm39.288 18.793c0-8.434-3.906-14.321-11.717-17.151-2.83-1.019-5.547-1.528-8.208-1.528h-18v1.245c4.698 0 5.094.962 5.094 5.547v23.887c0 4.585-.396 5.547-5.094 5.547v1.245h15.849c13.755 0 22.076-6.849 22.076-18.793zm-6.113.34c0 10.415-5.717 16.076-16.302 16.076-4.528 0-4.642-.792-4.642-5.208V9.327c0-4.528-.057-5.208 4.528-5.208 10.472 0 16.415 6.679 16.415 16.981zM528.959 4.119h8.264c5.151 0 7.019 1.189 8.377 6.226h1.019V2.082h-28.302V3.1c4.755 0 5.321.849 5.321 5.66v24.113c0 4.811-.566 5.66-5.321 5.66v1.019h16.076v-1.019c-4.755 0-5.434-.849-5.434-5.66V21.101h6.906c3.623 0 4.868 1.528 4.868 5.321h1.019v-12.68h-1.019c-.453 3.623-1.415 5.094-4.868 5.094h-6.906zm38.959-2.151l-2.943-.906-17.717 49.642 2.491.792zm40.533 37.586v-1.245c-2.717-.113-3.396-.509-5.547-5.66l-13.019-31.36h-1.472l-14.038 33.17c-1.075 2.434-2.717 3.679-4.981 3.849v1.245h11.321v-1.245c-2.491 0-3.736-.736-3.736-2.151 0-1.528 1.585-5.377 3.17-8.717h14.83c1.472 3.283 2.943 7.132 2.943 8.717 0 1.415-1.245 2.151-3.736 2.151v1.245zm-20.83-29.547l6.566 14.83h-12.906z" fill="#000" class="D"/><path d="M31.89 205.952h775.718M31.89 180.44h775.718M31.89 154.929h775.718M31.89 129.417h775.718M31.89 103.905h775.718" class="B C E"/><path d="M78.067 216.769c-7.756.102-12.96 6.633-12.96 11.531 0 11.429 11.123 17.552 20.001 17.552 8.164 0 20.614-5.817 20.614-17.042 0-1.327-.102-2.653-.51-4.082l-5.204-21.022c13.572-5.715 19.083-20.716 19.185-28.675v-.51c0-15.511-10.205-23.063-21.022-24.695-1.123-.204-2.449-.204-3.776-.204-2.755 0-5.715.306-7.347.918l-4.898-18.675c12.348-12.552 19.899-26.43 19.899-42.452v-.612c-.204-17.654-11.633-34.186-15.919-34.9-4.592 1.531-15.511 19.287-15.715 32.961v1.123c0 13.062 3.368 20.614 6.021 31.329-8.266 8.572-25.41 26.94-25.41 46.84 0 21.022 13.674 39.39 36.941 39.39a46.78 46.78 0 0 0 9.694-1.02l5.102 21.022c.306 1.123.408 2.143.408 3.163 0 8.878-9.388 14.695-17.858 14.695-5.306 0-11.633-4.592-12.144-8.674 1.225.918 2.653 1.225 4.082 1.225 5.102 0 10.817-4.49 10.817-8.878 0-5.102-3.572-10.103-10.001-10.307zM89.19 65.127c4.592 1.123 7.96 13.572 7.96 21.43-.102 11.123-12.042 23.675-18.675 30.818-2.041-8.368-4.388-14.491-4.388-27.247 0-13.47 11.327-24.593 15.103-25.002zm-5.102 86.434c-8.776 3.368-12.144 10.001-12.144 18.777 0 1.02 0 2.041.102 3.061.918 12.144 9.286 18.777 14.083 20.103-5.715-4.592-9.694-8.776-9.797-16.328 0-6.939 2.959-12.246 11.021-14.083l9.286 37.349c-2.347.714-7.347 1.02-10.817 1.02-1.123 0-2.143 0-2.755-.102-16.94-1.735-24.9-17.552-24.9-31.226.102-15.001 18.062-32.043 21.94-36.329zm5.715 11.123c1.939-.306 3.878-.51 5.715-.51 9.184 0 16.021 4.082 17.348 9.899.408 2.041.612 3.98.612 5.919 0 9.899-5.715 17.96-14.491 21.838z" fill="#000" class="D"/><path d="M31.89 448.314h775.718M31.89 422.803h775.718M31.89 397.291h775.718M31.89 371.779h775.718M31.89 346.267h775.718" class="B C E"/><path d="M112.15 383.106c0 2.653 2.041 5.715 5.919 5.715 3.47 0 5.919-3.061 5.919-5.715 0-3.163-2.449-5.817-5.919-5.817-3.878 0-5.919 2.653-5.919 5.817zm0-22.961c0 2.653 2.041 5.511 5.919 5.511 3.47 0 5.919-2.857 5.919-5.511 0-3.163-2.449-5.715-5.919-5.715-3.878 0-5.919 2.551-5.919 5.715zm-60.514 70.311c23.063-11.225 56.228-27.043 56.228-59.596 0-15.613-14.083-25.002-28.471-25.002-10.103 0-25.92 9.49-25.92 22.552 0 7.551 6.225 11.123 12.246 11.123 5.817 0 11.429-3.266 11.429-9.694 0-4.49-3.368-8.47-8.266-8.47-.612 0-1.327.102-2.041.204-1.327.204-3.163.816-3.878.816-2.245 0-3.266-1.225-3.266-2.755 0-.51.102-.918.306-1.429 3.47-5.613 8.572-8.062 15.817-9.184.714-.102 1.429-.204 2.143-.204 10.817 0 15.103 13.266 15.103 22.859 0 6.837-2.551 16.94-6.531 23.879-9.082 15.919-19.389 22.348-35.512 32.655z" fill="#000" class="D"/><path d="M246.349 231.464h74.144" class="B C E"/><g fill="#000" class="D"><use xlink:href="#B"/><use xlink:href="#B" y="-25.512"/><use xlink:href="#B" y="-51.023"/><use xlink:href="#B" x="283.022" y="-38.268"/><use xlink:href="#B" x="283.022" y="-63.779"/><use xlink:href="#B" x="283.022" y="-89.291"/><use xlink:href="#B" y="165.827"/><use xlink:href="#B" x="283.022" y="204.095"/></g></g><defs ><path id="B" d="M261.496 231.668c0 9.797 12.756 12.552 21.838 12.552h.51c8.572-.102 21.124-2.857 21.124-12.756 0-8.572-12.858-12.654-21.532-12.654-9.082 0-21.94 4.082-21.94 12.858zm13.266-8.062c1.531-1.531 4.184-2.347 6.837-2.347 2.143 0 4.286.51 6.021 1.735 3.266 2.347 5.817 8.368 5.817 12.756 0 1.123-.102 2.143-.51 2.959-1.123 2.245-5.204 3.878-8.98 3.878-1.633 0-3.266-.306-4.49-1.02-3.674-2.041-6.837-7.347-6.837-12.144 0-2.143.612-4.184 2.143-5.817z"/></defs></svg>