<svg xmlns="http://www.w3.org/2000/svg" xmlns:xlink="http://www.w3.org/1999/xlink" width="402.969" height="107.444" viewBox="0 0 1209.419 322.235" xmlns:v="https://vecta.io/nano"><g fill="none" stroke="#000" fill-rule="evenodd"><g fill="#000" stroke="none"><use xlink:href="#B"/><use xlink:href="#B" x="333.248"/><path d="M607.349 1.968l-2.943-.906-17.717 49.642 2.491.792zm34.759 27.963h-1.698c-1.075 3.906-4.359 7.019-8.264 7.019h-9.51c-2.434 0-3.057-1.189-3.057-3.736v-11.66h9.962c3.34 0 5.547 2.094 5.547 5.434h1.245V13.516h-1.245c0 3.34-2.208 5.434-5.547 5.434h-9.962V8.421c0-2.547.623-3.736 3.057-3.736h9.962c3.17 0 4.925 1.981 5.321 5.887h1.245v-8.49h-30.453v1.245c4.698 0 5.094.962 5.094 5.547v23.887c0 4.585-.396 5.547-5.094 5.547v1.245h30.906z"/><use xlink:href="#B" x="690.408"/><path d="M964.509 1.968l-2.943-.906-17.717 49.642 2.491.792zm35.325-.792h-1.019c-.057 1.585-.509 2.377-1.359 2.377-.283 0-.962-.17-2.038-.566-3.34-1.189-6.17-1.811-8.491-1.811-11.604 0-19.812 9.34-19.812 20.264 0 11.717 8.943 18.962 20.717 18.962a27.12 27.12 0 0 0 13.132-3.34V25.629c0-3.962.283-5.434 4.189-5.434v-1.132h-14.491v1.132c4.359 0 4.868 1.132 4.868 5.434v10.868c-2.434 1.359-4.981 2.038-7.698 2.038-8.377 0-14.377-8.038-14.377-18.34 0-9.962 5.377-17.095 14.038-17.095 6.057 0 10.132 3.34 12.34 9.962h.906z"/></g><path d="M0 205.952h1209.419M0 180.44h1209.419M0 154.929h1209.419M0 129.417h1209.419M0 103.905h1209.419" stroke-linecap="butt" stroke-width="2.392" stroke-linejoin="bevel"/><g fill="#000" stroke="none"><path d="M46.177 216.769c-7.756.102-12.96 6.633-12.96 11.531 0 11.429 11.123 17.552 20.001 17.552 8.164 0 20.614-5.817 20.614-17.042 0-1.327-.102-2.653-.51-4.082l-5.204-21.022c13.572-5.715 19.083-20.716 19.185-28.675v-.51c0-15.511-10.205-23.063-21.022-24.695-1.123-.204-2.449-.204-3.776-.204-2.755 0-5.715.306-7.347.918l-4.898-18.675c12.348-12.552 19.899-26.43 19.899-42.452v-.612c-.204-17.654-11.633-34.186-15.919-34.9-4.592 1.531-15.511 19.287-15.715 32.961v1.123c0 13.062 3.368 20.614 6.021 31.329-8.266 8.572-25.41 26.94-25.41 46.84 0 21.022 13.674 39.39 36.941 39.39a46.78 46.78 0 0 0 9.694-1.02l5.102 21.022a11.72 11.72 0 0 1 .408 3.163c0 8.878-9.388 14.695-17.858 14.695-5.306 0-11.633-4.592-12.144-8.674 1.225.918 2.653 1.225 4.082 1.225 5.102 0 10.817-4.49 10.817-8.878 0-5.102-3.572-10.103-10.001-10.307zM57.3 65.127c4.592 1.123 7.96 13.572 7.96 21.43-.102 11.123-12.042 23.675-18.675 30.818-2.041-8.368-4.388-14.491-4.388-27.247 0-13.47 11.327-24.593 15.103-25.002zm-5.102 86.434c-8.776 3.368-12.144 10.001-12.144 18.777 0 1.02 0 2.041.102 3.061.918 12.144 9.286 18.777 14.083 20.103-5.715-4.592-9.694-8.776-9.797-16.328 0-6.939 2.959-12.246 11.021-14.083l9.286 37.349c-2.347.714-7.347 1.02-10.817 1.02-1.123 0-2.143 0-2.755-.102-16.94-1.735-24.9-17.552-24.9-31.226.102-15.001 18.062-32.043 21.94-36.329zm5.715 11.123c1.939-.306 3.878-.51 5.715-.51 9.184 0 16.021 4.082 17.348 9.899.408 2.041.612 3.98.612 5.919 0 9.899-5.715 17.96-14.491 21.838zm53.528 133.184v12.781h-3.574v-30.733h8.429q5.655 0 8.345 2.165 2.712 2.165 2.712 6.517 0 6.096-6.18 8.24l8.345 13.811h-4.225l-7.441-12.781zm0-3.069h4.898q3.784 0 5.55-1.492 1.766-1.514 1.766-4.52 0-3.048-1.808-4.393-1.787-1.345-5.76-1.345h-4.646z"/><use xlink:href="#C"/><use xlink:href="#C" x="25.982"/><use xlink:href="#D"/><path d="M223.084 309.069q-2.249 0-4.12-.82-1.85-.841-3.111-2.565h-.252q.252 2.018.252 3.826v9.481h-3.49v-33.381h2.838l.483 3.153h.168q1.345-1.892 3.132-2.733 1.787-.841 4.099-.841 4.583 0 7.063 3.132 2.502 3.132 2.502 8.787 0 5.676-2.544 8.829-2.523 3.132-7.021 3.132zm-.505-20.916q-3.532 0-5.108 1.955-1.577 1.955-1.619 6.222v.778q0 4.856 1.619 6.958 1.619 2.081 5.192 2.081 2.985 0 4.667-2.417 1.703-2.417 1.703-6.664 0-4.309-1.703-6.601-1.682-2.312-4.751-2.312z"/><use xlink:href="#C" x="104.769"/><use xlink:href="#E"/><use xlink:href="#F"/><use xlink:href="#D" x="110.235"/><use xlink:href="#F" x="26.15"/><use xlink:href="#C" x="188.349"/><use xlink:href="#G"/><path d="M476.635 308.648h-3.405v-21.904q0-2.733.168-5.171-.441.441-.988.925-.547.483-5.003 4.099l-1.85-2.396 8.135-6.285h2.943z"/><use xlink:href="#E" x="225.194"/><path d="M517.899 306.189q.925 0 1.787-.126.862-.147 1.366-.294v2.67q-.568.273-1.682.441-1.093.189-1.976.189-6.685 0-6.685-7.042v-13.706h-3.3v-1.682l3.3-1.45 1.471-4.919h2.018v5.339h6.685v2.712H514.2v13.559q0 2.081.988 3.195.988 1.114 2.712 1.114z"/><use xlink:href="#F" x="251.596"/><use xlink:href="#H"/><use xlink:href="#I"/><path d="M605.536 309.069q-5.108 0-8.072-3.111-2.943-3.111-2.943-8.64 0-5.571 2.733-8.85 2.754-3.279 7.378-3.279 4.33 0 6.853 2.859 2.523 2.838 2.523 7.505v2.207h-15.871q.105 4.057 2.039 6.159 1.955 2.102 5.487 2.102 3.721 0 7.357-1.556v3.111q-1.85.799-3.511 1.135-1.64.357-3.973.357zm-.946-20.958q-2.775 0-4.435 1.808-1.64 1.808-1.934 5.003h12.045q0-3.3-1.471-5.045-1.471-1.766-4.204-1.766zm25.856-2.922q1.535 0 2.754.252l-.483 3.237q-1.429-.315-2.523-.315-2.796 0-4.793 2.27-1.976 2.27-1.976 5.655v12.36h-3.489v-23.039h2.88l.399 4.267h.168q1.282-2.249 3.09-3.468 1.808-1.219 3.973-1.219z"/><use xlink:href="#E" x="372.762"/><use xlink:href="#F" x="372.761"/><use xlink:href="#C" x="534.961"/><use xlink:href="#H" x="147.148"/><path d="M836.289 308.648h-20.201v-3.006l8.093-8.135q3.7-3.742 4.877-5.339 1.177-1.598 1.766-3.111.589-1.514.589-3.258 0-2.459-1.492-3.889-1.492-1.45-4.141-1.45-1.913 0-3.637.631-1.703.631-3.805 2.291l-1.85-2.375q4.246-3.532 9.249-3.532 4.33 0 6.79 2.228 2.459 2.207 2.459 5.949 0 2.922-1.64 5.781-1.64 2.859-6.138 7.231l-6.727 6.58v.168h15.808z"/><use xlink:href="#H" x="294.531"/><path d="M884.407 305.558h-.189q-2.417 3.511-7.231 3.511-4.52 0-7.042-3.09-2.502-3.09-2.502-8.787 0-5.697 2.523-8.85 2.523-3.153 7.021-3.153 4.688 0 7.189 3.405h.273l-.147-1.661-.084-1.619v-9.375h3.49v32.709h-2.838zm-6.979.589q3.574 0 5.171-1.934 1.619-1.955 1.619-6.285v-.736q0-4.898-1.64-6.979-1.619-2.102-5.192-2.102-3.069 0-4.709 2.396-1.619 2.375-1.619 6.727 0 4.414 1.619 6.664 1.619 2.249 4.751 2.249z"/><use xlink:href="#F" x="621.046"/><use xlink:href="#G" x="568.914"/><use xlink:href="#I" x="369.45"/><path d="M974.986 309.069q-5.108 0-8.072-3.111-2.943-3.111-2.943-8.64 0-5.571 2.733-8.85 2.754-3.279 7.378-3.279 4.33 0 6.853 2.859 2.523 2.838 2.523 7.505v2.207h-15.871q.105 4.057 2.039 6.159 1.955 2.102 5.486 2.102 3.721 0 7.357-1.556v3.111q-1.85.799-3.511 1.135-1.64.357-3.973.357zm-.946-20.958q-2.775 0-4.435 1.808-1.64 1.808-1.934 5.003h12.045q0-3.3-1.471-5.045-1.471-1.766-4.204-1.766zm25.856-2.922q1.535 0 2.754.252l-.483 3.237q-1.429-.315-2.523-.315-2.796 0-4.793 2.27-1.976 2.27-1.976 5.655v12.36h-3.49v-23.039h2.88l.399 4.267h.168q1.282-2.249 3.09-3.468 1.808-1.219 3.973-1.219z"/><use xlink:href="#E" x="742.212"/><use xlink:href="#F" x="742.212"/><path d="M1058.293 297.108q0 5.634-2.838 8.808-2.838 3.153-7.841 3.153-3.09 0-5.486-1.45-2.396-1.45-3.7-4.162-1.303-2.712-1.303-6.348 0-5.634 2.817-8.766 2.817-3.153 7.82-3.153 4.835 0 7.673 3.216 2.859 3.216 2.859 8.703zm-17.553 0q0 4.414 1.766 6.727 1.766 2.312 5.192 2.312 3.426 0 5.192-2.291 1.787-2.312 1.787-6.748 0-4.393-1.787-6.664-1.766-2.291-5.234-2.291-3.426 0-5.171 2.249-1.745 2.249-1.745 6.706z"/><use xlink:href="#H" x="516.598"/></g><path d="M202.5 231.464h74.144" stroke-linecap="butt" stroke-width="2.392" stroke-linejoin="bevel"/><g fill="#000" stroke="none"><use xlink:href="#J"/><use xlink:href="#J" y="-25.512"/><use xlink:href="#J" y="-51.023"/><use xlink:href="#J" x="359.557" y="-25.512"/><use xlink:href="#J" x="359.557" y="-51.023"/><use xlink:href="#J" x="359.557" y="-89.291"/><use xlink:href="#J" x="719.911" y="-114.803"/><use xlink:href="#J" x="719.911" y="-89.291"/><use xlink:href="#J" x="719.911" y="-51.023"/></g></g><defs ><path id="B" d="M252.965 33.327l-1.019-1.472c-3.623 4.019-7.925 6-12.906 6-8.547 0-14.038-6.793-14.038-16.868 0-10.245 5.208-17.321 13.698-17.321 6.623 0 11.094 4.359 12.453 10.981h1.585V1.402h-1.925c-.509 1.415-1.245 2.151-2.151 2.151-.509 0-6.849-2.377-10.755-2.377-11.038 0-19.132 9.283-19.132 20.264 0 11.264 7.472 18.849 18.679 18.849 6.566 0 11.717-2.321 15.51-6.962z"/><path id="C" d="M153.882 297.108q0 5.634-2.838 8.808-2.838 3.153-7.841 3.153-3.09 0-5.487-1.45-2.396-1.45-3.7-4.162-1.303-2.712-1.303-6.348 0-5.634 2.817-8.766 2.817-3.153 7.82-3.153 4.835 0 7.673 3.216 2.859 3.216 2.859 8.703zm-17.553 0q0 4.414 1.766 6.727 1.766 2.312 5.192 2.312 3.426 0 5.192-2.291 1.787-2.312 1.787-6.748 0-4.393-1.787-6.664-1.766-2.291-5.234-2.291-3.426 0-5.171 2.249-1.745 2.249-1.745 6.706z"/><path id="D" d="M193.402 306.189q.925 0 1.787-.126.862-.147 1.366-.294v2.67q-.568.273-1.682.441-1.093.189-1.976.189-6.685 0-6.685-7.042v-13.706h-3.3v-1.682l3.3-1.45 1.471-4.919h2.018v5.339h6.685v2.712h-6.685v13.559q0 2.081.988 3.195.988 1.114 2.712 1.114z"/><path id="E" d="M279.609 302.363q0 3.216-2.396 4.961-2.396 1.745-6.727 1.745-4.583 0-7.147-1.45v-3.237q1.661.841 3.553 1.324 1.913.483 3.679.483 2.733 0 4.204-.862 1.471-.883 1.471-2.67 0-1.345-1.177-2.291-1.156-.967-4.541-2.27-3.216-1.198-4.583-2.081-1.345-.904-2.018-2.039-.652-1.135-.652-2.712 0-2.817 2.291-4.435 2.291-1.64 6.285-1.64 3.721 0 7.273 1.514l-1.24 2.838q-3.468-1.429-6.285-1.429-2.48 0-3.742.778-1.261.778-1.261 2.144 0 .925.462 1.577.483.652 1.535 1.24 1.051.589 4.036 1.703 4.099 1.492 5.529 3.006 1.45 1.514 1.45 3.805z"/><path id="F" d="M288.754 308.648h-3.489v-23.039h3.489zm-3.784-29.282q0-1.198.589-1.745.589-.568 1.471-.568.841 0 1.45.568.61.568.61 1.745 0 1.177-.61 1.766-.61.568-1.45.568-.883 0-1.471-.568-.589-.589-.589-1.766z"/><path id="G" d="M364.093 308.648v-14.904q0-2.817-1.282-4.204-1.282-1.387-4.015-1.387-3.616 0-5.297 1.955-1.682 1.955-1.682 6.453v12.087h-3.49v-23.039h2.838l.568 3.153h.168q1.072-1.703 3.006-2.628 1.934-.946 4.309-.946 4.162 0 6.264 2.018 2.102 1.997 2.102 6.411v15.03z"/><path id="H" d="M563.557 308.648v-14.904q0-2.817-1.282-4.204-1.282-1.387-4.015-1.387-3.616 0-5.297 1.955-1.682 1.955-1.682 6.453v12.087h-3.489v-23.039h2.838l.568 3.153h.168q1.072-1.703 3.006-2.628 1.934-.946 4.309-.946 4.162 0 6.264 2.018 2.102 1.997 2.102 6.411v15.03z"/><path id="I" d="M579.239 308.648l-8.745-23.039h3.742l4.961 13.664q1.682 4.793 1.976 6.222h.168q.231-1.114 1.45-4.604 1.24-3.511 5.529-15.282h3.742l-8.745 23.039z"/><path id="J" d="M217.648 231.668c0 9.797 12.756 12.552 21.838 12.552h.51c8.572-.102 21.124-2.857 21.124-12.756 0-8.572-12.858-12.654-21.532-12.654-9.082 0-21.94 4.082-21.94 12.858zm13.266-8.062c1.531-1.531 4.184-2.347 6.837-2.347 2.143 0 4.286.51 6.021 1.735 3.266 2.347 5.817 8.368 5.817 12.756 0 1.123-.102 2.143-.51 2.959-1.123 2.245-5.204 3.878-8.98 3.878-1.633 0-3.266-.306-4.49-1.02-3.674-2.041-6.837-7.347-6.837-12.144 0-2.143.612-4.184 2.143-5.817z"/></defs></svg>