<svg xmlns="http://www.w3.org/2000/svg" xmlns:xlink="http://www.w3.org/1999/xlink" width="524.1" height="106.261" viewBox="0 0 1572.962 318.689" xmlns:v="https://vecta.io/nano"><g fill="none" stroke="#000" fill-rule="evenodd"><g fill="#000" stroke="none"><path d="M197.955 34.119l-1.019-1.472c-3.623 4.019-7.925 6-12.906 6-8.547 0-14.038-6.793-14.038-16.868 0-10.245 5.208-17.321 13.698-17.321 6.623 0 11.094 4.359 12.453 10.981h1.585V2.194h-1.925c-.509 1.415-1.245 2.151-2.151 2.151-.509 0-6.849-2.377-10.755-2.377-11.038 0-19.132 9.283-19.132 20.264 0 11.264 7.472 18.849 18.679 18.849 6.566 0 11.717-2.321 15.51-6.962zm190.752-12.566c0-8.434-3.906-14.321-11.717-17.151-2.83-1.019-5.547-1.528-8.208-1.528h-18v1.245c4.698 0 5.094.962 5.094 5.547v23.887c0 4.585-.396 5.547-5.094 5.547v1.245h15.849c13.755 0 22.076-6.849 22.076-18.793zm-6.113.34c0 10.415-5.717 16.076-16.302 16.076-4.528 0-4.642-.792-4.642-5.208V10.119c0-4.528-.057-5.208 4.528-5.208 10.472 0 16.415 6.679 16.415 16.981z"/><use xlink:href="#B"/><path d="M595.449 30.723h-1.698c-1.075 3.906-4.359 7.019-8.264 7.019h-9.51c-2.434 0-3.057-1.189-3.057-3.736v-11.66h9.962c3.34 0 5.547 2.094 5.547 5.434h1.245V14.308h-1.245c0 3.34-2.208 5.434-5.547 5.434h-9.962V9.213c0-2.547.623-3.736 3.057-3.736h9.962c3.17 0 4.925 1.981 5.321 5.887h1.245v-8.49h-30.453v1.245c4.698 0 5.094.962 5.094 5.547v23.887c0 4.585-.396 5.547-5.094 5.547v1.245h30.906zm39.906 9.623v-.906c-2.717 0-3.34-.849-3.34-4.302V23.817c0-1.302-1.132-4.642-2.038-5.604-.849-.792-2.038-1.189-3.679-1.189-3.226 0-6.057 1.359-8.547 4.189-.566-2.83-2.264-4.189-5.094-4.189-3.057 0-5.604 1.359-7.868 4.076v-4.076l-7.642 2.434v.906h2.434c.623.226.906.906.906 2.038v12.736c0 3.453-.623 4.302-3.34 4.302v.906h10.698v-.906c-2.208 0-3.057-.849-3.057-3.566V22.742c1.698-2.208 3.566-3.283 5.604-3.283 2.377 0 3.566 1.359 3.566 4.189v11.83c0 3.226-.849 3.962-3.057 3.962v.906H621.6v-.906c-2.717 0-3.34-.849-3.34-4.302l.057-3.962v-5.094c-.057-1.811-.113-3-.283-3.453 1.811-2.094 3.792-3.17 5.83-3.17 2.547 0 3.849 1.359 3.849 4.189v11.83c0 3.226-.849 3.962-3.057 3.962v.906zM802.413 4.911h8.264c5.151 0 7.019 1.189 8.377 6.226h1.019V2.874h-28.302v1.019c4.755 0 5.321.849 5.321 5.66v24.113c0 4.811-.566 5.66-5.321 5.66v1.019h16.076v-1.019c-4.755 0-5.434-.849-5.434-5.66V21.893h6.906c3.623 0 4.868 1.528 4.868 5.321h1.019v-12.68h-1.019c-.453 3.623-1.415 5.094-4.868 5.094h-6.906zm226.501-2.943h-1.019c-.057 1.585-.509 2.377-1.359 2.377-.283 0-.962-.17-2.038-.566-3.34-1.189-6.17-1.811-8.491-1.811-11.604 0-19.812 9.34-19.812 20.264 0 11.717 8.943 18.962 20.717 18.962a27.12 27.12 0 0 0 13.132-3.34V26.421c0-3.962.283-5.434 4.189-5.434v-1.132h-14.491v1.132c4.359 0 4.868 1.132 4.868 5.434v10.868c-2.434 1.359-4.981 2.038-7.698 2.038-8.377 0-14.377-8.038-14.377-18.34 0-9.962 5.377-17.095 14.038-17.095 6.057 0 10.132 3.34 12.34 9.962h.906zm194.158 38.378V39.1c-2.717-.113-3.396-.509-5.547-5.66l-13.019-31.359h-1.472l-14.038 33.17c-1.075 2.434-2.717 3.679-4.981 3.849v1.245h11.321V39.1c-2.491 0-3.736-.736-3.736-2.151 0-1.528 1.585-5.377 3.17-8.717h14.83c1.472 3.283 2.943 7.132 2.943 8.717 0 1.415-1.245 2.151-3.736 2.151v1.245zm-20.83-29.547l6.566 14.83h-12.906z"/><use xlink:href="#B" x="834.225"/><path d="M1427.715 20.874c4.245-1.189 7.245-4.189 7.245-8.264 0-5.66-5.604-9.736-12.113-9.736h-18.906v1.245c4.642 0 5.094 1.075 5.094 5.66v23.774c0 4.585-.396 5.547-5.094 5.547v1.245h20.717c5.83 0 11.887-4.472 11.887-10.415-.057-4.019-3.396-7.925-8.83-9.057zm-5.547-1.132h-7.359V9.553c0-3 .509-4.076 3.396-4.076h3.849c4.245 0 7.359 3.113 7.359 7.359s-3 6.906-7.245 6.906zm-7.359 15.283v-12.68h7.359c4.415 0 8.151 3.057 8.151 7.472 0 3.792-1.698 8.264-8.943 8.264-2.434 0-5.604-.34-6.113-.849-.283-.283-.453-1.019-.453-2.208zm23.343-23.208a10.755 10.755 0 1 0 21.51 0 10.755 10.755 0 1 0-21.51 0zm3.17 0c0-4.189 3.396-7.585 7.585-7.585s7.585 3.396 7.585 7.585-3.396 7.585-7.585 7.585-7.585-3.396-7.585-7.585z"/></g><path d="M0 206.744h1572.962M0 181.232h1572.962M0 155.721h1572.962M0 130.209h1572.962M0 104.697h1572.962" stroke-linecap="butt" stroke-width="2.392" stroke-linejoin="bevel"/><path d="M46.177 217.561c-7.756.102-12.96 6.633-12.96 11.531 0 11.429 11.123 17.552 20.001 17.552 8.164 0 20.614-5.817 20.614-17.042 0-1.327-.102-2.653-.51-4.082l-5.204-21.022c13.572-5.715 19.083-20.716 19.185-28.675v-.51c0-15.511-10.205-23.063-21.022-24.695-1.123-.204-2.449-.204-3.776-.204-2.755 0-5.715.306-7.347.918l-4.898-18.675c12.348-12.552 19.899-26.43 19.899-42.452v-.612c-.204-17.654-11.633-34.186-15.919-34.9-4.592 1.531-15.511 19.287-15.715 32.961v1.123c0 13.062 3.368 20.614 6.021 31.329-8.266 8.572-25.41 26.94-25.41 46.84 0 21.022 13.674 39.39 36.941 39.39a46.78 46.78 0 0 0 9.694-1.02l5.102 21.022a11.72 11.72 0 0 1 .408 3.163c0 8.878-9.388 14.695-17.858 14.695-5.306 0-11.633-4.592-12.144-8.674 1.225.918 2.653 1.225 4.082 1.225 5.102 0 10.817-4.49 10.817-8.878 0-5.102-3.572-10.103-10.001-10.307zM57.3 65.919c4.592 1.123 7.96 13.572 7.96 21.43-.102 11.123-12.042 23.675-18.675 30.818-2.041-8.368-4.388-14.491-4.388-27.247 0-13.47 11.327-24.593 15.103-25.002zm-5.102 86.434c-8.776 3.368-12.144 10.001-12.144 18.777 0 1.02 0 2.041.102 3.061.918 12.144 9.286 18.777 14.083 20.103-5.715-4.592-9.694-8.776-9.797-16.328 0-6.939 2.959-12.246 11.021-14.083l9.286 37.349c-2.347.714-7.347 1.02-10.817 1.02-1.123 0-2.143 0-2.755-.102-16.94-1.735-24.9-17.552-24.9-31.226.102-15.001 18.062-32.043 21.94-36.329zm5.715 11.123c1.939-.306 3.878-.51 5.715-.51 9.184 0 16.021 4.082 17.348 9.899.408 2.041.612 3.98.612 5.919 0 9.899-5.715 17.96-14.491 21.838zm129.322 151.545h-3.405v-21.904q0-2.733.168-5.171-.441.441-.988.925-.547.483-5.003 4.099l-1.85-2.396 8.135-6.285h2.943zm215.354 0h-20.201v-3.006l8.093-8.135q3.7-3.742 4.877-5.339 1.177-1.598 1.766-3.111.589-1.514.589-3.258 0-2.459-1.492-3.889-1.492-1.45-4.141-1.45-1.913 0-3.637.631-1.703.631-3.805 2.291l-1.85-2.375q4.246-3.532 9.249-3.532 4.33 0 6.79 2.228 2.459 2.207 2.459 5.949 0 2.922-1.64 5.781-1.64 2.859-6.138 7.231l-6.727 6.58v.168h15.808zm207.722-23.501q0 2.943-1.661 4.814-1.64 1.871-4.667 2.502v.168q3.7.462 5.487 2.354 1.787 1.892 1.787 4.961 0 4.393-3.048 6.769-3.048 2.354-8.661 2.354-2.438 0-4.477-.378-2.018-.357-3.931-1.282v-3.321q1.997.988 4.246 1.514 2.27.505 4.288.505 7.967 0 7.967-6.243 0-5.592-8.787-5.592h-3.027v-3.006h3.069q3.595 0 5.697-1.577 2.102-1.598 2.102-4.414 0-2.249-1.556-3.532-1.535-1.282-4.183-1.282-2.018 0-3.805.547-1.787.547-4.078 2.018l-1.766-2.354q1.892-1.492 4.351-2.333 2.48-.862 5.213-.862 4.477 0 6.958 2.06 2.48 2.039 2.48 5.613zm210.687 16.438h-4.562v7.063h-3.342v-7.063h-14.946v-3.048l14.589-20.79h3.7v20.664h4.562zm-7.904-3.174v-10.216q0-3.006.21-6.79h-.168q-1.009 2.018-1.892 3.342l-9.607 13.664zm203.944-8.534q4.856 0 7.631 2.417 2.796 2.396 2.796 6.58 0 4.772-3.048 7.484-3.027 2.712-8.366 2.712-5.192 0-7.925-1.661v-3.363q1.471.946 3.658 1.492 2.186.526 4.309.526 3.7 0 5.739-1.745 2.06-1.745 2.06-5.045 0-6.432-7.883-6.432-1.997 0-5.339.61l-1.808-1.156 1.156-14.378h15.282v3.216h-12.297l-.778 9.228q2.417-.483 4.814-.483zm198.83 5.633q0-9.06 3.511-13.538 3.532-4.499 10.426-4.499 2.375 0 3.742.399v3.006q-1.619-.526-3.7-.526-4.94 0-7.547 3.09-2.607 3.069-2.859 9.67h.252q2.312-3.616 7.315-3.616 4.141 0 6.517 2.502 2.396 2.502 2.396 6.79 0 4.793-2.628 7.547-2.607 2.733-7.063 2.733-4.772 0-7.568-3.574-2.796-3.595-2.796-9.985zm10.321 10.595q2.985 0 4.625-1.871 1.661-1.892 1.661-5.444 0-3.048-1.535-4.793-1.535-1.745-4.583-1.745-1.892 0-3.468.778-1.577.778-2.523 2.144-.925 1.366-.925 2.838 0 2.165.841 4.036.841 1.871 2.375 2.964 1.556 1.093 3.532 1.093zm202.081 2.543l12.739-27.517h-16.754v-3.216h20.454v2.796l-12.571 27.937z" fill="#000" stroke="none"/><path d="M147.49 232.256h74.144" stroke-linecap="butt" stroke-width="2.392" stroke-linejoin="bevel"/><g fill="#000" stroke="none"><use xlink:href="#C"/><use xlink:href="#C" y="-25.512"/><use xlink:href="#C" y="-51.023"/><use xlink:href="#C" x="208.081" y="-12.756"/><use xlink:href="#C" x="208.081" y="-38.268"/><use xlink:href="#C" x="208.081" y="-63.779"/><use xlink:href="#C" x="416.959" y="-25.512"/><use xlink:href="#C" x="416.959" y="-51.023"/><use xlink:href="#C" x="416.959" y="-76.535"/><use xlink:href="#C" x="625.039" y="-38.268"/><use xlink:href="#C" x="625.039" y="-63.779"/><use xlink:href="#C" x="625.039" y="-89.291"/><use xlink:href="#C" x="833.12" y="-102.047"/><use xlink:href="#C" x="833.12" y="-76.535"/><use xlink:href="#C" x="833.12" y="-51.023"/><use xlink:href="#C" x="1041.201" y="-114.803"/><use xlink:href="#C" x="1041.201" y="-89.291"/><use xlink:href="#C" x="1041.201" y="-63.779"/><use xlink:href="#C" x="1250.079" y="-127.559"/><use xlink:href="#C" x="1250.079" y="-102.047"/><use xlink:href="#C" x="1250.079" y="-76.535"/></g></g><defs ><path id="B" d="M428.507 40.346v-.906c-2.717 0-3.34-.849-3.34-4.302V23.817c0-1.302-1.132-4.642-2.038-5.604-.849-.792-2.038-1.189-3.679-1.189-3.226 0-6.057 1.359-8.547 4.189-.566-2.83-2.264-4.189-5.094-4.189-3.057 0-5.604 1.359-7.868 4.076v-4.076l-7.642 2.434v.906h2.434c.623.226.906.906.906 2.038v12.736c0 3.453-.623 4.302-3.34 4.302v.906h10.698v-.906c-2.208 0-3.057-.849-3.057-3.566V22.742c1.698-2.208 3.566-3.283 5.604-3.283 2.377 0 3.566 1.359 3.566 4.189v11.83c0 3.226-.849 3.962-3.057 3.962v.906h10.698v-.906c-2.717 0-3.34-.849-3.34-4.302l.057-3.962v-5.094c-.057-1.811-.113-3-.283-3.453 1.811-2.094 3.792-3.17 5.83-3.17 2.547 0 3.849 1.359 3.849 4.189v11.83c0 3.226-.849 3.962-3.057 3.962v.906z"/><path id="C" d="M162.638 232.46c0 9.797 12.756 12.552 21.838 12.552h.51c8.572-.102 21.124-2.857 21.124-12.756 0-8.572-12.858-12.654-21.532-12.654-9.082 0-21.94 4.082-21.94 12.858zm13.266-8.062c1.531-1.531 4.184-2.347 6.837-2.347 2.143 0 4.286.51 6.021 1.735 3.266 2.347 5.817 8.368 5.817 12.756 0 1.123-.102 2.143-.51 2.959-1.123 2.245-5.204 3.878-8.98 3.878-1.633 0-3.266-.306-4.49-1.02-3.674-2.041-6.837-7.347-6.837-12.144 0-2.143.612-4.184 2.143-5.817z"/></defs></svg>