<svg xmlns="http://www.w3.org/2000/svg" xmlns:xlink="http://www.w3.org/1999/xlink" width="491.694" height="192.786" viewBox="0 0 1475.699 578.187" xmlns:v="https://vecta.io/nano"><style><![CDATA[.B{fill:#000}.C{stroke:none}.D{stroke-linecap:butt}.E{stroke-width:2.392}.F{stroke-linejoin:bevel}]]></style><g fill="none" fill-rule="evenodd" stroke="#000"><g class="B C"><path d="M176.82 268.564h-17.132v-30.733h17.132v3.174h-13.56v9.9H176v3.153h-12.74v11.31h13.56v3.195z"/><use xlink:href="#B"/><use xlink:href="#C"/><path d="M649.993 237.832h8.682q6.117 0 8.85 1.83 2.733 1.83 2.733 5.78 0 2.733-1.535 4.52-1.514 1.766-4.435 2.3v.2q7 1.198 7 7.357 0 4.12-2.796 6.432-2.775 2.312-7.778 2.312h-10.72V237.82zm3.574 13.16h5.886q3.784 0 5.444-1.177 1.66-1.198 1.66-4.015 0-2.586-1.85-3.72-1.85-1.156-5.886-1.156h-5.255v10.07zm0 3.027v11.5h6.4q3.72 0 5.592-1.43 1.892-1.45 1.892-4.52 0-2.86-1.934-4.204-1.913-1.345-5.844-1.345h-6.117zm199.11 14.545l-3.826-9.775h-12.32l-3.784 9.775h-3.616l12.15-30.86h3.006l12.087 30.86h-3.7zm-4.94-13l-3.574-9.523q-.694-1.808-1.43-4.435-.462 2.018-1.324 4.435l-3.616 9.523h9.943z"/><use xlink:href="#D"/><path d="M1169.186 268.564l-3.826-9.775h-12.318l-3.784 9.775h-3.616l12.15-30.86h3.006l12.087 30.86h-3.7zm-4.94-12.99l-3.574-9.523q-.694-1.808-1.43-4.435-.462 2.018-1.324 4.435l-3.616 9.523h9.943z"/><use xlink:href="#E"/><use xlink:href="#E" x="-1148.036" y="306.141"/><path d="M329.886 574.705h-3.574v-30.733h17.132v3.174h-13.56v11.246h12.74v3.174h-12.74v13.138z"/><use xlink:href="#D" x="-504.651" y="306.141"/><path d="M671.1 574.705h-17.13v-30.733h17.132v3.174h-13.56v9.9h12.74v3.153h-12.74v11.3h13.56v3.195zm150.67 0h-3.574v-30.733h17.132v3.174h-13.56v11.246h12.74v3.174h-12.74v13.138z"/><use xlink:href="#E" x="-328.47" y="306.141"/><use xlink:href="#B" x="828.34" y="306.141"/><use xlink:href="#C" x="835.51" y="306.141"/></g><path d="M0 153.112h1475.7M0 127.6h1475.7M0 102.1h1475.7M0 76.577h1475.7M0 51.065h1475.7" class="D E F"/><path d="M46.177 163.93c-7.756.102-12.96 6.633-12.96 11.53 0 11.43 11.123 17.552 20 17.552 8.164 0 20.614-5.817 20.614-17.042 0-1.327-.102-2.653-.5-4.082l-5.204-21.022C81.7 145.15 87.2 130.15 87.312 122.19v-.5c0-15.5-10.205-23.063-21.022-24.695-1.123-.204-2.45-.204-3.776-.204-2.755 0-5.715.306-7.347.918L50.26 79.026c12.348-12.552 19.9-26.43 19.9-42.452v-.612c-.204-17.654-11.633-34.186-15.92-34.9-4.592 1.53-15.5 19.287-15.715 32.96v1.123c0 13.062 3.368 20.614 6.02 31.33-8.266 8.572-25.4 26.94-25.4 46.84 0 21.022 13.674 39.4 36.94 39.4a46.78 46.78 0 0 0 9.694-1.02l5.102 21.022a11.72 11.72 0 0 1 .408 3.163c0 8.878-9.388 14.695-17.858 14.695-5.306 0-11.633-4.592-12.144-8.674 1.225.918 2.653 1.225 4.082 1.225 5.102 0 10.817-4.5 10.817-8.878 0-5.102-3.572-10.103-10-10.307zM57.3 12.287c4.592 1.123 7.96 13.572 7.96 21.43-.102 11.123-12.042 23.675-18.675 30.818-2.04-8.368-4.388-14.5-4.388-27.247 0-13.47 11.327-24.593 15.103-25.002zM52.197 98.72c-8.776 3.368-12.144 10-12.144 18.777 0 1.02 0 2.04.102 3.06.918 12.144 9.286 18.777 14.083 20.103-5.715-4.592-9.694-8.776-9.797-16.328 0-6.94 2.96-12.246 11.02-14.083l9.286 37.35c-2.347.714-7.347 1.02-10.817 1.02-1.123 0-2.143 0-2.755-.102-16.94-1.735-24.9-17.552-24.9-31.226.102-15 18.062-32.043 21.94-36.33l3.98 17.756zm5.715 11.123c1.94-.306 3.878-.5 5.715-.5 9.184 0 16.02 4.082 17.348 9.9.408 2.04.612 3.98.612 5.92 0 9.9-5.715 17.96-14.5 21.838l-9.184-37.145zm748.504-24.77a4.3 4.3 0 0 0 4.439 4.286c2.602 0 4.44-2.296 4.44-4.286 0-2.373-1.837-4.363-4.44-4.363-2.908 0-4.44 2-4.44 4.363zm0-17.22c0 2 1.53 4.133 4.44 4.133 2.602 0 4.44-2.143 4.44-4.133 0-2.373-1.837-4.286-4.44-4.286-2.908 0-4.44 1.913-4.44 4.286zm-45.386 52.733c17.297-8.42 42.17-20.282 42.17-44.697 0-11.7-10.562-18.75-21.353-18.75-7.577 0-19.44 7.118-19.44 16.914 0 5.664 4.67 8.342 9.184 8.342 4.363 0 8.572-2.45 8.572-7.27 0-3.368-2.526-6.352-6.2-6.352-.46 0-.995.077-1.53.153-.995.153-2.373.612-2.908.612-1.684 0-2.45-.918-2.45-2.066 0-.383.077-.7.23-1.07 2.602-4.2 6.43-6.046 11.863-6.888.536-.077 1.07-.153 1.607-.153 8.113 0 11.327 9.95 11.327 17.144 0 5.128-1.913 12.705-4.898 17.9-6.812 11.94-14.542 16.76-26.634 24.5l.46 1.684zm667.185 34.262c-5.817.077-9.72 4.975-9.72 8.65 0 8.572 8.342 13.164 15 13.164 6.123 0 15.46-4.363 15.46-12.78 0-.995-.077-2-.383-3.06l-3.903-15.766c10.18-4.286 14.312-15.537 14.4-21.506v-.383c0-11.633-7.654-17.297-15.766-18.522-.842-.153-1.837-.153-2.832-.153-2.066 0-4.286.23-5.5.7l-3.674-14.006c9.26-9.414 14.924-19.823 14.924-31.84v-.46c-.153-13.24-8.725-25.64-11.94-26.175-3.444 1.148-11.633 14.465-11.786 24.72v.842c0 9.797 2.526 15.46 4.516 23.496-6.2 6.43-19.057 20.205-19.057 35.13 0 15.766 10.256 29.543 27.706 29.543 2.296 0 4.745-.23 7.27-.765l3.827 15.766a8.77 8.77 0 0 1 .306 2.373c0 6.66-7.04 11.02-13.394 11.02-3.98 0-8.725-3.444-9.108-6.506.918.7 2 .918 3.06.918 3.827 0 8.113-3.368 8.113-6.66 0-3.827-2.68-7.577-7.5-7.73zm8.342-113.732c3.444.842 5.97 10.18 5.97 16.072-.077 8.342-9.03 17.756-14.006 23.114-1.53-6.276-3.3-10.868-3.3-20.435 0-10.103 8.495-18.445 11.327-18.75zm-3.827 64.826c-6.582 2.526-9.108 7.5-9.108 14.083 0 .765 0 1.53.077 2.296.7 9.108 6.965 14.083 10.562 15.077-4.286-3.444-7.27-6.582-7.347-12.246 0-5.204 2.22-9.184 8.266-10.562l6.965 28.012c-1.76.536-5.5.765-8.113.765-.842 0-1.607 0-2.066-.077-12.705-1.3-18.675-13.164-18.675-23.42.077-11.25 13.547-24.032 16.455-27.247l2.985 13.317zm4.286 8.342c1.454-.23 2.908-.383 4.286-.383 6.888 0 12.016 3.06 13 7.424.306 1.53.46 2.985.46 4.44 0 7.424-4.286 13.47-10.868 16.38l-6.888-27.86z" class="B C"/><path d="M0 465.632h1475.7M0 440.12h1475.7M0 414.608h1475.7M0 389.096h1475.7M0 363.585h1475.7" class="D E F"/><g class="B C"><path d="M46.177 476.45c-7.756.102-12.96 6.633-12.96 11.53 0 11.43 11.123 17.552 20 17.552 8.164 0 20.614-5.817 20.614-17.042 0-1.327-.102-2.653-.5-4.082l-5.204-21.022c13.572-5.715 19.083-20.716 19.185-28.675v-.5c0-15.51-10.205-23.063-21.022-24.695-1.123-.204-2.45-.204-3.776-.204-2.755 0-5.715.306-7.347.918l-4.898-18.675c12.348-12.552 19.9-26.43 19.9-42.452v-.612c-.204-17.654-11.633-34.186-15.92-34.9-4.592 1.53-15.51 19.287-15.715 32.96v1.123c0 13.062 3.368 20.614 6.02 31.33-8.266 8.572-25.4 26.94-25.4 46.84 0 21.022 13.674 39.4 36.94 39.4a46.78 46.78 0 0 0 9.694-1.02l5.102 21.022c.306 1.123.408 2.143.408 3.163 0 8.878-9.388 14.695-17.858 14.695-5.306 0-11.633-4.592-12.144-8.674 1.225.918 2.653 1.225 4.082 1.225 5.102 0 10.817-4.5 10.817-8.878 0-5.102-3.572-10.103-10-10.307zM57.3 324.807c4.592 1.123 7.96 13.572 7.96 21.43-.102 11.123-12.042 23.675-18.675 30.818-2.04-8.368-4.388-14.49-4.388-27.247 0-13.47 11.327-24.593 15.103-25.002zm-5.102 86.434c-8.776 3.368-12.144 10-12.144 18.777 0 1.02 0 2.04.102 3.06.918 12.144 9.286 18.777 14.083 20.103-5.715-4.592-9.694-8.776-9.797-16.328 0-6.94 2.96-12.246 11.02-14.083l9.286 37.35c-2.347.714-7.347 1.02-10.817 1.02-1.123 0-2.143 0-2.755-.102-16.94-1.735-24.9-17.552-24.9-31.226.102-15 18.062-32.043 21.94-36.33l3.98 17.756zm5.715 11.123c1.94-.306 3.878-.5 5.715-.5 9.184 0 16.02 4.082 17.348 9.9.408 2.04.612 3.98.612 5.92 0 9.9-5.715 17.96-14.49 21.838l-9.184-37.145z"/><use xlink:href="#F"/><path d="M303.75 166.072c0 9.797 12.756 12.552 21.838 12.552h.5c8.572-.102 21.124-2.857 21.124-12.756 0-8.572-12.858-12.654-21.532-12.654-9.082 0-21.94 4.082-21.94 12.858zM317.016 158c1.53-1.53 4.184-2.347 6.837-2.347 2.143 0 4.286.5 6.02 1.735 3.266 2.347 5.817 8.368 5.817 12.756 0 1.123-.102 2.143-.5 2.96-1.123 2.245-5.204 3.878-8.98 3.878-1.633 0-3.266-.306-4.5-1.02-3.674-2.04-6.837-7.347-6.837-12.144 0-2.143.612-4.184 2.143-5.817z"/></g><path d="M454.43 178.624h74.144" class="D E F"/><use xlink:href="#F" x="322.884" y="25.512" class="B C"/><path d="M623.445 178.624h74.144" class="D E F"/><g class="B C"><use xlink:href="#F" x="491.9" y="38.268"/><use xlink:href="#F" x="675.267" y="-102.046"/><use xlink:href="#F" x="833.12" y="-89.291"/><use xlink:href="#F" x="991.772" y="-102.046"/><use xlink:href="#F" x="1149.627" y="-63.779"/><use xlink:href="#F" y="312.52"/><use xlink:href="#F" x="164.232" y="299.764"/><use xlink:href="#F" x="326.87" y="287.008"/><use xlink:href="#F" x="492.707" y="312.52"/><use xlink:href="#F" x="656.132" y="299.764"/><use xlink:href="#F" x="819.567" y="312.52"/><use xlink:href="#F" x="983.799" y="325.276"/></g><path d="M1288.347 491.144h74.144" class="D E F"/><use xlink:href="#F" x="1156.801" y="338.032" class="B C"/></g><defs ><path id="B" d="M337.29 252.904q0 7.6-4.14 11.646-4.12 4.015-11.877 4.015h-8.514v-30.733h9.417q7.168 0 11.14 3.973 3.973 3.973 3.973 11.1zm-3.784.126q0-6.012-3.027-9.06-3.006-3.048-8.955-3.048h-5.192v24.553h4.35q6.4 0 9.607-3.132 3.216-3.153 3.216-9.312z"/><path id="C" d="M494.136 240.585q-5.066 0-8.01 3.384-2.922 3.363-2.922 9.228 0 6.033 2.817 9.333 2.838 3.28 8.072 3.28 3.216 0 7.336-1.156v3.132q-3.195 1.198-7.883 1.198-6.8 0-10.5-4.12-3.68-4.12-3.68-11.71 0-4.75 1.766-8.324 1.787-3.574 5.13-5.508 3.363-1.934 7.904-1.934 4.835 0 8.45 1.766l-1.514 3.07q-3.49-1.64-6.98-1.64z"/><path id="D" d="M1002.334 252.462h10.447v14.946q-2.438.778-4.96 1.177-2.523.4-5.844.4-6.98 0-10.868-4.14-3.89-4.162-3.89-11.646 0-4.793 1.913-8.387 1.934-3.616 5.55-5.508 3.616-1.913 8.47-1.913 4.92 0 9.165 1.808l-1.387 3.153q-4.162-1.766-8.01-1.766-5.613 0-8.766 3.342-3.153 3.342-3.153 9.27 0 6.222 3.027 9.438 3.048 3.216 8.934 3.216 3.195 0 6.243-.736v-9.46h-6.874v-3.195z"/><path id="E" d="M1326.45 268.564h-17.132v-30.733h17.132v3.174h-13.56v9.9h12.74v3.153h-12.74v11.31h13.56v3.195z"/><path id="F" d="M146.693 153.316c0 9.797 12.756 12.552 21.838 12.552h.5c8.572-.102 21.124-2.857 21.124-12.756 0-8.572-12.858-12.654-21.532-12.654-9.082 0-21.94 4.082-21.94 12.858zm13.266-8.062c1.53-1.53 4.184-2.347 6.837-2.347 2.143 0 4.286.5 6.02 1.735 3.266 2.347 5.817 8.368 5.817 12.756 0 1.123-.102 2.143-.5 2.96-1.123 2.245-5.204 3.878-8.98 3.878-1.633 0-3.266-.306-4.5-1.02-3.674-2.04-6.837-7.347-6.837-12.144 0-2.143.612-4.184 2.143-5.817z"/></defs></svg>