<svg xmlns="http://www.w3.org/2000/svg" xmlns:xlink="http://www.w3.org/1999/xlink" width="602.729" height="236.765" viewBox="0 0 1808.947 710.088" xmlns:v="https://vecta.io/nano"><style><![CDATA[.B{fill:#000}.C{stroke-linecap:butt}.D{stroke-linejoin:bevel}.E{stroke:none}.F{stroke-width:2.392}.G{stroke-width:1.594}.H{stroke-width:.797}.I{stroke-width:3.189}]]></style><g fill="none" stroke="#000" fill-rule="evenodd"><path d="M296.575 103.791v102.047m518.209-102.047v102.047m479.143-102.047v102.047m513.425-102.047v102.047" class="C D I"/><g class="B E"><path d="M224.955 310.129h-3.574V282.57h-9.733v-3.174h23.039v3.174h-9.733zm29.576 0v-14.904q0-2.817-1.282-4.204-1.282-1.387-4.015-1.387-3.637 0-5.318 1.976-1.661 1.976-1.661 6.474v12.045h-3.489V277.42h3.489v9.901q0 1.787-.168 2.964h.21q1.03-1.661 2.922-2.607 1.913-.967 4.351-.967 4.225 0 6.327 2.018 2.123 1.997 2.123 6.369v15.03z"/><use xlink:href="#B"/><use xlink:href="#C"/><use xlink:href="#B" x="58.394"/><use xlink:href="#D"/><path d="M382.169 286.67q1.535 0 2.754.252l-.483 3.237q-1.429-.315-2.523-.315-2.796 0-4.793 2.27-1.976 2.27-1.976 5.655v12.36h-3.49V287.09h2.88l.399 4.267h.168q1.282-2.249 3.09-3.468 1.808-1.219 3.973-1.219z"/><use xlink:href="#E"/><use xlink:href="#F"/><path d="M440.149 286.712q4.541 0 7.042 3.111 2.523 3.09 2.523 8.766 0 5.676-2.544 8.829-2.523 3.132-7.021 3.132-2.249 0-4.12-.82-1.85-.841-3.111-2.565h-.252l-.736 2.964h-2.502v-32.709h3.489v7.946q0 2.67-.168 4.793h.168q2.438-3.447 7.231-3.447zm-.505 2.922q-3.574 0-5.15 2.06-1.577 2.039-1.577 6.895 0 4.856 1.619 6.958 1.619 2.081 5.192 2.081 3.216 0 4.793-2.333 1.577-2.354 1.577-6.748 0-4.499-1.577-6.706-1.577-2.207-4.877-2.207z"/><use xlink:href="#B" x="190.663"/><use xlink:href="#G"/><use xlink:href="#H"/><use xlink:href="#B" x="260.265"/><path d="M496.369 297.679H479.2v-4.523h17.169zM603.166 20.647c0-8.434-3.906-14.321-11.717-17.151-2.83-1.019-5.547-1.528-8.208-1.528h-18v1.245c4.698 0 5.094.962 5.094 5.547v23.887c0 4.585-.396 5.547-5.094 5.547v1.245h15.849c13.755 0 22.076-6.849 22.076-18.793zm-6.113.34c0 10.415-5.717 16.076-16.302 16.076-4.528 0-4.642-.792-4.642-5.208V9.213c0-4.528-.057-5.208 4.528-5.208 10.472 0 16.415 6.679 16.415 16.981z"/></g><g class="C D"><path d="M547.707 310.277h49.429" class="F"/><path d="M519.006 84.657c11.959-16.742 47.037-16.742 58.996 0" class="G"/><path d="M519.006 84.657c11.959-20.728 47.037-20.728 58.996 0-11.959-12.756-47.037-12.756-58.996 0" class="B H"/></g><g class="E B"><path d="M665.093 310.129l-4.225-13.517q-.399-1.24-1.492-5.634h-.168q-.841 3.679-1.471 5.676l-4.351 13.475h-4.036l-6.285-23.039h3.658q2.228 8.682 3.384 13.222 1.177 4.541 1.345 6.117h.168q.231-1.198.736-3.09.526-1.913.904-3.027l4.225-13.222h3.784l4.12 13.222q1.177 3.616 1.598 6.075h.168q.084-.757.441-2.333.378-1.577 4.393-16.964h3.616l-6.369 23.039z"/><use xlink:href="#B" x="414.576"/><use xlink:href="#G" x="251.132"/><use xlink:href="#H" x="251.132"/><use xlink:href="#I"/><use xlink:href="#B" x="533.007"/><use xlink:href="#J"/><use xlink:href="#K"/></g><g class="C D"><path d="M846.673 310.277h39.862" class="F"/><path d="M770.138 71.901c19.134-19.931 78.13-19.931 97.264 0" class="G"/><path d="M770.138 71.901c19.134-23.917 78.13-23.917 97.264 0-19.134-15.945-78.13-15.945-97.264 0" class="B H"/></g><g class="E B"><use xlink:href="#D" x="604.724"/><use xlink:href="#G" x="510.237"/><use xlink:href="#H" x="510.237"/><use xlink:href="#B" x="770.502"/><use xlink:href="#F" x="738.249"/></g><g class="C D"><path d="M1057.943 310.277h48.632" class="F"/><path d="M1029.242 97.413c11.161-15.945 46.24-15.945 58.199 0" class="G"/><path d="M1029.242 97.413c11.161-19.931 46.24-19.931 58.199 0-11.959-11.959-47.037-11.959-58.199 0" class="B H"/></g><g class="E B"><path d="M1163.414 310.129v-30.733h3.574v30.733zm14.505-30.732l-.841 11.099h-2.207l-.862-11.099z"/><use xlink:href="#G" x="680.843"/><path d="M1198.835 310.129h-3.49v-32.709h3.49z"/><use xlink:href="#G" x="730.277"/><use xlink:href="#L"/><use xlink:href="#I" x="494.196"/><use xlink:href="#B" x="1027.203"/><use xlink:href="#K" x="479.148"/></g><g class="C D"><path d="M1314.656 310.277h51.024" class="F"/><path d="M1249.282 110.169c19.134-19.931 78.13-19.931 97.264 0" class="G"/><path d="M1249.282 110.169c19.134-23.917 78.13-23.917 97.264 0-19.134-15.945-78.13-15.945-97.264 0" class="B H"/></g><g class="B E"><use xlink:href="#C" x="1100.2"/><use xlink:href="#L" x="178.982"/><path d="M1453.024 287.09v14.946q0 2.817 1.282 4.204 1.282 1.387 4.015 1.387 3.616 0 5.276-1.976 1.682-1.976 1.682-6.453V287.09h3.489v23.039h-2.88l-.505-3.09h-.189q-1.072 1.703-2.985 2.607-1.892.904-4.33.904-4.204 0-6.306-1.997-2.081-1.997-2.081-6.39V287.09z"/></g><path d="M1474.104 310.277h55.807" class="C D F"/><g class="B E"><path d="M1577.275 279.397l-.841 11.099h-2.207l-.862-11.099zm13.937 28.273q.925 0 1.787-.126.862-.147 1.366-.294v2.67q-.568.273-1.682.441-1.093.189-1.976.189-6.685 0-6.685-7.042v-13.706h-3.3v-1.682l3.3-1.45 1.471-4.919h2.018v5.339h6.685v2.712h-6.685v13.559q0 2.081.988 3.195.988 1.114 2.712 1.114z"/><use xlink:href="#H" x="1084.487"/><use xlink:href="#G" x="1106.349"/><path d="M1624.341 310.129h-3.49v-32.709h3.49z"/><use xlink:href="#F" x="1251.669"/><path d="M1691.994 310.129v-30.733h3.574v30.733z"/><use xlink:href="#J" x="918.591"/><use xlink:href="#H" x="1252.799"/><use xlink:href="#B" x="1513.064"/><use xlink:href="#M"/></g><g class="C D"><path d="M1762.707 199.46c6.378 10.364 27.106 10.364 33.484 0" class="G"/><path d="M1762.707 199.46c6.378 6.378 27.106 6.378 33.484 0-6.378 14.35-27.106 14.35-33.484 0" class="B H"/><path d="M560.463 498.427v102.047m12.756-102.047v102.047m610.689-102.047v102.047m623.444-102.047v102.047" class="I"/></g><path d="M224.499 395.698h-1.019c-.057 1.585-.509 2.377-1.359 2.377-.283 0-.962-.17-2.038-.566-3.34-1.189-6.17-1.811-8.491-1.811-11.604 0-19.812 9.34-19.812 20.264 0 11.717 8.943 18.962 20.717 18.962a27.12 27.12 0 0 0 13.132-3.34v-11.434c0-3.962.283-5.434 4.189-5.434v-1.132h-14.491v1.132c4.359 0 4.868 1.132 4.868 5.434v10.868c-2.434 1.359-4.981 2.038-7.698 2.038-8.377 0-14.377-8.038-14.377-18.34 0-9.962 5.377-17.095 14.038-17.095 6.057 0 10.132 3.34 12.34 9.962h.906z" class="B E"/><g class="C D"><path d="M153.071 701.724h70.157" class="F"/><path d="M153.071 594.096c10.364 15.945 40.659 15.945 51.024 0" class="G"/><path d="M153.071 594.096c10.364 11.959 40.659 11.959 51.024 0-10.364 19.931-40.659 19.931-51.024 0" class="B H"/></g><g class="E B"><path d="M706.401 693.394q0 4.057-2.943 6.327-2.943 2.27-7.988 2.27-5.465 0-8.408-1.408v-3.447q1.892.799 4.12 1.261 2.228.462 4.414.462 3.574 0 5.381-1.345 1.808-1.366 1.808-3.784 0-1.598-.652-2.607-.631-1.03-2.144-1.892-1.492-.862-4.562-1.955-4.288-1.535-6.138-3.637-1.829-2.102-1.829-5.487 0-3.553 2.67-5.655 2.67-2.102 7.063-2.102 4.583 0 8.429 1.682l-1.114 3.111q-3.805-1.598-7.399-1.598-2.838 0-4.435 1.219-1.598 1.219-1.598 3.384 0 1.598.589 2.628.589 1.009 1.976 1.871 1.408.841 4.288 1.871 4.835 1.724 6.643 3.7 1.829 1.976 1.829 5.129z"/><use xlink:href="#D" x="364.466" y="391.442"/><use xlink:href="#I" x="-40.442" y="391.442"/><use xlink:href="#B" x="492.566" y="391.442"/><use xlink:href="#N"/><use xlink:href="#O"/><use xlink:href="#B" x="595.731" y="391.442"/><use xlink:href="#P"/><use xlink:href="#E" x="535.287" y="391.442"/><use xlink:href="#D" x="597.34" y="391.442"/><use xlink:href="#I" x="192.433" y="391.442"/><use xlink:href="#B" x="725.441" y="391.442"/><path d="M949.622 434.076v-1.245c-2.717-.113-3.396-.509-5.547-5.66l-13.019-31.359h-1.472l-14.038 33.17c-1.075 2.434-2.717 3.679-4.981 3.849v1.245h11.321v-1.245c-2.491 0-3.736-.736-3.736-2.151 0-1.528 1.585-5.377 3.17-8.717h14.83c1.472 3.283 2.943 7.132 2.943 8.717 0 1.415-1.245 2.151-3.736 2.151v1.245zm-20.83-29.547l6.566 14.83h-12.906zm39.886-8.039l-2.943-.906-17.717 49.642 2.491.792zm36.684 31.359l-1.019-1.472c-3.623 4.019-7.925 6-12.906 6-8.547 0-14.038-6.793-14.038-16.868 0-10.245 5.208-17.321 13.698-17.321 6.623 0 11.094 4.359 12.453 10.981h1.585v-13.245h-1.925c-.509 1.415-1.245 2.151-2.151 2.151-.509 0-6.849-2.377-10.755-2.377-11.038 0-19.132 9.283-19.132 20.264 0 11.264 7.472 18.849 18.679 18.849 6.566 0 11.717-2.321 15.51-6.962zm17.061-11.434l-6.566 2.094v-11.887l6.566-2.208zm0-28.415v10.189l-6.566 2.264v-10.302h-1.698v10.755l-3.849 1.245v6.226l3.849-1.245v11.887l-3.849 1.245v6.226l3.849-1.245v9.736h1.698v-10.302l6.566-2.151v10.302h1.698v-10.755l3.962-1.245v-6.226l-3.962 1.245v-11.887l3.962-1.245v-6.226l-3.962 1.245V388z"/><use xlink:href="#O" x="235.184"/><use xlink:href="#B" x="830.915" y="391.442"/><use xlink:href="#P" x="235.184"/><use xlink:href="#E" x="808.737" y="391.442"/><use xlink:href="#D" x="870.79" y="391.442"/><use xlink:href="#I" x="465.883" y="391.442"/><use xlink:href="#B" x="998.891" y="391.442"/><path d="M1222.212 414.604c4.245-1.189 7.245-4.189 7.245-8.264 0-5.66-5.604-9.736-12.113-9.736h-18.906v1.245c4.642 0 5.094 1.075 5.094 5.66v23.774c0 4.585-.396 5.547-5.094 5.547v1.245h20.717c5.83 0 11.887-4.472 11.887-10.415-.057-4.019-3.396-7.925-8.83-9.057zm-5.547-1.132h-7.359v-10.189c0-3 .509-4.076 3.396-4.076h3.849c4.245 0 7.359 3.113 7.359 7.359s-3 6.906-7.245 6.906zm-7.359 15.283v-12.679h7.359c4.415 0 8.151 3.057 8.151 7.472 0 3.792-1.698 8.264-8.943 8.264-2.434 0-5.604-.34-6.113-.849-.283-.283-.453-1.019-.453-2.208zm61.55 5.321v-.906c-2.717 0-3.34-.849-3.34-4.302v-11.321c0-1.302-1.132-4.642-2.038-5.604-.849-.792-2.038-1.189-3.679-1.189-3.226 0-6.057 1.359-8.547 4.189-.566-2.83-2.264-4.189-5.094-4.189-3.057 0-5.604 1.359-7.868 4.076v-4.076l-7.642 2.434v.906h2.434c.623.226.906.906.906 2.038v12.736c0 3.453-.623 4.302-3.34 4.302v.906h10.698v-.906c-2.208 0-3.057-.849-3.057-3.566v-13.132c1.698-2.208 3.566-3.283 5.604-3.283 2.377 0 3.566 1.359 3.566 4.189v11.83c0 3.226-.849 3.962-3.057 3.962v.906h10.698v-.906c-2.717 0-3.34-.849-3.34-4.302l.057-3.962v-5.094c-.057-1.811-.113-3-.283-3.453 1.811-2.094 3.792-3.17 5.83-3.17 2.547 0 3.849 1.359 3.849 4.189v11.83c0 3.226-.849 3.962-3.057 3.962v.906zm18.307-41.322h-14.717l-2.377 6.226.679.453c1.075-2.321 2.66-3.509 4.868-3.509h8.038l-7.585 23.547h2.377z"/><use xlink:href="#O" x="606.704"/><use xlink:href="#B" x="1202.435" y="391.442"/><use xlink:href="#M" x="-310.629" y="391.442"/><use xlink:href="#N" x="708.748"/></g><g class="C D"><path d="M1501.211 701.724h84.508" class="F"/><path d="M1572.963 504.805c15.945-18.337 62.982-18.337 78.927 0" class="G"/><path d="M1572.963 504.805c15.945-22.323 62.982-22.323 78.927 0-15.945-14.35-62.982-14.35-78.927 0" class="B H"/></g><g class="E B"><use xlink:href="#Q"/><use xlink:href="#Q" y="52.22"/></g><path d="M0 205.838h1808.947M0 180.326h1808.947M0 154.815h1808.947M0 129.303h1808.947M0 103.791h1808.947" class="C D F"/><path d="M46.177 216.655c-7.756.102-12.96 6.633-12.96 11.531 0 11.429 11.123 17.552 20.001 17.552 8.164 0 20.614-5.817 20.614-17.042 0-1.327-.102-2.653-.51-4.082l-5.204-21.022c13.572-5.715 19.083-20.716 19.185-28.675v-.51c0-15.511-10.205-23.063-21.022-24.695-1.123-.204-2.449-.204-3.776-.204-2.755 0-5.715.306-7.347.918l-4.898-18.675C62.606 119.2 70.158 105.322 70.158 89.3v-.612c-.204-17.654-11.633-34.186-15.919-34.9-4.592 1.531-15.511 19.287-15.715 32.961v1.123c0 13.062 3.368 20.614 6.021 31.329-8.266 8.572-25.41 26.94-25.41 46.84 0 21.022 13.674 39.39 36.941 39.39a46.78 46.78 0 0 0 9.694-1.02l5.102 21.022a11.72 11.72 0 0 1 .408 3.163c0 8.878-9.388 14.695-17.858 14.695-5.306 0-11.633-4.592-12.144-8.674 1.225.918 2.653 1.225 4.082 1.225 5.102 0 10.817-4.49 10.817-8.878 0-5.102-3.572-10.103-10.001-10.307zM57.3 65.013c4.592 1.123 7.96 13.572 7.96 21.43-.102 11.123-12.042 23.675-18.675 30.818-2.041-8.368-4.388-14.491-4.388-27.247 0-13.47 11.327-24.593 15.103-25.002zm-5.102 86.434c-8.776 3.368-12.144 10.001-12.144 18.777 0 1.02 0 2.041.102 3.061.918 12.144 9.286 18.777 14.083 20.103-5.715-4.592-9.694-8.776-9.797-16.328 0-6.939 2.959-12.246 11.021-14.083l9.286 37.349c-2.347.714-7.347 1.02-10.817 1.02-1.123 0-2.143 0-2.755-.102-16.94-1.735-24.9-17.552-24.9-31.226.102-15.001 18.062-32.043 21.94-36.329zm5.715 11.123c1.939-.306 3.878-.51 5.715-.51 9.184 0 16.021 4.082 17.348 9.899.408 2.041.612 3.98.612 5.919 0 9.899-5.715 17.96-14.491 21.838zm70.105-70.719l4.592-1.633c1.123-.408 1.633-2.959 1.633-5.306 0-2.041-.408-3.878-1.327-3.878-.102 0-.204.102-.306.102l-4.592 1.633v-12.96c0-.51-.51-.714-1.02-.714s-1.02.204-1.02.714v13.674l-8.98 3.368V73.075c0-.51-.612-.714-1.123-.714s-1.02.204-1.02.714v14.491l-4.694 1.939c-.816.408-1.327 2.857-1.327 5.102 0 1.939.306 3.776 1.327 3.776l4.694-1.735v18.164l-4.694 1.735c-.918.408-1.327 2.755-1.327 5 0 2.143.408 4.082 1.327 4.082l4.694-1.837v13.776c0 .51.51.816 1.02.816s1.123-.306 1.123-.816v-14.593l8.98-3.266v15.001c0 .51.51.714 1.02.714s1.02-.204 1.02-.714v-15.715l4.592-1.633c1.123-.408 1.633-3.061 1.633-5.306 0-2.041-.408-3.776-1.327-3.776-.102 0-.204.102-.306.102l-4.592 1.633zm-2.041.816v18.062l-8.98 3.266V95.933zm310.116 100.415l64.577-6.378v-12.756l-64.577 6.378v12.756m220.039-12.756h95.669V167.57h-95.669v12.756m289.4 57.402l65.374-19.134v-12.756l-65.374 19.134v12.756m220.039-31.89l65.374 6.378V199.46l-65.374-6.378v12.756m233.592 14.351l50.226 11.161v-12.756l-50.226-11.161v12.756m-64.576 4.783l114.803 25.512v-12.756l-114.803-25.512v12.756" class="B E"/><g class="C D"><path d="M1418.297 116.547c10.364-32.687 75.738-48.632 101.25-25.512" class="G"/><path d="M1418.297 116.547c9.567-36.673 74.941-52.618 101.25-25.512-24.715-19.134-90.089-3.189-101.25 25.512" class="B H"/></g><path d="M1709.291 110.169h65.374V97.413h-65.374v12.756" class="B E"/><path d="M0 600.474h1808.947M0 574.962h1808.947M0 549.45h1808.947M0 523.939h1808.947M0 498.427h1808.947" class="C D F"/><g class="B E"><path d="M46.177 611.291c-7.756.102-12.96 6.633-12.96 11.531 0 11.429 11.123 17.552 20.001 17.552 8.164 0 20.614-5.817 20.614-17.042 0-1.327-.102-2.653-.51-4.082l-5.204-21.022c13.572-5.715 19.083-20.716 19.185-28.675v-.51c0-15.511-10.205-23.063-21.022-24.695-1.123-.204-2.449-.204-3.776-.204-2.755 0-5.715.306-7.347.918l-4.898-18.675c12.348-12.552 19.899-26.43 19.899-42.452v-.612c-.204-17.654-11.633-34.186-15.919-34.9-4.592 1.531-15.511 19.287-15.715 32.961v1.123c0 13.062 3.368 20.614 6.021 31.329-8.266 8.572-25.41 26.94-25.41 46.84 0 21.022 13.674 39.39 36.941 39.39a46.78 46.78 0 0 0 9.694-1.02l5.102 21.022c.306 1.123.408 2.143.408 3.163 0 8.878-9.388 14.695-17.858 14.695-5.306 0-11.633-4.592-12.144-8.674 1.225.918 2.653 1.225 4.082 1.225 5.102 0 10.817-4.49 10.817-8.878 0-5.102-3.572-10.103-10.001-10.307zM57.3 459.649c4.592 1.123 7.96 13.572 7.96 21.43-.102 11.123-12.042 23.675-18.675 30.818-2.041-8.368-4.388-14.491-4.388-27.247 0-13.47 11.327-24.593 15.103-25.002zm-5.102 86.434c-8.776 3.368-12.144 10.001-12.144 18.777 0 1.02 0 2.041.102 3.061.918 12.144 9.286 18.777 14.083 20.103-5.715-4.592-9.694-8.776-9.797-16.328 0-6.939 2.959-12.246 11.021-14.083l9.286 37.349c-2.347.714-7.347 1.02-10.817 1.02-1.123 0-2.143 0-2.755-.102-16.94-1.735-24.9-17.552-24.9-31.226.102-15.001 18.062-32.043 21.94-36.329zm5.715 11.123c1.939-.306 3.878-.51 5.715-.51 9.184 0 16.021 4.082 17.348 9.899.408 2.041.612 3.98.612 5.919 0 9.899-5.715 17.96-14.491 21.838z"/><use xlink:href="#R"/><use xlink:href="#R" x="479.144"/><path d="M639.052 524.755l4.592-1.633c1.123-.408 1.633-2.959 1.633-5.306 0-2.041-.408-3.878-1.327-3.878-.102 0-.204.102-.306.102l-4.592 1.633v-12.96c0-.51-.51-.714-1.02-.714s-1.02.204-1.02.714v13.674l-8.98 3.368v-13.776c0-.51-.612-.714-1.123-.714s-1.02.204-1.02.714v14.491l-4.694 1.939c-.816.408-1.327 2.857-1.327 5.102 0 1.939.306 3.776 1.327 3.776l4.694-1.735v18.164l-4.694 1.735c-.918.408-1.327 2.755-1.327 5 0 2.143.408 4.082 1.327 4.082l4.694-1.837v13.776c0 .51.51.816 1.02.816s1.123-.306 1.123-.816v-14.593l8.98-3.266v15.001c0 .51.51.714 1.02.714s1.02-.204 1.02-.714V551.9l4.592-1.633c1.123-.408 1.633-3.061 1.633-5.306 0-2.041-.408-3.776-1.327-3.776-.102 0-.204.102-.306.102l-4.592 1.633zm-2.041.816v18.062l-8.98 3.266v-18.062zm787.664 55.769l64.577 5.581v-12.756l-64.577-5.581v12.756m0 19.134l129.951 12.756v-12.756l-129.951-12.756v12.756"/></g><g class="C D"><path d="M1443.809 475.307c23.12-28.701 102.844-21.526 121.978 10.364" class="G"/><path d="M1443.809 475.307c23.12-32.687 102.844-25.512 121.978 10.364-19.134-27.904-98.858-35.079-121.978-10.364" class="B H"/><path d="M233.593 158.801v85.305" class="F"/></g><g class="B E"><use xlink:href="#S"/><use xlink:href="#T"/></g><path d="M337.234 120.533v85.305" class="C D F"/><use xlink:href="#S" x="103.642" y="-38.268" class="B E"/><path d="M436.093 120.533v71.752" class="C D F"/><use xlink:href="#S" x="202.5" y="-38.268" class="B E"/><path d="M500.669 107.777v78.13" class="C D F"/><use xlink:href="#S" x="267.077" y="-51.024" class="B E"/><path d="M566.043 107.777v85.305" class="C D F"/><use xlink:href="#S" x="332.451" y="-51.024" class="B E"/><path d="M656.132 95.021v84.508" class="C D F"/><use xlink:href="#S" x="422.54" y="-63.78" class="B E"/><path d="M751.801 95.021v84.508" class="C D F"/><use xlink:href="#S" x="518.209" y="-63.78" class="B E"/><path d="M855.443 95.021v85.305" class="C D F"/><use xlink:href="#S" x="621.851" y="-63.78" class="B E"/><path d="M945.532 158.801v78.13" class="C D F"/><use xlink:href="#S" x="711.939" class="B E"/><path d="M1010.906 120.533v97.264" class="C D F"/><use xlink:href="#S" x="777.313" y="-38.268" class="B E"/><path d="M1075.482 120.533v85.305" class="C D F"/><use xlink:href="#S" x="841.89" y="-38.268" class="B E"/><path d="M1165.571 120.533v84.508" class="C D F"/><use xlink:href="#S" x="931.979" y="-38.268" class="B E"/><path d="M1230.945 133.289v78.13" class="C D F"/><use xlink:href="#S" x="997.353" y="-25.512" class="B E"/><path d="M1334.587 133.289v90.886" class="C D F"/><use xlink:href="#S" x="1100.994" y="-25.512" class="B E"/><path d="M1399.163 158.801v79.724" class="C D F"/><use xlink:href="#S" x="1165.571" class="B E"/><path d="M1449.39 171.557v78.13" class="C D F"/><use xlink:href="#S" x="1215.798" y="12.756" class="B E"/><path d="M1529.114 176.34V91.035" class="C D F"/><use xlink:href="#S" x="1265.227" y="25.512" class="B E"/><path d="M1619.203 176.34V91.035" class="C D F"/><use xlink:href="#S" x="1355.315" y="25.512" class="B E"/><path d="M1709.291 176.34V98.21" class="C D F"/><use xlink:href="#S" x="1445.404" y="25.512" class="B E"/><path d="M1774.665 176.34V98.21" class="C D F"/><use xlink:href="#S" x="1510.778" y="25.512" class="B E"/><path d="M222.431 570.976v-85.305" class="C D F"/><g class="B E"><use xlink:href="#U"/><path d="M239.971 557.308c-2.449 0-4.694 2.143-4.694 4.898 0 2.347 2.347 4.592 4.694 4.592 2.755 0 4.898-2.245 4.898-4.592 0-2.755-2.143-4.898-4.898-4.898zm193.437-48.574c4.694 5.817 6.633 11.531 6.633 17.042 0 6.633-2.857 12.858-6.939 18.573v.714l8.98 14.287c-1.735-.408-3.368-.612-4.694-.612-6.021 0-8.368 3.572-8.368 8.368 0 6.633 4.796 15.613 11.327 20.205l.204-.408c-2.449-3.368-3.878-7.654-3.878-11.327 0-4.592 2.041-8.368 6.633-8.368 2.551 0 6.021 1.225 10.307 4.082l.408-.306c-6.531-6.429-9.899-14.389-9.899-22.246 0-6.531 2.347-13.062 7.245-18.573v-.714l-17.45-21.124z"/></g><path d="M715.925 527.925v85.305" class="C D F"/><use xlink:href="#S" x="482.333" y="369.124" class="B E"/><path d="M864.213 558.22v-85.305" class="C D F"/><use xlink:href="#S" x="600.325" y="407.392" class="B E"/><path d="M951.112 515.169v85.305" class="C D F"/><use xlink:href="#S" x="717.52" y="356.368" class="B E"/><path d="M1099.4 558.22v-85.305" class="C D F"/><use xlink:href="#S" x="835.512" y="407.392" class="B E"/><path d="M1212.608 472.915h54.213m-42.254 3.986v85.305" class="C D F"/><use xlink:href="#U" x="1032.431" y="-102.048" class="B E"/><path d="M1424.675 502.413v97.264" class="C D F"/><use xlink:href="#S" x="1191.083" y="343.612" class="B E"/><path d="M1489.252 515.169v90.089" class="C D F"/><use xlink:href="#S" x="1255.66" y="356.368" class="B E"/><path d="M1554.626 527.925v84.508" class="C D F"/><use xlink:href="#S" x="1321.034" y="369.124" class="B E"/><path d="M1639.931 527.925v85.305" class="C D F"/><g class="B E"><use xlink:href="#S" x="1406.339" y="369.124"/><use xlink:href="#T" x="1406.339" y="369.124"/><path d="M1752.521 535.266c-3.674 1.123-12.348 4.286-15.817 4.286-.51 0-.918 0-1.123-.204 1.123-2.143 1.633-3.98 1.633-5.409 0-3.572-2.755-5.102-5.817-5.102-3.674 0-7.756 2.041-7.756 5.511 0 6.021 5.204 7.858 10.817 7.858 4.898 0 10.205-1.327 12.96-2.449l-15.613 35.104h3.061z"/></g></g><defs ><path id="B" d="M274.901 310.55q-5.108 0-8.072-3.111-2.943-3.111-2.943-8.64 0-5.571 2.733-8.85 2.754-3.279 7.378-3.279 4.33 0 6.853 2.859 2.523 2.838 2.523 7.505v2.207h-15.871q.105 4.057 2.039 6.159 1.955 2.102 5.487 2.102 3.721 0 7.357-1.556v3.111q-1.85.799-3.511 1.135-1.64.357-3.973.357zm-.946-20.958q-2.775 0-4.435 1.808-1.64 1.808-1.934 5.003h12.045q0-3.3-1.471-5.045-1.471-1.766-4.204-1.766z"/><path id="C" d="M298.211 287.09h3.742l5.045 13.138q1.661 4.499 2.06 6.496h.168q.273-1.072 1.135-3.658.883-2.607 5.718-15.976h3.742l-9.901 26.234q-1.471 3.889-3.447 5.508-1.955 1.64-4.814 1.64-1.598 0-3.153-.357v-2.796q1.156.252 2.586.252 3.595 0 5.129-4.036l1.282-3.279z"/><path id="D" d="M361.863 310.129l-.694-3.279h-.168q-1.724 2.165-3.447 2.943-1.703.757-4.267.757-3.426 0-5.381-1.766-1.934-1.766-1.934-5.024 0-6.979 11.162-7.315l3.91-.126v-1.429q0-2.712-1.177-3.994-1.156-1.303-3.721-1.303-2.88 0-6.517 1.766l-1.072-2.67q1.703-.925 3.721-1.45 2.039-.526 4.078-.526 4.12 0 6.096 1.829 1.997 1.829 1.997 5.865v15.724zm-7.883-2.459q3.258 0 5.108-1.787 1.871-1.787 1.871-5.003v-2.081l-3.489.147q-4.162.147-6.012 1.303-1.829 1.135-1.829 3.553 0 1.892 1.135 2.88 1.156.988 3.216.988z"/><path id="E" d="M404.094 303.844q0 3.216-2.396 4.961-2.396 1.745-6.727 1.745-4.583 0-7.147-1.45v-3.237q1.661.841 3.553 1.324 1.913.483 3.679.483 2.733 0 4.204-.862 1.471-.883 1.471-2.67 0-1.345-1.177-2.291-1.156-.967-4.541-2.27-3.216-1.198-4.583-2.081-1.345-.904-2.018-2.039-.652-1.135-.652-2.712 0-2.817 2.291-4.435 2.291-1.64 6.285-1.64 3.721 0 7.273 1.514l-1.24 2.838q-3.468-1.429-6.285-1.429-2.48 0-3.742.778-1.261.778-1.261 2.144 0 .925.462 1.577.483.652 1.535 1.24 1.051.589 4.036 1.703 4.099 1.492 5.529 3.006 1.45 1.514 1.45 3.805z"/><path id="F" d="M371.754 33.213l-1.019-1.472c-3.623 4.019-7.925 6-12.906 6-8.547 0-14.038-6.793-14.038-16.868 0-10.245 5.208-17.321 13.698-17.321 6.623 0 11.094 4.359 12.453 10.981h1.585V1.288h-1.925c-.509 1.415-1.245 2.151-2.151 2.151-.509 0-6.849-2.377-10.755-2.377-11.038 0-19.132 9.283-19.132 20.264 0 11.264 7.472 18.849 18.679 18.849 6.566 0 11.717-2.321 15.51-6.962z"/><path id="G" d="M507.061 310.129h-3.489v-32.709h3.489z"/><path id="H" d="M517.992 310.129h-3.49V287.09h3.49zm-3.784-29.282q0-1.198.589-1.745.589-.568 1.471-.568.841 0 1.45.568.61.568.61 1.745 0 1.177-.61 1.766-.61.568-1.45.568-.883 0-1.471-.568-.589-.589-.589-1.766z"/><path id="I" d="M781.611 310.129l-8.745-23.039h3.742l4.961 13.664q1.682 4.793 1.976 6.222h.168q.231-1.114 1.45-4.604 1.24-3.511 5.529-15.282h3.742l-8.745 23.039z"/><path id="J" d="M837.989 307.039h-.189q-2.417 3.511-7.231 3.511-4.52 0-7.042-3.09-2.502-3.09-2.502-8.787 0-5.697 2.523-8.85 2.523-3.153 7.021-3.153 4.688 0 7.189 3.405h.273l-.147-1.661-.084-1.619v-9.375h3.489v32.709h-2.838zm-6.979.589q3.574 0 5.171-1.934 1.619-1.955 1.619-6.285v-.736q0-4.898-1.64-6.979-1.619-2.102-5.192-2.102-3.069 0-4.709 2.396-1.619 2.375-1.619 6.727 0 4.414 1.619 6.664 1.619 2.249 4.751 2.249z"/><path id="K" d="M887.806 1.062h-1.019c-.057 1.585-.509 2.377-1.359 2.377-.283 0-.962-.17-2.038-.566-3.34-1.189-6.17-1.811-8.491-1.811-11.604 0-19.812 9.34-19.812 20.264 0 11.717 8.943 18.962 20.717 18.962a27.12 27.12 0 0 0 13.132-3.34V25.515c0-3.962.283-5.434 4.189-5.434v-1.132h-14.491v1.132c4.359 0 4.868 1.132 4.868 5.434v10.868c-2.434 1.359-4.981 2.038-7.698 2.038-8.377 0-14.377-8.038-14.377-18.34 0-9.962 5.377-17.095 14.038-17.095 6.057 0 10.132 3.34 12.34 9.962h.906z"/><path id="L" d="M1264.666 298.589q0 5.634-2.838 8.808-2.838 3.153-7.841 3.153-3.09 0-5.487-1.45-2.396-1.45-3.7-4.162-1.303-2.712-1.303-6.348 0-5.634 2.817-8.766 2.817-3.153 7.82-3.153 4.835 0 7.673 3.216 2.859 3.216 2.859 8.703zm-17.553 0q0 4.414 1.766 6.727 1.766 2.312 5.192 2.312 3.426 0 5.192-2.291 1.787-2.312 1.787-6.748 0-4.393-1.787-6.664-1.766-2.291-5.234-2.291-3.426 0-5.171 2.249-1.745 2.249-1.745 6.706z"/><path id="M" d="M1801.86 307.901q0-1.408.631-2.123.652-.736 1.85-.736 1.219 0 1.892.736.694.715.694 2.123 0 1.366-.694 2.102-.694.736-1.892.736-1.072 0-1.787-.652-.694-.673-.694-2.186z"/><path id="N" d="M753.048 415.283c0-8.434-3.906-14.321-11.717-17.151-2.83-1.019-5.547-1.528-8.208-1.528h-18v1.245c4.698 0 5.094.962 5.094 5.547v23.887c0 4.585-.396 5.547-5.094 5.547v1.245h15.849c13.755 0 22.076-6.849 22.076-18.793zm-6.113.34c0 10.415-5.717 16.076-16.302 16.076-4.528 0-4.642-.792-4.642-5.208v-22.642c0-4.528-.057-5.208 4.528-5.208 10.472 0 16.415 6.679 16.415 16.981z"/><path id="O" d="M850.241 701.571v-14.988q0-2.754-1.177-4.12-1.177-1.387-3.658-1.387-3.258 0-4.814 1.871-1.556 1.871-1.556 5.76v12.865h-3.489v-14.988q0-2.754-1.177-4.12-1.177-1.387-3.679-1.387-3.279 0-4.814 1.976-1.514 1.955-1.514 6.432v12.087h-3.489v-23.039h2.838l.568 3.153h.168q.988-1.682 2.775-2.628 1.808-.946 4.036-.946 5.402 0 7.063 3.91h.168q1.03-1.808 2.985-2.859 1.955-1.051 4.456-1.051 3.91 0 5.844 2.018 1.955 1.997 1.955 6.411v15.03z"/><path id="P" d="M888.689 696.568l.315.483q-.547 2.102-1.577 4.877-1.03 2.796-2.144 5.192h-2.628q.568-2.186 1.24-5.402.694-3.216.967-5.15z"/><path id="Q" d="M192.899 152.367c-1.646 0-4.937-1.028-4.937-2.468v-7.508h4.937v-2.263h-4.937v-23.654l-11.519 9.667v13.987h-13.781l23.86-37.744h-12.856c-1.748 15.838-7.199 32.705-15.221 37.744v2.263h17.998v7.508c0 1.44-3.497 2.468-5.142 2.468v2.263h21.597z"/><path id="R" d="M128.018 486.487l4.592-1.633c1.123-.408 1.633-2.959 1.633-5.306 0-2.041-.408-3.878-1.327-3.878-.102 0-.204.102-.306.102l-4.592 1.633v-12.96c0-.51-.51-.714-1.02-.714s-1.02.204-1.02.714v13.674l-8.98 3.368v-13.776c0-.51-.612-.714-1.123-.714s-1.02.204-1.02.714v14.491l-4.694 1.939c-.816.408-1.327 2.857-1.327 5.102 0 1.939.306 3.776 1.327 3.776l4.694-1.735v18.164l-4.694 1.735c-.918.408-1.327 2.755-1.327 5 0 2.143.408 4.082 1.327 4.082l4.694-1.837v13.776c0 .51.51.816 1.02.816s1.123-.306 1.123-.816v-14.593l8.98-3.266v15.001c0 .51.51.714 1.02.714s1.02-.204 1.02-.714v-15.715l4.592-1.633c1.123-.408 1.633-3.061 1.633-5.306 0-2.041-.408-3.776-1.327-3.776-.102 0-.204.102-.306.102l-4.592 1.633zm-2.041.816v18.062l-8.98 3.266v-18.062z"/><path id="S" d="M232.795 157.774c0 6.531 5.409 10.205 12.246 10.205 9.082 0 19.389-7.551 19.389-16.123 0-6.531-5.409-10.103-12.246-10.103-9.082 0-19.389 7.449-19.389 16.021z"/><path id="T" d="M234.836 243.902c1.735-13.062 13.266-26.94 19.899-38.676 4.082-7.245 5.817-13.878 5.817-20.511 0-8.164-2.551-16.43-6.735-25.92l-.408.306c3.266 8.266 4.694 15.919 4.694 22.757 0 14.899-8.266 26.94-24.287 35.614v26.532z"/><path id="U" d="M201.237 565.064c-4.184 2.551-10.307 7.858-10.307 13.98 0 1.735.408 3.47 1.633 5.306 2.041 3.061 5 4.184 8.266 4.184 4.49 0 9.388-2.143 12.45-4.082 6.633-4.286 9.592-9.592 9.592-13.98 0-1.633-.408-3.163-1.123-4.388-1.633-2.755-5-4.592-9.286-4.592-3.368 0-7.245 1.123-11.225 3.572zm2.959 4.796c3.368-2.143 7.756-4.286 11.021-4.286 1.735 0 3.061.612 3.878 2.143.408.714.612 1.531.612 2.245 0 3.674-5 7.041-9.388 9.797-3.674 2.347-8.368 4.694-11.735 4.694-1.531 0-2.755-.51-3.47-1.735-.306-.51-.408-1.123-.408-1.735 0-3.674 4.898-8.368 9.49-11.123z"/></defs></svg>