<svg xmlns="http://www.w3.org/2000/svg" xmlns:xlink="http://www.w3.org/1999/xlink" width="535.79" height="93.479" viewBox="0 0 1608.041 280.354" xmlns:v="https://vecta.io/nano"><style><![CDATA[.B{stroke-linecap:butt}.C{stroke-width:2.392}.D{stroke-linejoin:bevel}.E{fill:#000}.F{stroke:none}]]></style><g fill="none" stroke="#000" fill-rule="evenodd"><path d="M0 166.787h1608.041M0 141.275h1608.041M0 115.764h1608.041M0 90.252h1608.041M0 64.74h1608.041" class="B C D"/><g class="E F"><path d="M46.177 177.604c-7.756.102-12.96 6.633-12.96 11.531 0 11.429 11.123 17.552 20.001 17.552 8.164 0 20.614-5.817 20.614-17.042 0-1.327-.102-2.653-.51-4.082l-5.204-21.022c13.572-5.715 19.083-20.716 19.185-28.675v-.51c0-15.511-10.205-23.063-21.022-24.695-1.123-.204-2.449-.204-3.776-.204-2.755 0-5.715.306-7.347.918L50.26 92.7c12.348-12.552 19.899-26.43 19.899-42.452v-.612c-.204-17.654-11.633-34.186-15.919-34.9-4.592 1.531-15.511 19.287-15.715 32.961v1.123c0 13.062 3.368 20.614 6.021 31.329-8.266 8.572-25.41 26.94-25.41 46.84 0 21.022 13.674 39.39 36.941 39.39a46.78 46.78 0 0 0 9.694-1.02l5.102 21.022a11.72 11.72 0 0 1 .408 3.163c0 8.878-9.388 14.695-17.858 14.695-5.306 0-11.633-4.592-12.144-8.674 1.225.918 2.653 1.225 4.082 1.225 5.102 0 10.817-4.49 10.817-8.878 0-5.102-3.572-10.103-10.001-10.307zM57.3 25.962c4.592 1.123 7.96 13.572 7.96 21.43-.102 11.123-12.042 23.675-18.675 30.818-2.041-8.368-4.388-14.491-4.388-27.247 0-13.47 11.327-24.593 15.103-25.002zm-5.102 86.434c-8.776 3.368-12.144 10.001-12.144 18.777 0 1.02 0 2.041.102 3.061.918 12.144 9.286 18.777 14.083 20.103-5.715-4.592-9.694-8.776-9.797-16.328 0-6.939 2.959-12.246 11.021-14.083l9.286 37.349c-2.347.714-7.347 1.02-10.817 1.02-1.123 0-2.143 0-2.755-.102-16.94-1.735-24.9-17.552-24.9-31.226.102-15.001 18.062-32.043 21.94-36.329zm5.715 11.123c1.939-.306 3.878-.51 5.715-.51 9.184 0 16.021 4.082 17.348 9.899.408 2.041.612 3.98.612 5.919 0 9.899-5.715 17.96-14.491 21.838zm179.646 135.525q0 18.036-13.958 18.036-2.438 0-3.868-.42v-3.006q1.682.547 3.826.547 5.045 0 7.61-3.111 2.586-3.132 2.817-9.586h-.252q-1.156 1.745-3.069 2.67-1.913.904-4.309.904-4.078 0-6.474-2.438-2.396-2.438-2.396-6.811 0-4.793 2.67-7.568 2.691-2.775 7.063-2.775 3.132 0 5.465 1.619 2.354 1.598 3.616 4.688 1.261 3.069 1.261 7.252zm-10.342-10.574q-3.006 0-4.646 1.934-1.64 1.934-1.64 5.381 0 3.027 1.514 4.772 1.514 1.724 4.604 1.724 1.913 0 3.511-.778 1.619-.778 2.544-2.123.925-1.345.925-2.817 0-2.207-.862-4.078-.862-1.871-2.417-2.943-1.535-1.072-3.532-1.072z"/><use xlink:href="#B"/><path d="M274.577 276.659v-14.904q0-2.817-1.282-4.204-1.282-1.387-4.015-1.387-3.637 0-5.318 1.976-1.661 1.976-1.661 6.474v12.045h-3.49v-32.709h3.49v9.901q0 1.787-.168 2.964h.21q1.03-1.661 2.922-2.607 1.913-.967 4.351-.967 4.225 0 6.327 2.018 2.123 1.997 2.123 6.369v15.03z"/><use xlink:href="#C"/><path d="M445.73 261.251q0 7.967-2.523 11.898-2.502 3.931-7.673 3.931-4.961 0-7.547-4.015-2.586-4.036-2.586-11.814 0-8.03 2.502-11.919 2.502-3.889 7.631-3.889 5.003 0 7.589 4.057 2.607 4.057 2.607 11.751zm-16.796 0q0 6.706 1.577 9.775 1.577 3.048 5.024 3.048 3.489 0 5.045-3.09 1.577-3.111 1.577-9.733 0-6.622-1.577-9.691-1.556-3.09-5.045-3.09-3.447 0-5.024 3.048-1.577 3.027-1.577 9.733z"/><use xlink:href="#B" x="208.003"/><use xlink:href="#D"/><use xlink:href="#C" x="197.717"/><path d="M636.006 276.659H632.6v-21.904q0-2.733.168-5.171-.441.441-.988.925-.547.483-5.003 4.099l-1.85-2.396 8.135-6.285h2.943z"/><use xlink:href="#B" x="405.72"/><use xlink:href="#D" x="197.717"/><use xlink:href="#C" x="392.244"/><path d="M837.806 276.659h-20.201v-3.006l8.093-8.135q3.7-3.742 4.877-5.339 1.177-1.598 1.766-3.111.589-1.514.589-3.258 0-2.459-1.492-3.889-1.492-1.45-4.141-1.45-1.913 0-3.637.631-1.703.631-3.805 2.291l-1.85-2.375q4.246-3.532 9.249-3.532 4.33 0 6.79 2.228 2.459 2.207 2.459 5.949 0 2.922-1.64 5.781-1.64 2.859-6.138 7.231l-6.727 6.58v.168h15.808z"/><use xlink:href="#B" x="600.247"/><use xlink:href="#D" x="392.244"/><use xlink:href="#C" x="587.567"/><path d="M1031.973 253.158q0 2.943-1.661 4.814-1.64 1.871-4.667 2.502v.168q3.7.462 5.487 2.354 1.787 1.892 1.787 4.961 0 4.393-3.048 6.769-3.048 2.354-8.661 2.354-2.438 0-4.477-.378-2.018-.357-3.931-1.282v-3.321q1.997.988 4.246 1.514 2.27.505 4.288.505 7.967 0 7.967-6.243 0-5.592-8.787-5.592h-3.027v-3.006h3.069q3.595 0 5.697-1.577 2.102-1.598 2.102-4.414 0-2.249-1.556-3.532-1.535-1.282-4.183-1.282-2.018 0-3.805.547-1.787.547-4.078 2.018l-1.766-2.354q1.892-1.492 4.351-2.333 2.48-.862 5.213-.862 4.477 0 6.958 2.06 2.48 2.039 2.48 5.613z"/><use xlink:href="#B" x="795.57"/><use xlink:href="#D" x="587.567"/><use xlink:href="#C" x="782.097"/><path d="M1229.11 269.596h-4.562v7.063h-3.342v-7.063h-14.946v-3.048l14.589-20.79h3.7v20.664h4.562zm-7.904-3.174v-10.216q0-3.006.21-6.79h-.168q-1.009 2.018-1.892 3.342l-9.607 13.664z"/><use xlink:href="#B" x="990.1"/><use xlink:href="#D" x="782.097"/><use xlink:href="#C" x="978.217"/><path d="M1413.184 257.888q4.856 0 7.631 2.417 2.796 2.396 2.796 6.58 0 4.772-3.048 7.484-3.027 2.712-8.366 2.712-5.192 0-7.925-1.661v-3.363q1.471.946 3.658 1.492 2.186.526 4.309.526 3.7 0 5.739-1.745 2.06-1.745 2.06-5.045 0-6.432-7.883-6.432-1.997 0-5.339.61l-1.808-1.156 1.156-14.378h15.282v3.216h-12.297l-.778 9.228q2.417-.483 4.814-.483z"/><use xlink:href="#B" x="1186.22"/><use xlink:href="#D" x="978.217"/></g><path d="M211.27 192.299h74.144" class="B C D"/><g class="E F"><use xlink:href="#E"/><use xlink:href="#E" y="-102.047"/></g><path d="M406.595 192.299h74.144" class="B C D"/><g class="E F"><use xlink:href="#E" x="195.325"/><use xlink:href="#E" x="195.325" y="-114.803"/></g><path d="M602.717 192.299h74.144" class="B C D"/><g class="E F"><use xlink:href="#E" x="391.447"/><use xlink:href="#E" x="391.447" y="-127.559"/></g><path d="M798.041 192.299h74.144" class="B C D"/><g class="E F"><use xlink:href="#E" x="586.772"/><use xlink:href="#E" x="586.772" y="-140.315"/></g><path d="M993.366 192.299h74.144M993.366 39.228h74.144" class="B C D"/><g class="E F"><use xlink:href="#E" x="782.097" y="-153.071"/><use xlink:href="#E" x="782.097"/></g><path d="M1188.691 192.299h74.144m-74.144-153.071h74.144" class="B C D"/><g class="E F"><use xlink:href="#E" x="977.422" y="-165.827"/><use xlink:href="#E" x="977.422"/></g><path d="M1384.813 192.299h74.144m-74.144-153.071h74.144m-74.144-25.512h74.144" class="B C D"/><g class="E F"><use xlink:href="#E" x="1173.544" y="-178.583"/><use xlink:href="#E" x="1173.544"/></g></g><defs ><path id="B" d="M251.034 274.2q.925 0 1.787-.126.862-.147 1.366-.294v2.67q-.568.273-1.682.441-1.093.189-1.976.189-6.685 0-6.685-7.042v-13.706h-3.3v-1.682l3.3-1.45 1.471-4.919h2.018v5.339h6.685v2.712h-6.685v13.559q0 2.081.988 3.195.988 1.114 2.712 1.114z"/><path id="C" d="M413.652 276.659h-3.405v-21.904q0-2.733.168-5.171-.441.441-.988.925-.547.483-5.003 4.099l-1.85-2.396 8.135-6.285h2.943z"/><path id="D" d="M482.58 276.659v-14.904q0-2.817-1.282-4.204-1.282-1.387-4.015-1.387-3.637 0-5.318 1.976-1.661 1.976-1.661 6.474v12.045h-3.489v-32.709h3.489v9.901q0 1.787-.168 2.964h.21q1.03-1.661 2.922-2.607 1.913-.967 4.351-.967 4.225 0 6.327 2.018 2.123 1.997 2.123 6.369v15.03z"/><path id="E" d="M226.417 192.503c0 9.797 12.756 12.552 21.838 12.552h.51c8.572-.102 21.124-2.857 21.124-12.756 0-8.572-12.858-12.654-21.532-12.654-9.082 0-21.94 4.082-21.94 12.858zm13.266-8.062c1.531-1.531 4.184-2.347 6.837-2.347 2.143 0 4.286.51 6.021 1.735 3.266 2.347 5.817 8.368 5.817 12.756 0 1.123-.102 2.143-.51 2.959-1.123 2.245-5.204 3.878-8.98 3.878-1.633 0-3.266-.306-4.49-1.02-3.674-2.041-6.837-7.347-6.837-12.144 0-2.143.612-4.184 2.143-5.817z"/></defs></svg>