<svg xmlns="http://www.w3.org/2000/svg" xmlns:xlink="http://www.w3.org/1999/xlink" width="405.097" height="86.532" viewBox="0 0 1215.797 259.518" xmlns:v="https://vecta.io/nano"><g fill="none" stroke="#000" fill-rule="evenodd"><path d="M0 153.112h1215.797M0 127.6h1215.797M0 102.089h1215.797M0 76.577h1215.797M0 51.065h1215.797" stroke-linecap="butt" stroke-width="2.392" stroke-linejoin="bevel"/><g fill="#000" stroke="none"><path d="M46.177 163.929c-7.756.102-12.96 6.633-12.96 11.531 0 11.429 11.123 17.552 20.001 17.552 8.164 0 20.614-5.817 20.614-17.042 0-1.327-.102-2.653-.51-4.082l-5.204-21.022c13.572-5.715 19.083-20.716 19.185-28.675v-.51c0-15.511-10.205-23.063-21.022-24.695-1.123-.204-2.449-.204-3.776-.204-2.755 0-5.715.306-7.347.918L50.26 79.025c12.348-12.552 19.899-26.43 19.899-42.452v-.612c-.204-17.654-11.633-34.186-15.919-34.9-4.592 1.531-15.511 19.287-15.715 32.961v1.123c0 13.062 3.368 20.614 6.021 31.329-8.266 8.572-25.41 26.94-25.41 46.84 0 21.022 13.674 39.39 36.941 39.39a46.78 46.78 0 0 0 9.694-1.02l5.102 21.022a11.72 11.72 0 0 1 .408 3.163c0 8.878-9.388 14.695-17.858 14.695-5.306 0-11.633-4.592-12.144-8.674 1.225.918 2.653 1.225 4.082 1.225 5.102 0 10.817-4.49 10.817-8.878 0-5.102-3.572-10.103-10.001-10.307zM57.3 12.287c4.592 1.123 7.96 13.572 7.96 21.43-.102 11.123-12.042 23.675-18.675 30.818-2.041-8.368-4.388-14.491-4.388-27.247 0-13.47 11.327-24.593 15.103-25.002zm-5.102 86.434c-8.776 3.368-12.144 10.001-12.144 18.777 0 1.02 0 2.041.102 3.061.918 12.144 9.286 18.777 14.083 20.103-5.715-4.592-9.694-8.776-9.797-16.328 0-6.939 2.959-12.246 11.021-14.083l9.286 37.349c-2.347.714-7.347 1.02-10.817 1.02-1.123 0-2.143 0-2.755-.102-16.94-1.735-24.9-17.552-24.9-31.226.102-15.001 18.062-32.043 21.94-36.329zm5.715 11.123c1.939-.306 3.878-.51 5.715-.51 9.184 0 16.021 4.082 17.348 9.899.408 2.041.612 3.98.612 5.919 0 9.899-5.715 17.96-14.491 21.838zm121.618 146.385q-5.003 0-7.757-3.069-2.733-3.09-2.733-8.724 0-5.781 2.775-8.934 2.796-3.153 7.946-3.153 1.661 0 3.321.357 1.661.357 2.607.841l-1.072 2.964q-1.156-.462-2.523-.757-1.366-.315-2.417-.315-7.021 0-7.021 8.955 0 4.246 1.703 6.517 1.724 2.27 5.087 2.27 2.88 0 5.907-1.24v3.09q-2.312 1.198-5.823 1.198z"/><use xlink:href="#B"/><use xlink:href="#C"/><use xlink:href="#D"/><path d="M283.627 244.268q0 5.634-2.838 8.808-2.838 3.153-7.841 3.153-3.09 0-5.486-1.45-2.396-1.45-3.7-4.162-1.303-2.712-1.303-6.348 0-5.634 2.817-8.766 2.817-3.153 7.82-3.153 4.835 0 7.673 3.216 2.859 3.216 2.859 8.703zm-17.553 0q0 4.414 1.766 6.727 1.766 2.312 5.192 2.312 3.426 0 5.192-2.291 1.787-2.312 1.787-6.748 0-4.393-1.787-6.664-1.766-2.291-5.234-2.291-3.426 0-5.171 2.249-1.745 2.249-1.745 6.706z"/><use xlink:href="#C" x="72.901"/><use xlink:href="#E"/><use xlink:href="#C" x="123.268"/><use xlink:href="#F"/><use xlink:href="#G"/><path d="M419.592 255.808v-14.904q0-2.817-1.282-4.204-1.282-1.387-4.015-1.387-3.616 0-5.297 1.955-1.682 1.955-1.682 6.453v12.087h-3.49v-23.039h2.838l.568 3.153h.168q1.072-1.703 3.006-2.628 1.934-.946 4.309-.946 4.162 0 6.264 2.018 2.102 1.997 2.102 6.411v15.03z"/><use xlink:href="#F" x="63.736"/><path d="M455.18 256.229q-5.108 0-8.072-3.111-2.943-3.111-2.943-8.64 0-5.571 2.733-8.85 2.754-3.279 7.378-3.279 4.33 0 6.853 2.859 2.523 2.838 2.523 7.505v2.207h-15.871q.105 4.057 2.039 6.159 1.955 2.102 5.487 2.102 3.721 0 7.357-1.556v3.111q-1.85.799-3.511 1.135-1.64.357-3.973.357zm-.946-20.958q-2.775 0-4.435 1.808-1.64 1.808-1.934 5.003h12.045q0-3.3-1.471-5.045-1.471-1.766-4.204-1.766z"/><use xlink:href="#H"/><use xlink:href="#I"/><use xlink:href="#E" x="192.637"/><path d="M536.217 255.808h-3.489V223.1h3.489z"/><use xlink:href="#D" x="300.433"/><path d="M745.708 252.718h-.189q-2.417 3.511-7.231 3.511-4.52 0-7.042-3.09-2.502-3.09-2.502-8.787 0-5.697 2.523-8.85 2.523-3.153 7.021-3.153 4.688 0 7.189 3.405h.273l-.147-1.661-.084-1.619V223.1h3.489v32.709h-2.838zm-6.979.589q3.574 0 5.171-1.934 1.619-1.955 1.619-6.285v-.736q0-4.898-1.64-6.979-1.619-2.102-5.192-2.102-3.069 0-4.709 2.396-1.619 2.375-1.619 6.727 0 4.414 1.619 6.664 1.619 2.249 4.751 2.249z"/><use xlink:href="#G" x="363.534"/><use xlink:href="#D" x="524.135"/><use xlink:href="#D" x="544.651"/><use xlink:href="#B" x="617.553"/><use xlink:href="#C" x="617.553"/><use xlink:href="#E" x="544.652"/><use xlink:href="#C" x="667.919"/><use xlink:href="#F" x="544.651"/><use xlink:href="#G" x="544.652"/><use xlink:href="#C" x="731.655"/><use xlink:href="#F" x="608.387"/><path d="M999.832 256.229q-5.108 0-8.072-3.111-2.943-3.111-2.943-8.64 0-5.571 2.733-8.85 2.754-3.279 7.378-3.279 4.33 0 6.853 2.859 2.523 2.838 2.523 7.505v2.207h-15.871q.105 4.057 2.039 6.159 1.955 2.102 5.486 2.102 3.721 0 7.357-1.556v3.111q-1.85.799-3.511 1.135-1.64.357-3.973.357zm-.946-20.958q-2.775 0-4.435 1.808-1.64 1.808-1.934 5.003h12.045q0-3.3-1.471-5.045-1.471-1.766-4.204-1.766z"/><use xlink:href="#H" x="544.652"/><use xlink:href="#I" x="544.651"/><use xlink:href="#E" x="737.289"/><path d="M1080.868 255.808h-3.49V223.1h3.49z"/><use xlink:href="#D" x="845.085"/><use xlink:href="#J"/><use xlink:href="#J" y="-25.511"/><use xlink:href="#J" x="185.758" y="12.756"/><use xlink:href="#J" x="185.758" y="-51.023"/><use xlink:href="#J" x="515.02" y="-12.755"/><use xlink:href="#J" x="556.477" y="-25.511"/></g><path d="M976.624 178.624h74.144" stroke-linecap="butt" stroke-width="2.392" stroke-linejoin="bevel"/><g fill="#000" stroke="none"><use xlink:href="#J" x="736.654" y="38.268"/><use xlink:href="#J" x="736.654" y="-38.267"/></g></g><defs ><path id="B" d="M210.726 244.268q0 5.634-2.838 8.808-2.838 3.153-7.841 3.153-3.09 0-5.487-1.45-2.396-1.45-3.7-4.162-1.303-2.712-1.303-6.348 0-5.634 2.817-8.766 2.817-3.153 7.82-3.153 4.835 0 7.673 3.216 2.859 3.216 2.859 8.703zm-17.553 0q0 4.414 1.766 6.727 1.766 2.312 5.192 2.312 3.426 0 5.192-2.291 1.787-2.312 1.787-6.748 0-4.393-1.787-6.664-1.766-2.291-5.234-2.291-3.426 0-5.171 2.249-1.745 2.249-1.745 6.706z"/><path id="C" d="M232.588 255.808v-14.904q0-2.817-1.282-4.204-1.282-1.387-4.015-1.387-3.616 0-5.297 1.955-1.682 1.955-1.682 6.453v12.087h-3.489v-23.039h2.838l.568 3.153h.168q1.072-1.703 3.006-2.628 1.934-.946 4.309-.946 4.162 0 6.264 2.018 2.102 1.997 2.102 6.411v15.03z"/><path id="D" d="M258.087 249.523q0 3.216-2.396 4.961-2.396 1.745-6.727 1.745-4.583 0-7.147-1.45v-3.237q1.661.841 3.553 1.324 1.913.483 3.679.483 2.733 0 4.204-.862 1.471-.883 1.471-2.67 0-1.345-1.177-2.291-1.156-.967-4.541-2.27-3.216-1.198-4.583-2.081-1.345-.904-2.018-2.039-.652-1.135-.652-2.712 0-2.817 2.291-4.435 2.291-1.64 6.285-1.64 3.721 0 7.273 1.514l-1.24 2.838q-3.468-1.429-6.285-1.429-2.48 0-3.742.778-1.261.778-1.261 2.144 0 .925.462 1.577.483.652 1.535 1.24 1.051.589 4.036 1.703 4.099 1.492 5.529 3.006 1.45 1.514 1.45 3.805z"/><path id="E" d="M330.294 255.808l-.694-3.279h-.168q-1.724 2.165-3.447 2.943-1.703.757-4.267.757-3.426 0-5.381-1.766-1.934-1.766-1.934-5.024 0-6.979 11.162-7.315l3.91-.126v-1.429q0-2.712-1.177-3.994-1.156-1.303-3.721-1.303-2.88 0-6.517 1.766l-1.072-2.67q1.703-.925 3.721-1.45 2.039-.526 4.078-.526 4.12 0 6.096 1.829 1.997 1.829 1.997 5.865v15.724zm-7.883-2.459q3.258 0 5.108-1.787 1.871-1.787 1.871-5.003v-2.081l-3.489.147q-4.162.147-6.012 1.303-1.829 1.135-1.829 3.553 0 1.892 1.135 2.88 1.156.988 3.216.988z"/><path id="F" d="M373.934 253.349q.925 0 1.787-.126.862-.147 1.366-.294v2.67q-.568.273-1.682.441-1.093.189-1.976.189-6.685 0-6.685-7.042v-13.706h-3.3v-1.682l3.3-1.45 1.471-4.919h2.018v5.339h6.685v2.712h-6.685v13.559q0 2.081.988 3.195.988 1.114 2.712 1.114z"/><path id="G" d="M396.384 255.808h-3.489v-23.039h3.489zm-3.784-29.282q0-1.198.589-1.745.589-.568 1.471-.568.841 0 1.45.568.61.568.61 1.745 0 1.177-.61 1.766-.61.568-1.45.568-.883 0-1.471-.568-.589-.589-.589-1.766z"/><path id="H" d="M480.09 232.349q1.535 0 2.754.252l-.483 3.237q-1.429-.315-2.523-.315-2.796 0-4.793 2.27-1.976 2.27-1.976 5.655v12.36h-3.489v-23.039h2.88l.399 4.267h.168q1.282-2.249 3.09-3.468 1.808-1.219 3.973-1.219z"/><path id="I" d="M492.199 255.808l-8.745-23.039h3.742l4.961 13.664q1.682 4.793 1.976 6.222h.168q.231-1.114 1.45-4.604 1.24-3.511 5.529-15.282h3.742l-8.745 23.039z"/><path id="J" d="M255.118 140.56c0 9.797 12.756 12.552 21.838 12.552h.51c8.572-.102 21.124-2.857 21.124-12.756 0-8.572-12.858-12.654-21.532-12.654-9.082 0-21.94 4.082-21.94 12.858zm13.266-8.062c1.531-1.531 4.184-2.347 6.837-2.347 2.143 0 4.286.51 6.021 1.735 3.266 2.347 5.817 8.368 5.817 12.756 0 1.123-.102 2.143-.51 2.959-1.123 2.245-5.204 3.878-8.98 3.878-1.633 0-3.266-.306-4.49-1.02-3.674-2.041-6.837-7.347-6.837-12.144 0-2.143.612-4.184 2.143-5.817z"/></defs></svg>