<svg xmlns="http://www.w3.org/2000/svg" xmlns:xlink="http://www.w3.org/1999/xlink" width="491.694" height="84.994" viewBox="0 0 1475.699 254.904" xmlns:v="https://vecta.io/nano"><style><![CDATA[.B{stroke:none}.C{stroke-linecap:butt}.D{stroke-linejoin:bevel}]]></style><g fill="none" fill-rule="evenodd" stroke="#000"><path d="M475.955 51.065v102.047M798.04 51.065v102.047m335.64-102.047v102.047" stroke-width="3.189" class="C D"/><g fill="#000" class="B"><use xlink:href="#B"/><use xlink:href="#B" x="156.26"/><use xlink:href="#B" x="334.045"/><use xlink:href="#B" x="468.779"/><use xlink:href="#C"/><use xlink:href="#C" x="140.32"/><use xlink:href="#C" x="326.07"/></g><g class="C D"><path d="M1012.5 172.246c35.876 27.904 143.504 27.904 179.38 0" stroke-width="1.594"/><path d="M1012.5 172.246c35.876 23.917 143.504 23.917 179.38 0-35.876 31.9-143.504 31.9-179.38 0" stroke-width=".797" fill="#000"/></g><use xlink:href="#C" x="482.33" fill="#000" class="B"/><path d="M0 153.112h1475.7M0 127.6h1475.7M0 102.1h1475.7M0 76.577h1475.7M0 51.065h1475.7" stroke-width="2.392" class="C D"/><g fill="#000" class="B"><path d="M46.177 163.93c-7.756.102-12.96 6.633-12.96 11.53 0 11.43 11.123 17.552 20 17.552 8.164 0 20.614-5.817 20.614-17.042 0-1.327-.102-2.653-.5-4.082l-5.204-21.022C81.7 145.15 87.2 130.15 87.312 122.19v-.5c0-15.5-10.205-23.063-21.022-24.695-1.123-.204-2.45-.204-3.776-.204-2.755 0-5.715.306-7.347.918L50.26 79.026c12.348-12.552 19.9-26.43 19.9-42.452v-.612c-.204-17.654-11.633-34.186-15.92-34.9-4.592 1.53-15.5 19.287-15.715 32.96v1.123c0 13.062 3.368 20.614 6.02 31.33-8.266 8.572-25.4 26.94-25.4 46.84 0 21.022 13.674 39.4 36.94 39.4a46.78 46.78 0 0 0 9.694-1.02l5.102 21.022a11.72 11.72 0 0 1 .408 3.163c0 8.878-9.388 14.695-17.858 14.695-5.306 0-11.633-4.592-12.144-8.674 1.225.918 2.653 1.225 4.082 1.225 5.102 0 10.817-4.5 10.817-8.878 0-5.102-3.572-10.103-10-10.307zM57.3 12.287c4.592 1.123 7.96 13.572 7.96 21.43-.102 11.123-12.042 23.675-18.675 30.818-2.04-8.368-4.388-14.5-4.388-27.247 0-13.47 11.327-24.593 15.103-25.002zM52.197 98.72c-8.776 3.368-12.144 10-12.144 18.777 0 1.02 0 2.04.102 3.06.918 12.144 9.286 18.777 14.083 20.103-5.715-4.592-9.694-8.776-9.797-16.328 0-6.94 2.96-12.246 11.02-14.083l9.286 37.35c-2.347.714-7.347 1.02-10.817 1.02-1.123 0-2.143 0-2.755-.102-16.94-1.735-24.9-17.552-24.9-31.226.102-15 18.062-32.043 21.94-36.33l3.98 17.756zm5.715 11.123c1.94-.306 3.878-.5 5.715-.5 9.184 0 16.02 4.082 17.348 9.9.408 2.04.612 3.98.612 5.92 0 9.9-5.715 17.96-14.5 21.838l-9.184-37.145zm70.106-70.718l4.592-1.633c1.123-.408 1.633-2.96 1.633-5.306 0-2.04-.408-3.878-1.327-3.878-.102 0-.204.102-.306.102l-4.592 1.633v-12.96c0-.5-.5-.714-1.02-.714s-1.02.204-1.02.714v13.674l-8.98 3.368V20.35c0-.5-.612-.714-1.123-.714s-1.02.204-1.02.714v14.5l-4.694 1.94c-.816.408-1.327 2.857-1.327 5.102 0 1.94.306 3.776 1.327 3.776l4.694-1.735v18.164l-4.694 1.735c-.918.408-1.327 2.755-1.327 5 0 2.143.408 4.082 1.327 4.082l4.694-1.837v13.776c0 .5.5.816 1.02.816s1.123-.306 1.123-.816V70.25l8.98-3.266v15c0 .5.5.714 1.02.714s1.02-.204 1.02-.714V66.27l4.592-1.633c1.123-.408 1.633-3.06 1.633-5.306 0-2.04-.408-3.776-1.327-3.776-.102 0-.204.102-.306.102l-4.592 1.633V39.125zm-2.04.816v18.062l-8.98 3.266V43.207l8.98-3.266z"/><use xlink:href="#D"/><use xlink:href="#D" x="334.044"/><use xlink:href="#D" x="468.78"/><use xlink:href="#E"/><use xlink:href="#E" x="185.76"/><use xlink:href="#F"/><use xlink:href="#F" x="146.692"/><path d="M330.684 175.154v-54.8l-15.613 5.51v-20.51h-2.55v54.8l15.613-5.41v20.41h2.55zM315.07 134.13l13.062-4.796v17.144l-13.062 4.694V134.13z"/><use xlink:href="#F" x="334.044"/></g><path d="M511.493 128.417l4.592-1.633c1.123-.408 1.633-2.96 1.633-5.306 0-2.04-.408-3.878-1.327-3.878-.102 0-.204.102-.306.102l-4.592 1.633v-12.96c0-.5-.5-.714-1.02-.714s-1.02.204-1.02.714v13.674l-8.98 3.368V109.64c0-.5-.612-.714-1.123-.714s-1.02.204-1.02.714v14.49l-4.694 1.94c-.816.408-1.327 2.857-1.327 5.102 0 1.94.306 3.776 1.327 3.776l4.694-1.735v18.164l-4.694 1.735c-.918.408-1.327 2.755-1.327 5 0 2.143.408 4.082 1.327 4.082l4.694-1.837v13.776c0 .5.5.816 1.02.816s1.123-.306 1.123-.816V159.54l8.98-3.266v15c0 .5.5.714 1.02.714s1.02-.204 1.02-.714V155.56l4.592-1.633c1.123-.408 1.633-3.06 1.633-5.306 0-2.04-.408-3.776-1.327-3.776-.102 0-.204.102-.306.102l-4.592 1.633v-18.164zm-2.04.816v18.062l-8.98 3.266V132.5l8.98-3.266z" fill="#72ac51" class="B"/><g fill="#000" class="B"><use xlink:href="#F" x="468.778"/><use xlink:href="#F" x="646.564" y="12.756"/><use xlink:href="#F" x="796.446" y="12.756"/><path d="M963.026 143.418c1.53-1.43 3.47-2.143 5.102-2.143 2.55 0 4.592 1.633 4.592 5.41 0 5.817-6.123 12.756-10 16.123l.306-19.39zm17.45 3.266c0-6.837-3.368-9.184-7.45-9.184-3.368 0-7.143 1.633-10 3.572v-34.696h-2.347v63.27c5.613-3.674 19.797-16.226 19.797-22.96z"/><use xlink:href="#F" x="982.203" y="12.756"/><use xlink:href="#F" x="1128.896" y="12.756"/></g><path d="M1312.89 187.9v-54.8l-15.613 5.51V118.1h-2.55v54.8l15.613-5.41v20.41h2.55zm-15.613-41.023l13.062-4.796v17.144l-13.062 4.694v-17.042z" fill="#72ac51" class="B"/></g><defs ><path id="B" d="M199.138 246.24h-3.574V215.51h17.132v3.174h-13.56v11.246h12.74v3.174h-12.74v13.138z"/><path id="C" d="M868.03 246.24h-17.132V215.51h17.132v3.174h-13.56v9.9h12.74v3.153h-12.74v11.31h13.56v3.195z"/><path id="D" d="M229.986 235.398l-5.734 1.83v-10.38l5.734-1.928v10.48zm0-24.813v8.897l-5.734 1.977v-8.996h-1.483v9.392l-3.36 1.087v5.437l3.36-1.087v10.38l-3.36 1.087v5.437l3.36-1.087v8.502h1.483v-8.996l5.734-1.878v8.996h1.483v-9.392l3.46-1.087v-5.437l-3.46 1.087v-10.38l3.46-1.087V218l-3.46 1.087v-8.502h-1.483z"/><path id="E" d="M1016.95 247.854l3.46-2.768c4.3-3.46 9.886-5.882 9.886-11.37 0-3.806-2.52-6.426-6.228-6.426-2.274 0-2.867.247-5.338 3.065l.395-17.794h-2.175v35.292zm5.635-18.388c2.224 0 3.658 1.977 3.658 4.35 0 3.015-2.323 6.426-7.02 10.182-.346-1.038-.494-2.47-.494-4.25 0-.99.148-3.312.395-6.92.94-1.433 1.73-3.36 3.46-3.36z"/><path id="F" d="M191.34 140.56c0 9.797 12.756 12.552 21.838 12.552h.5c8.572-.102 21.124-2.857 21.124-12.756 0-8.572-12.858-12.654-21.532-12.654-9.082 0-21.94 4.082-21.94 12.858zm13.266-8.062c1.53-1.53 4.184-2.347 6.837-2.347 2.143 0 4.286.5 6.02 1.735 3.266 2.347 5.817 8.368 5.817 12.756 0 1.123-.102 2.143-.5 2.96-1.123 2.245-5.204 3.878-8.98 3.878-1.633 0-3.266-.306-4.5-1.02-3.674-2.04-6.837-7.347-6.837-12.144 0-2.143.612-4.184 2.143-5.817z"/></defs></svg>