<svg xmlns="http://www.w3.org/2000/svg" xmlns:xlink="http://www.w3.org/1999/xlink" width="603.791" height="226.345" viewBox="0 0 1812.136 678.829" xmlns:v="https://vecta.io/nano"><style><![CDATA[.B{fill:#000}.C{stroke-linecap:butt}.D{stroke-linejoin:bevel}.E{stroke:none}.F{stroke-width:2.392}.G{stroke-width:3.189}.H{stroke-width:1.594}.I{stroke-width:.797}]]></style><g fill="none" stroke="#000" fill-rule="evenodd"><path d="M781.299 121.298v102.047m504.656-102.047v102.047m521.397-102.047v102.047" class="C D G"/><g class="B E"><path d="M334.943 56.948v-1.245c-2.717-.113-3.396-.509-5.547-5.66l-13.019-31.359h-1.472l-14.038 33.17c-1.075 2.434-2.717 3.679-4.981 3.849v1.245h11.321v-1.245c-2.491 0-3.736-.736-3.736-2.151 0-1.528 1.585-5.377 3.17-8.717h14.83c1.472 3.283 2.943 7.132 2.943 8.717 0 1.415-1.245 2.151-3.736 2.151v1.245zM314.112 27.4l6.566 14.83h-12.906z"/><use xlink:href="#B"/><use xlink:href="#C"/><use xlink:href="#D"/><path d="M819.606 37.476c4.245-1.189 7.245-4.189 7.245-8.264 0-5.66-5.604-9.736-12.113-9.736h-18.906v1.245c4.642 0 5.094 1.075 5.094 5.66v23.774c0 4.585-.396 5.547-5.094 5.547v1.245h20.717c5.83 0 11.887-4.472 11.887-10.415-.057-4.019-3.396-7.925-8.83-9.057zm-5.547-1.132H806.7V26.155c0-3 .509-4.076 3.396-4.076h3.849c4.245 0 7.359 3.113 7.359 7.359s-3 6.906-7.245 6.906zM806.7 51.627V38.947h7.359c4.415 0 8.151 3.057 8.151 7.472 0 3.792-1.698 8.264-8.943 8.264-2.434 0-5.604-.34-6.113-.849-.283-.283-.453-1.019-.453-2.208z"/><use xlink:href="#D" x="260.451"/><path d="M886.557 15.626H871.84l-2.377 6.226.679.453c1.075-2.321 2.66-3.509 4.868-3.509h8.038l-7.585 23.547h2.377zm208.509 22.529c0-8.434-3.906-14.321-11.717-17.151-2.83-1.019-5.547-1.528-8.208-1.528h-18v1.245c4.698 0 5.094.962 5.094 5.547v23.887c0 4.585-.396 5.547-5.094 5.547v1.245h15.849c13.755 0 22.076-6.849 22.076-18.793zm-6.113.34c0 10.415-5.717 16.076-16.302 16.076-4.528 0-4.642-.792-4.642-5.208V26.721c0-4.528-.057-5.208 4.528-5.208 10.472 0 16.415 6.679 16.415 16.981zm275.229 18.453v-1.245c-2.717-.113-3.396-.509-5.547-5.66l-13.019-31.359h-1.472l-14.038 33.17c-1.075 2.434-2.717 3.679-4.981 3.849v1.245h11.321v-1.245c-2.491 0-3.736-.736-3.736-2.151 0-1.528 1.585-5.377 3.17-8.717h14.83c1.472 3.283 2.943 7.132 2.943 8.717 0 1.415-1.245 2.151-3.736 2.151v1.245zm-20.83-29.547l6.566 14.83h-12.906z"/><use xlink:href="#B" x="1026.049"/><use xlink:href="#C" x="1026.049"/><use xlink:href="#D" x="1026.049"/></g><path d="M872.185 472.086v102.047m12.756-102.047v102.047m519.006-102.047v102.047m406.594-102.047v102.047" class="C D G"/><g class="B E"><path d="M293.487 407.735v-1.245c-2.717-.113-3.396-.509-5.547-5.66l-13.02-31.36h-1.472l-14.038 33.17c-1.075 2.434-2.717 3.679-4.981 3.849v1.245h11.321v-1.245c-2.491 0-3.736-.736-3.736-2.151 0-1.528 1.585-5.377 3.17-8.717h14.83c1.472 3.283 2.943 7.132 2.943 8.717 0 1.415-1.245 2.151-3.736 2.151v1.245zm-20.83-29.547l6.566 14.83h-12.906zM495.841 675.23h-3.532l-6.201-20.58q-.441-1.366-.988-3.447-.547-2.081-.568-2.502-.462 2.775-1.471 6.075l-6.012 20.454h-3.532l-8.177-30.733h3.784L474 663.48q1.009 3.994 1.471 7.231.568-3.847 1.682-7.526l5.508-18.688h3.784l5.781 18.856q1.009 3.258 1.703 7.357.399-2.985 1.514-7.273l4.835-18.94h3.784z"/><use xlink:href="#E"/><path d="M537.61 652.191v14.946q0 2.817 1.282 4.204 1.282 1.387 4.015 1.387 3.616 0 5.276-1.976 1.682-1.976 1.682-6.453v-12.108h3.489v23.039h-2.88l-.505-3.09h-.189q-1.072 1.703-2.985 2.607-1.892.904-4.33.904-4.204 0-6.306-1.997-2.081-1.997-2.081-6.39v-15.072zm26.613 23.039h-3.49v-32.709h3.49z"/><use xlink:href="#F"/><path d="M602.955 401.508l-1.019-1.472c-3.623 4.019-7.925 6-12.906 6-8.547 0-14.038-6.793-14.038-16.868 0-10.245 5.208-17.321 13.698-17.321 6.623 0 11.094 4.359 12.453 10.981h1.585v-13.245h-1.925c-.509 1.415-1.245 2.151-2.151 2.151-.509 0-6.849-2.377-10.755-2.377-11.038 0-19.132 9.283-19.132 20.264 0 11.264 7.472 18.849 18.679 18.849 6.566 0 11.717-2.321 15.51-6.962z"/></g><g class="C D"><path d="M483.927 554.999c19.134 19.931 77.333 19.931 96.467 0" class="H"/><path d="M483.927 554.999c19.134 15.945 77.333 15.945 96.467 0-19.134 23.917-77.333 23.917-96.467 0" class="B I"/></g><g class="E B"><use xlink:href="#G"/><path d="M674.89 644.498l-.841 11.099h-2.207l-.862-11.099z"/><use xlink:href="#H"/><path d="M629.509 662.785H612.34v-4.523h17.169z"/><use xlink:href="#I"/><use xlink:href="#H" x="65.115"/><path d="M798.111 651.813q4.541 0 7.042 3.111 2.523 3.09 2.523 8.766 0 5.676-2.544 8.829-2.523 3.132-7.021 3.132-2.249 0-4.12-.82-1.85-.841-3.111-2.565h-.252l-.736 2.964h-2.502v-32.709h3.489v7.946q0 2.67-.168 4.793h.168q2.438-3.447 7.231-3.447zm-.505 2.922q-3.574 0-5.15 2.06-1.577 2.039-1.577 6.895 0 4.856 1.619 6.958 1.619 2.081 5.192 2.081 3.216 0 4.793-2.333 1.577-2.354 1.577-6.748 0-4.499-1.577-6.706-1.577-2.207-4.877-2.207z"/><use xlink:href="#J"/><use xlink:href="#G" x="297.367"/><path d="M972.741 675.23h-3.49v-23.039h3.49zm-3.784-29.282q0-1.198.589-1.745.589-.568 1.471-.568.841 0 1.45.568.61.568.61 1.745 0 1.177-.61 1.766-.61.568-1.45.568-.883 0-1.471-.568-.589-.589-.589-1.766zm20.432 29.703q-5.003 0-7.757-3.069-2.733-3.09-2.733-8.724 0-5.781 2.775-8.934 2.796-3.153 7.946-3.153 1.661 0 3.321.357 1.661.357 2.607.841l-1.072 2.964q-1.156-.462-2.523-.757-1.366-.315-2.417-.315-7.021 0-7.021 8.955 0 4.246 1.703 6.517 1.724 2.27 5.087 2.27 2.88 0 5.907-1.24v3.09q-2.312 1.198-5.823 1.198z"/><use xlink:href="#J" x="186.905"/><use xlink:href="#K"/><use xlink:href="#I" x="323.799"/><path d="M1080.683 654.903h-5.865v20.327h-3.489v-20.327h-4.12v-1.577l4.12-1.261v-1.282q0-8.493 7.42-8.493 1.829 0 4.288.736l-.904 2.796q-2.018-.652-3.447-.652-1.976 0-2.922 1.324-.946 1.303-.946 4.204v1.492h5.865z"/><use xlink:href="#L"/><use xlink:href="#J" x="351.471"/><use xlink:href="#L" x="77.33"/><use xlink:href="#J" x="428.801"/><use xlink:href="#M"/><use xlink:href="#J" x="470.507"/><use xlink:href="#E" x="835.52"/><path d="M1373.34 675.23h-3.489v-32.709h3.489zm23.123-3.09h-.189q-2.417 3.511-7.231 3.511-4.52 0-7.042-3.09-2.502-3.09-2.502-8.787 0-5.697 2.523-8.85 2.523-3.153 7.021-3.153 4.688 0 7.189 3.405h.273l-.147-1.661-.084-1.619v-9.375h3.49v32.709h-2.838zm-6.979.589q3.574 0 5.171-1.934 1.619-1.955 1.619-6.285v-.736q0-4.898-1.64-6.979-1.619-2.102-5.192-2.102-3.069 0-4.709 2.396-1.619 2.375-1.619 6.727 0 4.414 1.619 6.664 1.619 2.249 4.751 2.249z"/><use xlink:href="#K" x="479.94"/></g><g class="C D"><path d="M1359.301 567.755c19.134 19.931 78.13 19.931 97.264 0" class="H"/><path d="M1359.301 567.755c19.134 15.945 78.13 15.945 97.264 0-19.134 23.917-78.13 23.917-97.264 0" class="B I"/></g><g class="E B"><use xlink:href="#F" x="925.274"/><use xlink:href="#J" x="709.548"/><use xlink:href="#M" x="280.747"/><use xlink:href="#N"/><use xlink:href="#N" x="11.435"/><use xlink:href="#N" x="22.87"/><path d="M1453.859 662.785h-17.169v-4.523h17.169z"/><use xlink:href="#O"/><use xlink:href="#O" y="52.22"/></g><path d="M0 223.345h1808.947M0 197.834h1808.947M0 172.322h1808.947M0 146.81h1808.947M0 121.298h1808.947" class="C D F"/><g class="B E"><path d="M46.177 234.162c-7.756.102-12.96 6.633-12.96 11.531 0 11.429 11.123 17.552 20.001 17.552 8.164 0 20.614-5.817 20.614-17.042 0-1.327-.102-2.653-.51-4.082L68.117 221.1c13.572-5.715 19.083-20.716 19.185-28.675v-.51c0-15.511-10.205-23.063-21.022-24.695-1.123-.204-2.449-.204-3.776-.204-2.755 0-5.715.306-7.347.918l-4.898-18.675c12.348-12.552 19.899-26.43 19.899-42.452v-.612c-.204-17.654-11.633-34.186-15.919-34.9-4.592 1.531-15.511 19.287-15.715 32.961v1.123c0 13.062 3.368 20.614 6.021 31.329-8.266 8.572-25.41 26.94-25.41 46.84 0 21.022 13.674 39.39 36.941 39.39a46.78 46.78 0 0 0 9.694-1.02l5.102 21.022a11.72 11.72 0 0 1 .408 3.163c0 8.878-9.388 14.695-17.858 14.695-5.306 0-11.633-4.592-12.144-8.674 1.225.918 2.653 1.225 4.082 1.225 5.102 0 10.817-4.49 10.817-8.878 0-5.102-3.572-10.103-10.001-10.307zM57.3 82.52c4.592 1.123 7.96 13.572 7.96 21.43-.102 11.123-12.042 23.675-18.675 30.818-2.041-8.368-4.388-14.491-4.388-27.247 0-13.47 11.327-24.593 15.103-25.002zm-5.102 86.434c-8.776 3.368-12.144 10.001-12.144 18.777 0 1.02 0 2.041.102 3.061.918 12.144 9.286 18.777 14.083 20.103-5.715-4.592-9.694-8.776-9.797-16.328 0-6.939 2.959-12.246 11.021-14.083l9.286 37.349c-2.347.714-7.347 1.02-10.817 1.02-1.123 0-2.143 0-2.755-.102-16.94-1.735-24.9-17.552-24.9-31.226.102-15.001 18.062-32.043 21.94-36.329zm5.715 11.123c1.939-.306 3.878-.51 5.715-.51 9.184 0 16.021 4.082 17.348 9.899.408 2.041.612 3.98.612 5.919 0 9.899-5.715 17.96-14.491 21.838zm70.105-70.718l4.592-1.633c1.123-.408 1.633-2.959 1.633-5.306 0-2.041-.408-3.878-1.327-3.878-.102 0-.204.102-.306.102l-4.592 1.633v-12.96c0-.51-.51-.714-1.02-.714s-1.02.204-1.02.714v13.674l-8.98 3.368V90.582c0-.51-.612-.714-1.123-.714s-1.02.204-1.02.714v14.491l-4.694 1.939c-.816.408-1.327 2.857-1.327 5.102 0 1.939.306 3.776 1.327 3.776l4.694-1.735v18.164l-4.694 1.735c-.918.408-1.327 2.755-1.327 5 0 2.143.408 4.082 1.327 4.082l4.694-1.837v13.776c0 .51.51.816 1.02.816s1.123-.306 1.123-.816v-14.593l8.98-3.266v15.001c0 .51.51.714 1.02.714s1.02-.204 1.02-.714v-15.715l4.592-1.633c1.123-.408 1.633-3.061 1.633-5.306 0-2.041-.408-3.776-1.327-3.776-.102 0-.204.102-.306.102l-4.592 1.633zm-2.041.816v18.062l-8.98 3.266v-18.062zm33.931 37.451l4.592-1.633c1.123-.408 1.633-2.959 1.633-5.306 0-2.041-.408-3.878-1.327-3.878-.102 0-.204.102-.306.102l-4.592 1.633v-12.96c0-.51-.51-.714-1.02-.714s-1.02.204-1.02.714v13.674l-8.98 3.368V128.85c0-.51-.612-.714-1.123-.714s-1.02.204-1.02.714v14.491l-4.694 1.939c-.816.408-1.327 2.857-1.327 5.102 0 1.939.306 3.776 1.327 3.776l4.694-1.735v18.164l-4.694 1.735c-.918.408-1.327 2.755-1.327 5 0 2.143.408 4.082 1.327 4.082l4.694-1.837v13.776c0 .51.51.816 1.02.816s1.123-.306 1.123-.816V178.75l8.98-3.266v15.001c0 .51.51.714 1.02.714s1.02-.204 1.02-.714V174.77l4.592-1.633c1.123-.408 1.633-3.061 1.633-5.306 0-2.041-.408-3.776-1.327-3.776-.102 0-.204.102-.306.102l-4.592 1.633zm-2.041.816v18.062l-8.98 3.266v-18.062zm33.931-51.839l4.592-1.633c1.123-.408 1.633-2.959 1.633-5.306 0-2.041-.408-3.878-1.327-3.878-.102 0-.204.102-.306.102l-4.592 1.633v-12.96c0-.51-.51-.714-1.02-.714s-1.02.204-1.02.714v13.674l-8.98 3.368V77.826c0-.51-.612-.714-1.123-.714s-1.02.204-1.02.714v14.491l-4.694 1.939c-.816.408-1.327 2.857-1.327 5.102 0 1.939.306 3.776 1.327 3.776l4.694-1.735v18.164l-4.694 1.735c-.918.408-1.327 2.755-1.327 5 0 2.143.408 4.082 1.327 4.082l4.694-1.837v13.776c0 .51.51.816 1.02.816s1.123-.306 1.123-.816v-14.593l8.98-3.266v15.001c0 .51.51.714 1.02.714s1.02-.204 1.02-.714v-15.715l4.592-1.633c1.123-.408 1.633-3.061 1.633-5.306 0-2.041-.408-3.776-1.327-3.776-.102 0-.204.102-.306.102l-4.592 1.633zm-2.041.816v18.062l-8.98 3.266v-18.062zm-80.492-72.94q0 4.057-2.943 6.327-2.943 2.27-7.988 2.27-5.465 0-8.408-1.408v-3.447q1.892.799 4.12 1.261 2.228.462 4.414.462 3.574 0 5.381-1.345 1.808-1.366 1.808-3.784 0-1.598-.652-2.607-.631-1.03-2.144-1.892-1.492-.862-4.562-1.955-4.288-1.535-6.138-3.637-1.829-2.102-1.829-5.487 0-3.553 2.67-5.655 2.67-2.102 7.063-2.102 4.583 0 8.429 1.682l-1.114 3.111q-3.805-1.598-7.399-1.598-2.838 0-4.435 1.219-1.598 1.219-1.598 3.384 0 1.598.589 2.628.589 1.009 1.976 1.871 1.408.841 4.288 1.871 4.835 1.724 6.643 3.7 1.829 1.976 1.829 5.129z"/><use xlink:href="#L" x="-1016.775" y="-642.574"/><path d="M151.979 32.656h-3.489V9.617h3.489zm-3.784-29.282q0-1.198.589-1.745.589-.568 1.471-.568.841 0 1.45.568.61.568.61 1.745 0 1.177-.61 1.766-.61.568-1.45.568-.883 0-1.471-.568-.589-.589-.589-1.766zm26.992 29.282V17.753q0-2.817-1.282-4.204-1.282-1.387-4.015-1.387-3.616 0-5.297 1.955-1.682 1.955-1.682 6.453v12.087h-3.489V9.617h2.838l.568 3.153h.168q1.072-1.703 3.006-2.628 1.934-.946 4.309-.946 4.162 0 6.264 2.018 2.102 1.997 2.102 6.411v15.03zm29.492-23.039v2.207l-4.267.505q.589.736 1.051 1.934.462 1.177.462 2.67 0 3.384-2.312 5.402-2.312 2.018-6.348 2.018-1.03 0-1.934-.168-2.228 1.177-2.228 2.964 0 .946.778 1.408.778.441 2.67.441h4.078q3.742 0 5.739 1.577 2.018 1.577 2.018 4.583 0 3.826-3.069 5.823-3.069 2.018-8.955 2.018-4.52 0-6.979-1.682-2.438-1.682-2.438-4.751 0-2.102 1.345-3.637 1.345-1.535 3.784-2.081-.883-.399-1.492-1.24-.589-.841-.589-1.955 0-1.261.673-2.207.673-.946 2.123-1.829-1.787-.736-2.922-2.502-1.114-1.766-1.114-4.036 0-3.784 2.27-5.823 2.27-2.06 6.432-2.06 1.808 0 3.258.42zm-18.372 26.907q0 1.871 1.577 2.838 1.577.967 4.52.967 4.393 0 6.496-1.324 2.123-1.303 2.123-3.553 0-1.871-1.156-2.607-1.156-.715-4.351-.715h-4.183q-2.375 0-3.7 1.135-1.324 1.135-1.324 3.258zm1.892-19.529q0 2.417 1.366 3.658 1.366 1.24 3.805 1.24 5.108 0 5.108-4.961 0-5.192-5.171-5.192-2.459 0-3.784 1.324-1.324 1.324-1.324 3.931z"/><use xlink:href="#P"/><path d="M452.835 121.298l56.604 12.756v-12.756l-56.604-12.756v12.756M573.219 178.7l60.591-6.378v-12.756l-60.591 6.378V178.7m117.194-31.89l60.591 12.756V146.81l-60.591-12.756v12.756"/><use xlink:href="#P" x="524.587"/><path d="M973.435 121.298l57.402 12.756v-12.756l-57.402-12.756v12.756m114.803 38.268l56.604-6.378v-12.756l-56.604 6.378v12.756m114.006-12.756l56.604 12.756V146.81l-56.604-12.756v12.756"/><use xlink:href="#P" x="1029.242"/><path d="M1482.077 121.298l57.402 12.756v-12.756l-57.402-12.756v12.756m117.195 57.402l60.591-6.378v-12.756l-60.591 6.378V178.7m117.194-31.89l60.591 12.756V146.81l-60.591-12.756v12.756"/></g><path d="M0 574.133h1812.136M0 548.621h1812.136M0 523.109h1812.136M0 497.597h1812.136M0 472.086h1812.136" class="C D F"/><g class="B E"><path d="M46.177 584.95c-7.756.102-12.96 6.633-12.96 11.531 0 11.429 11.123 17.552 20.001 17.552 8.164 0 20.614-5.817 20.614-17.042 0-1.327-.102-2.653-.51-4.082l-5.204-21.022c13.572-5.715 19.083-20.716 19.185-28.675v-.51c0-15.511-10.205-23.063-21.022-24.695-1.123-.204-2.449-.204-3.776-.204-2.755 0-5.715.306-7.347.918l-4.898-18.675c12.348-12.552 19.899-26.43 19.899-42.452v-.612c-.204-17.654-11.633-34.186-15.919-34.9-4.592 1.531-15.511 19.287-15.715 32.961v1.123c0 13.062 3.368 20.614 6.021 31.329-8.266 8.572-25.41 26.94-25.41 46.84 0 21.022 13.674 39.39 36.941 39.39a46.78 46.78 0 0 0 9.694-1.02l5.102 21.022a11.72 11.72 0 0 1 .408 3.163c0 8.878-9.388 14.695-17.858 14.695-5.306 0-11.633-4.592-12.144-8.674 1.225.918 2.653 1.225 4.082 1.225 5.102 0 10.817-4.49 10.817-8.878 0-5.102-3.572-10.103-10.001-10.307zM57.3 433.308c4.592 1.123 7.96 13.572 7.96 21.43-.102 11.123-12.042 23.675-18.675 30.818-2.041-8.368-4.388-14.491-4.388-27.247 0-13.47 11.327-24.593 15.103-25.002zm-5.102 86.434c-8.776 3.368-12.144 10.001-12.144 18.777 0 1.02 0 2.041.102 3.061.918 12.144 9.286 18.777 14.083 20.103-5.715-4.592-9.694-8.776-9.797-16.328 0-6.939 2.959-12.246 11.021-14.083l9.286 37.349c-2.347.714-7.347 1.02-10.817 1.02-1.123 0-2.143 0-2.755-.102-16.94-1.735-24.9-17.552-24.9-31.226.102-15.001 18.062-32.043 21.94-36.329zm5.715 11.123c1.939-.306 3.878-.51 5.715-.51 9.184 0 16.021 4.082 17.348 9.899.408 2.041.612 3.98.612 5.919 0 9.899-5.715 17.96-14.491 21.838zm70.105-70.719l4.592-1.633c1.123-.408 1.633-2.959 1.633-5.306 0-2.041-.408-3.878-1.327-3.878-.102 0-.204.102-.306.102l-4.592 1.633v-12.96c0-.51-.51-.714-1.02-.714s-1.02.204-1.02.714v13.674l-8.98 3.368V441.37c0-.51-.612-.714-1.123-.714s-1.02.204-1.02.714v14.491l-4.694 1.939c-.816.408-1.327 2.857-1.327 5.102 0 1.939.306 3.776 1.327 3.776l4.694-1.735v18.164l-4.694 1.735c-.918.408-1.327 2.755-1.327 5 0 2.143.408 4.082 1.327 4.082l4.694-1.837v13.776c0 .51.51.816 1.02.816s1.123-.306 1.123-.816V491.27l8.98-3.266v15.001c0 .51.51.714 1.02.714s1.02-.204 1.02-.714V487.29l4.592-1.633c1.123-.408 1.633-3.061 1.633-5.306 0-2.041-.408-3.776-1.327-3.776-.102 0-.204.102-.306.102l-4.592 1.633zm-2.041.816v18.062l-8.98 3.266v-18.062z"/><use xlink:href="#Q"/><use xlink:href="#Q" x="31.89" y="-51.024"/><path d="M286.211 535.865l82.116-12.756v-12.756l-82.116 12.756v12.756m312.519-63.779l83.711 6.378v-12.756l-83.711-6.378v12.756m302.908 41.329c1.531-1.429 3.47-2.143 5.102-2.143 2.551 0 4.592 1.633 4.592 5.409 0 5.817-6.123 12.756-10.001 16.123zm17.45 3.266c0-6.837-3.368-9.184-7.449-9.184-3.368 0-7.143 1.633-10.001 3.572v-34.696h-2.347v63.269c5.613-3.674 19.797-16.226 19.797-22.961zm-159.314-31.84l64.577-6.378v-12.756l-64.577 6.378v12.756m510.236 19.134l101.25-25.512v-12.756l-101.25 25.512v12.756"/></g><g class="C D F"><path d="M285.414 248.857h54.213m-54.213 25.512h54.213"/><path d="M327.667 270.383v-97.264"/></g><use xlink:href="#R" class="B E"/><path d="M349.99 248.857h54.213m-11.959-3.986v-84.508" class="C D F"/><use xlink:href="#R" x="64.577" y="-25.511" class="B E"/><path d="M452.835 181.091V109.34" class="C D F"/><use xlink:href="#R" x="125.167" y="-89.291" class="B E"/><path d="M509.439 219.359v-97.264" class="C D F"/><use xlink:href="#R" x="181.772" y="-51.023" class="B E"/><path d="M530.965 248.857h54.213m-11.959-3.986v-78.13" class="C D F"/><use xlink:href="#R" x="245.551" y="-25.511" class="B E"/><path d="M633.809 232.115v-71.752" class="C D F"/><use xlink:href="#R" x="306.142" y="-38.267" class="B E"/><path d="M690.413 219.359v-84.508" class="C D F"/><use xlink:href="#R" x="362.746" y="-51.023" class="B E"/><path d="M708.75 248.857h54.213m-11.959-3.986v-97.264" class="C D F"/><use xlink:href="#R" x="423.336" y="-25.511" class="B E"/><g class="C D F"><path d="M810 248.857h54.213"/><path d="M852.254 257.627v-84.508"/></g><use xlink:href="#R" x="524.586" y="-12.756" class="B E"/><path d="M916.831 232.115v-71.752" class="C D F"/><use xlink:href="#R" x="589.163" y="-38.267" class="B E"/><path d="M973.435 181.091V109.34" class="C D F"/><use xlink:href="#R" x="645.768" y="-89.291" class="B E"/><path d="M1030.837 206.603v-84.508" class="C D F"/><use xlink:href="#R" x="703.169" y="-63.779" class="B E"/><path d="M1088.238 232.115v-84.508" class="C D F"/><use xlink:href="#R" x="760.571" y="-38.267" class="B E"/><path d="M1144.843 219.359v-78.13" class="C D F"/><use xlink:href="#R" x="817.175" y="-51.023" class="B E"/><path d="M1202.244 206.603v-71.752" class="C D F"/><use xlink:href="#R" x="874.577" y="-63.779" class="B E"/><path d="M1258.848 232.115v-84.508" class="C D F"/><use xlink:href="#R" x="931.181" y="-38.267" class="B E"/><g class="C D F"><path d="M1314.656 248.857h54.213m-54.213 25.512h54.213"/><path d="M1356.909 270.383v-97.264"/></g><use xlink:href="#R" x="1029.242" class="B E"/><path d="M1379.232 248.857h54.213m-11.959-3.986v-84.508" class="C D F"/><use xlink:href="#R" x="1093.819" y="-25.511" class="B E"/><path d="M1482.077 181.091V109.34" class="C D F"/><use xlink:href="#R" x="1154.409" y="-89.291" class="B E"/><path d="M1539.478 219.359v-97.264" class="C D F"/><use xlink:href="#R" x="1211.811" y="-51.023" class="B E"/><path d="M1557.018 248.857h54.213m-11.959-3.986v-78.13" class="C D F"/><use xlink:href="#R" x="1271.604" y="-25.511" class="B E"/><path d="M1659.862 232.115v-71.752" class="C D F"/><use xlink:href="#R" x="1332.195" y="-38.267" class="B E"/><path d="M1716.466 219.359v-84.508" class="C D F"/><use xlink:href="#R" x="1388.799" y="-51.023" class="B E"/><path d="M1734.803 248.857h54.213m-11.959-3.986v-97.264" class="C D F"/><use xlink:href="#R" x="1449.39" y="-25.511" class="B E"/><g class="C D F"><path d="M243.957 599.645h54.213m-54.213 25.511h54.213"/><path d="M286.211 621.17v-97.264"/></g><use xlink:href="#R" x="-41.457" y="350.788" class="B E"/><path d="M326.073 599.645h54.213m-11.959-3.987V511.15" class="C D F"/><g class="B E"><use xlink:href="#R" x="40.659" y="325.276"/><path d="M321.915 634.443v-54.799l-15.613 5.511v-20.511h-2.551v54.799l15.613-5.409v20.409zm-15.613-41.023l13.062-4.796v17.144l-13.062 4.694z"/><use xlink:href="#S"/></g><path d="M495.886 531.879v-85.305" class="C D F"/><g class="B E"><use xlink:href="#R" x="168.218" y="261.496"/><use xlink:href="#T"/></g><path d="M598.73 531.879v-71.752" class="C D F"/><use xlink:href="#R" x="271.063" y="261.496" class="B E"/><path d="M682.441 544.635v-78.13" class="C D F"/><g class="B E"><use xlink:href="#R" x="354.774" y="274.252"/><path d="M644.001 583.419V528.62l-15.613 5.511v-20.511h-2.551v54.799l15.613-5.409v20.409zm-15.613-41.023l13.062-4.796v17.144l-13.062 4.694z"/></g><path d="M759.774 557.391v-84.508" class="C D F"/><g class="B E"><use xlink:href="#R" x="432.106" y="287.008"/><path d="M721.334 596.175v-54.799l-15.613 5.511v-20.511h-2.551v54.799l15.613-5.409v20.409zm-15.613-41.023l13.062-4.796V567.5l-13.062 4.694z"/></g><path d="M824.35 544.635v-78.13" class="C D F"/><use xlink:href="#R" x="496.683" y="274.252" class="B E"/><path d="M952.707 599.645h54.213m-11.959-3.987v-85.305" class="C D F"/><use xlink:href="#R" x="667.293" y="325.276" class="B E"/><path d="M1083.455 557.391v-85.305" class="C D F"/><use xlink:href="#R" x="755.787" y="287.008" class="B E"/><path d="M1171.949 557.391v-85.305" class="C D F"/><use xlink:href="#R" x="844.281" y="287.008" class="B E"/><path d="M1227.756 599.645h54.213m-11.959-3.987V492.017" class="C D F"/><use xlink:href="#R" x="942.342" y="325.276" class="B E"/><path d="M1371.26 544.635v-78.13" class="C D F"/><use xlink:href="#R" x="1043.592" y="274.252" class="B E"/><path d="M1474.902 544.635V459.33" class="C D F"/><g class="B E"><use xlink:href="#R" x="1147.234" y="274.252"/><use xlink:href="#T" x="979.016" y="12.756"/></g><path d="M1541.87 557.391v-85.305" class="C D F"/><g class="B E"><use xlink:href="#R" x="1214.203" y="287.008"/><use xlink:href="#S" x="1199.055"/><path d="M1663.848 523.109h32.757v-12.246h-32.757z"/></g></g><defs ><path id="B" d="M526.567 21.513h8.264c5.151 0 7.019 1.189 8.377 6.226h1.019v-8.264h-28.302v1.019c4.755 0 5.321.849 5.321 5.66v24.113c0 4.811-.566 5.66-5.321 5.66v1.019h16.076v-1.019c-4.755 0-5.434-.849-5.434-5.66V38.495h6.906c3.623 0 4.868 1.528 4.868 5.321h1.019V31.136h-1.019c-.453 3.623-1.415 5.094-4.868 5.094h-6.906z"/><path id="C" d="M561.451 39.287l-6.566 2.094V29.494l6.566-2.208zm0-28.415V21.06l-6.566 2.264V13.023h-1.698v10.755l-3.849 1.245v6.226l3.849-1.245v11.887l-3.849 1.245v6.226l3.849-1.245v9.736h1.698V47.551l6.566-2.151v10.302h1.698V44.947l3.962-1.245v-6.226l-3.962 1.245V26.834l3.962-1.245v-6.226l-3.962 1.245v-9.736z"/><path id="D" d="M607.799 56.948v-.906c-2.717 0-3.34-.849-3.34-4.302V40.419c0-1.302-1.132-4.642-2.038-5.604-.849-.792-2.038-1.189-3.679-1.189-3.226 0-6.057 1.359-8.547 4.189-.566-2.83-2.264-4.189-5.094-4.189-3.057 0-5.604 1.359-7.868 4.076v-4.076l-7.642 2.434v.906h2.434c.623.226.906.906.906 2.038V51.74c0 3.453-.623 4.302-3.34 4.302v.906h10.698v-.906c-2.208 0-3.057-.849-3.057-3.566V39.344c1.698-2.208 3.566-3.283 5.604-3.283 2.377 0 3.566 1.359 3.566 4.189v11.83c0 3.226-.849 3.962-3.057 3.962v.906h10.698v-.906c-2.717 0-3.34-.849-3.34-4.302l.057-3.962v-5.094c-.057-1.811-.113-3-.283-3.453 1.811-2.094 3.792-3.17 5.83-3.17 2.547 0 3.849 1.359 3.849 4.189v11.83c0 3.226-.849 3.962-3.057 3.962v.906z"/><path id="E" d="M528.235 663.69q0 5.634-2.838 8.808-2.838 3.153-7.841 3.153-3.09 0-5.487-1.45-2.396-1.45-3.7-4.162-1.303-2.712-1.303-6.348 0-5.634 2.817-8.766 2.817-3.153 7.82-3.153 4.835 0 7.673 3.216 2.859 3.216 2.859 8.703zm-17.553 0q0 4.414 1.766 6.727 1.766 2.312 5.192 2.312 3.426 0 5.192-2.291 1.787-2.312 1.787-6.748 0-4.393-1.787-6.664-1.766-2.291-5.234-2.291-3.426 0-5.171 2.249-1.745 2.249-1.745 6.706z"/><path id="F" d="M587.346 672.14h-.189q-2.417 3.511-7.231 3.511-4.52 0-7.042-3.09-2.502-3.09-2.502-8.787 0-5.697 2.523-8.85 2.523-3.153 7.021-3.153 4.688 0 7.189 3.405h.273l-.147-1.661-.084-1.619v-9.375h3.489v32.709h-2.838zm-6.979.589q3.574 0 5.171-1.934 1.619-1.955 1.619-6.285v-.736q0-4.898-1.64-6.979-1.619-2.102-5.192-2.102-3.069 0-4.709 2.396-1.619 2.375-1.619 6.727 0 4.414 1.619 6.664 1.619 2.249 4.751 2.249z"/><path id="G" d="M661.248 675.23v-14.904q0-2.817-1.282-4.204-1.282-1.387-4.015-1.387-3.616 0-5.297 1.955-1.682 1.955-1.682 6.453v12.087h-3.489v-23.039h2.838l.568 3.153h.168q1.072-1.703 3.006-2.628 1.934-.946 4.309-.946 4.162 0 6.264 2.018 2.102 1.997 2.102 6.411v15.03z"/><path id="H" d="M688.827 672.771q.925 0 1.787-.126.862-.147 1.366-.294v2.67q-.568.273-1.682.441-1.093.189-1.976.189-6.685 0-6.685-7.042v-13.706h-3.3v-1.682l3.3-1.45 1.471-4.919h2.018v5.339h6.685v2.712h-6.685v13.559q0 2.081.988 3.195.988 1.114 2.712 1.114z"/><path id="I" d="M739.059 675.23h-3.489v-23.039h3.489zm-3.784-29.282q0-1.198.589-1.745.589-.568 1.471-.568.841 0 1.45.568.61.568.61 1.745 0 1.177-.61 1.766-.61.568-1.45.568-.883 0-1.471-.568-.589-.589-.589-1.766z"/><path id="J" d="M823.526 675.651q-5.108 0-8.072-3.111-2.943-3.111-2.943-8.64 0-5.571 2.733-8.85 2.754-3.279 7.378-3.279 4.33 0 6.853 2.859 2.523 2.838 2.523 7.505v2.207h-15.871q.105 4.057 2.039 6.159 1.955 2.102 5.487 2.102 3.721 0 7.357-1.556v3.111q-1.85.799-3.511 1.135-1.64.357-3.973.357zm-.946-20.958q-2.775 0-4.435 1.808-1.64 1.808-1.934 5.003h12.045q0-3.3-1.471-5.045-1.471-1.766-4.204-1.766z"/><path id="K" d="M978.606 372.3h8.264c5.151 0 7.019 1.189 8.377 6.226h1.019v-8.264h-28.302v1.019c4.755 0 5.321.849 5.321 5.66v24.113c0 4.811-.566 5.66-5.321 5.66v1.019h16.076v-1.019c-4.755 0-5.434-.849-5.434-5.66v-11.774h6.906c3.623 0 4.868 1.528 4.868 5.321h1.019v-12.679h-1.019c-.453 3.623-1.415 5.094-4.868 5.094h-6.906z"/><path id="L" d="M1150.613 675.23l-4.225-13.517q-.399-1.24-1.492-5.634h-.168q-.841 3.679-1.471 5.676l-4.351 13.475h-4.036l-6.285-23.039h3.658q2.228 8.682 3.384 13.222 1.177 4.541 1.345 6.117h.168q.231-1.198.736-3.09.526-1.913.904-3.027l4.225-13.222h3.784l4.12 13.222q1.177 3.616 1.598 6.075h.168q.084-.757.441-2.333.378-1.577 4.393-16.964h3.616l-6.369 23.039z"/><path id="M" d="M1277.237 651.771q1.535 0 2.754.252l-.483 3.237q-1.429-.315-2.523-.315-2.796 0-4.793 2.27-1.976 2.27-1.976 5.655v12.36h-3.489v-23.039h2.88l.399 4.267h.168q1.282-2.249 3.09-3.468 1.808-1.219 3.973-1.219z"/><path id="N" d="M1564.543 673.002q0-1.408.631-2.123.652-.736 1.85-.736 1.219 0 1.892.736.694.715.694 2.123 0 1.366-.694 2.102-.694.736-1.892.736-1.072 0-1.787-.652-.694-.673-.694-2.186z"/><path id="O" d="M256.678 169.874c-1.646 0-4.937-1.028-4.937-2.468v-7.508h4.937v-2.263h-4.937v-23.654l-11.519 9.667v13.987h-13.781l23.86-37.744h-12.856c-1.748 15.838-7.199 32.705-15.221 37.744v2.263h17.998v7.508c0 1.44-3.497 2.468-5.142 2.468v2.263h21.597z"/><path id="P" d="M327.667 185.078l64.577-12.756v-12.756l-64.577 12.756v12.756"/><path id="Q" d="M159.908 498.414l4.592-1.633c1.123-.408 1.633-2.959 1.633-5.306 0-2.041-.408-3.878-1.327-3.878-.102 0-.204.102-.306.102l-4.592 1.633v-12.96c0-.51-.51-.714-1.02-.714s-1.02.204-1.02.714v13.674l-8.98 3.368v-13.776c0-.51-.612-.714-1.123-.714s-1.02.204-1.02.714v14.491l-4.694 1.939c-.816.408-1.327 2.857-1.327 5.102 0 1.939.306 3.776 1.327 3.776l4.694-1.735v18.164l-4.694 1.735c-.918.408-1.327 2.755-1.327 5 0 2.143.408 4.082 1.327 4.082l4.694-1.837v13.776c0 .51.51.816 1.02.816s1.123-.306 1.123-.816v-14.593l8.98-3.266v15.001c0 .51.51.714 1.02.714s1.02-.204 1.02-.714v-15.715l4.592-1.633c1.123-.408 1.633-3.061 1.633-5.306 0-2.041-.408-3.776-1.327-3.776-.102 0-.204.102-.306.102l-4.592 1.633zm-2.041.816v18.062l-8.98 3.266v-18.062z"/><path id="R" d="M296.575 277.328c0 6.531 5.409 10.205 12.246 10.205 9.082 0 19.389-7.551 19.389-16.123 0-6.531-5.409-10.103-12.246-10.103-9.082 0-19.389 7.449-19.389 16.021z"/><path id="S" d="M429.893 508.925c-3.674 1.123-12.348 4.286-15.817 4.286-.51 0-.918 0-1.123-.204 1.123-2.143 1.633-3.98 1.633-5.409 0-3.572-2.755-5.102-5.817-5.102-3.674 0-7.756 2.041-7.756 5.511 0 6.021 5.204 7.858 10.817 7.858 4.898 0 10.205-1.327 12.96-2.449l-15.613 35.104h3.061z"/><path id="T" d="M496.109 446.472v26.532c16.021 8.674 24.287 20.716 24.287 35.614 0 6.837-1.429 14.491-4.694 22.757l.408.306c4.184-9.49 6.735-17.756 6.735-25.92 0-6.633-1.735-13.266-5.817-20.511-6.633-11.735-18.164-25.614-19.899-38.676z"/></defs></svg>