<svg xmlns="http://www.w3.org/2000/svg" width="8.602" height="9.668" viewBox="0 0 25.818 28.996" xmlns:v="https://vecta.io/nano"><path d="M25.818 27.872v-7.45h-.816c-3.47 0-7.04-1.837-10.51-5.306 3.368-3.368 7.143-5.204 11.327-5.41v-7.45h-7.45c0 3.878-1.837 7.654-5.51 11.327-3.572-3.572-5.41-7.347-5.41-11.327H0v7.45c3.98 0 7.756 1.837 11.327 5.41C7.756 18.687 3.98 20.422 0 20.422v7.45h7.45c0-3.98 1.837-7.756 5.41-11.327 3.674 3.674 5.51 7.45 5.51 11.327h7.45z" fill="#fff" fill-rule="evenodd"/></svg>