<svg xmlns="http://www.w3.org/2000/svg" xmlns:xlink="http://www.w3.org/1999/xlink" width="619.729" height="154.779" viewBox="0 0 1859.971 464.2" xmlns:v="https://vecta.io/nano"><style><![CDATA[.B{stroke-linecap:butt}.C{stroke-linejoin:bevel}.D{fill:#000}.E{stroke:none}.F{stroke-width:2.392}]]></style><g fill="none" stroke="#000" fill-rule="evenodd"><path d="M33.485 115.452v344.409" stroke-width="3.189" class="B C"/><g class="D E"><path d="M0 288.343c9.184 6.544 15.307 15.498 15.307 27.897 0 16.876-12.926 47.873-12.926 76.459 0 18.943 5.442 39.952 22.79 66.127-8.504-15.498-14.286-28.242-14.286-45.462v-4.133c1.02-25.831 14.286-55.45 14.286-74.737 0-24.109-6.803-34.097-24.491-46.84 18.028-11.71 24.491-23.42 24.491-46.84 0-19.287-13.266-48.906-14.286-74.737v-3.789c0-16.876 6.463-29.619 14.286-45.462v-1.378c-17.348 24.797-22.79 48.906-22.79 67.16 0 28.93 12.926 59.583 12.926 76.459 0 12.399-6.123 21.353-15.307 27.897z"/><use xlink:href="#B"/><use xlink:href="#C"/><use xlink:href="#D"/><use xlink:href="#E"/><use xlink:href="#F"/><path d="M343.851 44.874l-1.019-1.472c-3.623 4.019-7.925 6-12.906 6-8.547 0-14.038-6.793-14.038-16.868 0-10.245 5.208-17.321 13.698-17.321 6.623 0 11.094 4.359 12.453 10.981h1.585V12.949H341.7c-.509 1.415-1.245 2.151-2.151 2.151-.509 0-6.849-2.377-10.755-2.377-11.038 0-19.132 9.283-19.132 20.264 0 11.264 7.472 18.849 18.679 18.849 6.566 0 11.717-2.321 15.51-6.962z"/><use xlink:href="#C" x="153.071"/><use xlink:href="#D" x="153.071"/><use xlink:href="#E" x="153.071"/><use xlink:href="#G"/><use xlink:href="#G" x="15.588"/><use xlink:href="#B" x="321.289"/><use xlink:href="#C" x="321.289"/><use xlink:href="#D" x="321.289"/><use xlink:href="#E" x="321.289"/><use xlink:href="#G" x="168.218"/><use xlink:href="#H"/><use xlink:href="#B" x="605.905"/><use xlink:href="#F" x="531.833"/><use xlink:href="#B" x="776.513"/><use xlink:href="#G" x="549.37"/><use xlink:href="#G" x="564.958"/><use xlink:href="#B" x="943.143"/><use xlink:href="#G" x="716"/><use xlink:href="#H" x="547.781"/><use xlink:href="#B" x="1195.073"/><use xlink:href="#I"/><use xlink:href="#F" x="1160.138"/><use xlink:href="#B" x="1351.333"/><use xlink:href="#I" x="156.26"/><use xlink:href="#G" x="1163.327"/><use xlink:href="#G" x="1178.915"/><use xlink:href="#B" x="1513.173"/><use xlink:href="#I" x="318.1"/><use xlink:href="#G" x="1325.167"/><use xlink:href="#H" x="1156.948"/></g><path d="M31.89 217.499h1828.08M31.89 191.987h1828.08M31.89 166.476h1828.08M31.89 140.964h1828.08M31.89 115.452h1828.08" class="B C F"/><path d="M78.067 228.316c-7.756.102-12.96 6.633-12.96 11.531 0 11.429 11.123 17.552 20.001 17.552 8.164 0 20.614-5.817 20.614-17.042 0-1.327-.102-2.653-.51-4.082l-5.204-21.022c13.572-5.715 19.083-20.716 19.185-28.675v-.51c0-15.511-10.205-23.063-21.022-24.695-1.123-.204-2.449-.204-3.776-.204-2.755 0-5.715.306-7.347.918l-4.898-18.675c12.348-12.552 19.899-26.43 19.899-42.452v-.612c-.204-17.654-11.633-34.186-15.919-34.9-4.592 1.531-15.511 19.287-15.715 32.961v1.123c0 13.062 3.368 20.614 6.021 31.329-8.266 8.572-25.41 26.94-25.41 46.84 0 21.022 13.674 39.39 36.941 39.39a46.78 46.78 0 0 0 9.694-1.02l5.102 21.022c.306 1.123.408 2.143.408 3.163 0 8.878-9.388 14.695-17.858 14.695-5.306 0-11.633-4.592-12.144-8.674 1.225.918 2.653 1.225 4.082 1.225 5.102 0 10.817-4.49 10.817-8.878 0-5.102-3.572-10.103-10.001-10.307zM89.19 76.674c4.592 1.123 7.96 13.572 7.96 21.43-.102 11.123-12.042 23.675-18.675 30.818-2.041-8.368-4.388-14.491-4.388-27.247 0-13.47 11.327-24.593 15.103-25.002zm-5.102 86.434c-8.776 3.368-12.144 10.001-12.144 18.777 0 1.02 0 2.041.102 3.061.918 12.144 9.286 18.777 14.083 20.103-5.715-4.592-9.694-8.776-9.797-16.328 0-6.939 2.959-12.246 11.021-14.083l9.286 37.349c-2.347.714-7.347 1.02-10.817 1.02-1.123 0-2.143 0-2.755-.102-16.94-1.735-24.9-17.552-24.9-31.226.102-15.001 18.062-32.043 21.94-36.329zm5.715 11.123c1.939-.306 3.878-.51 5.715-.51 9.184 0 16.021 4.082 17.348 9.899.408 2.041.612 3.98.612 5.919 0 9.899-5.715 17.96-14.491 21.838z" class="D E"/><path d="M31.89 459.861h1828.08M31.89 434.35h1828.08M31.89 408.838h1828.08M31.89 383.326h1828.08M31.89 357.814h1828.08" class="B C F"/><path d="M112.15 394.653c0 2.653 2.041 5.715 5.919 5.715 3.47 0 5.919-3.061 5.919-5.715 0-3.163-2.449-5.817-5.919-5.817-3.878 0-5.919 2.653-5.919 5.817zm0-22.961c0 2.653 2.041 5.511 5.919 5.511 3.47 0 5.919-2.857 5.919-5.511 0-3.163-2.449-5.715-5.919-5.715-3.878 0-5.919 2.551-5.919 5.715zm-60.514 70.311c23.063-11.225 56.228-27.043 56.228-59.596 0-15.613-14.083-25.002-28.471-25.002-10.103 0-25.92 9.49-25.92 22.552 0 7.551 6.225 11.123 12.246 11.123 5.817 0 11.429-3.266 11.429-9.694 0-4.49-3.368-8.47-8.266-8.47-.612 0-1.327.102-2.041.204-1.327.204-3.163.816-3.878.816-2.245 0-3.266-1.225-3.266-2.755 0-.51.102-.918.306-1.429 3.47-5.613 8.572-8.062 15.817-9.184.714-.102 1.429-.204 2.143-.204 10.817 0 15.103 13.266 15.103 22.859 0 6.837-2.551 16.94-6.531 23.879-9.082 15.919-19.389 22.348-35.512 32.655z" class="D E"/><path d="M186.556 243.011h74.144" class="B C F"/><g class="D E"><use xlink:href="#J"/><use xlink:href="#J" y="-25.512"/><use xlink:href="#J" x="41.457" y="-38.268"/><use xlink:href="#J" y="-63.779"/></g><path d="M346.004 243.011h74.144" class="B C F"/><g class="D E"><use xlink:href="#J" x="159.449"/><use xlink:href="#J" x="159.449" y="-25.512"/><use xlink:href="#J" x="159.449" y="-51.024"/></g><path d="M489.508 243.011h74.144m-74.144 25.512h74.144m-32.687-25.512h74.144" class="B C F"/><g class="D E"><use xlink:href="#J" x="302.953" y="12.756"/><use xlink:href="#J" x="344.41"/><use xlink:href="#J" x="302.953" y="-25.512"/><use xlink:href="#J" x="344.41" y="-38.268"/></g><path d="M755.788 243.011h74.144" class="B C F"/><g class="D E"><use xlink:href="#J" x="569.232"/><use xlink:href="#J" x="569.232" y="-25.512"/><use xlink:href="#J" x="610.689" y="-38.268"/><use xlink:href="#J" x="569.232" y="-63.779"/><use xlink:href="#K"/></g><path d="M931.979 243.011h74.144" class="B C F"/><g class="D E"><use xlink:href="#J" x="745.423"/><use xlink:href="#J" x="745.423" y="-25.512"/><use xlink:href="#J" x="745.423" y="-51.024"/><use xlink:href="#K" x="176.191"/></g><path d="M1100.197 243.011h74.144" class="B C F"/><g class="D E"><use xlink:href="#J" x="913.642"/><use xlink:href="#J" x="913.642" y="-25.512"/><use xlink:href="#J" x="955.098" y="-38.268"/><use xlink:href="#J" x="913.642" y="-76.535"/><use xlink:href="#K" x="344.41"/></g><path d="M1364.085 243.011h74.144" class="B C F"/><g class="D E"><use xlink:href="#J" x="1177.53"/><use xlink:href="#J" x="1177.53" y="-25.512"/><use xlink:href="#J" x="1218.986" y="-38.268"/><use xlink:href="#J" x="1177.53" y="-63.779"/><use xlink:href="#K" x="620.256" y="-38.267"/><use xlink:href="#K" x="597.136"/></g><path d="M1526.723 243.011h74.144" class="B C F"/><g class="D E"><use xlink:href="#J" x="1340.167"/><use xlink:href="#J" x="1340.167" y="-38.268"/><use xlink:href="#J" x="1340.167" y="-63.779"/><use xlink:href="#K" x="782.894" y="-38.267"/><use xlink:href="#K" x="759.774"/></g><path d="M1690.158 243.011h74.144" class="B C F"/><g class="D E"><use xlink:href="#J" x="1503.602"/><use xlink:href="#J" x="1503.602" y="-25.512"/><use xlink:href="#J" x="1503.602" y="-76.535"/><use xlink:href="#K" x="934.37"/><use xlink:href="#J" y="114.803"/><use xlink:href="#J" y="165.827"/><use xlink:href="#J" x="159.449" y="114.803"/><use xlink:href="#J" x="159.449" y="165.827"/><use xlink:href="#J" x="302.953" y="165.827"/><use xlink:href="#J" x="569.232" y="114.803"/><use xlink:href="#J" x="569.232" y="165.827"/><use xlink:href="#J" x="745.423" y="114.803"/><use xlink:href="#J" x="745.423" y="165.827"/><use xlink:href="#J" x="913.642" y="114.803"/><use xlink:href="#J" x="913.642" y="165.827"/><use xlink:href="#J" x="1177.53" y="114.803"/><use xlink:href="#J" x="1177.53" y="165.827"/><use xlink:href="#J" x="1340.167" y="127.559"/><use xlink:href="#J" x="1340.167" y="165.827"/><use xlink:href="#J" x="1503.602" y="140.315"/><use xlink:href="#J" x="1503.602" y="165.827"/><use xlink:href="#K" x="946.329" y="140.315"/></g></g><defs ><path id="B" d="M190.78 44.874l-1.019-1.472c-3.623 4.019-7.925 6-12.906 6-8.547 0-14.038-6.793-14.038-16.868 0-10.245 5.208-17.321 13.698-17.321 6.623 0 11.094 4.359 12.453 10.981h1.585V12.949h-1.925c-.509 1.415-1.245 2.151-2.151 2.151-.509 0-6.849-2.377-10.755-2.377-11.038 0-19.132 9.283-19.132 20.264 0 11.264 7.472 18.849 18.679 18.849 6.566 0 11.717-2.321 15.51-6.962z"/><path id="C" d="M232.52 36.383v-.906c-2.717 0-3.34-.849-3.34-4.302V19.912c0-1.359-1.132-4.698-2.038-5.604-.849-.849-2.038-1.245-3.679-1.245-3.226 0-6.057 1.359-8.547 4.189-.566-2.83-2.264-4.189-5.094-4.189-3.057 0-5.604 1.359-7.868 4.076v-4.076l-7.642 2.434v.906h2.434c.623.226.906.906.906 2.038v12.736c0 3.453-.623 4.302-3.34 4.302v.906h10.698v-.906c-2.208 0-3.057-.849-3.057-3.566V18.78c1.698-2.208 3.566-3.283 5.604-3.283 2.377 0 3.566 1.359 3.566 4.189v11.83c0 3.226-.849 3.962-3.057 3.962v.906h10.698v-.906c-2.717 0-3.34-.849-3.34-4.302l.057-3.962v-5.094c-.057-1.811-.113-3-.283-3.453 1.811-2.094 3.792-3.17 5.83-3.17 2.547 0 3.849 1.359 3.849 4.189v11.83c0 3.226-.849 3.962-3.057 3.962v.906z"/><path id="D" d="M254.688 32.591c-1.189.849-2.038 1.245-2.66 1.245-.792 0-1.132-.679-1.132-2.038V20.308c0-4.642-2.717-7.245-7.302-7.245-3.962 0-8.434 2.491-8.434 5.717 0 1.472.623 2.208 1.981 2.208 1.245 0 2.377-1.019 2.377-2.208 0-.453-.226-1.528-.226-1.981 0-1.585 1.811-2.547 3.566-2.547 2.491 0 3.792 1.472 3.792 4.302v3.057c-9.51 3-12.51 5.377-12.51 9.906 0 2.66 1.925 5.434 4.755 5.434 2.094 0 4.755-1.302 7.925-3.849.057 2.547 1.075 3.736 3.057 3.736 1.585 0 3.17-.906 4.811-2.717zm-8.038-.792c-1.811 1.359-3.34 2.038-4.698 2.038-2.208 0-3.34-1.868-3.34-4.076 0-2.094.849-3.679 2.604-4.698.623-.396 2.434-1.075 5.434-2.038z"/><path id="E" d="M265.875 3.496c0-1.189-1.189-2.434-2.547-2.434s-2.66 1.302-2.66 2.66c0 1.245 1.189 2.434 2.547 2.434 1.415 0 2.66-1.245 2.66-2.66zm-8.66 13.076c1.075-.283 1.868-.396 2.321-.396 1.019 0 1.528 1.019 1.528 3.057v19.812c0 3.679-.623 5.604-1.925 5.604-1.245 0-3.736-3.17-5.038-3.17-1.189 0-1.755.679-1.755 2.038 0 2.264 2.434 3.34 4.868 3.34 5.434 0 8.151-4.245 8.151-12.793V12.496l-8.151 2.943z"/><path id="F" d="M286.101 20.874c0-6.283-3.453-11.094-8.717-11.094-5.094 0-8.377 4.585-8.377 9.51 0 4.698 2.604 7.925 7.132 7.925 2.491 0 4.472-.736 6-2.151-1.245 5.377-6.849 10.528-12.227 11.434l.113.679c9.453-1.019 16.076-6.679 16.076-16.302zm-8.264 4.528c-3.566 0-5.321-2.491-5.321-7.472 0-4.132 1.925-7.245 4.642-7.245 3.566 0 5.321 3.396 5.321 10.189 0 .906-.057 1.755-.113 2.491-1.132 1.359-2.66 2.038-4.528 2.038z"/><path id="G" d="M434.757 36.497v-.906c-3.226 0-3.736-.453-3.736-3.736V9.666l-7.472 3.962v.679c1.585-.623 2.66-.906 3.17-.906.679 0 1.019.679 1.019 2.038v16.415c0 3.34-.623 3.736-3.849 3.736v.906z"/><path id="H" d="M609.96 37.063c7.245 0 12-3.623 12-9.396 0-3.17-1.868-5.943-4.868-7.019 2.264-1.415 3.396-3.283 3.396-5.547 0-3.17-2.434-5.321-5.774-5.321-3.962 0-6.17 1.925-8.151 6.906l.566.226c1.528-3 3.566-4.528 6.226-4.528 2.547 0 4.189 1.642 4.189 4.076 0 3.453-3.283 5.66-6.906 6.566v.566c.509-.057 1.019-.057 1.528-.057 4.302 0 6.849 2.038 6.849 5.943 0 3.34-1.868 6-5.208 6-2.094 0-5.094-2.151-5.547-2.151-1.189 0-1.811.396-1.811 1.132 0 1.755 1.189 2.604 3.509 2.604z"/><path id="I" d="M1427.593 51.101v-.906c-2.717 0-3.34-.849-3.34-4.302V34.572c0-1.302-1.132-4.642-2.038-5.604-.849-.792-2.038-1.189-3.679-1.189-3.226 0-6.057 1.359-8.547 4.189-.566-2.83-2.264-4.189-5.094-4.189-3.057 0-5.604 1.359-7.868 4.076V27.78l-7.642 2.434v.906h2.434c.623.226.906.906.906 2.038v12.736c0 3.453-.623 4.302-3.34 4.302v.906h10.698v-.906c-2.208 0-3.057-.849-3.057-3.566V33.497c1.698-2.208 3.566-3.283 5.604-3.283 2.377 0 3.566 1.359 3.566 4.189v11.83c0 3.226-.849 3.962-3.057 3.962v.906h10.698v-.906c-2.717 0-3.34-.849-3.34-4.302l.057-3.962v-5.094c-.057-1.811-.113-3-.283-3.453 1.811-2.094 3.792-3.17 5.83-3.17 2.547 0 3.849 1.359 3.849 4.189v11.83c0 3.226-.849 3.962-3.057 3.962v.906z"/><path id="J" d="M201.703 255.971c0 9.797 12.756 12.552 21.838 12.552h.51c8.572-.102 21.124-2.857 21.124-12.756 0-8.572-12.858-12.654-21.532-12.654-9.082 0-21.94 4.082-21.94 12.858zm13.266-8.062c1.531-1.531 4.184-2.347 6.837-2.347 2.143 0 4.286.51 6.021 1.735 3.266 2.347 5.817 8.368 5.817 12.756 0 1.123-.102 2.143-.51 2.959-1.123 2.245-5.204 3.878-8.98 3.878-1.633 0-3.266-.306-4.49-1.02-3.674-2.041-6.837-7.347-6.837-12.144 0-2.143.612-4.184 2.143-5.817z"/><path id="K" d="M734.217 246.072c1.531-1.429 3.47-2.143 5.102-2.143 2.551 0 4.592 1.633 4.592 5.409 0 5.817-6.123 12.756-10.001 16.123zm17.45 3.266c0-6.837-3.368-9.184-7.449-9.184-3.368 0-7.143 1.633-10.001 3.572v-34.696h-2.347v63.269c5.613-3.674 19.797-16.226 19.797-22.961z"/></defs></svg>