<svg xmlns="http://www.w3.org/2000/svg" xmlns:xlink="http://www.w3.org/1999/xlink" width="221.843" height="158.736" viewBox="0 0 665.808 476.063" xmlns:v="https://vecta.io/nano"><style><![CDATA[.B{stroke-linecap:butt}.C{stroke-linejoin:bevel}.D{fill:#000}.E{stroke:none}.F{stroke-width:2.392}]]></style><g fill="none" fill-rule="evenodd" stroke="#000"><path d="M35.876 64.74v344.41" stroke-width="3.189" class="B C"/><path d="M0 237.63c9.092 6.544 15.154 15.498 15.154 27.897 0 16.876-12.796 47.873-12.796 76.46 0 18.943 5.388 39.952 22.562 66.127-8.42-15.498-14.143-28.242-14.143-45.462v-4.133c1-25.83 14.143-55.45 14.143-74.737 0-24.11-6.735-34.097-24.246-46.84 17.848-11.7 24.246-23.42 24.246-46.84 0-19.287-13.133-48.906-14.143-74.737v-3.79c0-16.876 6.398-29.62 14.143-45.462v-1.378C7.745 89.535 2.357 113.644 2.357 131.897c0 28.93 12.796 59.583 12.796 76.46 0 12.4-6.06 21.353-15.154 27.897v1.378z" class="D E"/><path d="M34.28 166.787h538.14M34.28 141.275h538.14m-538.14-25.51h538.14M34.28 90.252h538.14M34.28 64.74h538.14" class="B C F"/><path d="M80.458 177.604c-7.756.102-12.96 6.633-12.96 11.53 0 11.43 11.123 17.552 20 17.552 8.164 0 20.614-5.817 20.614-17.042 0-1.327-.102-2.653-.5-4.082l-5.204-21.022c13.572-5.715 19.083-20.716 19.185-28.675v-.5c0-15.51-10.205-23.063-21.022-24.695-1.123-.204-2.45-.204-3.776-.204-2.755 0-5.715.306-7.347.918L84.54 92.7c12.348-12.552 19.9-26.43 19.9-42.452v-.612c-.204-17.654-11.633-34.186-15.92-34.9-4.592 1.53-15.51 19.287-15.715 32.96v1.123c0 13.062 3.368 20.614 6.02 31.33-8.266 8.572-25.4 26.94-25.4 46.84 0 21.022 13.674 39.4 36.94 39.4a46.78 46.78 0 0 0 9.694-1.02l5.102 21.022c.306 1.123.408 2.143.408 3.163 0 8.878-9.388 14.695-17.858 14.695-5.306 0-11.633-4.592-12.144-8.674 1.225.918 2.653 1.225 4.082 1.225 5.102 0 10.817-4.5 10.817-8.878 0-5.102-3.572-10.103-10-10.307zM91.58 25.962c4.592 1.123 7.96 13.572 7.96 21.43C99.438 58.515 87.5 71.067 80.866 78.2c-2.04-8.368-4.388-14.49-4.388-27.247 0-13.47 11.327-24.593 15.103-25.002zm-5.102 86.434c-8.776 3.368-12.144 10-12.144 18.777 0 1.02 0 2.04.102 3.06.918 12.144 9.286 18.777 14.083 20.103-5.715-4.592-9.694-8.776-9.797-16.328 0-6.94 2.96-12.246 11.02-14.083l9.286 37.35c-2.347.714-7.347 1.02-10.817 1.02-1.123 0-2.143 0-2.755-.102-16.94-1.735-24.9-17.552-24.9-31.226.102-15 18.062-32.043 21.94-36.33l3.98 17.756zm5.715 11.123c1.94-.306 3.878-.5 5.715-.5 9.184 0 16.02 4.082 17.348 9.9.408 2.04.612 3.98.612 5.92 0 9.9-5.715 17.96-14.49 21.838l-9.184-37.145z" class="D E"/><path d="M34.28 409.15h538.14M34.28 383.638h538.14M34.28 358.126h538.14M34.28 332.614h538.14M34.28 307.102h538.14" class="B C F"/><path d="M114.54 343.94c0 2.653 2.04 5.715 5.92 5.715 3.47 0 5.92-3.06 5.92-5.715 0-3.163-2.45-5.817-5.92-5.817-3.878 0-5.92 2.653-5.92 5.817zm0-22.96c0 2.653 2.04 5.51 5.92 5.51 3.47 0 5.92-2.857 5.92-5.51 0-3.163-2.45-5.715-5.92-5.715-3.878 0-5.92 2.55-5.92 5.715zm-60.514 70.31c23.063-11.225 56.228-27.043 56.228-59.596 0-15.613-14.083-25.002-28.47-25.002-10.103 0-25.92 9.5-25.92 22.552 0 7.55 6.225 11.123 12.246 11.123 5.817 0 11.43-3.266 11.43-9.694 0-4.5-3.368-8.47-8.266-8.47-.612 0-1.327.102-2.04.204-1.327.204-3.163.816-3.878.816-2.245 0-3.266-1.225-3.266-2.755 0-.5.102-.918.306-1.43 3.47-5.613 8.572-8.062 15.817-9.184.714-.102 1.43-.204 2.143-.204 10.817 0 15.103 13.266 15.103 22.86 0 6.837-2.55 16.94-6.53 23.88-9.082 15.92-19.39 22.348-35.512 32.655l.612 2.245z" class="D E"/><path d="M374.704 208.244l89.3 19.134m-89.3 41.456l89.3-22.323" class="B C F"/><path d="M508.928 251.944L498.5 224.7h-.168q.294 3.237.294 7.694v19.55h-3.3V221.21h5.38l9.733 25.35h.168l9.817-25.35h5.34v30.733H522.2v-19.802q0-3.405.294-7.4h-.168l-10.5 27.2h-2.88zm28.2 0h-3.5v-23.04h3.5v23.04zm-3.784-29.282q0-1.198.6-1.745.6-.568 1.47-.568.84 0 1.45.568.6.568.6 1.745 0 1.177-.6 1.766-.6.568-1.45.568-.883 0-1.47-.568-.6-.6-.6-1.766zm26.823 26.192h-.2q-2.417 3.5-7.23 3.5-4.52 0-7.042-3.1-2.502-3.1-2.502-8.787 0-5.697 2.523-8.85 2.523-3.153 7.02-3.153 4.688 0 7.2 3.405h.273l-.147-1.66-.084-1.62v-9.375h3.5v32.7h-2.838l-.462-3.1zm-6.98.6q3.574 0 5.17-1.934 1.62-1.955 1.62-6.285v-.736q0-4.898-1.64-6.98-1.62-2.102-5.192-2.102-3.07 0-4.7 2.396-1.62 2.375-1.62 6.727 0 4.414 1.62 6.664 1.62 2.25 4.75 2.25zm33.383-.6h-.2q-2.417 3.5-7.23 3.5-4.52 0-7.042-3.1-2.502-3.1-2.502-8.787 0-5.697 2.523-8.85 2.523-3.153 7.02-3.153 4.688 0 7.2 3.405h.273l-.147-1.66-.084-1.62v-9.375h3.5v32.7h-2.838l-.462-3.1zm-6.98.6q3.574 0 5.17-1.934 1.62-1.955 1.62-6.285v-.736q0-4.898-1.64-6.98-1.62-2.102-5.192-2.102-3.07 0-4.7 2.396-1.62 2.375-1.62 6.727 0 4.414 1.62 6.664 1.62 2.25 4.75 2.25zm21.2 2.5h-3.5v-32.7h3.5v32.7zm17.164.42q-5.108 0-8.072-3.1-2.943-3.1-2.943-8.64 0-5.57 2.733-8.85 2.754-3.28 7.378-3.28 4.33 0 6.853 2.86 2.523 2.838 2.523 7.505v2.207h-15.87q.105 4.057 2.04 6.16 1.955 2.102 5.487 2.102 3.72 0 7.357-1.556v3.1q-1.85.8-3.5 1.135-1.64.357-3.973.357zm-.946-20.958q-2.775 0-4.435 1.808-1.64 1.808-1.934 5.003h12.045q0-3.3-1.47-5.045-1.47-1.766-4.204-1.766zm40.298-7.442q-5.066 0-8 3.384-2.922 3.363-2.922 9.228 0 6.033 2.817 9.333 2.838 3.28 8.072 3.28 3.216 0 7.336-1.156v3.132q-3.195 1.198-7.883 1.198-6.8 0-10.5-4.12-3.68-4.12-3.68-11.7 0-4.75 1.766-8.324 1.787-3.574 5.13-5.508 3.363-1.934 7.904-1.934 4.835 0 8.45 1.766l-1.514 3.07q-3.5-1.64-6.98-1.64z" class="D E"/><path d="M283.82 192.3h74.144M283.82 39.228h74.144M283.82 13.716h74.144" class="B C F"/><g class="D E"><use xlink:href="#B"/><use xlink:href="#B" y="89.292"/><use xlink:href="#B" y="178.583"/></g><path d="M283.82 434.66h74.144m-74.144 25.513h74.144M283.82 281.6h74.144" class="B C F"/><g class="D E"><use xlink:href="#B" y="446.457"/><use xlink:href="#B" y="357.166"/><use xlink:href="#B" y="267.874"/></g></g><defs ><path id="B" d="M298.966 13.92c0 9.797 12.756 12.552 21.838 12.552h.5c8.572-.102 21.124-2.857 21.124-12.756 0-8.572-12.858-12.654-21.532-12.654-9.082 0-21.94 4.082-21.94 12.858zm13.266-8.062c1.53-1.53 4.184-2.347 6.837-2.347 2.143 0 4.286.5 6.02 1.735 3.266 2.347 5.817 8.368 5.817 12.756 0 1.123-.102 2.143-.5 2.96-1.123 2.245-5.204 3.878-8.98 3.878-1.633 0-3.266-.306-4.5-1.02-3.674-2.04-6.837-7.347-6.837-12.144 0-2.143.612-4.184 2.143-5.817z"/></defs></svg>