<svg xmlns="http://www.w3.org/2000/svg" xmlns:xlink="http://www.w3.org/1999/xlink" width="353.031" height="105.657" viewBox="0 0 1059.537 316.879" xmlns:v="https://vecta.io/nano"><style><![CDATA[.B{stroke-linecap:butt}.C{stroke-linejoin:bevel}.D{stroke:none}.E{stroke:#a3a3a3}.F{stroke-width:3.189}]]></style><g fill="none" stroke="#000" fill-rule="evenodd"><path d="M0 153.112h1059.537M0 127.6h1059.537M0 102.089h1059.537M0 76.577h1059.537M0 51.065h1059.537" stroke-width="2.392" class="B C"/><path d="M46.177 163.929c-7.756.102-12.96 6.633-12.96 11.531 0 11.429 11.123 17.552 20.001 17.552 8.164 0 20.614-5.817 20.614-17.042 0-1.327-.102-2.653-.51-4.082l-5.204-21.022c13.572-5.715 19.083-20.716 19.185-28.675v-.51c0-15.511-10.205-23.063-21.022-24.695-1.123-.204-2.449-.204-3.776-.204-2.755 0-5.715.306-7.347.918L50.26 79.025c12.348-12.552 19.899-26.43 19.899-42.452v-.612c-.204-17.654-11.633-34.186-15.919-34.9-4.592 1.531-15.511 19.287-15.715 32.961v1.123c0 13.062 3.368 20.614 6.021 31.329-8.266 8.572-25.41 26.94-25.41 46.84 0 21.022 13.674 39.39 36.941 39.39a46.78 46.78 0 0 0 9.694-1.02l5.102 21.022a11.72 11.72 0 0 1 .408 3.163c0 8.878-9.388 14.695-17.858 14.695-5.306 0-11.633-4.592-12.144-8.674 1.225.918 2.653 1.225 4.082 1.225 5.102 0 10.817-4.49 10.817-8.878 0-5.102-3.572-10.103-10.001-10.307zM57.3 12.287c4.592 1.123 7.96 13.572 7.96 21.43-.102 11.123-12.042 23.675-18.675 30.818-2.041-8.368-4.388-14.491-4.388-27.247 0-13.47 11.327-24.593 15.103-25.002zm-5.102 86.434c-8.776 3.368-12.144 10.001-12.144 18.777 0 1.02 0 2.041.102 3.061.918 12.144 9.286 18.777 14.083 20.103-5.715-4.592-9.694-8.776-9.797-16.328 0-6.939 2.959-12.246 11.021-14.083l9.286 37.349c-2.347.714-7.347 1.02-10.817 1.02-1.123 0-2.143 0-2.755-.102-16.94-1.735-24.9-17.552-24.9-31.226.102-15.001 18.062-32.043 21.94-36.329zm5.715 11.123c1.939-.306 3.878-.51 5.715-.51 9.184 0 16.021 4.082 17.348 9.899.408 2.041.612 3.98.612 5.919 0 9.899-5.715 17.96-14.491 21.838zM282.107 313.21h-3.405v-21.904q0-2.733.168-5.171-.441.441-.988.925-.547.483-5.003 4.099l-1.85-2.396 8.135-6.285h2.943z" fill="#000" class="D"/><path d="M206.486 211.311l74.144 39.065m0 0l74.941-39.065" class="B C E F"/><path d="M460.787 313.21h-20.201v-3.006l8.093-8.135q3.7-3.742 4.877-5.339 1.177-1.598 1.766-3.111.589-1.514.589-3.258 0-2.459-1.492-3.889-1.492-1.45-4.141-1.45-1.913 0-3.637.631-1.703.631-3.805 2.291l-1.85-2.375q4.246-3.532 9.249-3.532 4.33 0 6.79 2.228 2.459 2.207 2.459 5.949 0 2.922-1.64 5.781-1.64 2.859-6.138 7.231l-6.727 6.58v.168h15.808z" fill="#000" class="D"/><path d="M376.299 211.311l74.941 39.065m0 0l75.738-39.065" class="B C E F"/><path d="M631.836 289.709q0 2.943-1.661 4.814-1.64 1.871-4.667 2.502v.168q3.7.462 5.487 2.354 1.787 1.892 1.787 4.961 0 4.393-3.048 6.769-3.048 2.354-8.661 2.354-2.438 0-4.477-.378-2.018-.357-3.931-1.282v-3.321q1.997.988 4.246 1.514 2.27.505 4.288.505 7.967 0 7.967-6.243 0-5.592-8.787-5.592h-3.027v-3.006h3.069q3.595 0 5.697-1.577 2.102-1.598 2.102-4.414 0-2.249-1.556-3.532-1.535-1.282-4.183-1.282-2.018 0-3.805.547-1.787.547-4.078 2.018l-1.766-2.354q1.892-1.492 4.351-2.333 2.48-.862 5.213-.862 4.477 0 6.958 2.06 2.48 2.039 2.48 5.613z" fill="#000" class="D"/><path d="M547.707 211.311l74.941 39.065m0 0l76.535-39.065" class="B C E F"/><path d="M811.431 306.147h-4.562v7.063h-3.342v-7.063h-14.946v-3.048l14.589-20.79h3.7v20.664h4.562zm-7.904-3.174v-10.216q0-3.006.21-6.79h-.168q-1.009 2.018-1.892 3.342l-9.607 13.664z" fill="#000" class="D"/><path d="M723.898 211.311l75.738 39.862m0 0l76.535-39.862" class="B C E F"/><g fill="#000" class="D"><use xlink:href="#B"/><use xlink:href="#C"/><path d="M338.491 153.929l4.592-1.633c1.123-.408 1.633-2.959 1.633-5.306 0-2.041-.408-3.878-1.327-3.878-.102 0-.204.102-.306.102l-4.592 1.633v-12.96c0-.51-.51-.714-1.02-.714s-1.02.204-1.02.714v13.674l-8.98 3.368v-13.776c0-.51-.612-.714-1.123-.714s-1.02.204-1.02.714v14.491l-4.694 1.939c-.816.408-1.327 2.857-1.327 5.102 0 1.939.306 3.776 1.327 3.776l4.694-1.735v18.164l-4.694 1.735c-.918.408-1.327 2.755-1.327 5 0 2.143.408 4.082 1.327 4.082l4.694-1.837v13.776c0 .51.51.816 1.02.816s1.123-.306 1.123-.816v-14.593l8.98-3.266v15.001c0 .51.51.714 1.02.714s1.02-.204 1.02-.714v-15.715l4.592-1.633c1.123-.408 1.633-3.061 1.633-5.306 0-2.041-.408-3.776-1.327-3.776-.102 0-.204.102-.306.102l-4.592 1.633zm-2.041.816v18.062l-8.98 3.266V158.01z"/><use xlink:href="#C" x="170.61" y="-12.755"/><use xlink:href="#C" x="343.612" y="-25.511"/><use xlink:href="#B" x="695.994" y="-25.512"/><path d="M852.713 128.417l4.592-1.633c1.123-.408 1.633-2.959 1.633-5.306 0-2.041-.408-3.878-1.327-3.878-.102 0-.204.102-.306.102l-4.592 1.633v-12.96c0-.51-.51-.714-1.02-.714s-1.02.204-1.02.714v13.674l-8.98 3.368V109.64c0-.51-.612-.714-1.123-.714s-1.02.204-1.02.714v14.491l-4.694 1.939c-.816.408-1.327 2.857-1.327 5.102 0 1.939.306 3.776 1.327 3.776l4.694-1.735v18.164l-4.694 1.735c-.918.408-1.327 2.755-1.327 5 0 2.143.408 4.082 1.327 4.082l4.694-1.837v13.776c0 .51.51.816 1.02.816s1.123-.306 1.123-.816v-14.593l8.98-3.266v15.001c0 .51.51.714 1.02.714s1.02-.204 1.02-.714v-15.715l4.592-1.633c1.123-.408 1.633-3.061 1.633-5.306 0-2.041-.408-3.776-1.327-3.776-.102 0-.204.102-.306.102l-4.592 1.633zm-2.041.816v18.062l-8.98 3.266v-18.062z"/></g></g><defs ><path id="B" d="M169.813 166.072c0 9.797 12.756 12.552 21.838 12.552h.51c8.572-.102 21.124-2.857 21.124-12.756 0-8.572-12.858-12.654-21.532-12.654-9.082 0-21.94 4.082-21.94 12.858zm13.266-8.062c1.531-1.531 4.184-2.347 6.837-2.347 2.143 0 4.286.51 6.021 1.735 3.266 2.347 5.817 8.368 5.817 12.756 0 1.123-.102 2.143-.51 2.959-1.123 2.245-5.204 3.878-8.98 3.878-1.633 0-3.266-.306-4.49-1.02-3.674-2.041-6.837-7.347-6.837-12.144 0-2.143.612-4.184 2.143-5.817z"/><path id="C" d="M351.585 168.827c0 6.531 5.409 10.205 12.246 10.205 9.082 0 19.389-7.551 19.389-16.123 0-6.531-5.409-10.103-12.246-10.103-9.082 0-19.389 7.449-19.389 16.021z"/></defs></svg>