<svg xmlns="http://www.w3.org/2000/svg" xmlns:xlink="http://www.w3.org/1999/xlink" width="506.037" height="86.532" viewBox="0 0 1518.75 259.518" xmlns:v="https://vecta.io/nano"><g fill="none" stroke="#000" fill-rule="evenodd"><path d="M0 153.112h1518.75M0 127.6h1518.75M0 102.089h1518.75M0 76.577h1518.75M0 51.065h1518.75" stroke-linecap="butt" stroke-width="2.392" stroke-linejoin="bevel"/><path d="M46.177 163.929c-7.756.102-12.96 6.633-12.96 11.531 0 11.429 11.123 17.552 20.001 17.552 8.164 0 20.614-5.817 20.614-17.042 0-1.327-.102-2.653-.51-4.082l-5.204-21.022c13.572-5.715 19.083-20.716 19.185-28.675v-.51c0-15.511-10.205-23.063-21.022-24.695-1.123-.204-2.449-.204-3.776-.204-2.755 0-5.715.306-7.347.918L50.26 79.025c12.348-12.552 19.899-26.43 19.899-42.452v-.612c-.204-17.654-11.633-34.186-15.919-34.9-4.592 1.531-15.511 19.287-15.715 32.961v1.123c0 13.062 3.368 20.614 6.021 31.329-8.266 8.572-25.41 26.94-25.41 46.84 0 21.022 13.674 39.39 36.941 39.39a46.78 46.78 0 0 0 9.694-1.02l5.102 21.022a11.72 11.72 0 0 1 .408 3.163c0 8.878-9.388 14.695-17.858 14.695-5.306 0-11.633-4.592-12.144-8.674 1.225.918 2.653 1.225 4.082 1.225 5.102 0 10.817-4.49 10.817-8.878 0-5.102-3.572-10.103-10.001-10.307zM57.3 12.287c4.592 1.123 7.96 13.572 7.96 21.43-.102 11.123-12.042 23.675-18.675 30.818-2.041-8.368-4.388-14.491-4.388-27.247 0-13.47 11.327-24.593 15.103-25.002zm-5.102 86.434c-8.776 3.368-12.144 10.001-12.144 18.777 0 1.02 0 2.041.102 3.061.918 12.144 9.286 18.777 14.083 20.103-5.715-4.592-9.694-8.776-9.797-16.328 0-6.939 2.959-12.246 11.021-14.083l9.286 37.349c-2.347.714-7.347 1.02-10.817 1.02-1.123 0-2.143 0-2.755-.102-16.94-1.735-24.9-17.552-24.9-31.226.102-15.001 18.062-32.043 21.94-36.329zm5.715 11.123c1.939-.306 3.878-.51 5.715-.51 9.184 0 16.021 4.082 17.348 9.899.408 2.041.612 3.98.612 5.919 0 9.899-5.715 17.96-14.491 21.838zm142.078 145.964h-3.405v-21.904q0-2.733.168-5.171-.441.441-.988.925-.547.483-5.003 4.099l-1.85-2.396 8.135-6.285h2.943zm149.98 0H329.77v-3.006l8.093-8.135q3.7-3.742 4.877-5.339 1.177-1.598 1.766-3.111.589-1.514.589-3.258 0-2.459-1.492-3.889-1.492-1.45-4.141-1.45-1.913 0-3.637.631-1.703.631-3.805 2.291l-1.85-2.375q4.246-3.532 9.249-3.532 4.33 0 6.79 2.228 2.459 2.207 2.459 5.949 0 2.922-1.64 5.781-1.64 2.859-6.138 7.231l-6.727 6.58v.168h15.808zm124.808-23.501q0 2.943-1.661 4.814-1.64 1.871-4.667 2.502v.168q3.7.462 5.487 2.354 1.787 1.892 1.787 4.961 0 4.393-3.048 6.769-3.048 2.354-8.661 2.354-2.438 0-4.477-.378-2.018-.357-3.931-1.282v-3.321q1.997.988 4.246 1.514 2.27.505 4.288.505 7.967 0 7.967-6.243 0-5.592-8.787-5.592h-3.027v-3.006h3.069q3.595 0 5.697-1.577 2.102-1.598 2.102-4.414 0-2.249-1.556-3.532-1.535-1.282-4.183-1.282-2.018 0-3.805.547-1.787.547-4.078 2.018l-1.766-2.354q1.892-1.492 4.351-2.333 2.48-.862 5.213-.862 4.477 0 6.958 2.06 2.48 2.039 2.48 5.613zm129.369 16.438h-4.562v7.063h-3.342v-7.063h-14.946v-3.048l14.589-20.79h3.7v20.664h4.562zm-7.904-3.174v-10.216q0-3.006.21-6.79h-.168q-1.009 2.018-1.892 3.342l-9.607 13.664zm121.823-8.534q4.856 0 7.631 2.417 2.796 2.396 2.796 6.58 0 4.772-3.048 7.484-3.027 2.712-8.366 2.712-5.192 0-7.925-1.661v-3.363q1.471.946 3.658 1.492 2.186.526 4.309.526 3.7 0 5.739-1.745 2.06-1.745 2.06-5.045 0-6.432-7.883-6.432-1.997 0-5.339.61l-1.808-1.156 1.156-14.378h15.282v3.216h-12.297l-.778 9.228q2.417-.483 4.814-.483zm120.701 5.633q0-9.06 3.511-13.538 3.532-4.499 10.426-4.499 2.375 0 3.742.399v3.006q-1.619-.526-3.7-.526-4.94 0-7.547 3.09-2.607 3.069-2.859 9.67h.252q2.312-3.616 7.315-3.616 4.141 0 6.517 2.502 2.396 2.502 2.396 6.79 0 4.793-2.628 7.547-2.607 2.733-7.063 2.733-4.772 0-7.568-3.574-2.796-3.595-2.796-9.985zm10.321 10.595q2.985 0 4.625-1.871 1.661-1.892 1.661-5.444 0-3.048-1.535-4.793-1.535-1.745-4.583-1.745-1.892 0-3.468.778-1.577.778-2.523 2.144-.925 1.366-.925 2.838 0 2.165.841 4.036.841 1.871 2.375 2.964 1.556 1.093 3.532 1.093zm229.991 2.543l12.739-27.517h-16.754v-3.216h20.454v2.796l-12.571 27.937zm144.205-31.174q4.204 0 6.664 1.955 2.459 1.955 2.459 5.402 0 2.27-1.408 4.141-1.408 1.871-4.499 3.405 3.742 1.787 5.318 3.763 1.577 1.955 1.577 4.541 0 3.826-2.67 6.117-2.67 2.27-7.315 2.27-4.919 0-7.568-2.144-2.649-2.165-2.649-6.117 0-5.276 6.432-8.219-2.901-1.64-4.162-3.532-1.261-1.913-1.261-4.267 0-3.342 2.459-5.318 2.48-1.997 6.622-1.997zm-6.643 23.417q0 2.523 1.745 3.931 1.766 1.408 4.94 1.408 3.132 0 4.877-1.471 1.745-1.471 1.745-4.036 0-2.039-1.64-3.616-1.64-1.598-5.718-3.09-3.132 1.345-4.541 2.985-1.408 1.619-1.408 3.889zm6.601-20.58q-2.628 0-4.12 1.261-1.492 1.261-1.492 3.363 0 1.934 1.24 3.321 1.24 1.387 4.583 2.775 3.006-1.261 4.246-2.712 1.261-1.45 1.261-3.384 0-2.123-1.535-3.363-1.514-1.261-4.183-1.261zm140.029 10.722q0 18.036-13.958 18.036-2.438 0-3.868-.42v-3.006q1.682.547 3.826.547 5.045 0 7.61-3.111 2.586-3.132 2.817-9.586h-.252q-1.156 1.745-3.069 2.67-1.913.904-4.309.904-4.078 0-6.474-2.438-2.396-2.438-2.396-6.811 0-4.793 2.67-7.568 2.691-2.775 7.063-2.775 3.132 0 5.465 1.619 2.354 1.598 3.616 4.688 1.261 3.069 1.261 7.252zm-10.342-10.574q-3.006 0-4.646 1.934-1.64 1.934-1.64 5.381 0 3.027 1.514 4.772 1.514 1.724 4.604 1.724 1.913 0 3.511-.778 1.619-.778 2.544-2.123.925-1.345.925-2.817 0-2.207-.862-4.078-.862-1.871-2.417-2.943-1.535-1.072-3.532-1.072z" fill="#000" stroke="none"/><path d="M160.246 178.624h74.144" stroke-linecap="butt" stroke-width="2.392" stroke-linejoin="bevel"/><g fill="#000" stroke="none"><use xlink:href="#B"/><use xlink:href="#C"/><use xlink:href="#C" x="125.965" y="-12.755"/><use xlink:href="#C" x="252.727" y="-25.511"/><use xlink:href="#C" x="378.691" y="-38.267"/><use xlink:href="#B" x="651.348" y="-63.779"/><use xlink:href="#B" x="888.13" y="-63.779"/><use xlink:href="#C" x="883.347" y="-63.779"/><use xlink:href="#B" x="1156.004" y="-89.291"/></g></g><defs ><path id="B" d="M175.394 178.828c0 9.797 12.756 12.552 21.838 12.552h.51c8.572-.102 21.124-2.857 21.124-12.756 0-8.572-12.858-12.654-21.532-12.654-9.082 0-21.94 4.082-21.94 12.858zm13.266-8.062c1.531-1.531 4.184-2.347 6.837-2.347 2.143 0 4.286.51 6.021 1.735 3.266 2.347 5.817 8.368 5.817 12.756 0 1.123-.102 2.143-.51 2.959-1.123 2.245-5.204 3.878-8.98 3.878-1.633 0-3.266-.306-4.49-1.02-3.674-2.041-6.837-7.347-6.837-12.144 0-2.143.612-4.184 2.143-5.817z"/><path id="C" d="M321.289 168.827c0 6.531 5.409 10.205 12.246 10.205 9.082 0 19.389-7.551 19.389-16.123 0-6.531-5.409-10.103-12.246-10.103-9.082 0-19.389 7.449-19.389 16.021z"/></defs></svg>