<svg xmlns="http://www.w3.org/2000/svg" xmlns:xlink="http://www.w3.org/1999/xlink" width="602.729" height="111.821" viewBox="0 0 1808.947 335.367" xmlns:v="https://vecta.io/nano"><style><![CDATA[.B{fill:#000}.C{stroke-linecap:butt}.D{stroke-linejoin:bevel}.E{stroke:none}.F{stroke-width:2.392}.G{stroke-width:1.594}.H{stroke-width:.797}]]></style><g fill="none" stroke="#000" fill-rule="evenodd"><path d="M912.047 115.452v102.047m224.026-102.047v102.047m671.279-102.047v102.047" stroke-width="3.189" class="C D"/><g class="B E"><use xlink:href="#B"/><path d="M293.625 321.79v-30.733h3.574v30.733zm40.865 0v-14.988q0-2.754-1.177-4.12-1.177-1.387-3.658-1.387-3.258 0-4.814 1.871-1.556 1.871-1.556 5.76v12.865h-3.489v-14.988q0-2.754-1.177-4.12-1.177-1.387-3.679-1.387-3.279 0-4.814 1.976-1.514 1.955-1.514 6.432v12.087h-3.489v-23.039h2.838l.568 3.153h.168q.988-1.682 2.775-2.628 1.808-.946 4.036-.946 5.402 0 7.063 3.91h.168q1.03-1.808 2.985-2.859 1.955-1.051 4.456-1.051 3.91 0 5.844 2.018 1.955 1.997 1.955 6.411v15.03z"/><use xlink:href="#C"/><path d="M361.635 309.34h-17.169v-4.523h17.169zm73.894-10.589v2.207l-4.267.505q.589.736 1.051 1.934.462 1.177.462 2.67 0 3.384-2.312 5.402-2.312 2.018-6.348 2.018-1.03 0-1.934-.168-2.228 1.177-2.228 2.964 0 .946.778 1.408.778.441 2.67.441h4.078q3.742 0 5.739 1.577 2.018 1.577 2.018 4.583 0 3.826-3.069 5.823-3.069 2.018-8.955 2.018-4.52 0-6.979-1.682-2.438-1.682-2.438-4.751 0-2.102 1.345-3.637 1.345-1.535 3.784-2.081-.883-.399-1.492-1.24-.589-.841-.589-1.955 0-1.261.673-2.207.673-.946 2.123-1.829-1.787-.736-2.922-2.502-1.114-1.766-1.114-4.036 0-3.784 2.27-5.823 2.27-2.06 6.432-2.06 1.808 0 3.258.42zm-18.372 26.907q0 1.871 1.577 2.838 1.577.967 4.52.967 4.393 0 6.496-1.324 2.123-1.303 2.123-3.553 0-1.871-1.156-2.607-1.156-.715-4.351-.715h-4.183q-2.375 0-3.7 1.135-1.324 1.135-1.324 3.258zm1.892-19.529q0 2.417 1.366 3.658 1.366 1.24 3.805 1.24 5.108 0 5.108-4.961 0-5.192-5.171-5.192-2.459 0-3.784 1.324-1.324 1.324-1.324 3.931zm24.741 15.661h-3.49v-23.039h3.489zm-3.784-29.282q0-1.198.589-1.745.589-.568 1.471-.568.841 0 1.45.568.61.568.61 1.745 0 1.177-.61 1.766-.61.568-1.45.568-.883 0-1.471-.568-.589-.589-.589-1.766z"/><use xlink:href="#D"/><use xlink:href="#E"/><path d="M409.47 309.34h-17.169v-4.523h17.169z"/><use xlink:href="#F"/><use xlink:href="#G"/><use xlink:href="#E" x="85.099"/><path d="M597.376 298.331q1.535 0 2.754.252l-.483 3.237q-1.429-.315-2.523-.315-2.796 0-4.793 2.27-1.976 2.27-1.976 5.655v12.36h-3.49v-23.039h2.88l.399 4.267h.168q1.282-2.249 3.09-3.468 1.808-1.219 3.973-1.219z"/><use xlink:href="#E" x="126.805"/><path d="M631.578 291.058l-.841 11.099h-2.207l-.862-11.099z"/><use xlink:href="#H"/><use xlink:href="#B" x="348.581"/><use xlink:href="#I"/><use xlink:href="#J"/><use xlink:href="#K"/><use xlink:href="#L"/><use xlink:href="#D" x="226.938"/><use xlink:href="#M"/><use xlink:href="#G" x="213.59"/><use xlink:href="#E" x="298.689"/><use xlink:href="#C" x="431.618"/><path d="M838.676 321.79l-8.745-23.039h3.742l4.961 13.664q1.682 4.793 1.976 6.222h.168q.231-1.114 1.45-4.604 1.24-3.511 5.529-15.282h3.742l-8.745 23.039z"/><use xlink:href="#E" x="377.606"/><use xlink:href="#D" x="428.141"/><path d="M909.433 316.787l.315.483q-.547 2.102-1.577 4.877-1.03 2.796-2.144 5.192H903.4q.568-2.186 1.24-5.402.694-3.216.967-5.15zm18.943-301.121h8.264c5.151 0 7.019 1.189 8.377 6.226h1.019v-8.264h-28.302v1.019c4.755 0 5.321.849 5.321 5.66V44.42c0 4.811-.566 5.66-5.321 5.66v1.019h16.076V50.08c-4.755 0-5.434-.849-5.434-5.66V32.648h6.906c3.623 0 4.868 1.528 4.868 5.321h1.019v-12.68h-1.019c-.453 3.623-1.415 5.094-4.868 5.094h-6.906z"/><use xlink:href="#B" x="987.786"/><use xlink:href="#N"/><use xlink:href="#F" x="758.748"/><path d="M1298.085 291.058l-.841 11.099h-2.207l-.862-11.099z"/><use xlink:href="#H" x="666.507"/><use xlink:href="#E" x="867.034"/><path d="M1382.969 321.79l-.694-3.279h-.168q-1.724 2.165-3.447 2.943-1.703.757-4.267.757-3.426 0-5.381-1.766-1.934-1.766-1.934-5.024 0-6.979 11.162-7.315l3.91-.126v-1.429q0-2.712-1.177-3.994-1.156-1.303-3.721-1.303-2.88 0-6.517 1.766l-1.072-2.67q1.703-.925 3.721-1.45 2.039-.526 4.078-.526 4.12 0 6.096 1.829 1.997 1.829 1.997 5.865v15.724zm-7.883-2.459q3.258 0 5.108-1.787 1.871-1.787 1.871-5.003v-2.081l-3.49.147q-4.162.147-6.012 1.303-1.829 1.135-1.829 3.553 0 1.892 1.135 2.88 1.156.988 3.216.988z"/><use xlink:href="#H" x="778.346"/><use xlink:href="#O"/><path d="M1409.214 309.34h-17.169v-4.523h17.169z"/><use xlink:href="#N" x="219.35"/><path d="M1509.593 301.463h-5.865v20.327h-3.489v-20.327h-4.12v-1.577l4.12-1.261v-1.282q0-8.493 7.42-8.493 1.829 0 4.288.736l-.904 2.796q-2.018-.652-3.447-.652-1.976 0-2.922 1.324-.946 1.303-.946 4.204v1.492h5.865z"/><use xlink:href="#B" x="1259.832"/><use xlink:href="#I" x="911.251"/><use xlink:href="#J" x="911.251"/><use xlink:href="#K" x="911.251"/><use xlink:href="#L" x="911.251"/><use xlink:href="#O" x="111.023"/><use xlink:href="#M" x="865.081"/><path d="M1598.914 298.751v14.946q0 2.817 1.282 4.204 1.282 1.387 4.015 1.387 3.616 0 5.276-1.976 1.682-1.976 1.682-6.453v-12.108h3.489v23.039h-2.88l-.505-3.09h-.189q-1.072 1.703-2.985 2.607-1.892.904-4.33.904-4.204 0-6.306-1.997-2.081-1.997-2.081-6.39v-15.072z"/></g><g class="C D"><path d="M1620 321.938h45.443" class="F"/><path d="M1575.354 185.609c14.35 17.539 56.604 17.539 70.955 0" class="G"/><path d="M1575.354 185.609c14.35 13.553 56.604 13.553 70.955 0-14.35 21.526-56.604 21.526-70.955 0" class="B H"/></g><g class="E B"><use xlink:href="#F" x="1157.597"/><path d="M1704.439 298.331q1.535 0 2.754.252l-.483 3.237q-1.429-.315-2.523-.315-2.796 0-4.793 2.27-1.976 2.27-1.976 5.655v12.36h-3.489v-23.039h2.88l.399 4.267h.168q1.282-2.249 3.09-3.468 1.808-1.219 3.973-1.219z"/><use xlink:href="#O" x="274.566"/><path d="M1732.691 319.562q0-1.408.631-2.123.652-.736 1.85-.736 1.219 0 1.892.736.694.715.694 2.123 0 1.366-.694 2.102-.694.736-1.892.736-1.072 0-1.787-.652-.694-.673-.694-2.186z"/><use xlink:href="#P"/><use xlink:href="#P" y="52.22"/></g><path d="M0 217.499h1808.947M0 191.987h1808.947M0 166.476h1808.947M0 140.964h1808.947M0 115.452h1808.947" class="C D F"/><g class="B E"><path d="M46.177 228.316c-7.756.102-12.96 6.633-12.96 11.531 0 11.429 11.123 17.552 20.001 17.552 8.164 0 20.614-5.817 20.614-17.042 0-1.327-.102-2.653-.51-4.082l-5.204-21.022c13.572-5.715 19.083-20.716 19.185-28.675v-.51c0-15.511-10.205-23.063-21.022-24.695-1.123-.204-2.449-.204-3.776-.204-2.755 0-5.715.306-7.347.918l-4.898-18.675c12.348-12.552 19.899-26.43 19.899-42.452v-.612c-.204-17.654-11.633-34.186-15.919-34.9-4.592 1.531-15.511 19.287-15.715 32.961v1.123c0 13.062 3.368 20.614 6.021 31.329-8.266 8.572-25.41 26.94-25.41 46.84 0 21.022 13.674 39.39 36.941 39.39a46.78 46.78 0 0 0 9.694-1.02l5.102 21.022a11.72 11.72 0 0 1 .408 3.163c0 8.878-9.388 14.695-17.858 14.695-5.306 0-11.633-4.592-12.144-8.674 1.225.918 2.653 1.225 4.082 1.225 5.102 0 10.817-4.49 10.817-8.878 0-5.102-3.572-10.103-10.001-10.307zM57.3 76.674c4.592 1.123 7.96 13.572 7.96 21.43-.102 11.123-12.042 23.675-18.675 30.818-2.041-8.368-4.388-14.491-4.388-27.247 0-13.47 11.327-24.593 15.103-25.002zm-5.102 86.434c-8.776 3.368-12.144 10.001-12.144 18.777 0 1.02 0 2.041.102 3.061.918 12.144 9.286 18.777 14.083 20.103-5.715-4.592-9.694-8.776-9.797-16.328 0-6.939 2.959-12.246 11.021-14.083l9.286 37.349c-2.347.714-7.347 1.02-10.817 1.02-1.123 0-2.143 0-2.755-.102-16.94-1.735-24.9-17.552-24.9-31.226.102-15.001 18.062-32.043 21.94-36.329zm5.715 11.123c1.939-.306 3.878-.51 5.715-.51 9.184 0 16.021 4.082 17.348 9.899.408 2.041.612 3.98.612 5.919 0 9.899-5.715 17.96-14.491 21.838zm346.29-33.267h78.13v-12.756h-78.13v12.756m0-19.134h78.13v-12.756h-78.13v12.756m605.108 31.379h32.757v-12.246h-32.757z"/><path d="M810.797 112.263l69.36 3.189v-12.756l-69.36-3.189v12.756M727.884 89.94l152.274 6.378V83.562l-152.274-6.378V89.94m664.104 31.89h68.563v-12.756h-68.563v12.756m132.343-12.756l62.982-12.756V83.562l-62.982 12.756v12.756m204.891 6.378h48.632v-12.756h-48.632v12.756"/><path d="M1664.646 96.318h113.209V83.562h-113.209v12.756"/></g><g class="C D"><path d="M1718.061 204.743c7.972 19.931 32.687 19.931 40.659 0" class="G"/><path d="M1718.061 204.743c7.972 15.945 32.687 15.945 40.659 0-7.972 23.917-32.687 23.917-40.659 0" class="B H"/></g><g class="E B"><use xlink:href="#Q"/><use xlink:href="#R"/></g><path d="M332.451 188.001v-85.305" class="C D F"/><g class="B E"><use xlink:href="#S"/><use xlink:href="#T"/></g><path d="M404.203 188.001v-78.13" class="C D F"/><use xlink:href="#S" x="71.752" class="B E"/><path d="M482.333 188.001v-78.13" class="C D F"/><g class="B E"><use xlink:href="#S" x="149.882"/><use xlink:href="#Q" x="324.478"/></g><path d="M613.081 188.001v-85.305" class="C D F"/><use xlink:href="#S" x="280.63" class="B E"/><path d="M727.884 162.489V77.982" class="C D F"/><use xlink:href="#S" x="395.433" y="-25.512" class="B E"/><path d="M810.797 162.489V81.17" class="C D F"/><use xlink:href="#S" x="478.347" y="-25.512" class="B E"/><path d="M880.158 175.245V84.359" class="C D F"/><g class="B E"><use xlink:href="#S" x="547.707" y="-12.756"/><use xlink:href="#Q" x="987.785"/><use xlink:href="#R" x="987.785"/></g><path d="M1320.236 188.001v-85.305" class="C D F"/><g class="B E"><use xlink:href="#S" x="987.786"/><use xlink:href="#T" x="987.785"/></g><path d="M1391.988 188.001v-78.13" class="C D F"/><use xlink:href="#S" x="1059.538" class="B E"/><path d="M1460.551 188.001v-78.13" class="C D F"/><use xlink:href="#S" x="1128.101" class="B E"/><path d="M1524.331 188.001V97.115" class="C D F"/><use xlink:href="#S" x="1191.88" class="B E"/><path d="M1587.313 162.489v-78.13" class="C D F"/><use xlink:href="#S" x="1254.862" y="-25.512" class="B E"/><path d="M1664.646 162.489v-78.13" class="C D F"/><use xlink:href="#S" x="1332.195" y="-25.512" class="B E"/><path d="M1729.222 162.489v-78.13" class="C D F"/><use xlink:href="#S" x="1396.772" y="-25.512" class="B E"/><path d="M1777.854 175.245V84.359" class="C D F"/><use xlink:href="#S" x="1445.404" y="-12.756" class="B E"/></g><defs ><path id="B" d="M223.467 44.874l-1.019-1.472c-3.623 4.019-7.925 6-12.906 6-8.547 0-14.038-6.793-14.038-16.868 0-10.245 5.208-17.321 13.698-17.321 6.623 0 11.094 4.359 12.453 10.981h1.585V12.949h-1.925c-.509 1.415-1.245 2.151-2.151 2.151-.509 0-6.849-2.377-10.755-2.377-11.038 0-19.132 9.283-19.132 20.264 0 11.264 7.472 18.849 18.679 18.849 6.566 0 11.717-2.321 15.51-6.962z"/><path id="C" d="M383.006 321.79l-.694-3.279h-.168q-1.724 2.165-3.447 2.943-1.703.757-4.267.757-3.426 0-5.381-1.766-1.934-1.766-1.934-5.024 0-6.979 11.162-7.315l3.91-.126v-1.429q0-2.712-1.177-3.994-1.156-1.303-3.721-1.303-2.88 0-6.517 1.766l-1.072-2.67q1.703-.925 3.721-1.45 2.039-.526 4.078-.526 4.12 0 6.096 1.829 1.997 1.829 1.997 5.865v15.724zm-7.883-2.459q3.258 0 5.108-1.787 1.871-1.787 1.871-5.003v-2.081l-3.489.147q-4.162.147-6.012 1.303-1.829 1.135-1.829 3.553 0 1.892 1.135 2.88 1.156.988 3.216.988z"/><path id="D" d="M466.997 321.79v-14.904q0-2.817-1.282-4.204-1.282-1.387-4.015-1.387-3.616 0-5.297 1.955-1.682 1.955-1.682 6.453v12.087h-3.489v-23.039h2.838l.568 3.153h.168q1.072-1.703 3.006-2.628 1.934-.946 4.309-.946 4.162 0 6.264 2.018 2.102 1.997 2.102 6.411v15.03z"/><path id="E" d="M487.367 322.211q-5.108 0-8.072-3.111-2.943-3.111-2.943-8.64 0-5.571 2.733-8.85 2.754-3.279 7.378-3.279 4.33 0 6.853 2.859 2.523 2.838 2.523 7.505v2.207h-15.871q.105 4.057 2.039 6.159 1.955 2.102 5.487 2.102 3.721 0 7.357-1.556v3.111q-1.85.799-3.511 1.135-1.64.357-3.973.357zm-.946-20.958q-2.775 0-4.435 1.808-1.64 1.808-1.934 5.003h12.045q0-3.3-1.471-5.045-1.471-1.766-4.204-1.766z"/><path id="F" d="M528.553 319.331q.925 0 1.787-.126.862-.147 1.366-.294v2.67q-.568.273-1.682.441-1.093.189-1.976.189-6.685 0-6.685-7.042v-13.706h-3.3v-1.682l3.3-1.45 1.471-4.919h2.018v5.339h6.685v2.712h-6.685v13.559q0 2.081.988 3.195.988 1.114 2.712 1.114z"/><path id="G" d="M552.097 321.79v-14.904q0-2.817-1.282-4.204-1.282-1.387-4.015-1.387-3.637 0-5.318 1.976-1.661 1.976-1.661 6.474v12.045h-3.489v-32.709h3.489v9.901q0 1.787-.168 2.964h.21q1.03-1.661 2.922-2.607 1.913-.967 4.351-.967 4.225 0 6.327 2.018 2.123 1.997 2.123 6.369v15.03z"/><path id="H" d="M652.935 315.505q0 3.216-2.396 4.961-2.396 1.745-6.727 1.745-4.583 0-7.147-1.45v-3.237q1.661.841 3.553 1.324 1.913.483 3.679.483 2.733 0 4.204-.862 1.471-.883 1.471-2.67 0-1.345-1.177-2.291-1.156-.967-4.541-2.27-3.216-1.198-4.583-2.081-1.345-.904-2.018-2.039-.652-1.135-.652-2.712 0-2.817 2.291-4.435 2.291-1.64 6.285-1.64 3.721 0 7.273 1.514l-1.24 2.838q-3.468-1.429-6.285-1.429-2.48 0-3.742.778-1.261.778-1.261 2.144 0 .925.462 1.577.483.652 1.535 1.24 1.051.589 4.036 1.703 4.099 1.492 5.529 3.006 1.45 1.514 1.45 3.805z"/><path id="I" d="M613.789 36.383v-.906c-2.717 0-3.34-.849-3.34-4.302V19.912c0-1.359-1.132-4.698-2.038-5.604-.849-.849-2.038-1.245-3.679-1.245-3.226 0-6.057 1.359-8.547 4.189-.566-2.83-2.264-4.189-5.094-4.189-3.057 0-5.604 1.359-7.868 4.076v-4.076l-7.642 2.434v.906h2.434c.623.226.906.906.906 2.038v12.736c0 3.453-.623 4.302-3.34 4.302v.906h10.698v-.906c-2.208 0-3.057-.849-3.057-3.566V18.78c1.698-2.208 3.566-3.283 5.604-3.283 2.377 0 3.566 1.359 3.566 4.189v11.83c0 3.226-.849 3.962-3.057 3.962v.906h10.698v-.906c-2.717 0-3.34-.849-3.34-4.302l.057-3.962v-5.094c-.057-1.811-.113-3-.283-3.453 1.811-2.094 3.792-3.17 5.83-3.17 2.547 0 3.849 1.359 3.849 4.189v11.83c0 3.226-.849 3.962-3.057 3.962v.906z"/><path id="J" d="M635.957 32.591c-1.189.849-2.038 1.245-2.66 1.245-.792 0-1.132-.679-1.132-2.038V20.308c0-4.642-2.717-7.245-7.302-7.245-3.962 0-8.434 2.491-8.434 5.717 0 1.472.623 2.208 1.981 2.208 1.245 0 2.377-1.019 2.377-2.208 0-.453-.226-1.528-.226-1.981 0-1.585 1.811-2.547 3.566-2.547 2.491 0 3.792 1.472 3.792 4.302v3.057c-9.51 3-12.51 5.377-12.51 9.906 0 2.66 1.925 5.434 4.755 5.434 2.094 0 4.755-1.302 7.925-3.849.057 2.547 1.075 3.736 3.057 3.736 1.585 0 3.17-.906 4.811-2.717zm-8.038-.792c-1.811 1.359-3.34 2.038-4.698 2.038-2.208 0-3.34-1.868-3.34-4.076 0-2.094.849-3.679 2.604-4.698.623-.396 2.434-1.075 5.434-2.038z"/><path id="K" d="M647.144 3.496c0-1.189-1.189-2.434-2.547-2.434s-2.66 1.302-2.66 2.66c0 1.245 1.189 2.434 2.547 2.434 1.415 0 2.66-1.245 2.66-2.66zm-8.66 13.076c1.075-.283 1.868-.396 2.321-.396 1.019 0 1.528 1.019 1.528 3.057v19.812c0 3.679-.623 5.604-1.925 5.604-1.245 0-3.736-3.17-5.038-3.17-1.189 0-1.755.679-1.755 2.038 0 2.264 2.434 3.34 4.868 3.34 5.434 0 8.151-4.245 8.151-12.793V12.496l-8.151 2.943z"/><path id="L" d="M667.03 9.779h-14.717l-2.377 6.226.679.453c1.075-2.321 2.66-3.509 4.868-3.509h8.038l-7.585 23.547h2.377z"/><path id="M" d="M724.457 310.25q0 5.634-2.838 8.808-2.838 3.153-7.841 3.153-3.09 0-5.487-1.45-2.396-1.45-3.7-4.162-1.303-2.712-1.303-6.348 0-5.634 2.817-8.766 2.817-3.153 7.82-3.153 4.835 0 7.673 3.216 2.859 3.216 2.859 8.703zm-17.553 0q0 4.414 1.766 6.727 1.766 2.312 5.192 2.312 3.426 0 5.192-2.291 1.787-2.312 1.787-6.748 0-4.393-1.787-6.664-1.766-2.291-5.234-2.291-3.426 0-5.171 2.249-1.745 2.249-1.745 6.706z"/><path id="N" d="M1272.418 321.79h-3.489v-23.039h3.489zm-3.784-29.282q0-1.198.589-1.745.589-.568 1.471-.568.841 0 1.45.568.61.568.61 1.745 0 1.177-.61 1.766-.61.568-1.45.568-.883 0-1.471-.568-.589-.589-.589-1.766z"/><path id="O" d="M1433.278 298.751h3.742l5.045 13.138q1.661 4.499 2.06 6.496h.168q.273-1.072 1.135-3.658.883-2.607 5.718-15.976h3.742l-9.901 26.234q-1.471 3.889-3.447 5.508-1.955 1.64-4.814 1.64-1.598 0-3.153-.357v-2.796q1.156.252 2.586.252 3.595 0 5.129-4.036l1.282-3.279z"/><path id="P" d="M148.253 164.028c-1.646 0-4.937-1.028-4.937-2.468v-7.508h4.937v-2.263h-4.937v-23.654l-11.519 9.667v13.987h-13.781l23.86-37.744h-12.856c-1.748 15.838-7.199 32.705-15.221 37.744v2.263h17.998v7.508c0 1.44-3.497 2.468-5.142 2.468v2.263h21.597z"/><path id="Q" d="M217.029 152.291c-3.674 1.123-12.348 4.286-15.817 4.286-.51 0-.918 0-1.123-.204 1.123-2.143 1.633-3.98 1.633-5.409 0-3.572-2.755-5.102-5.817-5.102-3.674 0-7.756 2.041-7.756 5.511 0 6.021 5.204 7.858 10.817 7.858 4.898 0 10.205-1.327 12.96-2.449l-15.613 35.104h3.061z"/><path id="R" d="M291.607 152.087c-3.674 1.123-12.45 4.286-15.919 4.286-.51 0-.918 0-1.123-.204 1.123-2.143 1.633-3.98 1.633-5.409 0-3.572-2.755-5.102-5.817-5.102-3.674 0-7.756 2.041-7.756 5.511 0 6.021 5.306 7.756 11.021 7.756 5.102 0 10.613-1.327 13.164-2.449l-9.694 21.532c-4.082 1.225-9.797 2.755-12.348 2.755-.51 0-.918-.102-1.123-.204 1.123-2.143 1.633-3.98 1.633-5.409 0-3.572-2.755-5.102-5.817-5.102-3.674 0-7.756 2.041-7.756 5.511 0 5.715 4.592 7.756 10.613 7.756 4.184 0 8.98-1.02 13.47-2.347l-14.083 31.737h3.061z"/><path id="S" d="M301.358 194.947c0 6.531 5.409 10.205 12.246 10.205 9.082 0 19.389-7.551 19.389-16.123 0-6.531-5.409-10.103-12.246-10.103-9.082 0-19.389 7.449-19.389 16.021z"/><path id="T" d="M353.696 141.27c-6.633-11.735-18.164-25.614-19.899-38.676l-1.02-.102v45.105c9.592 3.47 22.348 17.246 22.348 29.288a18.79 18.79 0 0 1-.306 3.368c-.714 2.347-1.531 4.694-2.449 7.143l.408.306c4.184-9.49 6.735-17.756 6.735-25.92 0-6.633-1.735-13.266-5.817-20.511zm-4.49 12.45c-4.082-6.429-10.307-14.899-13.47-22.961 14.083 8.47 21.328 19.899 21.328 33.88 0 2.347-.204 4.898-.51 7.449-.306-5.919-2.959-11.531-7.347-18.369z"/></defs></svg>