<svg xmlns="http://www.w3.org/2000/svg" xmlns:xlink="http://www.w3.org/1999/xlink" width="546.414" height="87.33" viewBox="0 0 1639.931 261.909" xmlns:v="https://vecta.io/nano"><style><![CDATA[.B{stroke-linecap:butt}.C{stroke-linejoin:bevel}.D{fill:#000}.E{stroke:none}.F{stroke-width:2.392}]]></style><g fill="none" stroke="#000" fill-rule="evenodd"><path d="M535.748 51.065v102.047M893.711 51.065v102.047m385.866-102.047v102.047m358.76-102.047v102.047" stroke-width="3.189" class="B C"/><g class="D E"><path d="M148.253 99.641c-1.646 0-4.937-1.028-4.937-2.468v-7.508h4.937v-2.263h-4.937V63.748l-11.519 9.667v13.987h-13.781l23.86-37.744h-12.856c-1.748 15.838-7.199 32.705-15.221 37.744v2.263h17.998v7.508c0 1.44-3.497 2.468-5.142 2.468v2.263h21.597z"/><path d="M148.253 151.861c-1.646 0-4.937-1.028-4.937-2.468v-7.508h4.937v-2.263h-4.937v-23.654l-11.519 9.667v13.987h-13.781l23.86-37.744h-12.856c-1.748 15.838-7.199 32.705-15.221 37.744v2.263h17.998v7.508c0 1.44-3.497 2.468-5.142 2.468v2.263h21.597z"/></g><path d="M0 153.112h1639.931M0 127.6h1639.931M0 102.089h1639.931M0 76.577h1639.931M0 51.065h1639.931" class="B C F"/><g class="D E"><path d="M46.177 163.929c-7.756.102-12.96 6.633-12.96 11.531 0 11.429 11.123 17.552 20.001 17.552 8.164 0 20.614-5.817 20.614-17.042 0-1.327-.102-2.653-.51-4.082l-5.204-21.022c13.572-5.715 19.083-20.716 19.185-28.675v-.51c0-15.511-10.205-23.063-21.022-24.695-1.123-.204-2.449-.204-3.776-.204-2.755 0-5.715.306-7.347.918l-4.898-18.675c12.348-12.552 19.899-26.43 19.899-42.452v-.612c-.204-17.654-11.633-34.186-15.919-34.9-4.592 1.531-15.511 19.287-15.715 32.961v1.123c0 13.062 3.368 20.614 6.021 31.329-8.266 8.572-25.41 26.94-25.41 46.84 0 21.022 13.674 39.39 36.941 39.39a46.78 46.78 0 0 0 9.694-1.02l5.102 21.022c.306 1.123.408 2.143.408 3.163 0 8.878-9.388 14.695-17.858 14.695-5.306 0-11.633-4.592-12.144-8.674 1.225.918 2.653 1.225 4.082 1.225 5.102 0 10.817-4.49 10.817-8.878 0-5.102-3.572-10.103-10.001-10.307zM57.3 12.287c4.592 1.123 7.96 13.572 7.96 21.43-.102 11.123-12.042 23.675-18.675 30.818-2.041-8.368-4.388-14.491-4.388-27.247 0-13.47 11.327-24.593 15.103-25.002zm-5.102 86.434c-8.776 3.368-12.144 10.001-12.144 18.777 0 1.02 0 2.041.102 3.061.918 12.144 9.286 18.777 14.083 20.103-5.715-4.592-9.694-8.776-9.797-16.328 0-6.939 2.959-12.246 11.021-14.083l9.286 37.349c-2.347.714-7.347 1.02-10.817 1.02-1.123 0-2.143 0-2.755-.102-16.94-1.735-24.9-17.552-24.9-31.226.102-15.001 18.062-32.043 21.94-36.329zm5.715 11.123c1.939-.306 3.878-.51 5.715-.51 9.184 0 16.021 4.082 17.348 9.899.408 2.041.612 3.98.612 5.919 0 9.899-5.715 17.96-14.491 21.838z"/><use xlink:href="#B"/><use xlink:href="#B" x="87.697"/><use xlink:href="#C"/><use xlink:href="#C" x="86.103"/><use xlink:href="#D"/><use xlink:href="#D" x="86.9"/><use xlink:href="#C" x="385.069"/><path d="M944.558 258.2h-3.574v-30.733h17.132v3.174h-13.559v11.246h12.739v3.174h-12.739zm86.9 0h-3.574v-30.733h17.132v3.174h-13.559v11.246h12.739v3.174h-12.739z"/><use xlink:href="#E"/><use xlink:href="#E" x="86.9"/><use xlink:href="#F"/><use xlink:href="#F" x="86.1"/><use xlink:href="#B" x="1305.09"/></g><path d="M176.988 178.624h54.213m-11.959-3.986V89.333" class="B C F"/><use xlink:href="#G" class="D E"/><path d="M264.685 178.624h54.213m-11.959-3.986V89.333" class="B C F"/><use xlink:href="#G" x="87.697" class="D E"/><path d="M394.636 123.614V38.309" class="B C F"/><use xlink:href="#G" x="175.393" y="-51.023" class="D E"/><path d="M480.738 123.614V38.309" class="B C F"/><use xlink:href="#G" x="261.496" y="-51.023" class="D E"/><path d="M606.703 110.858V25.553" class="B C F"/><use xlink:href="#G" x="387.46" y="-63.779" class="D E"/><path d="M693.602 110.858V25.553" class="B C F"/><use xlink:href="#G" x="474.36" y="-63.779" class="D E"/><path d="M779.705 123.614V38.309" class="B C F"/><use xlink:href="#H" class="D E"/><path d="M964.665 136.37V51.065" class="B C F"/><use xlink:href="#G" x="745.423" y="-38.267" class="D E"/><path d="M1051.565 136.37V51.065" class="B C F"/><use xlink:href="#G" x="832.322" y="-38.267" class="D E"/><path d="M1137.667 149.126V63.821" class="B C F"/><use xlink:href="#G" x="918.425" y="-25.511" class="D E"/><path d="M1224.567 149.126V63.821" class="B C F"/><use xlink:href="#G" x="1005.324" y="-25.511" class="D E"/><path d="M1350.532 161.882V76.577" class="B C F"/><use xlink:href="#G" x="1131.289" y="-12.756" class="D E"/><path d="M1436.634 161.882V76.577" class="B C F"/><use xlink:href="#G" x="1217.391" y="-12.756" class="D E"/><path d="M1482.077 178.624h54.213m-11.959-3.986V89.333" class="B C F"/><use xlink:href="#H" x="744.626" y="51.023" class="D E"/></g><defs ><path id="B" d="M208.723 230.221q-5.066 0-8.009 3.384-2.922 3.363-2.922 9.228 0 6.033 2.817 9.333 2.838 3.279 8.072 3.279 3.216 0 7.336-1.156v3.132q-3.195 1.198-7.883 1.198-6.79 0-10.49-4.12-3.679-4.12-3.679-11.709 0-4.751 1.766-8.324 1.787-3.574 5.129-5.508 3.363-1.934 7.904-1.934 4.835 0 8.45 1.766l-1.514 3.069q-3.489-1.64-6.979-1.64z"/><path id="C" d="M384.474 242.098h10.447v14.946q-2.438.778-4.961 1.177-2.523.399-5.844.399-6.979 0-10.868-4.141-3.889-4.162-3.889-11.646 0-4.793 1.913-8.387 1.934-3.616 5.55-5.508 3.616-1.913 8.471-1.913 4.919 0 9.165 1.808l-1.387 3.153q-4.162-1.766-8.009-1.766-5.613 0-8.766 3.342-3.153 3.342-3.153 9.27 0 6.222 3.027 9.438 3.048 3.216 8.934 3.216 3.195 0 6.243-.736v-9.459h-6.874z"/><path id="D" d="M602.343 258.2l-3.826-9.775h-12.318l-3.784 9.775h-3.616l12.15-30.859h3.006l12.087 30.859zm-4.94-12.991l-3.574-9.523q-.694-1.808-1.429-4.435-.462 2.018-1.324 4.435l-3.616 9.523z"/><path id="E" d="M1131.116 258.2h-17.132v-30.733h17.132v3.174h-13.559v9.901h12.739v3.153h-12.739v11.309h13.559z"/><path id="F" d="M1351.386 242.54q0 7.61-4.141 11.646-4.12 4.015-11.877 4.015h-8.514v-30.733h9.417q7.168 0 11.141 3.973 3.973 3.973 3.973 11.099zm-3.784.126q0-6.012-3.027-9.06-3.006-3.048-8.955-3.048h-5.192v24.553h4.351q6.39 0 9.607-3.132 3.216-3.153 3.216-9.312z"/><path id="G" d="M188.15 181.583c0 6.531 5.409 10.205 12.246 10.205 9.082 0 19.389-7.551 19.389-16.123 0-6.531-5.409-10.103-12.246-10.103-9.082 0-19.389 7.449-19.389 16.021z"/><path id="H" d="M758.511 117.702c-4.184 2.551-10.307 7.858-10.307 13.98 0 1.735.408 3.47 1.633 5.306 2.041 3.061 5 4.184 8.266 4.184 4.49 0 9.388-2.143 12.45-4.082 6.633-4.286 9.592-9.592 9.592-13.98 0-1.633-.408-3.163-1.123-4.388-1.633-2.755-5-4.592-9.286-4.592-3.368 0-7.245 1.123-11.225 3.572zm2.959 4.796c3.368-2.143 7.756-4.286 11.021-4.286 1.735 0 3.061.612 3.878 2.143.408.714.612 1.531.612 2.245 0 3.674-5 7.041-9.388 9.797-3.674 2.347-8.368 4.694-11.735 4.694-1.531 0-2.755-.51-3.47-1.735-.306-.51-.408-1.123-.408-1.735 0-3.674 4.898-8.368 9.49-11.123z"/></defs></svg>