<svg xmlns="http://www.w3.org/2000/svg" xmlns:xlink="http://www.w3.org/1999/xlink" width="494.91" height="65.469" viewBox="0 0 1485.357 196.347" xmlns:v="https://vecta.io/nano"><style><![CDATA[.B{stroke-linecap:butt}.C{stroke-linejoin:bevel}.D{fill:#000}.E{stroke:none}.F{stroke-width:2.392}]]></style><g fill="none" stroke="#000" fill-rule="evenodd"><path d="M551.693 51.065v102.047M835.512 51.065v102.047m361.949-102.047v102.047m286.302-101.318v102.047" stroke-width="3.189" class="B C"/><g class="D E"><path d="M191.15 86.991c0-6.274-2.365-8.536-7.713-11.107 5.554-2.777 7.713-4.834 7.713-11.21 0-8.536-7.713-14.912-15.427-14.912-10.284 0-15.427 4.011-15.427 11.93 0 4.217 1.748 6.274 5.348 6.274 3.805 0 5.759-1.851 5.759-5.451s-1.851-5.348-5.451-5.348c-.514 0-.72-.206-.72-.514 0-2.057 5.965-3.908 7.405-3.908 5.554 0 9.77 6.171 9.77 11.724 0 3.394-4.628 10.49-11.519 10.49h-.617v1.748h.514c6.993 0 11.621 5.965 11.621 10.49 0 5.656-4.217 11.724-9.77 11.724-1.44 0-7.405-1.851-7.405-3.908 0-.309.206-.514.72-.514 3.6 0 5.451-1.748 5.451-5.348s-1.954-5.451-5.759-5.451c-3.6 0-5.348 2.057-5.348 6.274 0 7.919 3.497 11.93 16.147 11.93 7.199 0 14.707-7.096 14.707-14.912z"/><path d="M192.899 151.861c-1.646 0-4.937-1.028-4.937-2.468v-7.508h4.937v-2.263h-4.937v-23.654l-11.519 9.667v13.987h-13.781l23.86-37.744h-12.856c-1.748 15.838-7.199 32.705-15.221 37.744v2.263h17.998v7.508c0 1.44-3.497 2.468-5.142 2.468v2.263h21.597z"/></g><path d="M0 153.112h1485.266M0 127.6h1485.266M0 102.089h1485.266M0 76.577h1485.266M0 51.065h1485.266" class="B C F"/><path d="M46.177 163.929c-7.756.102-12.96 6.633-12.96 11.531 0 11.429 11.123 17.552 20.001 17.552 8.164 0 20.614-5.817 20.614-17.042 0-1.327-.102-2.653-.51-4.082l-5.204-21.022c13.572-5.715 19.083-20.716 19.185-28.675v-.51c0-15.511-10.205-23.063-21.022-24.695-1.123-.204-2.449-.204-3.776-.204-2.755 0-5.715.306-7.347.918L50.26 79.025c12.348-12.552 19.899-26.43 19.899-42.452v-.612c-.204-17.654-11.633-34.186-15.919-34.9-4.592 1.531-15.511 19.287-15.715 32.961v1.123c0 13.062 3.368 20.614 6.021 31.329-8.266 8.572-25.41 26.94-25.41 46.84 0 21.022 13.674 39.39 36.941 39.39a46.78 46.78 0 0 0 9.694-1.02l5.102 21.022a11.72 11.72 0 0 1 .408 3.163c0 8.878-9.388 14.695-17.858 14.695-5.306 0-11.633-4.592-12.144-8.674 1.225.918 2.653 1.225 4.082 1.225 5.102 0 10.817-4.49 10.817-8.878 0-5.102-3.572-10.103-10.001-10.307zM57.3 12.287c4.592 1.123 7.96 13.572 7.96 21.43-.102 11.123-12.042 23.675-18.675 30.818-2.041-8.368-4.388-14.491-4.388-27.247 0-13.47 11.327-24.593 15.103-25.002zm-5.102 86.434c-8.776 3.368-12.144 10.001-12.144 18.777 0 1.02 0 2.041.102 3.061.918 12.144 9.286 18.777 14.083 20.103-5.715-4.592-9.694-8.776-9.797-16.328 0-6.939 2.959-12.246 11.021-14.083l9.286 37.349c-2.347.714-7.347 1.02-10.817 1.02-1.123 0-2.143 0-2.755-.102-16.94-1.735-24.9-17.552-24.9-31.226.102-15.001 18.062-32.043 21.94-36.329zm5.715 11.123c1.939-.306 3.878-.51 5.715-.51 9.184 0 16.021 4.082 17.348 9.899.408 2.041.612 3.98.612 5.919 0 9.899-5.715 17.96-14.491 21.838zm70.105-70.719l4.592-1.633c1.123-.408 1.633-2.959 1.633-5.306 0-2.041-.408-3.878-1.327-3.878-.102 0-.204.102-.306.102l-4.592 1.633v-12.96c0-.51-.51-.714-1.02-.714s-1.02.204-1.02.714v13.674l-8.98 3.368V20.349c0-.51-.612-.714-1.123-.714s-1.02.204-1.02.714V34.84l-4.694 1.939c-.816.408-1.327 2.857-1.327 5.102 0 1.939.306 3.776 1.327 3.776l4.694-1.735v18.164l-4.694 1.735c-.918.408-1.327 2.755-1.327 5 0 2.143.408 4.082 1.327 4.082l4.694-1.837v13.776c0 .51.51.816 1.02.816s1.123-.306 1.123-.816V70.25l8.98-3.266v15.001c0 .51.51.714 1.02.714s1.02-.204 1.02-.714V66.27l4.592-1.633c1.123-.408 1.633-3.061 1.633-5.306 0-2.041-.408-3.776-1.327-3.776-.102 0-.204.102-.306.102l-4.592 1.633zm-2.041.816v18.062l-8.98 3.266V43.207zm213.649 17.502l57.402-6.378V38.309l-57.402 6.378v12.756m84.508 127.559l57.402-6.378v-12.756l-57.402 6.378v12.756m530.167-19.134l57.402-6.378v-12.756l-57.402 6.378v12.756m114.803-25.512l57.402-6.378v-12.756l-57.402 6.378v12.756" class="D E"/><path d="M233.593 80.563v85.305" class="B C F"/><use xlink:href="#B" class="D E"/><path d="M339.626 123.614v-78.13" class="B C F"/><use xlink:href="#B" x="75.739" y="51.024" class="D E"/><path d="M397.028 110.858V39.106" class="B C F"/><use xlink:href="#B" x="133.14" y="38.268" class="D E"/><path d="M424.134 106.075v78.13" class="B C F"/><use xlink:href="#B" x="190.542" y="25.512" class="D E"/><path d="M481.536 93.319v84.508" class="B C F"/><use xlink:href="#B" x="247.943" y="12.756" class="D E"/><path d="M595.542 80.563v85.305" class="B C F"/><use xlink:href="#B" x="361.949" class="D E"/><path d="M701.575 123.614V38.309" class="B C F"/><use xlink:href="#B" x="437.687" y="51.024" class="D E"/><path d="M777.313 123.614V38.309" class="B C F"/><use xlink:href="#B" x="513.426" y="51.024" class="D E"/><path d="M879.36 67.807v85.305" class="B C F"/><use xlink:href="#B" x="645.768" y="-12.756" class="D E"/><path d="M954.301 93.319v71.752" class="B C F"/><use xlink:href="#B" x="720.709" y="12.756" class="D E"/><path d="M1011.703 80.563v78.13" class="B C F"/><use xlink:href="#B" x="778.111" class="D E"/><path d="M1069.104 67.807v71.752" class="B C F"/><use xlink:href="#B" x="835.512" y="-12.756" class="D E"/><path d="M1126.506 55.051v78.13" class="B C F"/><use xlink:href="#B" x="892.914" y="-25.512" class="D E"/><path d="M1241.309 42.295V127.6" class="B C F"/><use xlink:href="#B" x="1007.717" y="-38.268" class="D E"/><path d="M1346.545 123.614V38.309" class="B C F"/><use xlink:href="#B" x="1082.658" y="51.024" class="D E"/><path d="M1422.284 123.614V38.309" class="B C F"/><use xlink:href="#B" x="1158.396" y="51.024" class="D E"/></g><defs ><path id="B" d="M232.795 79.536c0 6.531 5.409 10.205 12.246 10.205 9.082 0 19.389-7.551 19.389-16.123 0-6.531-5.409-10.103-12.246-10.103-9.082 0-19.389 7.449-19.389 16.021z"/></defs></svg>