<svg xmlns="http://www.w3.org/2000/svg" xmlns:xlink="http://www.w3.org/1999/xlink" width="603.791" height="233.76" viewBox="0 0 1812.136 701.066" xmlns:v="https://vecta.io/nano"><style><![CDATA[.B{fill:#000}.C{stroke-linecap:butt}.D{stroke-linejoin:bevel}.E{stroke:none}.F{stroke-width:2.392}.G{stroke-width:1.594}.H{stroke-width:.797}.I{stroke-width:3.189}]]></style><g fill="none" stroke="#000" fill-rule="evenodd"><path d="M904.075 111.489v102.047m357.962-102.047v102.047m545.315-102.047v102.047" class="C D I"/><g class="B E"><path d="M412.824 27.667c4.245-1.189 7.245-4.189 7.245-8.264 0-5.66-5.604-9.736-12.113-9.736H389.05v1.245c4.642 0 5.094 1.075 5.094 5.66v23.774c0 4.585-.396 5.547-5.094 5.547v1.245h20.717c5.83 0 11.887-4.472 11.887-10.415-.057-4.019-3.396-7.925-8.83-9.057zm-5.547-1.132h-7.359V16.346c0-3 .509-4.076 3.396-4.076h3.849c4.245 0 7.359 3.113 7.359 7.359s-3 6.906-7.245 6.906zm-7.359 15.283v-12.68h7.359c4.415 0 8.151 3.057 8.151 7.472 0 3.792-1.698 8.264-8.943 8.264-2.434 0-5.604-.34-6.113-.849-.283-.283-.453-1.019-.453-2.208zm-.367 272.82h-3.574V287.08h-9.733v-3.174h23.039v3.174h-9.733z"/><use xlink:href="#B"/><use xlink:href="#C"/><use xlink:href="#D"/><use xlink:href="#E"/><use xlink:href="#F"/><use xlink:href="#G"/><use xlink:href="#H"/><use xlink:href="#E" x="116.397"/><use xlink:href="#I"/><use xlink:href="#J"/><use xlink:href="#K"/><use xlink:href="#I" x="95.629"/><path d="M760.718 315.059q-5.108 0-8.072-3.111-2.943-3.111-2.943-8.64 0-5.571 2.733-8.85 2.754-3.279 7.378-3.279 4.33 0 6.853 2.859 2.523 2.838 2.523 7.505v2.207h-15.871q.105 4.057 2.039 6.159 1.955 2.102 5.486 2.102 3.721 0 7.357-1.556v3.111q-1.85.799-3.511 1.135-1.64.357-3.973.357zm-.946-20.958q-2.775 0-4.435 1.808-1.64 1.808-1.934 5.003h12.045q0-3.3-1.471-5.045-1.471-1.766-4.204-1.766z"/><use xlink:href="#L"/><path d="M671.763 302.189h-17.169v-4.523h17.169z"/><use xlink:href="#M"/><use xlink:href="#D" x="386.218"/><use xlink:href="#N"/><use xlink:href="#O"/><use xlink:href="#G" x="409.85"/><path d="M980.068 283.906l-.841 11.099h-2.207l-.862-11.099z"/><use xlink:href="#J" x="308.395"/><path d="M966.905 27.667c4.245-1.189 7.245-4.189 7.245-8.264 0-5.66-5.604-9.736-12.113-9.736h-18.906v1.245c4.642 0 5.094 1.075 5.094 5.66v23.774c0 4.585-.396 5.547-5.094 5.547v1.245h20.717c5.83 0 11.887-4.472 11.887-10.415-.057-4.019-3.396-7.925-8.83-9.057zm-5.547-1.132h-7.359V16.346c0-3 .509-4.076 3.396-4.076h3.849c4.245 0 7.359 3.113 7.359 7.359s-3 6.906-7.245 6.906zm-7.359 15.283V29.138h7.359c4.415 0 8.151 3.057 8.151 7.472 0 3.792-1.698 8.264-8.943 8.264-2.434 0-5.604-.34-6.113-.849-.283-.283-.453-1.019-.453-2.208z"/><use xlink:href="#E" x="526.184"/><use xlink:href="#I" x="409.787"/><use xlink:href="#E" x="593.154"/><path d="M1118.492 291.179q1.535 0 2.754.252l-.483 3.237q-1.429-.315-2.523-.315-2.796 0-4.793 2.27-1.976 2.27-1.976 5.655v12.36h-3.49v-23.039h2.88l.399 4.267h.168q1.282-2.249 3.09-3.468 1.808-1.219 3.973-1.219z"/><use xlink:href="#F" x="610.728"/></g><g class="C D"><path d="M1100.197 207.158c10.364 15.945 41.457 15.945 51.821 0" class="G"/><path d="M1100.197 207.158c10.364 11.959 41.457 11.959 51.821 0-10.364 19.931-41.457 19.931-51.821 0" class="B H"/></g><g class="E B"><path d="M1185.476 302.846q.904-1.282 2.754-3.363l7.441-7.883h4.141l-9.333 9.817 9.985 13.222h-4.225l-8.135-10.889-2.628 2.27v8.619h-3.447V281.93h3.447v17.342q0 1.156-.168 3.574z"/><use xlink:href="#I" x="573.423"/><use xlink:href="#G" x="687.97"/><use xlink:href="#P"/><path d="M1168.446 302.189h-17.169v-4.523h17.169z"/><path d="M1287.224 8.761h-1.019c-.057 1.585-.509 2.377-1.359 2.377-.283 0-.962-.17-2.038-.566-3.34-1.189-6.17-1.811-8.491-1.811-11.604 0-19.812 9.34-19.812 20.264 0 11.717 8.943 18.962 20.717 18.962a27.12 27.12 0 0 0 13.132-3.34V33.214c0-3.962.283-5.434 4.189-5.434v-1.132h-14.491v1.132c4.359 0 4.868 1.132 4.868 5.434v10.868c-2.434 1.359-4.981 2.038-7.698 2.038-8.377 0-14.377-8.038-14.377-18.34 0-9.962 5.377-17.095 14.038-17.095 6.057 0 10.132 3.34 12.34 9.962h.906zm20.188 20.717l-6.566 2.094V19.685l6.566-2.208zm0-28.415v10.189l-6.566 2.264V3.214h-1.698v10.755l-3.849 1.245v6.226l3.849-1.245v11.887l-3.849 1.245v6.226l3.849-1.245v9.736h1.698V37.742l6.566-2.151v10.302h1.698V35.138l3.962-1.245v-6.226l-3.962 1.245V17.025l3.962-1.245V9.553l-3.962 1.245V1.063zm46.349 46.076v-.906c-2.717 0-3.34-.849-3.34-4.302V30.61c0-1.302-1.132-4.642-2.038-5.604-.849-.792-2.038-1.189-3.679-1.189-3.226 0-6.057 1.359-8.547 4.189-.566-2.83-2.264-4.189-5.094-4.189-3.057 0-5.604 1.359-7.868 4.076v-4.076l-7.642 2.434v.906h2.434c.623.226.906.906.906 2.038v12.736c0 3.453-.623 4.302-3.34 4.302v.906h10.698v-.906c-2.208 0-3.057-.849-3.057-3.566V29.535c1.698-2.208 3.566-3.283 5.604-3.283 2.377 0 3.566 1.359 3.566 4.189v11.83c0 3.226-.849 3.962-3.057 3.962v.906h10.698v-.906c-2.717 0-3.34-.849-3.34-4.302l.057-3.962v-5.094c-.057-1.811-.113-3-.283-3.453 1.811-2.094 3.792-3.17 5.83-3.17 2.547 0 3.849 1.359 3.849 4.189v11.83c0 3.226-.849 3.962-3.057 3.962v.906z"/><path d="M1335.624 314.638v-30.733h3.574v30.733z"/><use xlink:href="#K" x="672.001"/><path d="M1402.344 314.638h-3.49v-23.039h3.49zm-3.784-29.282q0-1.198.589-1.745.589-.568 1.471-.568.841 0 1.45.568.61.568.61 1.745 0 1.177-.61 1.766-.61.568-1.45.568-.883 0-1.471-.568-.589-.589-.589-1.766zm14.715 29.282h-3.489V281.93h3.489zm10.931 0h-3.49V281.93h3.49z"/><use xlink:href="#E" x="957.494"/><use xlink:href="#I" x="841.097"/><use xlink:href="#B" x="1095.538"/><use xlink:href="#I" x="904.077"/><use xlink:href="#Q"/><use xlink:href="#I" x="945.783"/><path d="M1604.797 309.635l.315.483q-.547 2.102-1.577 4.877-1.03 2.796-2.144 5.192h-2.628q.568-2.186 1.24-5.402.694-3.216.967-5.15zm-4.267-15.787q0-2.838 2.502-2.838 2.586 0 2.586 2.838 0 1.366-.694 2.102-.694.736-1.892.736-1.219 0-1.871-.736-.631-.736-.631-2.102z"/><use xlink:href="#H" x="1057.287"/><use xlink:href="#F" x="1136.074"/><use xlink:href="#G" x="1136.074"/><path d="M1706.292 283.906l-.841 11.099h-2.207l-.862-11.099z"/><use xlink:href="#J" x="1034.619"/><use xlink:href="#R"/><use xlink:href="#F" x="1250.955"/><use xlink:href="#M" x="981.254"/></g><g class="C D"><path d="M1769.085 156.135c5.581-7.972 21.526-7.972 27.106 0" class="G"/><path d="M1769.085 156.135c5.581-11.959 21.526-11.959 27.106 0-5.581-3.986-21.526-3.986-27.106 0" class="B H"/><path d="M788.474 484.599v102.047m12.756-102.047v102.047m625.04-102.047v102.047m384.271-102.047v102.047" class="I"/></g><path d="M375.74 414.022l-1.019-1.472c-3.623 4.019-7.925 6-12.906 6-8.547 0-14.038-6.793-14.038-16.868 0-10.245 5.208-17.321 13.698-17.321 6.623 0 11.094 4.359 12.453 10.981h1.585v-13.245h-1.925c-.509 1.415-1.245 2.151-2.151 2.151-.509 0-6.849-2.377-10.755-2.377-11.038 0-19.132 9.283-19.132 20.264 0 11.264 7.472 18.849 18.679 18.849 6.566 0 11.717-2.321 15.51-6.962zm17.06-11.434l-6.566 2.094v-11.887l6.566-2.208zm0-28.415v10.189l-6.566 2.264v-10.302h-1.698v10.755l-3.849 1.245v6.226l3.849-1.245v11.887l-3.849 1.245v6.226l3.849-1.245v9.736h1.698v-10.302l6.566-2.151v10.302h1.698v-10.755l3.962-1.245v-6.226l-3.962 1.245v-11.887l3.962-1.245v-6.226l-3.962 1.245v-9.736z" class="B E"/><g class="C D"><path d="M312.52 687.897h70.157" class="F"/><path d="M312.52 529.245c10.364-15.945 40.659-15.945 51.024 0" class="G"/><path d="M312.52 529.245c10.364-19.931 40.659-19.931 51.024 0-10.364-11.959-40.659-11.959-51.024 0" class="B H"/></g><g class="E B"><use xlink:href="#N" x="-497.479" y="373.113"/><use xlink:href="#Q" x="-1130.217" y="373.113"/><use xlink:href="#R" x="-1297.299" y="373.113"/><use xlink:href="#P" x="-786.699" y="373.113"/><path d="M561.111 400.777c4.245-1.189 7.245-4.189 7.245-8.264 0-5.66-5.604-9.736-12.113-9.736h-18.906v1.245c4.642 0 5.094 1.075 5.094 5.66v23.774c0 4.585-.396 5.547-5.094 5.547v1.245h20.717c5.83 0 11.887-4.472 11.887-10.415-.057-4.019-3.396-7.925-8.83-9.057zm-5.547-1.132h-7.359v-10.189c0-3 .509-4.076 3.396-4.076h3.849c4.245 0 7.359 3.113 7.359 7.359s-3 6.906-7.245 6.906zm-7.359 15.283v-12.679h7.359c4.415 0 8.151 3.057 8.151 7.472 0 3.792-1.698 8.264-8.943 8.264-2.434 0-5.604-.34-6.113-.849-.283-.283-.453-1.019-.453-2.208z"/><use xlink:href="#S"/><path d="M658.055 657.019l-.841 11.099h-2.207l-.862-11.099zm20.18 2.753q-5.066 0-8.009 3.384-2.922 3.363-2.922 9.228 0 6.033 2.817 9.333 2.838 3.279 8.072 3.279 3.216 0 7.336-1.156v3.132q-3.195 1.198-7.883 1.198-6.79 0-10.49-4.12-3.679-4.12-3.679-11.709 0-4.751 1.766-8.324 1.787-3.574 5.129-5.508 3.363-1.934 7.904-1.934 4.835 0 8.45 1.766l-1.514 3.069q-3.489-1.64-6.979-1.64z"/><use xlink:href="#O" x="-234.985" y="373.113"/><use xlink:href="#M" x="-94.837" y="373.113"/><use xlink:href="#D" x="291.381" y="373.113"/><use xlink:href="#I" x="131.368" y="373.113"/><use xlink:href="#R" x="-811.6" y="373.113"/><use xlink:href="#F" x="439.355" y="373.113"/><use xlink:href="#M" x="169.654" y="373.113"/><path d="M1009.573 657.019l-.841 11.099h-2.207l-.862-11.099zm9.985 30.732h-3.49v-32.709h3.49zm10.931 0H1027v-32.709h3.489z"/><use xlink:href="#T"/><use xlink:href="#S" x="421.028"/><path d="M1068.379 664.334q4.541 0 7.042 3.111 2.523 3.09 2.523 8.766 0 5.676-2.544 8.829-2.523 3.132-7.021 3.132-2.249 0-4.12-.82-1.85-.841-3.111-2.565h-.252l-.736 2.964h-2.502v-32.709h3.489v7.946q0 2.67-.168 4.793h.168q2.438-3.447 7.231-3.447zm-.505 2.922q-3.574 0-5.15 2.06-1.577 2.039-1.577 6.895 0 4.856 1.619 6.958 1.619 2.081 5.192 2.081 3.216 0 4.793-2.333 1.577-2.354 1.577-6.748 0-4.499-1.577-6.706-1.577-2.207-4.877-2.207z"/><use xlink:href="#I" x="452.837" y="373.113"/><use xlink:href="#C" x="720.734" y="373.113"/><use xlink:href="#L" x="396.311" y="373.113"/></g><path d="M1195.866 687.897h60.591" class="C D F"/><g class="B E"><path d="M1325.395 687.751v-14.988q0-2.754-1.177-4.12-1.177-1.387-3.658-1.387-3.258 0-4.814 1.871-1.556 1.871-1.556 5.76v12.865h-3.489v-14.988q0-2.754-1.177-4.12-1.177-1.387-3.679-1.387-3.279 0-4.814 1.976-1.514 1.955-1.514 6.432v12.087h-3.489v-23.039h2.838l.568 3.153h.168q.988-1.682 2.775-2.628 1.808-.946 4.036-.946 5.402 0 7.063 3.91h.168q1.03-1.808 2.985-2.859 1.955-1.051 4.456-1.051 3.91 0 5.844 2.018 1.955 1.997 1.955 6.411v15.03z"/><use xlink:href="#R" x="-408.036" y="373.113"/></g><path d="M1356.112 687.897h35.876" class="C D F"/><g class="B E"><path d="M1448.125 687.751v-14.904q0-2.817-1.282-4.204-1.282-1.387-4.015-1.387-3.637 0-5.318 1.976-1.661 1.976-1.661 6.474v12.045h-3.489v-32.709h3.489v9.901q0 1.787-.168 2.964h.21q1.03-1.661 2.922-2.607 1.913-.967 4.351-.967 4.225 0 6.327 2.018 2.123 1.997 2.123 6.369v15.03z"/><use xlink:href="#I" x="827.537" y="373.113"/><use xlink:href="#O" x="556.199" y="373.113"/><use xlink:href="#Q" x="-52.576" y="373.113"/><use xlink:href="#J" x="846.263" y="373.113"/><use xlink:href="#P" x="284.468" y="373.113"/><path d="M1457.462 420.249v-1.245c-2.717-.113-3.396-.509-5.547-5.66l-13.019-31.359h-1.472l-14.038 33.17c-1.075 2.434-2.717 3.679-4.981 3.849v1.245h11.321v-1.245c-2.491 0-3.736-.736-3.736-2.151 0-1.528 1.585-5.377 3.17-8.717h14.83c1.472 3.283 2.943 7.132 2.943 8.717 0 1.415-1.245 2.151-3.736 2.151v1.245zm-20.83-29.547l6.566 14.83h-12.906z"/><use xlink:href="#S" x="887.366"/><path d="M1496.749 382.663l-2.943-.906-17.717 49.642 2.491.792z"/><use xlink:href="#T" x="540.631"/><use xlink:href="#S" x="961.659"/><use xlink:href="#U"/><use xlink:href="#U" y="52.22"/></g><path d="M0 213.536h1808.947M0 188.025h1808.947M0 162.513h1808.947M0 137.001h1808.947M0 111.489h1808.947" class="C D F"/><g class="B E"><path d="M46.177 224.353c-7.756.102-12.96 6.633-12.96 11.531 0 11.429 11.123 17.552 20.001 17.552 8.164 0 20.614-5.817 20.614-17.042 0-1.327-.102-2.653-.51-4.082l-5.204-21.022c13.572-5.715 19.083-20.716 19.185-28.675v-.51c0-15.511-10.205-23.063-21.022-24.695-1.123-.204-2.449-.204-3.776-.204-2.755 0-5.715.306-7.347.918l-4.898-18.675c12.348-12.552 19.899-26.43 19.899-42.452v-.612c-.204-17.654-11.633-34.186-15.919-34.9-4.592 1.531-15.511 19.287-15.715 32.961v1.123c0 13.062 3.368 20.614 6.021 31.329-8.266 8.572-25.41 26.94-25.41 46.84 0 21.022 13.674 39.39 36.941 39.39a46.78 46.78 0 0 0 9.694-1.02l5.102 21.022a11.72 11.72 0 0 1 .408 3.163c0 8.878-9.388 14.695-17.858 14.695-5.306 0-11.633-4.592-12.144-8.674 1.225.918 2.653 1.225 4.082 1.225 5.102 0 10.817-4.49 10.817-8.878 0-5.102-3.572-10.103-10.001-10.307zM57.3 72.711c4.592 1.123 7.96 13.572 7.96 21.43-.102 11.123-12.042 23.675-18.675 30.818-2.041-8.368-4.388-14.491-4.388-27.247 0-13.47 11.327-24.593 15.103-25.002zm-5.102 86.434c-8.776 3.368-12.144 10.001-12.144 18.777 0 1.02 0 2.041.102 3.061.918 12.144 9.286 18.777 14.083 20.103-5.715-4.592-9.694-8.776-9.797-16.328 0-6.939 2.959-12.246 11.021-14.083l9.286 37.349c-2.347.714-7.347 1.02-10.817 1.02-1.123 0-2.143 0-2.755-.102-16.94-1.735-24.9-17.552-24.9-31.226.102-15.001 18.062-32.043 21.94-36.329zm5.715 11.123c1.939-.306 3.878-.51 5.715-.51 9.184 0 16.021 4.082 17.348 9.899.408 2.041.612 3.98.612 5.919 0 9.899-5.715 17.96-14.491 21.838zm70.105-70.718l4.592-1.633c1.123-.408 1.633-2.959 1.633-5.306 0-2.041-.408-3.878-1.327-3.878-.102 0-.204.102-.306.102l-4.592 1.633v-12.96c0-.51-.51-.714-1.02-.714s-1.02.204-1.02.714v13.674l-8.98 3.368V80.773c0-.51-.612-.714-1.123-.714s-1.02.204-1.02.714v14.491l-4.694 1.939c-.816.408-1.327 2.857-1.327 5.102 0 1.939.306 3.776 1.327 3.776l4.694-1.735v18.164l-4.694 1.735c-.918.408-1.327 2.755-1.327 5 0 2.143.408 4.082 1.327 4.082l4.694-1.837v13.776c0 .51.51.816 1.02.816s1.123-.306 1.123-.816v-14.593l8.98-3.266v15.001c0 .51.51.714 1.02.714s1.02-.204 1.02-.714v-15.715l4.592-1.633c1.123-.408 1.633-3.061 1.633-5.306 0-2.041-.408-3.776-1.327-3.776-.102 0-.204.102-.306.102l-4.592 1.633zm-2.041.816v18.062l-8.98 3.266v-18.062z"/><use xlink:href="#V"/><path d="M191.798 86.794l4.592-1.633c1.123-.408 1.633-2.959 1.633-5.306 0-2.041-.408-3.878-1.327-3.878-.102 0-.204.102-.306.102l-4.592 1.633v-12.96c0-.51-.51-.714-1.02-.714s-1.02.204-1.02.714v13.674l-8.98 3.368V68.017c0-.51-.612-.714-1.123-.714s-1.02.204-1.02.714v14.491l-4.694 1.939c-.816.408-1.327 2.857-1.327 5.102 0 1.939.306 3.776 1.327 3.776l4.694-1.735v18.164l-4.694 1.735c-.918.408-1.327 2.755-1.327 5 0 2.143.408 4.082 1.327 4.082l4.694-1.837v13.776c0 .51.51.816 1.02.816s1.123-.306 1.123-.816v-14.593l8.98-3.266v15.001c0 .51.51.714 1.02.714s1.02-.204 1.02-.714v-15.715l4.592-1.633c1.123-.408 1.633-3.061 1.633-5.306 0-2.041-.408-3.776-1.327-3.776-.102 0-.204.102-.306.102l-4.592 1.633zm-2.041.816v18.062l-8.98 3.266V90.876z"/><use xlink:href="#V" x="63.78" y="-12.756"/><use xlink:href="#V" x="95.669" y="25.512"/><path d="M287.467 112.306l4.592-1.633c1.123-.408 1.633-2.959 1.633-5.306 0-2.041-.408-3.878-1.327-3.878-.102 0-.204.102-.306.102l-4.592 1.633v-12.96c0-.51-.51-.714-1.02-.714s-1.02.204-1.02.714v13.674l-8.98 3.368V93.529c0-.51-.612-.714-1.123-.714s-1.02.204-1.02.714v14.491l-4.694 1.939c-.816.408-1.327 2.857-1.327 5.102 0 1.939.306 3.776 1.327 3.776l4.694-1.735v18.164l-4.694 1.735c-.918.408-1.327 2.755-1.327 5 0 2.143.408 4.082 1.327 4.082l4.694-1.837v13.776c0 .51.51.816 1.02.816s1.123-.306 1.123-.816V143.43l8.98-3.266v15.001c0 .51.51.714 1.02.714s1.02-.204 1.02-.714V139.45l4.592-1.633c1.123-.408 1.633-3.061 1.633-5.306 0-2.041-.408-3.776-1.327-3.776-.102 0-.204.102-.306.102l-4.592 1.633zm-2.041.816v18.062l-8.98 3.266v-18.062zm279.82 4.745l79.724-6.378V98.733l-79.724 6.378v12.756m188.947 0l84.508 6.378v-12.756l-84.508-6.378v12.756m300.561 0h57.402v-12.756h-57.402v12.756m361.152 0l70.157-6.378V98.733l-70.157 6.378v12.756m302.952 100.453l31.89 7.972v-12.756l-31.89-7.972v12.756m-64.577 1.594l96.467 25.512V232.67l-96.467-25.512v12.756"/></g><path d="M0 586.647h1812.136M0 561.135h1812.136M0 535.623h1812.136M0 510.111h1812.136M0 484.599h1812.136" class="C D F"/><g class="B E"><path d="M46.177 597.464c-7.756.102-12.96 6.633-12.96 11.531 0 11.429 11.123 17.552 20.001 17.552 8.164 0 20.614-5.817 20.614-17.042 0-1.327-.102-2.653-.51-4.082l-5.204-21.022c13.572-5.715 19.083-20.716 19.185-28.675v-.51c0-15.511-10.205-23.063-21.022-24.695-1.123-.204-2.449-.204-3.776-.204-2.755 0-5.715.306-7.347.918l-4.898-18.675c12.348-12.552 19.899-26.43 19.899-42.452v-.612c-.204-17.654-11.633-34.186-15.919-34.9-4.592 1.531-15.511 19.287-15.715 32.961v1.123c0 13.062 3.368 20.614 6.021 31.329-8.266 8.572-25.41 26.94-25.41 46.84 0 21.022 13.674 39.39 36.941 39.39a46.78 46.78 0 0 0 9.694-1.02l5.102 21.022c.306 1.123.408 2.143.408 3.163 0 8.878-9.388 14.695-17.858 14.695-5.306 0-11.633-4.592-12.144-8.674 1.225.918 2.653 1.225 4.082 1.225 5.102 0 10.817-4.49 10.817-8.878 0-5.102-3.572-10.103-10.001-10.307zM57.3 445.821c4.592 1.123 7.96 13.572 7.96 21.43-.102 11.123-12.042 23.675-18.675 30.818-2.041-8.368-4.388-14.491-4.388-27.247 0-13.47 11.327-24.593 15.103-25.002zm-5.102 86.434c-8.776 3.368-12.144 10.001-12.144 18.777 0 1.02 0 2.041.102 3.061.918 12.144 9.286 18.777 14.083 20.103-5.715-4.592-9.694-8.776-9.797-16.328 0-6.939 2.959-12.246 11.021-14.083l9.286 37.349c-2.347.714-7.347 1.02-10.817 1.02-1.123 0-2.143 0-2.755-.102-16.94-1.735-24.9-17.552-24.9-31.226.102-15.001 18.062-32.043 21.94-36.329zm5.715 11.123c1.939-.306 3.878-.51 5.715-.51 9.184 0 16.021 4.082 17.348 9.899.408 2.041.612 3.98.612 5.919 0 9.899-5.715 17.96-14.491 21.838z"/><use xlink:href="#V" x="-31.89" y="334.843"/><use xlink:href="#V" y="373.111"/><use xlink:href="#V" x="31.89" y="322.087"/><use xlink:href="#V" x="63.78" y="360.355"/><path d="M255.577 536.439l4.592-1.633c1.123-.408 1.633-2.959 1.633-5.306 0-2.041-.408-3.878-1.327-3.878-.102 0-.204.102-.306.102l-4.592 1.633v-12.96c0-.51-.51-.714-1.02-.714s-1.02.204-1.02.714v13.674l-8.98 3.368v-13.776c0-.51-.612-.714-1.123-.714s-1.02.204-1.02.714v14.491l-4.694 1.939c-.816.408-1.327 2.857-1.327 5.102 0 1.939.306 3.776 1.327 3.776l4.694-1.735V559.4l-4.694 1.735c-.918.408-1.327 2.755-1.327 5 0 2.143.408 4.082 1.327 4.082l4.694-1.837v13.776c0 .51.51.816 1.02.816s1.123-.306 1.123-.816v-14.593l8.98-3.266v15.001c0 .51.51.714 1.02.714s1.02-.204 1.02-.714v-15.715l4.592-1.633c1.123-.408 1.633-3.061 1.633-5.306 0-2.041-.408-3.776-1.327-3.776-.102 0-.204.102-.306.102l-4.592 1.633zm-2.041.816v18.062l-8.98 3.266v-18.062zm33.931-51.839l4.592-1.633c1.123-.408 1.633-2.959 1.633-5.306 0-2.041-.408-3.878-1.327-3.878-.102 0-.204.102-.306.102l-4.592 1.633v-12.96c0-.51-.51-.714-1.02-.714s-1.02.204-1.02.714v13.674l-8.98 3.368V466.64c0-.51-.612-.714-1.123-.714s-1.02.204-1.02.714v14.491l-4.694 1.939c-.816.408-1.327 2.857-1.327 5.102 0 1.939.306 3.776 1.327 3.776l4.694-1.735v18.164l-4.694 1.735c-.918.408-1.327 2.755-1.327 5 0 2.143.408 4.082 1.327 4.082l4.694-1.837v13.776c0 .51.51.816 1.02.816s1.123-.306 1.123-.816V516.54l8.98-3.266v15.001c0 .51.51.714 1.02.714s1.02-.204 1.02-.714V512.56l4.592-1.633c1.123-.408 1.633-3.061 1.633-5.306 0-2.041-.408-3.776-1.327-3.776-.102 0-.204.102-.306.102l-4.592 1.633zm-2.041.816v18.062l-8.98 3.266v-18.062z"/><use xlink:href="#W"/><use xlink:href="#W" x="28.701" y="-38.268"/><use xlink:href="#W" x="57.401" y="12.755"/><path d="M1157.598 599.403l67.766 19.134V605.78l-67.766-19.134v12.756m165.827-133.936l67.766 6.378v-12.756l-67.766-6.378v12.756"/></g><g class="C D"><path d="M1176.732 471.843c20.728-18.337 58.199-2.392 59.793 25.512" class="G"/><path d="M1176.732 471.843c22.323-22.323 59.793-6.378 59.793 25.512-3.189-23.917-40.659-39.862-59.793-25.512" class="B H"/><path d="M1312.264 573.891c11.161 25.512 48.632 25.512 59.793 0" class="G"/><path d="M1312.264 573.891c11.161 21.526 48.632 21.526 59.793 0-11.161 29.498-48.632 29.498-59.793 0" class="B H"/></g><use xlink:href="#X" class="B E"/><path d="M463.996 184.038V98.733" class="C D F"/><g class="B E"><use xlink:href="#Y"/><use xlink:href="#Z"/></g><path d="M565.246 184.038v-78.13" class="C D F"/><use xlink:href="#Y" x="101.25" class="B E"/><path d="M644.971 171.282V99.531" class="C D F"/><use xlink:href="#Y" x="180.974" y="-12.756" class="B E"/><path d="M754.193 184.038v-78.13" class="C D F"/><use xlink:href="#Y" x="290.196" class="B E"/><path d="M838.701 196.794v-84.508" class="C D F"/><g class="B E"><use xlink:href="#Y" x="374.704" y="12.756"/><use xlink:href="#a"/></g><path d="M971.841 184.038V98.733" class="C D F"/><use xlink:href="#Y" x="507.844" class="B E"/><path d="M1054.754 184.038v-78.13" class="C D F"/><use xlink:href="#Y" x="590.757" class="B E"/><path d="M1112.156 184.038v-78.13" class="C D F"/><use xlink:href="#Y" x="648.159" class="B E"/><path d="M1170.354 184.038V98.733" class="C D F"/><g class="B E"><use xlink:href="#Y" x="706.358"/><use xlink:href="#Z" x="706.359"/></g><path d="M1230.148 171.282V85.977" class="C D F"/><g class="B E"><use xlink:href="#Y" x="766.151" y="-12.756"/><use xlink:href="#b"/><use xlink:href="#X" x="897.697"/></g><path d="M1356.112 184.038V98.733" class="C D F"/><g class="B E"><use xlink:href="#Y" x="892.116"/><use xlink:href="#Z" x="892.116"/></g><path d="M1415.906 184.038v-78.13" class="C D F"/><use xlink:href="#Y" x="951.909" class="B E"/><path d="M1486.063 171.282V99.531" class="C D F"/><use xlink:href="#Y" x="1022.066" y="-12.756" class="B E"/><path d="M1572.963 184.038V98.733" class="C D F"/><use xlink:href="#Y" x="1108.966" class="B E"/><path d="M1654.281 140.987v78.13" class="C D F"/><g class="B E"><use xlink:href="#Y" x="1220.58" y="-51.024"/><use xlink:href="#b" x="454.429" y="-51.023"/></g><path d="M1750.748 179.255v65.374" class="C D F"/><use xlink:href="#Y" x="1317.047" y="-12.756" class="B E"/><path d="M381.88 544.393v-85.305" class="C D F"/><g class="B E"><use xlink:href="#Y" x="-82.116" y="360.354"/><use xlink:href="#Z" x="-82.116" y="360.355"/></g><path d="M449.646 557.149v-85.305" class="C D F"/><g class="B E"><use xlink:href="#Y" x="-14.351" y="373.11"/><use xlink:href="#b" x="-780.502" y="373.111"/><use xlink:href="#a" x="-313.317" y="373.11"/><use xlink:href="#X" x="251.929" y="373.11"/></g><path d="M707.156 539.609v85.305" class="C D F"/><g class="B E"><use xlink:href="#Y" x="273.454" y="347.598"/><use xlink:href="#W" x="-136.329"/><path d="M708.399 624.71c1.735-13.062 13.266-26.94 19.899-38.676 4.082-7.245 5.817-13.878 5.817-20.511 0-8.164-2.551-16.43-6.735-25.92l-.408.306c3.266 8.266 4.694 15.919 4.694 22.757 0 14.899-8.266 26.94-24.287 35.614v26.532z"/></g><path d="M966.26 539.609v85.305" class="C D F"/><use xlink:href="#Y" x="532.559" y="347.598" class="B E"/><path d="M1064.321 501.341v85.305" class="C D F"/><use xlink:href="#Y" x="630.62" y="309.331" class="B E"/><path d="M1157.598 501.341v97.264" class="C D F"/><use xlink:href="#Y" x="723.897" y="309.331" class="B E"/><path d="M1225.364 539.609v78.13" class="C D F"/><use xlink:href="#Y" x="791.663" y="347.598" class="B E"/><path d="M1323.425 531.637v-78.13" class="C D F"/><use xlink:href="#Y" x="859.429" y="347.598" class="B E"/><path d="M1391.191 544.393v-84.508" class="C D F"/><use xlink:href="#Y" x="927.194" y="360.354" class="B E"/><path d="M1497.224 544.393v-85.305" class="C D F"/><g class="B E"><use xlink:href="#Y" x="1033.228" y="360.354"/><use xlink:href="#a" x="701.575" y="373.11"/><path d="M1653.484 535.623h32.757v-12.246h-32.757z"/></g></g><defs ><path id="B" d="M429.127 314.638v-14.904q0-2.817-1.282-4.204-1.282-1.387-4.015-1.387-3.637 0-5.318 1.976-1.661 1.976-1.661 6.474v12.045h-3.489V281.93h3.489v9.901q0 1.787-.168 2.964h.21q1.03-1.661 2.922-2.607 1.913-.967 4.351-.967 4.225 0 6.327 2.018 2.123 1.997 2.123 6.369v15.03z"/><path id="C" d="M443.254 314.638h-3.489v-23.039h3.489zm-3.784-29.282q0-1.198.589-1.745.589-.568 1.471-.568.841 0 1.45.568.61.568.61 1.745 0 1.177-.61 1.766-.61.568-1.45.568-.883 0-1.471-.568-.589-.589-.589-1.766z"/><path id="D" d="M465.557 308.353q0 3.216-2.396 4.961-2.396 1.745-6.727 1.745-4.583 0-7.147-1.45v-3.237q1.661.841 3.553 1.324 1.913.483 3.679.483 2.733 0 4.204-.862 1.471-.883 1.471-2.67 0-1.345-1.177-2.291-1.156-.967-4.541-2.27-3.216-1.198-4.583-2.081-1.345-.904-2.018-2.039-.652-1.135-.652-2.712 0-2.817 2.291-4.435 2.291-1.64 6.285-1.64 3.721 0 7.273 1.514l-1.24 2.838q-3.468-1.429-6.285-1.429-2.48 0-3.742.778-1.261.778-1.261 2.144 0 .925.462 1.577.483.652 1.535 1.24 1.051.589 4.036 1.703 4.099 1.492 5.529 3.006 1.45 1.514 1.45 3.805z"/><path id="E" d="M499.145 291.221q4.541 0 7.042 3.111 2.523 3.09 2.523 8.766 0 5.676-2.544 8.829-2.523 3.132-7.021 3.132-2.249 0-4.12-.82-1.85-.841-3.111-2.565h-.252l-.736 2.964h-2.502V281.93h3.489v7.946q0 2.67-.168 4.793h.168q2.438-3.447 7.231-3.447zm-.505 2.922q-3.574 0-5.15 2.06-1.577 2.039-1.577 6.895 0 4.856 1.619 6.958 1.619 2.081 5.192 2.081 3.216 0 4.793-2.333 1.577-2.354 1.577-6.748 0-4.499-1.577-6.706-1.577-2.207-4.877-2.207z"/><path id="F" d="M534.713 303.098q0 5.634-2.838 8.808-2.838 3.153-7.841 3.153-3.09 0-5.487-1.45-2.396-1.45-3.7-4.162-1.303-2.712-1.303-6.348 0-5.634 2.817-8.766 2.817-3.153 7.82-3.153 4.835 0 7.673 3.216 2.859 3.216 2.859 8.703zm-17.553 0q0 4.414 1.766 6.727 1.766 2.312 5.192 2.312 3.426 0 5.192-2.291 1.787-2.312 1.787-6.748 0-4.393-1.787-6.664-1.766-2.291-5.234-2.291-3.426 0-5.171 2.249-1.745 2.249-1.745 6.706z"/><path id="G" d="M556.575 314.638v-14.904q0-2.817-1.282-4.204-1.282-1.387-4.015-1.387-3.616 0-5.297 1.955-1.682 1.955-1.682 6.453v12.087h-3.489v-23.039h2.838l.568 3.153h.168q1.072-1.703 3.006-2.628 1.934-.946 4.309-.946 4.162 0 6.264 2.018 2.102 1.997 2.102 6.411v15.03z"/><path id="H" d="M582.893 311.548h-.189q-2.417 3.511-7.231 3.511-4.52 0-7.042-3.09-2.502-3.09-2.502-8.787 0-5.697 2.523-8.85 2.523-3.153 7.021-3.153 4.688 0 7.189 3.405h.273l-.147-1.661-.084-1.619v-9.375h3.489v32.709h-2.838zm-6.979.589q3.574 0 5.171-1.934 1.619-1.955 1.619-6.285v-.736q0-4.898-1.64-6.979-1.619-2.102-5.192-2.102-3.069 0-4.709 2.396-1.619 2.375-1.619 6.727 0 4.414 1.619 6.664 1.619 2.249 4.751 2.249z"/><path id="I" d="M640.957 315.059q-5.108 0-8.072-3.111-2.943-3.111-2.943-8.64 0-5.571 2.733-8.85 2.754-3.279 7.378-3.279 4.33 0 6.853 2.859 2.523 2.838 2.523 7.505v2.207h-15.871q.105 4.057 2.039 6.159 1.955 2.102 5.487 2.102 3.721 0 7.357-1.556v3.111q-1.85.799-3.511 1.135-1.64.357-3.973.357zm-.946-20.958q-2.775 0-4.435 1.808-1.64 1.808-1.934 5.003h12.045q0-3.3-1.471-5.045-1.471-1.766-4.204-1.766z"/><path id="J" d="M685.61 312.179q.925 0 1.787-.126.862-.147 1.366-.294v2.67q-.568.273-1.682.441-1.093.189-1.976.189-6.685 0-6.685-7.042v-13.706h-3.3v-1.682l3.3-1.45 1.471-4.919h2.018v5.339h6.685v2.712h-6.685v13.559q0 2.081.988 3.195.988 1.114 2.712 1.114z"/><path id="K" d="M712.202 314.638l-4.225-13.517q-.399-1.24-1.492-5.634h-.168q-.841 3.679-1.471 5.676l-4.351 13.475h-4.036l-6.285-23.039h3.658q2.228 8.682 3.384 13.222 1.177 4.541 1.345 6.117h.168q.231-1.198.736-3.09.526-1.913.904-3.027l4.225-13.222h3.784l4.12 13.222q1.177 3.616 1.598 6.075h.168q.084-.757.441-2.333.378-1.577 4.393-16.964h3.616l-6.369 23.039z"/><path id="L" d="M790.884 314.638v-14.904q0-2.817-1.282-4.204-1.282-1.387-4.015-1.387-3.616 0-5.297 1.955-1.682 1.955-1.682 6.453v12.087h-3.49v-23.039h2.838l.568 3.153h.168q1.072-1.703 3.006-2.628 1.934-.946 4.309-.946 4.162 0 6.264 2.018 2.102 1.997 2.102 6.411v15.03z"/><path id="M" d="M813.79 291.599v14.946q0 2.817 1.282 4.204 1.282 1.387 4.015 1.387 3.616 0 5.276-1.976 1.682-1.976 1.682-6.453v-12.108h3.489v23.039h-2.88l-.505-3.09h-.189q-1.072 1.703-2.985 2.607-1.892.904-4.33.904-4.204 0-6.306-1.997-2.081-1.997-2.081-6.39v-15.072z"/><path id="N" d="M915.386 315.059q-5.003 0-7.757-3.069-2.733-3.09-2.733-8.724 0-5.781 2.775-8.934 2.796-3.153 7.946-3.153 1.661 0 3.321.357 1.661.357 2.607.841l-1.072 2.964q-1.156-.462-2.523-.757-1.366-.315-2.417-.315-7.021 0-7.021 8.955 0 4.246 1.703 6.517 1.724 2.27 5.087 2.27 2.88 0 5.907-1.24v3.09q-2.312 1.198-5.823 1.198z"/><path id="O" d="M940.863 314.638l-.694-3.279h-.168q-1.724 2.165-3.447 2.943-1.703.757-4.267.757-3.426 0-5.381-1.766-1.934-1.766-1.934-5.024 0-6.979 11.162-7.315l3.91-.126v-1.429q0-2.712-1.177-3.994-1.156-1.303-3.721-1.303-2.88 0-6.517 1.766l-1.072-2.67q1.703-.925 3.721-1.45 2.039-.526 4.078-.526 4.12 0 6.096 1.829 1.997 1.829 1.997 5.865v15.724zm-7.883-2.459q3.258 0 5.108-1.787 1.871-1.787 1.871-5.003v-2.081l-3.489.147q-4.162.147-6.012 1.303-1.829 1.135-1.829 3.553 0 1.892 1.135 2.88 1.156.988 3.216.988z"/><path id="P" d="M1254.678 312.41q0-1.408.631-2.123.652-.736 1.85-.736 1.219 0 1.892.736.694.715.694 2.123 0 1.366-.694 2.102-.694.736-1.892.736-1.072 0-1.787-.652-.694-.673-.694-2.186z"/><path id="Q" d="M1569.944 291.179q1.535 0 2.754.252l-.483 3.237q-1.429-.315-2.523-.315-2.796 0-4.793 2.27-1.976 2.27-1.976 5.655v12.36h-3.489v-23.039h2.88l.399 4.267h.168q1.282-2.249 3.09-3.468 1.808-1.219 3.973-1.219z"/><path id="R" d="M1740.431 291.599h3.742l5.045 13.138q1.661 4.499 2.06 6.496h.168q.273-1.072 1.135-3.658.883-2.607 5.718-15.976h3.742l-9.901 26.234q-1.471 3.889-3.447 5.508-1.955 1.64-4.814 1.64-1.598 0-3.153-.357v-2.796q1.156.252 2.586.252 3.595 0 5.129-4.036l1.282-3.279z"/><path id="S" d="M573.812 420.192l3.962-3.17c4.925-3.962 11.321-6.736 11.321-13.019 0-4.359-2.887-7.359-7.132-7.359-2.604 0-3.283.283-6.113 3.509l.453-20.378h-2.491zm6.453-21.057c2.547 0 4.189 2.264 4.189 4.981 0 3.453-2.66 7.359-8.038 11.66-.396-1.189-.566-2.83-.566-4.868 0-1.132.17-3.792.453-7.925 1.075-1.642 1.981-3.849 3.962-3.849z"/><path id="T" d="M990.878 410.626h-1.698c-1.075 3.906-4.359 7.019-8.264 7.019h-9.51c-2.434 0-3.057-1.189-3.057-3.736v-11.66h9.962c3.34 0 5.547 2.094 5.547 5.434h1.245v-13.472h-1.245c0 3.34-2.208 5.434-5.547 5.434h-9.962v-10.528c0-2.547.623-3.736 3.057-3.736h9.962c3.17 0 4.925 1.981 5.321 5.887h1.245v-8.491h-30.453v1.245c4.698 0 5.094.962 5.094 5.547v23.887c0 4.585-.396 5.547-5.094 5.547v1.245h30.906z"/><path id="U" d="M352.348 160.065c-1.646 0-4.937-1.028-4.937-2.468v-7.508h4.937v-2.263h-4.937v-23.654l-11.519 9.667v13.987h-13.781l23.86-37.744h-12.856c-1.748 15.838-7.199 32.705-15.221 37.744v2.263h17.998v7.508c0 1.44-3.497 2.468-5.142 2.468v2.263h21.597z"/><path id="V" d="M159.908 137.817l4.592-1.633c1.123-.408 1.633-2.959 1.633-5.306 0-2.041-.408-3.878-1.327-3.878-.102 0-.204.102-.306.102l-4.592 1.633v-12.96c0-.51-.51-.714-1.02-.714s-1.02.204-1.02.714v13.674l-8.98 3.368v-13.776c0-.51-.612-.714-1.123-.714s-1.02.204-1.02.714v14.491l-4.694 1.939c-.816.408-1.327 2.857-1.327 5.102 0 1.939.306 3.776 1.327 3.776l4.694-1.735v18.164l-4.694 1.735c-.918.408-1.327 2.755-1.327 5 0 2.143.408 4.082 1.327 4.082l4.694-1.837v13.776c0 .51.51.816 1.02.816s1.123-.306 1.123-.816v-14.593l8.98-3.266v15.001c0 .51.51.714 1.02.714s1.02-.204 1.02-.714v-15.715l4.592-1.633c1.123-.408 1.633-3.061 1.633-5.306 0-2.041-.408-3.776-1.327-3.776-.102 0-.204.102-.306.102l-4.592 1.633zm-2.041.816v18.062l-8.98 3.266v-18.062z"/><path id="W" d="M817.928 525.929c1.531-1.429 3.47-2.143 5.102-2.143 2.551 0 4.592 1.633 4.592 5.409 0 5.817-6.123 12.756-10.001 16.123zm17.45 3.266c0-6.837-3.368-9.184-7.449-9.184-3.368 0-7.143 1.633-10.001 3.572v-34.696h-2.347v63.269c5.613-3.674 19.797-16.226 19.797-22.961z"/><path id="X" d="M415.543 148.328c-3.674 1.123-12.348 4.286-15.817 4.286-.51 0-.918 0-1.123-.204 1.123-2.143 1.633-3.98 1.633-5.409 0-3.572-2.755-5.102-5.817-5.102-3.674 0-7.756 2.041-7.756 5.511 0 6.021 5.204 7.858 10.817 7.858 4.898 0 10.205-1.327 12.96-2.449l-15.613 35.104h3.061z"/><path id="Y" d="M432.904 190.984c0 6.531 5.409 10.205 12.246 10.205 9.082 0 19.389-7.551 19.389-16.123 0-6.531-5.409-10.103-12.246-10.103-9.082 0-19.389 7.449-19.389 16.021z"/><path id="Z" d="M464.219 98.631v26.532c16.021 8.674 24.287 20.716 24.287 35.614 0 6.837-1.429 14.491-4.694 22.757l.408.306c4.184-9.49 6.735-17.756 6.735-25.92 0-6.633-1.735-13.266-5.817-20.511-6.633-11.735-18.164-25.614-19.899-38.676z"/><path id="a" d="M862.325 121.796c4.694 5.817 6.633 11.531 6.633 17.042 0 6.633-2.857 12.858-6.939 18.573v.714l8.98 14.287c-1.735-.408-3.368-.612-4.694-.612-6.021 0-8.368 3.572-8.368 8.368 0 6.633 4.796 15.613 11.327 20.205l.204-.408c-2.449-3.368-3.878-7.654-3.878-11.327 0-4.592 2.041-8.368 6.633-8.368 2.551 0 6.021 1.225 10.307 4.082l.408-.306c-6.531-6.429-9.899-14.389-9.899-22.246 0-6.531 2.347-13.062 7.245-18.573v-.714l-17.45-21.124z"/><path id="b" d="M1247.687 170.37c-2.449 0-4.694 2.143-4.694 4.898 0 2.347 2.347 4.592 4.694 4.592 2.755 0 4.898-2.245 4.898-4.592 0-2.755-2.143-4.898-4.898-4.898z"/></defs></svg>