<svg xmlns="http://www.w3.org/2000/svg" width="574.306" height="188.229" version="1.2" viewBox="0 0 1723.641 564.518"><g fill="none" fill-rule="evenodd" stroke="#000" stroke-linecap="square" stroke-linejoin="bevel" stroke-width="1" font-style="normal" font-weight="400"><path d="M585.97 103.787v102.046m350.786-102.046v102.046m434.496-102.046v102.046m350.786-102.046v102.046" fill="none" stroke="#000" stroke-linecap="butt" stroke-linejoin="bevel" stroke-opacity="1" stroke-width="3.189" font-family="'.AppleSystemUIFont'" font-size="13" vector-effect="none"/><path d="M209.327 20.647c0-8.434-3.906-14.321-11.717-17.152-2.83-1.018-5.547-1.528-8.207-1.528h-18v1.245c4.698 0 5.094.963 5.094 5.548v23.887c0 4.585-.396 5.547-5.095 5.547v1.245h15.85c13.754 0 22.075-6.848 22.075-18.792zm-6.113.34c0 10.414-5.717 16.075-16.302 16.075-4.528 0-4.642-.793-4.642-5.208V9.213c0-4.529-.056-5.208 4.529-5.208 10.472 0 16.415 6.68 16.415 16.981zm45.913 18.452v-.906c-2.717 0-3.34-.849-3.34-4.302v-11.32c0-1.302-1.133-4.642-2.037-5.604-.85-.793-2.038-1.188-3.68-1.188-3.226 0-6.056 1.358-8.547 4.188-.566-2.83-2.264-4.189-5.094-4.189-3.057 0-5.605 1.359-7.869 4.076v-4.075l-7.64 2.434v.906h2.433c.622.226.906.905.906 2.037v12.736c0 3.453-.623 4.302-3.34 4.302v.906h10.698v-.906c-2.208 0-3.056-.849-3.056-3.566V21.835c1.698-2.207 3.566-3.283 5.604-3.283 2.377 0 3.566 1.359 3.566 4.189v11.83c0 3.227-.85 3.963-3.057 3.963v.905h10.698v-.906c-2.717 0-3.34-.849-3.34-4.302 0-.113 0-1.471.057-3.962v-5.094c-.056-1.811-.113-3-.283-3.452 1.811-2.095 3.793-3.17 5.83-3.17 2.548 0 3.85 1.358 3.85 4.188v11.83c0 3.227-.85 3.963-3.057 3.963v.905zm394.698-18.792c0-8.434-3.906-14.321-11.717-17.152-2.83-1.018-5.547-1.528-8.207-1.528h-18v1.245c4.698 0 5.094.963 5.094 5.548v23.887c0 4.585-.396 5.547-5.095 5.547v1.245h15.85c13.754 0 22.075-6.848 22.075-18.792zm-6.113.34c0 10.414-5.717 16.075-16.302 16.075-4.528 0-4.642-.793-4.642-5.208V9.213c0-4.529-.056-5.208 4.529-5.208 10.472 0 16.415 6.68 16.415 16.981zm45.913 18.452v-.906c-2.717 0-3.34-.849-3.34-4.302v-11.32c0-1.302-1.133-4.642-2.037-5.604-.85-.793-2.038-1.188-3.68-1.188-3.226 0-6.056 1.358-8.547 4.188-.566-2.83-2.264-4.189-5.094-4.189-3.057 0-5.605 1.359-7.869 4.076v-4.075l-7.64 2.434v.906h2.433c.622.226.906.905.906 2.037v12.736c0 3.453-.623 4.302-3.34 4.302v.906h10.698v-.906c-2.208 0-3.056-.849-3.056-3.566V21.835c1.698-2.207 3.566-3.283 5.604-3.283 2.377 0 3.566 1.359 3.566 4.189v11.83c0 3.227-.85 3.963-3.057 3.963v.905h10.698v-.906c-2.717 0-3.34-.849-3.34-4.302 0-.113 0-1.471.057-3.962v-5.094c-.056-1.811-.113-3-.283-3.452 1.811-2.095 3.793-3.17 5.83-3.17 2.548 0 3.85 1.358 3.85 4.188v11.83c0 3.227-.85 3.963-3.057 3.963v.905z" fill="#000" stroke="none" aria-label="D‹" font-family="Opus Chords Std" font-size="71"/><path d="m1011.942 33.213-1.018-1.472c-3.623 4.019-7.925 6-12.906 6-8.547 0-14.038-6.793-14.038-16.868 0-10.245 5.208-17.32 13.698-17.32 6.623 0 11.095 4.358 12.453 10.98h1.585V1.288h-1.925c-.509 1.415-1.245 2.15-2.15 2.15-.51 0-6.85-2.376-10.755-2.376-11.038 0-19.132 9.283-19.132 20.264 0 11.265 7.471 18.849 18.679 18.849 6.566 0 11.717-2.32 15.51-6.962zm434.5 0-1.018-1.472c-3.623 4.019-7.925 6-12.906 6-8.547 0-14.038-6.793-14.038-16.868 0-10.245 5.208-17.32 13.698-17.32 6.623 0 11.095 4.358 12.453 10.98h1.585V1.288h-1.925c-.509 1.415-1.245 2.15-2.15 2.15-.51 0-6.85-2.376-10.755-2.376-11.038 0-19.132 9.283-19.132 20.264 0 11.265 7.471 18.849 18.679 18.849 6.566 0 11.717-2.32 15.51-6.962z" fill="#000" stroke="none" aria-label="C" font-family="Opus Chords Std" font-size="71"/><path d="M612.28 419.494V521.54m407.39-102.046V521.54m408.186-102.046V521.54m293.384-102.046V521.54" fill="none" stroke="#000" stroke-linecap="butt" stroke-linejoin="bevel" stroke-opacity="1" stroke-width="3.189" font-family="'.AppleSystemUIFont'" font-size="13" vector-effect="none"/><path d="M164.682 336.356c0-8.434-3.906-14.321-11.717-17.152-2.83-1.018-5.547-1.528-8.207-1.528h-18v1.245c4.698 0 5.094.963 5.094 5.548v23.887c0 4.585-.396 5.547-5.095 5.547v1.245h15.85c13.754 0 22.075-6.848 22.075-18.792zm-6.113.34c0 10.414-5.717 16.075-16.302 16.075-4.528 0-4.642-.793-4.642-5.208v-22.641c0-4.529-.056-5.208 4.529-5.208 10.472 0 16.415 6.68 16.415 16.981zm45.913 18.452v-.906c-2.717 0-3.34-.849-3.34-4.302v-11.32c0-1.302-1.133-4.642-2.037-5.604-.85-.793-2.038-1.188-3.68-1.188-3.226 0-6.056 1.358-8.547 4.188-.566-2.83-2.264-4.189-5.094-4.189-3.057 0-5.605 1.359-7.869 4.076v-4.075l-7.64 2.434v.906h2.433c.622.226.906.905.906 2.037v12.736c0 3.453-.623 4.302-3.34 4.302v.906h10.698v-.906c-2.208 0-3.056-.849-3.056-3.566v-13.133c1.698-2.207 3.566-3.283 5.604-3.283 2.377 0 3.566 1.359 3.566 4.189v11.83c0 3.227-.85 3.963-3.057 3.963v.905h10.698v-.906c-2.717 0-3.34-.849-3.34-4.302 0-.113 0-1.471.057-3.962v-5.094c-.056-1.811-.113-3-.283-3.452 1.811-2.095 3.793-3.17 5.83-3.17 2.548 0 3.85 1.358 3.85 4.188v11.83c0 3.227-.85 3.963-3.057 3.963v.905zm465.653-18.792c0-8.434-3.906-14.321-11.717-17.152-2.83-1.018-5.547-1.528-8.207-1.528h-18v1.245c4.698 0 5.094.963 5.094 5.548v23.887c0 4.585-.396 5.547-5.095 5.547v1.245h15.85c13.754 0 22.075-6.848 22.075-18.792zm-6.113.34c0 10.414-5.717 16.075-16.302 16.075-4.528 0-4.642-.793-4.642-5.208v-22.641c0-4.529-.056-5.208 4.529-5.208 10.472 0 16.415 6.68 16.415 16.981zm45.913 18.452v-.906c-2.717 0-3.34-.849-3.34-4.302v-11.32c0-1.302-1.133-4.642-2.037-5.604-.85-.793-2.038-1.188-3.68-1.188-3.226 0-6.056 1.358-8.547 4.188-.566-2.83-2.264-4.189-5.094-4.189-3.057 0-5.605 1.359-7.869 4.076v-4.075l-7.64 2.434v.906h2.433c.622.226.906.905.906 2.037v12.736c0 3.453-.623 4.302-3.34 4.302v.906h10.698v-.906c-2.208 0-3.056-.849-3.056-3.566v-13.133c1.698-2.207 3.566-3.283 5.604-3.283 2.377 0 3.566 1.359 3.566 4.189v11.83c0 3.227-.85 3.963-3.057 3.963v.905h10.698v-.906c-2.717 0-3.34-.849-3.34-4.302 0-.113 0-1.471.057-3.962v-5.094c-.056-1.811-.113-3-.283-3.452 1.811-2.095 3.793-3.17 5.83-3.17 2.548 0 3.85 1.358 3.85 4.188v11.83c0 3.227-.85 3.963-3.057 3.963v.905z" fill="#000" stroke="none" aria-label="D‹" font-family="Opus Chords Std" font-size="71"/><path d="m1094.852 348.922-1.018-1.472c-3.623 4.019-7.925 6-12.906 6-8.547 0-14.038-6.793-14.038-16.868 0-10.245 5.208-17.32 13.698-17.32 6.623 0 11.095 4.358 12.453 10.98h1.585v-13.245h-1.925c-.509 1.415-1.245 2.15-2.15 2.15-.51 0-6.85-2.376-10.755-2.376-11.038 0-19.132 9.283-19.132 20.264 0 11.265 7.471 18.849 18.679 18.849 6.566 0 11.717-2.32 15.51-6.962z" fill="#000" stroke="none" aria-label="C" font-family="Opus Chords Std" font-size="71"/><path d="M1485.716 336.356c0-8.434-3.906-14.321-11.717-17.152-2.83-1.018-5.547-1.528-8.207-1.528h-18v1.245c4.698 0 5.094.963 5.094 5.548v23.887c0 4.585-.396 5.547-5.095 5.547v1.245h15.85c13.754 0 22.075-6.848 22.075-18.792zm-6.113.34c0 10.414-5.717 16.075-16.302 16.075-4.528 0-4.642-.793-4.642-5.208v-22.641c0-4.529-.056-5.208 4.529-5.208 10.472 0 16.415 6.68 16.415 16.981zm45.913 18.452v-.906c-2.717 0-3.34-.849-3.34-4.302v-11.32c0-1.302-1.133-4.642-2.037-5.604-.85-.793-2.038-1.188-3.68-1.188-3.226 0-6.056 1.358-8.547 4.188-.566-2.83-2.264-4.189-5.094-4.189-3.057 0-5.605 1.359-7.869 4.076v-4.075l-7.64 2.434v.906h2.433c.622.226.906.905.906 2.037v12.736c0 3.453-.623 4.302-3.34 4.302v.906h10.698v-.906c-2.208 0-3.056-.849-3.056-3.566v-13.133c1.698-2.207 3.566-3.283 5.604-3.283 2.377 0 3.566 1.359 3.566 4.189v11.83c0 3.227-.85 3.963-3.057 3.963v.905h10.698v-.906c-2.717 0-3.34-.849-3.34-4.302 0-.113 0-1.471.057-3.962v-5.094c-.056-1.811-.113-3-.283-3.452 1.811-2.095 3.793-3.17 5.83-3.17 2.548 0 3.85 1.358 3.85 4.188v11.83c0 3.227-.85 3.963-3.057 3.963v.905z" fill="#000" stroke="none" aria-label="D‹" font-family="Opus Chords Std" font-size="71"/><path d="M150.207 142.185c0 3.085-1.543 5.245-5.862 5.245-6.993 0-11.724-5.04-17.484-5.04-1.645 0-3.393.412-5.347 1.44 2.57-10.49 27.87-15.632 27.87-27.665 0-9.359-10.49-13.678-19.129-13.678-7.199 0-15.22 5.45-15.22 13.267 0 3.702 3.085 6.685 6.787 6.685a6.671 6.671 0 0 0 6.685-6.685c0-4.011-2.263-6.068-6.685-6.068-.514 0-.823-.206-.823-.514 0-2.366 5.348-3.085 7.302-3.085 7.92 0 11.827 3.6 11.827 10.798 0 4.937-8.227 11.519-15.323 18.82-5.965 6.171-10.799 13.062-10.799 17.998h2.16c0-3.908 4.01-5.862 9.05-5.862 6.582 0 11.21 6.685 16.044 6.685 6.376 0 10.284-4.73 10.284-12.341z" fill="#000" stroke="none" aria-label="2" font-family="Helsinki Std" font-size="129"/><path d="M149.686 204.586c-1.646 0-4.937-1.029-4.937-2.469v-7.507h4.937v-2.263h-4.937v-23.654l-11.518 9.667v13.987H119.45l23.86-37.744h-12.857c-1.748 15.838-7.199 32.705-15.22 37.744v2.263h17.997v7.507c0 1.44-3.497 2.469-5.142 2.469v2.262h21.597z" fill="#000" stroke="none" aria-label="4" font-family="Helsinki Std" font-size="129"/><path d="M0 205.833h1723.632M0 180.322h1723.632M0 154.81h1723.632M0 129.298h1723.632M0 103.787h1723.632" fill="none" stroke="#000" stroke-linecap="butt" stroke-linejoin="bevel" stroke-opacity="1" stroke-width="2.392" font-family="'.AppleSystemUIFont'" font-size="13" vector-effect="none"/><path d="M46.176 216.65c-7.756.102-12.96 6.633-12.96 11.532 0 11.429 11.123 17.552 20 17.552 8.165 0 20.614-5.817 20.614-17.042 0-1.327-.102-2.653-.51-4.082l-5.204-21.022c13.572-5.714 19.082-20.715 19.184-28.675v-.51c0-15.511-10.204-23.062-21.021-24.695-1.123-.204-2.45-.204-3.776-.204-2.755 0-5.715.306-7.347.918l-4.899-18.674c12.348-12.552 19.9-26.43 19.9-42.452v-.612c-.205-17.654-11.634-34.186-15.92-34.9-4.592 1.53-15.51 19.287-15.715 32.961v1.122c0 13.062 3.368 20.614 6.02 31.329-8.265 8.572-25.409 26.94-25.409 46.84 0 21.02 13.674 39.39 36.941 39.39a46.78 46.78 0 0 0 9.695-1.021l5.102 21.021c.306 1.123.408 2.143.408 3.164 0 8.878-9.388 14.695-17.858 14.695-5.307 0-11.633-4.592-12.144-8.674 1.225.918 2.654 1.224 4.082 1.224 5.103 0 10.817-4.49 10.817-8.878 0-5.102-3.571-10.102-10-10.307zM57.299 65.01c4.592 1.123 7.96 13.572 7.96 21.43-.103 11.123-12.042 23.675-18.675 30.818-2.041-8.368-4.388-14.49-4.388-27.247 0-13.47 11.327-24.593 15.103-25.001zm-5.103 86.434c-8.776 3.367-12.143 10-12.143 18.776 0 1.02 0 2.041.102 3.062.918 12.143 9.286 18.776 14.082 20.103-5.714-4.592-9.694-8.776-9.796-16.328 0-6.939 2.96-12.245 11.02-14.082l9.287 37.349c-2.347.714-7.347 1.02-10.817 1.02-1.122 0-2.143 0-2.755-.102-16.94-1.734-24.9-17.552-24.9-31.226.103-15 18.063-32.043 21.94-36.329zm5.715 11.123c1.939-.306 3.878-.51 5.715-.51 9.184 0 16.02 4.081 17.348 9.898.408 2.04.612 3.98.612 5.919 0 9.898-5.715 17.96-14.49 21.838z" fill="#000" stroke="none" aria-label="" font-family="'Helsinki Std'" font-size="128"/><path d="M300.559 110.165h59.793V97.409h-59.793v12.756M222.43 91.03h137.922V78.276H222.429v12.756m275.845 19.133h59.793V97.409h-59.793v12.756M420.145 91.03h137.922V78.276H420.145v12.756m236.78-6.379 78.13 19.134V91.03l-78.13-19.134v12.756m156.259 31.891 78.13-12.756V91.03l-78.13 12.756v12.756m272.656 12.756h59.793v-12.755h-59.793v12.755m-78.13-19.133h137.923V97.409h-137.922v12.756m275.845 19.133h59.793v-12.755h-59.793v12.755m-78.13-19.133h137.923V97.409h-137.923v12.756m236.781 0 78.13 19.133v-12.755l-78.13-19.134v12.756m156.259 6.378 78.13-12.756V91.03l-78.13 12.756v12.756" fill="#000" fill-opacity="1" fill-rule="evenodd" stroke="none" font-family="'Helsinki Std'" font-size="128" vector-effect="none"/><path d="M0 521.54h1722.835M0 496.029h1722.835M0 470.517h1722.835M0 445.005h1722.835M0 419.494h1722.835" fill="none" stroke="#000" stroke-linecap="butt" stroke-linejoin="bevel" stroke-opacity="1" stroke-width="2.392" font-family="'Helsinki Std'" font-size="128" vector-effect="none"/><path d="M46.176 532.357c-7.756.103-12.96 6.634-12.96 11.532 0 11.429 11.123 17.552 20 17.552 8.165 0 20.614-5.817 20.614-17.042 0-1.327-.102-2.653-.51-4.082l-5.204-21.022c13.572-5.714 19.082-20.715 19.184-28.675v-.51c0-15.511-10.204-23.062-21.021-24.695-1.123-.204-2.45-.204-3.776-.204-2.755 0-5.715.306-7.347.918l-4.899-18.674c12.348-12.552 19.9-26.43 19.9-42.452v-.612c-.205-17.654-11.634-34.186-15.92-34.9-4.592 1.53-15.51 19.287-15.715 32.961v1.123c0 13.061 3.368 20.613 6.02 31.328-8.265 8.572-25.409 26.94-25.409 46.84 0 21.02 13.674 39.39 36.941 39.39a46.78 46.78 0 0 0 9.695-1.021l5.102 21.021c.306 1.123.408 2.143.408 3.164 0 8.878-9.388 14.695-17.858 14.695-5.307 0-11.633-4.592-12.144-8.674 1.225.918 2.654 1.224 4.082 1.224 5.103 0 10.817-4.49 10.817-8.878 0-5.102-3.571-10.102-10-10.307zm11.123-151.641c4.592 1.123 7.96 13.572 7.96 21.43-.103 11.123-12.042 23.675-18.675 30.818-2.041-8.368-4.388-14.49-4.388-27.247 0-13.47 11.327-24.593 15.103-25.001zm-5.103 86.434c-8.776 3.367-12.143 10-12.143 18.776 0 1.02 0 2.041.102 3.062.918 12.143 9.286 18.776 14.082 20.103-5.714-4.592-9.694-8.776-9.796-16.328 0-6.939 2.96-12.245 11.02-14.082l9.287 37.349c-2.347.714-7.347 1.02-10.817 1.02-1.122 0-2.143 0-2.755-.102-16.94-1.734-24.9-17.552-24.9-31.226.103-15 18.063-32.043 21.94-36.329zm5.715 11.123c1.939-.306 3.878-.51 5.715-.51 9.184 0 16.02 4.081 17.348 9.898.408 2.04.612 3.98.612 5.919 0 9.898-5.715 17.96-14.49 21.838z" fill="#000" fill-opacity="1" stroke="none" aria-label="" font-family="'Helsinki Std'" font-size="128"/><path d="M270.264 425.872h70.157v-12.756h-70.157v12.756m-92.48-19.134h162.637v-12.756H177.784v12.756m326.071 19.134h70.954v-12.756h-70.954v12.756m-92.48-19.134H574.81v-12.756H411.375v12.756m271.859 0 92.48-6.378v-12.756l-92.48 6.378v12.756m154.665 127.558 92.48-6.378v-12.755l-92.48 6.378v12.755m222.43 6.378 92.48 12.756v-12.756l-92.48-12.756v12.756m215.254-121.18 92.48 12.756v-12.756l-92.48-12.756v12.756" fill="#000" fill-opacity="1" fill-rule="evenodd" stroke="none" font-family="'Helsinki Std'" font-size="128" vector-effect="none"/><path d="M222.43 163.58V79.072" fill="none" stroke="#000" stroke-linecap="butt" stroke-linejoin="bevel" stroke-opacity="1" stroke-width="2.392" font-family="'Helsinki Std'" font-size="128" vector-effect="none"/><path d="M191.337 170.525c0 6.531 5.409 10.205 12.246 10.205 9.082 0 19.389-7.551 19.389-16.123 0-6.531-5.409-10.103-12.246-10.103-9.082 0-19.389 7.45-19.389 16.021z" fill="#000" fill-opacity="1" stroke="none" aria-label="" font-family="'Helsinki Std'" font-size="128"/><path d="M300.559 163.58V79.072" fill="none" stroke="#000" stroke-linecap="butt" stroke-linejoin="bevel" stroke-opacity="1" stroke-width="2.392" font-family="'Helsinki Std'" font-size="128" vector-effect="none"/><path d="M269.467 170.525c0 6.531 5.408 10.205 12.245 10.205 9.082 0 19.389-7.551 19.389-16.123 0-6.531-5.408-10.103-12.246-10.103-9.082 0-19.388 7.45-19.388 16.021z" fill="#000" fill-opacity="1" stroke="none" aria-label="" font-family="'Helsinki Std'" font-size="128"/><path d="M360.352 163.58V79.072" fill="none" stroke="#000" stroke-linecap="butt" stroke-linejoin="bevel" stroke-opacity="1" stroke-width="2.392" font-family="'Helsinki Std'" font-size="128" vector-effect="none"/><path d="M329.26 170.525c0 6.531 5.408 10.205 12.245 10.205 9.082 0 19.389-7.551 19.389-16.123 0-6.531-5.408-10.103-12.246-10.103-9.082 0-19.388 7.45-19.388 16.021z" fill="#000" fill-opacity="1" stroke="none" aria-label="" font-family="'Helsinki Std'" font-size="128"/><path d="M420.145 163.58V79.072" fill="none" stroke="#000" stroke-linecap="butt" stroke-linejoin="bevel" stroke-opacity="1" stroke-width="2.392" font-family="'Helsinki Std'" font-size="128" vector-effect="none"/><path d="M389.053 170.525c0 6.531 5.408 10.205 12.245 10.205 9.082 0 19.389-7.551 19.389-16.123 0-6.531-5.408-10.103-12.246-10.103-9.082 0-19.388 7.45-19.388 16.021z" fill="#000" fill-opacity="1" stroke="none" aria-label="" font-family="'Helsinki Std'" font-size="128"/><path d="M498.274 163.58V79.072" fill="none" stroke="#000" stroke-linecap="butt" stroke-linejoin="bevel" stroke-opacity="1" stroke-width="2.392" font-family="'Helsinki Std'" font-size="128" vector-effect="none"/><path d="M467.182 170.525c0 6.531 5.409 10.205 12.246 10.205 9.082 0 19.389-7.551 19.389-16.123 0-6.531-5.409-10.103-12.246-10.103-9.082 0-19.389 7.45-19.389 16.021z" fill="#000" fill-opacity="1" stroke="none" aria-label="" font-family="'Helsinki Std'" font-size="128"/><path d="M558.067 163.58V79.072" fill="none" stroke="#000" stroke-linecap="butt" stroke-linejoin="bevel" stroke-opacity="1" stroke-width="2.392" font-family="'Helsinki Std'" font-size="128" vector-effect="none"/><path d="M526.975 170.525c0 6.531 5.409 10.205 12.246 10.205 9.082 0 19.389-7.551 19.389-16.123 0-6.531-5.409-10.103-12.246-10.103-9.082 0-19.389 7.45-19.389 16.021z" fill="#000" fill-opacity="1" stroke="none" aria-label="" font-family="'Helsinki Std'" font-size="128"/><path d="M656.925 163.58V72.694" fill="none" stroke="#000" stroke-linecap="butt" stroke-linejoin="bevel" stroke-opacity="1" stroke-width="2.392" font-family="'Helsinki Std'" font-size="128" vector-effect="none"/><path d="M625.833 170.525c0 6.531 5.408 10.205 12.245 10.205 9.083 0 19.39-7.551 19.39-16.123 0-6.531-5.41-10.103-12.246-10.103-9.082 0-19.39 7.45-19.39 16.021z" fill="#000" fill-opacity="1" stroke="none" aria-label="" font-family="'Helsinki Std'" font-size="128"/><path d="M735.055 214.603V91.828" fill="none" stroke="#000" stroke-linecap="butt" stroke-linejoin="bevel" stroke-opacity="1" stroke-width="2.392" font-family="'Helsinki Std'" font-size="128" vector-effect="none"/><path d="M703.962 221.549c0 6.53 5.409 10.204 12.246 10.204 9.082 0 19.389-7.551 19.389-16.123 0-6.531-5.409-10.103-12.246-10.103-9.082 0-19.389 7.45-19.389 16.022z" fill="#000" fill-opacity="1" stroke="none" aria-label="" font-family="'Helsinki Std'" font-size="128"/><path d="M813.184 189.091v-84.507" fill="none" stroke="#000" stroke-linecap="butt" stroke-linejoin="bevel" stroke-opacity="1" stroke-width="2.392" font-family="'Helsinki Std'" font-size="128" vector-effect="none"/><path d="M782.092 196.037c0 6.531 5.408 10.205 12.245 10.205 9.083 0 19.39-7.552 19.39-16.124 0-6.53-5.41-10.102-12.246-10.102-9.082 0-19.39 7.45-19.39 16.021z" fill="#000" fill-opacity="1" stroke="none" aria-label="" font-family="'Helsinki Std'" font-size="128"/><path d="M891.314 163.58V91.828" fill="none" stroke="#000" stroke-linecap="butt" stroke-linejoin="bevel" stroke-opacity="1" stroke-width="2.392" font-family="'Helsinki Std'" font-size="128" vector-effect="none"/><path d="M860.221 170.525c0 6.531 5.409 10.205 12.246 10.205 9.082 0 19.389-7.551 19.389-16.123 0-6.531-5.409-10.103-12.246-10.103-9.082 0-19.389 7.45-19.389 16.021z" fill="#000" fill-opacity="1" stroke="none" aria-label="" font-family="'Helsinki Std'" font-size="128"/><path d="M1007.71 176.336v-78.13" fill="none" stroke="#000" stroke-linecap="butt" stroke-linejoin="bevel" stroke-opacity="1" stroke-width="2.392" font-family="'Helsinki Std'" font-size="128" vector-effect="none"/><path d="M976.618 183.281c0 6.531 5.409 10.205 12.246 10.205 9.082 0 19.389-7.552 19.389-16.124 0-6.53-5.409-10.102-12.246-10.102-9.082 0-19.389 7.45-19.389 16.021z" fill="#000" fill-opacity="1" stroke="none" aria-label="" font-family="'Helsinki Std'" font-size="128"/><path d="M1085.84 176.336v-78.13" fill="none" stroke="#000" stroke-linecap="butt" stroke-linejoin="bevel" stroke-opacity="1" stroke-width="2.392" font-family="'Helsinki Std'" font-size="128" vector-effect="none"/><path d="M1054.748 183.281c0 6.531 5.408 10.205 12.246 10.205 9.082 0 19.388-7.552 19.388-16.124 0-6.53-5.408-10.102-12.245-10.102-9.082 0-19.389 7.45-19.389 16.021z" fill="#000" fill-opacity="1" stroke="none" aria-label="" font-family="'Helsinki Std'" font-size="128"/><path d="M1145.633 176.336v-78.13" fill="none" stroke="#000" stroke-linecap="butt" stroke-linejoin="bevel" stroke-opacity="1" stroke-width="2.392" font-family="'Helsinki Std'" font-size="128" vector-effect="none"/><path d="M1114.541 183.281c0 6.531 5.408 10.205 12.246 10.205 9.082 0 19.388-7.552 19.388-16.124 0-6.53-5.408-10.102-12.245-10.102-9.082 0-19.389 7.45-19.389 16.021z" fill="#000" fill-opacity="1" stroke="none" aria-label="" font-family="'Helsinki Std'" font-size="128"/><path d="M1205.426 176.336v-78.13" fill="none" stroke="#000" stroke-linecap="butt" stroke-linejoin="bevel" stroke-opacity="1" stroke-width="2.392" font-family="'Helsinki Std'" font-size="128" vector-effect="none"/><path d="M1174.334 183.281c0 6.531 5.408 10.205 12.246 10.205 9.082 0 19.388-7.552 19.388-16.124 0-6.53-5.408-10.102-12.245-10.102-9.082 0-19.389 7.45-19.389 16.021z" fill="#000" fill-opacity="1" stroke="none" aria-label="" font-family="'Helsinki Std'" font-size="128"/><path d="M1283.556 176.336v-78.13" fill="none" stroke="#000" stroke-linecap="butt" stroke-linejoin="bevel" stroke-opacity="1" stroke-width="2.392" font-family="'Helsinki Std'" font-size="128" vector-effect="none"/><path d="M1252.463 183.281c0 6.531 5.409 10.205 12.246 10.205 9.082 0 19.389-7.552 19.389-16.124 0-6.53-5.409-10.102-12.246-10.102-9.082 0-19.389 7.45-19.389 16.021z" fill="#000" fill-opacity="1" stroke="none" aria-label="" font-family="'Helsinki Std'" font-size="128"/><path d="M1343.349 176.336v-78.13" fill="none" stroke="#000" stroke-linecap="butt" stroke-linejoin="bevel" stroke-opacity="1" stroke-width="2.392" font-family="'Helsinki Std'" font-size="128" vector-effect="none"/><path d="M1312.256 183.281c0 6.531 5.409 10.205 12.246 10.205 9.082 0 19.389-7.552 19.389-16.124 0-6.53-5.409-10.102-12.246-10.102-9.082 0-19.389 7.45-19.389 16.021z" fill="#000" fill-opacity="1" stroke="none" aria-label="" font-family="'Helsinki Std'" font-size="128"/><path d="M1442.207 176.336v-78.13" fill="none" stroke="#000" stroke-linecap="butt" stroke-linejoin="bevel" stroke-opacity="1" stroke-width="2.392" font-family="'Helsinki Std'" font-size="128" vector-effect="none"/><path d="M1411.114 183.281c0 6.531 5.409 10.205 12.246 10.205 9.082 0 19.389-7.552 19.389-16.124 0-6.53-5.409-10.102-12.246-10.102-9.082 0-19.389 7.45-19.389 16.021z" fill="#000" fill-opacity="1" stroke="none" aria-label="" font-family="'Helsinki Std'" font-size="128"/><path d="M1478.082 231.345h54.213m-11.959-3.986v-110.02" fill="none" stroke="#000" stroke-linecap="butt" stroke-linejoin="bevel" stroke-opacity="1" stroke-width="2.392" font-family="'Helsinki Std'" font-size="128" vector-effect="none"/><path d="M1489.244 234.305c0 6.53 5.408 10.204 12.245 10.204 9.083 0 19.39-7.551 19.39-16.123 0-6.531-5.41-10.103-12.246-10.103-9.083 0-19.39 7.45-19.39 16.022z" fill="#000" fill-opacity="1" stroke="none" aria-label="" font-family="'Helsinki Std'" font-size="128"/><path d="M1598.466 201.847v-97.263" fill="none" stroke="#000" stroke-linecap="butt" stroke-linejoin="bevel" stroke-opacity="1" stroke-width="2.392" font-family="'Helsinki Std'" font-size="128" vector-effect="none"/><path d="M1567.373 208.793c0 6.53 5.409 10.205 12.246 10.205 9.082 0 19.389-7.552 19.389-16.124 0-6.53-5.409-10.103-12.246-10.103-9.082 0-19.389 7.45-19.389 16.022z" fill="#000" fill-opacity="1" stroke="none" aria-label="" font-family="'Helsinki Std'" font-size="128"/><path d="M1676.595 176.336V91.828" fill="none" stroke="#000" stroke-linecap="butt" stroke-linejoin="bevel" stroke-opacity="1" stroke-width="2.392" font-family="'Helsinki Std'" font-size="128" vector-effect="none"/><path d="M1645.503 183.281c0 6.531 5.408 10.205 12.245 10.205 9.083 0 19.39-7.552 19.39-16.124 0-6.53-5.41-10.102-12.246-10.102-9.082 0-19.39 7.45-19.39 16.021z" fill="#000" fill-opacity="1" stroke="none" aria-label="" font-family="'Helsinki Std'" font-size="128"/><path d="M177.784 479.287v-84.508" fill="none" stroke="#000" stroke-linecap="butt" stroke-linejoin="bevel" stroke-opacity="1" stroke-width="2.392" font-family="'Helsinki Std'" font-size="128" vector-effect="none"/><path d="M146.692 486.232c0 6.531 5.408 10.205 12.245 10.205 9.082 0 19.39-7.551 19.39-16.123 0-6.531-5.41-10.103-12.247-10.103-9.082 0-19.388 7.45-19.388 16.021z" fill="#000" fill-opacity="1" stroke="none" aria-label="" font-family="'Helsinki Std'" font-size="128"/><path d="M270.264 479.287v-84.508" fill="none" stroke="#000" stroke-linecap="butt" stroke-linejoin="bevel" stroke-opacity="1" stroke-width="2.392" font-family="'Helsinki Std'" font-size="128" vector-effect="none"/><path d="M239.171 486.232c0 6.531 5.409 10.205 12.246 10.205 9.082 0 19.389-7.551 19.389-16.123 0-6.531-5.409-10.103-12.246-10.103-9.082 0-19.389 7.45-19.389 16.021z" fill="#000" fill-opacity="1" stroke="none" aria-label="" font-family="'Helsinki Std'" font-size="128"/><path d="M340.42 479.287v-84.508" fill="none" stroke="#000" stroke-linecap="butt" stroke-linejoin="bevel" stroke-opacity="1" stroke-width="2.392" font-family="'Helsinki Std'" font-size="128" vector-effect="none"/><path d="M309.329 486.232c0 6.531 5.408 10.205 12.245 10.205 9.082 0 19.389-7.551 19.389-16.123 0-6.531-5.408-10.103-12.246-10.103-9.082 0-19.388 7.45-19.388 16.021z" fill="#000" fill-opacity="1" stroke="none" aria-label="" font-family="'Helsinki Std'" font-size="128"/><path d="M411.375 479.287v-84.508" fill="none" stroke="#000" stroke-linecap="butt" stroke-linejoin="bevel" stroke-opacity="1" stroke-width="2.392" font-family="'Helsinki Std'" font-size="128" vector-effect="none"/><path d="M380.283 486.232c0 6.531 5.408 10.205 12.246 10.205 9.082 0 19.388-7.551 19.388-16.123 0-6.531-5.408-10.103-12.245-10.103-9.082 0-19.39 7.45-19.39 16.021z" fill="#000" fill-opacity="1" stroke="none" aria-label="" font-family="'Helsinki Std'" font-size="128"/><path d="M503.855 479.287v-84.508" fill="none" stroke="#000" stroke-linecap="butt" stroke-linejoin="bevel" stroke-opacity="1" stroke-width="2.392" font-family="'Helsinki Std'" font-size="128" vector-effect="none"/><path d="M472.763 486.232c0 6.531 5.408 10.205 12.245 10.205 9.083 0 19.39-7.551 19.39-16.123 0-6.531-5.41-10.103-12.246-10.103-9.083 0-19.39 7.45-19.39 16.021z" fill="#000" fill-opacity="1" stroke="none" aria-label="" font-family="'Helsinki Std'" font-size="128"/><path d="M574.81 479.287v-84.508" fill="none" stroke="#000" stroke-linecap="butt" stroke-linejoin="bevel" stroke-opacity="1" stroke-width="2.392" font-family="'Helsinki Std'" font-size="128" vector-effect="none"/><path d="M543.717 486.232c0 6.531 5.409 10.205 12.246 10.205 9.082 0 19.389-7.551 19.389-16.123 0-6.531-5.409-10.103-12.246-10.103-9.082 0-19.389 7.45-19.389 16.021z" fill="#000" fill-opacity="1" stroke="none" aria-label="" font-family="'Helsinki Std'" font-size="128"/><path d="M683.234 479.287v-84.508" fill="none" stroke="#000" stroke-linecap="butt" stroke-linejoin="bevel" stroke-opacity="1" stroke-width="2.392" font-family="'Helsinki Std'" font-size="128" vector-effect="none"/><path d="M652.142 486.232c0 6.531 5.408 10.205 12.245 10.205 9.083 0 19.39-7.551 19.39-16.123 0-6.531-5.41-10.103-12.246-10.103-9.083 0-19.39 7.45-19.39 16.021z" fill="#000" fill-opacity="1" stroke="none" aria-label="" font-family="'Helsinki Std'" font-size="128"/><path d="M775.714 466.531v-78.13" fill="none" stroke="#000" stroke-linecap="butt" stroke-linejoin="bevel" stroke-opacity="1" stroke-width="2.392" font-family="'Helsinki Std'" font-size="128" vector-effect="none"/><path d="M744.622 473.477c0 6.53 5.408 10.204 12.245 10.204 9.082 0 19.39-7.551 19.39-16.123 0-6.531-5.41-10.103-12.247-10.103-9.082 0-19.388 7.45-19.388 16.022z" fill="#000" fill-opacity="1" stroke="none" aria-label="" font-family="'Helsinki Std'" font-size="128"/><path d="M837.899 461.748v71.751" fill="none" stroke="#000" stroke-linecap="butt" stroke-linejoin="bevel" stroke-opacity="1" stroke-width="2.392" font-family="'Helsinki Std'" font-size="128" vector-effect="none"/><path d="M837.101 460.72c0 6.532 5.409 10.205 12.246 10.205 9.082 0 19.389-7.551 19.389-16.123 0-6.531-5.409-10.103-12.246-10.103-9.082 0-19.389 7.45-19.389 16.022z" fill="#000" fill-opacity="1" stroke="none" aria-label="" font-family="'Helsinki Std'" font-size="128"/><path d="M930.379 448.992v78.13" fill="none" stroke="#000" stroke-linecap="butt" stroke-linejoin="bevel" stroke-opacity="1" stroke-width="2.392" font-family="'Helsinki Std'" font-size="128" vector-effect="none"/><path d="M929.581 447.965c0 6.53 5.409 10.205 12.246 10.205 9.082 0 19.389-7.552 19.389-16.124 0-6.53-5.409-10.103-12.246-10.103-9.082 0-19.389 7.45-19.389 16.022z" fill="#000" fill-opacity="1" stroke="none" aria-label="" font-family="'Helsinki Std'" font-size="128"/><path d="M1060.329 461.748v78.129" fill="none" stroke="#000" stroke-linecap="butt" stroke-linejoin="bevel" stroke-opacity="1" stroke-width="2.392" font-family="'Helsinki Std'" font-size="128" vector-effect="none"/><path d="M1059.531 460.72c0 6.532 5.409 10.205 12.246 10.205 9.082 0 19.389-7.551 19.389-16.123 0-6.531-5.409-10.103-12.246-10.103-9.082 0-19.389 7.45-19.389 16.022z" fill="#000" fill-opacity="1" stroke="none" aria-label="" font-family="'Helsinki Std'" font-size="128"/><path d="M1152.808 487.26v65.373" fill="none" stroke="#000" stroke-linecap="butt" stroke-linejoin="bevel" stroke-opacity="1" stroke-width="2.392" font-family="'Helsinki Std'" font-size="128" vector-effect="none"/><path d="M1152.011 486.232c0 6.531 5.409 10.205 12.246 10.205 9.082 0 19.389-7.551 19.389-16.123 0-6.531-5.409-10.103-12.246-10.103-9.082 0-19.389 7.45-19.389 16.021z" fill="#000" fill-opacity="1" stroke="none" aria-label="" font-family="'Helsinki Std'" font-size="128"/><path d="M1275.583 492.043v-84.508" fill="none" stroke="#000" stroke-linecap="butt" stroke-linejoin="bevel" stroke-opacity="1" stroke-width="2.392" font-family="'Helsinki Std'" font-size="128" vector-effect="none"/><path d="M1244.491 498.988c0 6.531 5.409 10.205 12.246 10.205 9.082 0 19.389-7.552 19.389-16.124 0-6.53-5.409-10.102-12.246-10.102-9.082 0-19.389 7.45-19.389 16.021z" fill="#000" fill-opacity="1" stroke="none" aria-label="" font-family="'Helsinki Std'" font-size="128"/><path d="M1368.063 517.554v-97.263" fill="none" stroke="#000" stroke-linecap="butt" stroke-linejoin="bevel" stroke-opacity="1" stroke-width="2.392" font-family="'Helsinki Std'" font-size="128" vector-effect="none"/><path d="M1336.97 524.5c0 6.53 5.41 10.205 12.247 10.205 9.082 0 19.388-7.552 19.388-16.124 0-6.53-5.408-10.102-12.245-10.102-9.082 0-19.39 7.449-19.39 16.02z" fill="#000" fill-opacity="1" stroke="none" aria-label="" font-family="'Helsinki Std'" font-size="128"/><path d="M1498.81 530.31v-85.305" fill="none" stroke="#000" stroke-linecap="butt" stroke-linejoin="bevel" stroke-opacity="1" stroke-width="2.392" font-family="'Helsinki Std'" font-size="128" vector-effect="none"/><path d="M1467.718 537.256c0 6.53 5.409 10.204 12.246 10.204 9.082 0 19.389-7.551 19.389-16.123 0-6.531-5.409-10.103-12.246-10.103-9.082 0-19.389 7.45-19.389 16.022z" fill="#000" fill-opacity="1" stroke="none" aria-label="" font-family="'Helsinki Std'" font-size="128"/><path d="M1626.369 530.31v-85.305" fill="none" stroke="#000" stroke-linecap="butt" stroke-linejoin="bevel" stroke-opacity="1" stroke-width="2.392" font-family="'Helsinki Std'" font-size="128" vector-effect="none"/><path d="M1595.277 537.256c0 6.53 5.408 10.204 12.245 10.204 9.082 0 19.39-7.551 19.39-16.123 0-6.531-5.41-10.103-12.246-10.103-9.083 0-19.39 7.45-19.39 16.022z" fill="#000" fill-opacity="1" stroke="none" aria-label="" font-family="'Helsinki Std'" font-size="128"/></g></svg>