<svg xmlns="http://www.w3.org/2000/svg" width="104.394" height="61.145" viewBox="0 0 313.317 183.385" fill="none" fill-rule="evenodd" stroke="#000" xmlns:v="https://vecta.io/nano"><path d="M0 120.194h313.317M0 94.682h313.317M0 69.17h313.317M0 43.66h313.317M0 18.147h313.317" stroke-linecap="butt" stroke-width="2.392" stroke-linejoin="bevel"/><path d="M87.914 155.962c-1.43 2.755-3.47 5.102-4.5 5.102-.204-.102-.306-.408-.306-.714 0-.612.408-1.53.612-2.347 0-.102.102-.306.102-.5 0-.102.102-.306.102-.408.5-1.837 1.225-4.388 1.225-6.43 0-2.347-.816-4.184-3.368-4.184-1.837 0-3.572.918-5.204 2.55 0-1.735-1.225-2.55-3.47-2.55-2.347 0-4.388.918-6.225 2.55 0-1.633-1.02-2.55-3.06-2.55-3.572 0-6.735 3.776-8.164 9.5 1.123-2.755 2.347-5.306 4.286-6.02.102 0 .204-.102.306-.102.5 0 .714.714.714 1.53l-3.572 13.47h5.204l2.04-7.55c.408-1.633 2.755-7.756 5.102-7.756.408.204.612.816.612 1.633 0 1.123-.306 2.45-.5 3.266l-2.755 10.4H72.3l2.55-9.286c.714-2.653 2.55-6.43 4.388-6.43.204 0 .306 0 .5.102.408.204.612.612.612 1.225 0 1.02-.408 2.55-.816 3.98l-2.245 8.776c0 .204-.102.306-.102.408 0 1.02 1.02 1.633 2.143 1.633 4.184 0 7.245-5 8.572-9.286zm.816-17.246c.612-1.02 2.04-2.347 2.96-2.347.102 0 .204.102.306.102.5.204.714.714.714 1.43 0 .408-.102.816-.204 1.327l-4.082 13.47c-.714 1.94-1.02 3.878-1.02 6.02 0 3.368 2.55 6.123 6.633 6.123 6.53 0 11.735-5.817 11.735-12.246 0-3.98-1.837-6.02-5.613-6.02-2.347 0-4.286 1.123-6.02 3.47l2.755-8.776c.204-.816.408-1.735.408-2.653 0-1.94-.816-3.674-3.266-3.674s-3.98 1.02-5.306 3.776zm10.817 9.286c1.633 0 2.245.918 2.245 2.347 0 1.837-1.02 4.592-1.94 6.94l-.306.714c-1.633 4.082-3.368 6.225-5.102 6.225-.204 0-.306-.102-.5-.102-1.43-.408-2.143-1.735-2.143-3.98 0-1.735.408-3.776 1.225-6.225 1.327-3.163 4.592-5.92 6.53-5.92zm-47.975 20.843c.204-.918.306-1.735.306-2.55 0-4.5-3.06-7.04-8.266-7.04-2.347 0-4.592.918-6.735 2.857l1.94-9.286c.204.816 2.55 1.123 5.204 1.123 2.96 0 6.327-.5 7.143-1.327 1.225-1.225 2.857-2.96 3.163-5-2.857.714-5.92 1.123-8.776 1.123a26.67 26.67 0 0 1-7.654-1.123l-3.47 16.736h1.94c1.53-2.04 3.47-3.06 5.817-3.06 3.266 0 4.592 2.653 4.592 5.613 0 .816-.102 1.633-.306 2.347-1.123 4.694-3.878 10.103-9.082 10.103-.816 0-3.572-.918-3.572-2.143a.22.22 0 0 1 .204-.204h.612c2.04 0 3.674-.5 4.286-3.776.102-.408.102-.714.102-1.02 0-1.735-1.123-2.653-3.266-2.653-2.55 0-4.082 1.327-4.592 3.878-.204.816-.306 1.53-.306 2.245 0 3.368 2.143 5.102 6.327 5.102 6.225 0 13.062-5.817 14.4-11.94zm-23.165 10.5c-1.02 0-2.96-.408-2.96-1.633l6.327-30.104H25.14l-7.858 13.164 1.02.918 5.5-7.96-5.102 23.98c-.306 1.123-2.347 1.633-3.47 1.633l-.306 1.43H28.1l.306-1.43z" fill="#000" stroke="none"/><g stroke-linecap="butt" stroke-linejoin="bevel" stroke-width="3.986"><path d="M309.33 180.785v-39.862"/><path d="M70.955 179.2H309.33" stroke-dasharray="19, 16"/></g></svg>