<svg xmlns="http://www.w3.org/2000/svg" xmlns:xlink="http://www.w3.org/1999/xlink" width="494.88" height="107.989" viewBox="0 0 1485.266 323.87" xmlns:v="https://vecta.io/nano"><g fill="none" stroke="#000" fill-rule="evenodd"><path d="M0 217.345h1485.266M0 191.834h1485.266M0 166.322h1485.266M0 140.81h1485.266M0 115.298h1485.266" stroke-linecap="butt" stroke-width="2.392" stroke-linejoin="bevel"/><g fill="#000" stroke="none"><path d="M46.177 228.162c-7.756.102-12.96 6.633-12.96 11.531 0 11.429 11.123 17.552 20.001 17.552 8.164 0 20.614-5.817 20.614-17.042 0-1.327-.102-2.653-.51-4.082L68.117 215.1c13.572-5.715 19.083-20.716 19.185-28.675v-.51c0-15.511-10.205-23.063-21.022-24.695-1.123-.204-2.449-.204-3.776-.204-2.755 0-5.715.306-7.347.918l-4.898-18.675c12.348-12.552 19.899-26.43 19.899-42.452v-.612c-.204-17.654-11.633-34.186-15.919-34.9-4.592 1.531-15.511 19.287-15.715 32.961v1.123c0 13.062 3.368 20.614 6.021 31.329-8.266 8.572-25.41 26.94-25.41 46.84 0 21.022 13.674 39.39 36.941 39.39a46.78 46.78 0 0 0 9.694-1.02l5.102 21.022c.306 1.123.408 2.143.408 3.163 0 8.878-9.388 14.695-17.858 14.695-5.306 0-11.633-4.592-12.144-8.674 1.225.918 2.653 1.225 4.082 1.225 5.102 0 10.817-4.49 10.817-8.878 0-5.102-3.572-10.103-10.001-10.307zM57.3 76.52c4.592 1.123 7.96 13.572 7.96 21.43-.102 11.123-12.042 23.675-18.675 30.818-2.041-8.368-4.388-14.491-4.388-27.247 0-13.47 11.327-24.593 15.103-25.002zm-5.102 86.434c-8.776 3.368-12.144 10.001-12.144 18.777 0 1.02 0 2.041.102 3.061.918 12.144 9.286 18.777 14.083 20.103-5.715-4.592-9.694-8.776-9.797-16.328 0-6.939 2.959-12.246 11.021-14.083l9.286 37.349c-2.347.714-7.347 1.02-10.817 1.02-1.123 0-2.143 0-2.755-.102-16.94-1.735-24.9-17.552-24.9-31.226.102-15.001 18.062-32.043 21.94-36.329zm5.715 11.123c1.939-.306 3.878-.51 5.715-.51 9.184 0 16.021 4.082 17.348 9.899.408 2.041.612 3.98.612 5.919 0 9.899-5.715 17.96-14.491 21.838z"/><use xlink:href="#B"/><use xlink:href="#C"/><path d="M359.981 316.055l-3.826-9.775h-12.318l-3.784 9.775h-3.616l12.15-30.859h3.006l12.087 30.859zm-4.94-12.991l-3.574-9.523q-.694-1.808-1.429-4.435-.462 2.018-1.324 4.435l-3.616 9.523zm3.699-270.828h-20.201V29.23l8.093-8.135q3.7-3.742 4.877-5.339 1.177-1.598 1.766-3.111.589-1.514.589-3.258 0-2.459-1.492-3.889-1.492-1.45-4.141-1.45-1.913 0-3.637.631-1.703.631-3.805 2.291l-1.85-2.375q4.246-3.532 9.249-3.532 4.33 0 6.79 2.228 2.459 2.207 2.459 5.949 0 2.922-1.64 5.781-1.64 2.859-6.138 7.231l-6.727 6.58V29h15.808zm146.155 253.087h8.682q6.117 0 8.85 1.829 2.733 1.829 2.733 5.781 0 2.733-1.535 4.52-1.514 1.766-4.435 2.291v.21q7 1.198 7 7.357 0 4.12-2.796 6.432-2.775 2.312-7.778 2.312h-10.721zm3.574 13.159h5.886q3.784 0 5.444-1.177 1.661-1.198 1.661-4.015 0-2.586-1.85-3.721-1.85-1.156-5.886-1.156h-5.255zm0 3.027v11.499h6.411q3.721 0 5.592-1.429 1.892-1.45 1.892-4.52 0-2.859-1.934-4.204-1.913-1.345-5.844-1.345zM521.817 8.735q0 2.943-1.661 4.814-1.64 1.871-4.667 2.502v.168q3.7.462 5.487 2.354 1.787 1.892 1.787 4.961 0 4.393-3.048 6.769-3.048 2.354-8.661 2.354-2.438 0-4.477-.378-2.018-.357-3.931-1.282v-3.321q1.997.988 4.246 1.514 2.27.505 4.288.505 7.967 0 7.967-6.243 0-5.592-8.787-5.592h-3.027v-3.006h3.069q3.595 0 5.697-1.577 2.102-1.598 2.102-4.414 0-2.249-1.556-3.532-1.535-1.282-4.183-1.282-2.018 0-3.805.547-1.787.547-4.078 2.018l-1.766-2.354q1.892-1.492 4.351-2.333 2.48-.862 5.213-.862 4.477 0 6.958 2.06 2.48 2.039 2.48 5.613zm160.469 279.341q-5.066 0-8.009 3.384-2.922 3.363-2.922 9.228 0 6.033 2.817 9.333 2.838 3.279 8.072 3.279 3.216 0 7.336-1.156v3.132q-3.195 1.198-7.883 1.198-6.79 0-10.49-4.12-3.679-4.12-3.679-11.709 0-4.751 1.766-8.324 1.787-3.574 5.129-5.508 3.363-1.934 7.904-1.934 4.835 0 8.45 1.766l-1.514 3.069q-3.489-1.64-6.979-1.64zm6.37-262.903h-4.562v7.063h-3.342v-7.063h-14.946v-3.048l14.589-20.79h3.7v20.664h4.562zm-7.904-3.174V11.783q0-3.006.21-6.79h-.168q-1.009 2.018-1.892 3.342l-9.607 13.664zm177.137 278.396q0 7.61-4.141 11.646-4.12 4.015-11.877 4.015h-8.514v-30.733h9.417q7.168 0 11.141 3.973 3.973 3.973 3.973 11.099zm-3.784.126q0-6.012-3.027-9.06-3.006-3.048-8.955-3.048h-5.192v24.553h4.351q6.39 0 9.607-3.132 3.216-3.153 3.216-9.312zM840.841 13.465q4.856 0 7.631 2.417 2.796 2.396 2.796 6.58 0 4.772-3.048 7.484-3.027 2.712-8.366 2.712-5.192 0-7.925-1.661v-3.363q1.471.946 3.658 1.492 2.186.526 4.309.526 3.7 0 5.739-1.745 2.06-1.745 2.06-5.045 0-6.432-7.883-6.432-1.997 0-5.339.61l-1.808-1.156 1.156-14.378h15.282V4.72h-12.297l-.778 9.228q2.417-.483 4.814-.483zm173.878 302.59h-17.132v-30.733h17.132v3.174h-13.559v9.901h12.739v3.153h-12.739v11.309h13.559zM995.821 19.098q0-9.06 3.511-13.538 3.532-4.499 10.426-4.499 2.375 0 3.742.399v3.006q-1.619-.526-3.7-.526-4.94 0-7.547 3.09-2.607 3.069-2.859 9.67h.252q2.312-3.616 7.315-3.616 4.141 0 6.517 2.502 2.396 2.502 2.396 6.79 0 4.793-2.628 7.547-2.607 2.733-7.063 2.733-4.772 0-7.568-3.574-2.796-3.595-2.796-9.985zm10.321 10.595q2.985 0 4.625-1.871 1.661-1.892 1.661-5.444 0-3.048-1.535-4.793-1.535-1.745-4.583-1.745-1.892 0-3.468.778-1.577.778-2.523 2.144-.925 1.366-.925 2.838 0 2.165.841 4.036.841 1.871 2.375 2.964 1.556 1.093 3.532 1.093zm153.679 286.362h-3.574v-30.733h17.132v3.174h-13.559v11.246h12.739v3.174h-12.739zm6.962-283.819l12.739-27.517h-16.754V1.504h20.454V4.3l-12.571 27.937zm23.089 272.178l-5.734 1.829v-10.38l5.734-1.928zm0-24.813v8.897l-5.734 1.977v-8.996h-1.483v9.392l-3.361 1.087v5.437l3.361-1.087v10.38l-3.361 1.087v5.437l3.361-1.087v8.502h1.483v-8.996l5.734-1.878v8.996h1.483v-9.392l3.46-1.087v-5.437l-3.46 1.087v-10.38l3.46-1.087v-5.437l-3.46 1.087v-8.502z"/><use xlink:href="#B" x="1152.017"/><use xlink:href="#C" x="1152.017"/><use xlink:href="#D"/><use xlink:href="#D" x="164.232" y="-12.756"/><use xlink:href="#D" x="328.465" y="-25.512"/><use xlink:href="#D" x="492.697" y="-38.268"/><use xlink:href="#D" x="656.929" y="-51.024"/><use xlink:href="#D" x="821.161" y="-63.78"/><use xlink:href="#D" x="987.785" y="-76.536"/><path d="M1140.518 103.359l4.592-1.633c1.123-.408 1.633-2.959 1.633-5.306 0-2.041-.408-3.878-1.327-3.878-.102 0-.204.102-.306.102l-4.592 1.633v-12.96c0-.51-.51-.714-1.02-.714s-1.02.204-1.02.714v13.674l-8.98 3.368V84.582c0-.51-.612-.714-1.123-.714s-1.02.204-1.02.714v14.491l-4.694 1.939c-.816.408-1.327 2.857-1.327 5.102 0 1.939.306 3.776 1.327 3.776l4.694-1.735v18.164l-4.694 1.735c-.918.408-1.327 2.755-1.327 5 0 2.143.408 4.082 1.327 4.082l4.694-1.837v13.776c0 .51.51.816 1.02.816s1.123-.306 1.123-.816v-14.593l8.98-3.266v15.001c0 .51.51.714 1.02.714s1.02-.204 1.02-.714v-15.715l4.592-1.633c1.123-.408 1.633-3.061 1.633-5.306 0-2.041-.408-3.776-1.327-3.776-.102 0-.204.102-.306.102l-4.592 1.633zm-2.041.816v18.062l-8.98 3.266v-18.062z"/><use xlink:href="#D" x="1152.018" y="-89.292"/></g></g><defs ><path id="B" d="M189.947 299.953h10.447v14.946q-2.438.778-4.961 1.177-2.523.399-5.844.399-6.979 0-10.868-4.141-3.889-4.162-3.889-11.646 0-4.793 1.913-8.387 1.934-3.616 5.55-5.508 3.616-1.913 8.471-1.913 4.919 0 9.165 1.808l-1.387 3.153q-4.162-1.766-8.009-1.766-5.613 0-8.766 3.342-3.153 3.342-3.153 9.27 0 6.222 3.027 9.438 3.048 3.216 8.934 3.216 3.195 0 6.243-.736v-9.459h-6.874z"/><path id="C" d="M187.235 32.236h-3.405V10.332q0-2.733.168-5.171-.441.441-.988.925-.547.483-5.003 4.099l-1.85-2.396 8.135-6.285h2.943z"/><path id="D" d="M165.827 192.038c0 9.797 12.756 12.552 21.838 12.552h.51c8.572-.102 21.124-2.857 21.124-12.756 0-8.572-12.858-12.654-21.532-12.654-9.082 0-21.94 4.082-21.94 12.858zm13.266-8.062c1.531-1.531 4.184-2.347 6.837-2.347 2.143 0 4.286.51 6.021 1.735 3.266 2.347 5.817 8.368 5.817 12.756 0 1.123-.102 2.143-.51 2.959-1.123 2.245-5.204 3.878-8.98 3.878-1.633 0-3.266-.306-4.49-1.02-3.674-2.041-6.837-7.347-6.837-12.144 0-2.143.612-4.184 2.143-5.817z"/></defs></svg>