<svg xmlns="http://www.w3.org/2000/svg" xmlns:xlink="http://www.w3.org/1999/xlink" width="262.715" height="84.019" viewBox="0 0 788.474 251.977" xmlns:v="https://vecta.io/nano"><style><![CDATA[.B{stroke:none}.C{stroke-linecap:butt}.D{stroke-width:2.392}.E{stroke-linejoin:bevel}]]></style><g fill="none" stroke="#000" fill-rule="evenodd"><g fill="#000" class="B"><use xlink:href="#B"/><path d="M257.132 21.383c0-4.302-4.585-6.057-9.113-8.717-2.094-1.189-3.057-2.491-3.057-3.962 0-2.264 1.642-3.509 3.906-3.509 2.377 0 3.906.962 5.151 3.792.509 1.075.736 1.981.736 2.66h.906V4.402h-.906v.113c0 .396-.226.623-.736.623-.736 0-3.849-1.302-4.981-1.302-3.736 0-7.472 2.66-7.472 6.509 0 6.453 12 7.925 12 13.019 0 2.264-1.925 3.566-4.302 3.566-3.849 0-6.736-3.566-6.736-7.302h-.962v8.264h.962c.057-.453.396-.736 1.075-.736 1.019 0 4.415 1.189 5.434 1.189 4.472 0 8.094-2.604 8.094-6.962zm42.963-.057c0-4.302-4.585-6.057-9.113-8.717-2.094-1.189-3.057-2.491-3.057-3.962 0-2.264 1.642-3.509 3.906-3.509 2.377 0 3.906.962 5.151 3.792.509 1.075.736 1.981.736 2.66h.906V4.345h-.906v.113c0 .396-.226.623-.736.623-.736 0-3.849-1.302-4.981-1.302-3.736 0-7.472 2.66-7.472 6.509 0 6.453 12 7.925 12 13.019 0 2.264-1.925 3.566-4.302 3.566-3.849 0-6.736-3.566-6.736-7.302h-.962v8.264h.962c.057-.453.396-.736 1.075-.736 1.019 0 4.415 1.189 5.434 1.189 4.472 0 8.094-2.604 8.094-6.962zm-17.717 4.359v-.906c-.34.057-.679.057-.906.057-1.642 0-2.208-.679-2.208-2.66V4.572h-7.811v1.132c3.453 0 3.453.113 3.453 2.434v14.151c-1.132 1.925-2.887 2.887-5.321 2.887-2.887 0-3.906-1.415-3.906-5.321V4.572h-7.811v1.132c3.566 0 3.453.17 3.453 2.717v13.981c0 3.566 2.774 5.943 6.34 5.943 2.774 0 5.208-1.359 7.245-4.076v4.076zm38.01-4.471v-2.717h-3.736V1.062h-2.491l-12 17.434v2.717h11.321v6.566h3.17v-6.566zm-6.906-16.755v14.038h-9.51z"/><use xlink:href="#B" x="344.41"/></g><path d="M0 208.782h788.474M0 183.27h788.474M0 157.759h788.474M0 132.247h788.474M0 106.735h788.474" class="C D E"/><path d="M46.177 219.599c-7.756.102-12.96 6.633-12.96 11.531 0 11.429 11.123 17.552 20.001 17.552 8.164 0 20.614-5.817 20.614-17.042 0-1.327-.102-2.653-.51-4.082l-5.204-21.022c13.572-5.715 19.083-20.716 19.185-28.675v-.51c0-15.511-10.205-23.063-21.022-24.695-1.123-.204-2.449-.204-3.776-.204-2.755 0-5.715.306-7.347.918l-4.898-18.675c12.348-12.552 19.899-26.43 19.899-42.452v-.612c-.204-17.654-11.633-34.186-15.919-34.9-4.592 1.531-15.511 19.287-15.715 32.961v1.123c0 13.062 3.368 20.614 6.021 31.329-8.266 8.572-25.41 26.94-25.41 46.84 0 21.022 13.674 39.39 36.941 39.39a46.78 46.78 0 0 0 9.694-1.02l5.102 21.022c.306 1.123.408 2.143.408 3.163 0 8.878-9.388 14.695-17.858 14.695-5.306 0-11.633-4.592-12.144-8.674 1.225.918 2.653 1.225 4.082 1.225 5.102 0 10.817-4.49 10.817-8.878 0-5.102-3.572-10.103-10.001-10.307zM57.3 67.957c4.592 1.123 7.96 13.572 7.96 21.43-.102 11.123-12.042 23.675-18.675 30.818-2.041-8.368-4.388-14.491-4.388-27.247 0-13.47 11.327-24.593 15.103-25.002zm-5.102 86.434c-8.776 3.368-12.144 10.001-12.144 18.777 0 1.02 0 2.041.102 3.061.918 12.144 9.286 18.777 14.083 20.103-5.715-4.592-9.694-8.776-9.797-16.328 0-6.939 2.959-12.246 11.021-14.083l9.286 37.349c-2.347.714-7.347 1.02-10.817 1.02-1.123 0-2.143 0-2.755-.102-16.94-1.735-24.9-17.552-24.9-31.226.102-15.001 18.062-32.043 21.94-36.329zm5.715 11.123c1.939-.306 3.878-.51 5.715-.51 9.184 0 16.021 4.082 17.348 9.899.408 2.041.612 3.98.612 5.919 0 9.899-5.715 17.96-14.491 21.838z" fill="#000" class="B"/><path d="M227.215 234.294h74.144" class="C D E"/><g fill="#000" class="B"><use xlink:href="#C"/><use xlink:href="#C" x="-41.456" y="12.755"/><use xlink:href="#C" y="51.023"/></g><path d="M530.167 234.294h74.144" class="C D E"/><g fill="#000" class="B"><use xlink:href="#C" x="302.953" y="51.023"/><use xlink:href="#C" x="302.953" y="25.511"/><use xlink:href="#C" x="302.953"/></g></g><defs ><path id="B" d="M236.222 36.157l-1.019-1.472c-3.623 4.019-7.925 6-12.906 6-8.547 0-14.038-6.793-14.038-16.868 0-10.245 5.208-17.321 13.698-17.321 6.623 0 11.094 4.359 12.453 10.981h1.585V4.232h-1.925c-.509 1.415-1.245 2.151-2.151 2.151-.509 0-6.849-2.377-10.755-2.377-11.038 0-19.132 9.283-19.132 20.264 0 11.264 7.472 18.849 18.679 18.849 6.566 0 11.717-2.321 15.51-6.962z"/><path id="C" d="M242.362 183.475c0 9.797 12.756 12.552 21.838 12.552h.51c8.572-.102 21.124-2.857 21.124-12.756 0-8.572-12.858-12.654-21.532-12.654-9.082 0-21.94 4.082-21.94 12.858zm13.266-8.062c1.531-1.531 4.184-2.347 6.837-2.347 2.143 0 4.286.51 6.021 1.735 3.266 2.347 5.817 8.368 5.817 12.756 0 1.123-.102 2.143-.51 2.959-1.123 2.245-5.204 3.878-8.98 3.878-1.633 0-3.266-.306-4.49-1.02-3.674-2.041-6.837-7.347-6.837-12.144 0-2.143.612-4.184 2.143-5.817z"/></defs></svg>