<svg xmlns="http://www.w3.org/2000/svg" xmlns:xlink="http://www.w3.org/1999/xlink" width="596.353" height="141.426" viewBox="0 0 1789.813 424.158" xmlns:v="https://vecta.io/nano"><style><![CDATA[.B{stroke-linejoin:bevel}.C{fill:#000}.D{stroke-linecap:butt}.E{stroke:none}.F{stroke-width:2.392}.G{stroke-width:3.189}.H{stroke-width:1.594}.I{stroke-width:.797}]]></style><g fill="none" stroke="#000" fill-rule="evenodd"><path d="M33.485 51.065v344.409" class="B D G"/><path d="M0 223.956c9.184 6.544 15.307 15.498 15.307 27.897 0 16.876-12.926 47.873-12.926 76.459 0 18.943 5.442 39.952 22.79 66.127-8.504-15.498-14.286-28.242-14.286-45.462v-4.133c1.02-25.831 14.286-55.45 14.286-74.737 0-24.109-6.803-34.097-24.491-46.84 18.028-11.71 24.491-23.42 24.491-46.84 0-19.287-13.266-48.906-14.286-74.737v-3.789c0-16.876 6.463-29.619 14.286-45.462v-1.378C7.823 75.86 2.381 99.969 2.381 118.222c0 28.93 12.926 59.583 12.926 76.459 0 12.399-6.123 21.353-15.307 27.897z" class="C E"/><g class="D B"><path d="M346.004 51.065v344.409m422.54-344.409v344.409m403.405-344.409v344.409m436.89-344.409v344.409m179.38-344.409v344.409" class="G"/><path d="M723.898 108.467c19.134 19.931 78.13 19.931 97.264 0" class="H"/><path d="M723.898 108.467c19.134 15.945 78.13 15.945 97.264 0-19.134 23.917-78.13 23.917-97.264 0" class="C I"/><path d="M1388.799 44.687c11.161-15.945 46.24-15.945 58.199 0" class="H"/><path d="M1388.799 44.687c11.161-19.931 46.24-19.931 58.199 0-11.959-11.959-47.037-11.959-58.199 0" class="C I"/></g><g class="E C"><path d="M180.143 99.641c-1.646 0-4.937-1.028-4.937-2.468v-7.508h4.937v-2.263h-4.937V63.748l-11.519 9.667v13.987h-13.781l23.86-37.744h-12.856c-1.748 15.838-7.199 32.705-15.221 37.744v2.263h17.998v7.508c0 1.44-3.497 2.468-5.142 2.468v2.263h21.597z"/><path d="M180.143 151.861c-1.646 0-4.937-1.028-4.937-2.468v-7.508h4.937v-2.263h-4.937v-23.654l-11.519 9.667v13.987h-13.781l23.86-37.744H160.91c-1.748 15.838-7.199 32.705-15.221 37.744v2.263h17.998v7.508c0 1.44-3.497 2.468-5.142 2.468v2.263h21.597zm0 190.142c-1.646 0-4.937-1.028-4.937-2.468v-7.508h4.937v-2.263h-4.937V306.11l-11.519 9.667v13.987h-13.781l23.86-37.744H160.91c-1.748 15.838-7.199 32.705-15.221 37.744v2.263h17.998v7.508c0 1.44-3.497 2.468-5.142 2.468v2.263h21.597z"/><path d="M180.143 394.223c-1.646 0-4.937-1.028-4.937-2.468v-7.508h4.937v-2.263h-4.937V358.33l-11.519 9.667v13.987h-13.781l23.86-37.744h-12.856c-1.748 15.838-7.199 32.705-15.221 37.744v2.263h17.998v7.508c0 1.44-3.497 2.468-5.142 2.468v2.263h21.597z"/></g><path d="M31.89 153.112h1757.923M31.89 127.6h1757.923M31.89 102.089h1757.923M31.89 76.577h1757.923M31.89 51.065h1757.923" class="B D F"/><path d="M78.067 163.929c-7.756.102-12.96 6.633-12.96 11.531 0 11.429 11.123 17.552 20.001 17.552 8.164 0 20.614-5.817 20.614-17.042 0-1.327-.102-2.653-.51-4.082l-5.204-21.022c13.572-5.715 19.083-20.716 19.185-28.675v-.51c0-15.511-10.205-23.063-21.022-24.695-1.123-.204-2.449-.204-3.776-.204-2.755 0-5.715.306-7.347.918L82.15 79.025c12.348-12.552 19.899-26.43 19.899-42.452v-.612c-.204-17.654-11.633-34.186-15.919-34.9-4.592 1.531-15.511 19.287-15.715 32.961v1.123c0 13.062 3.368 20.614 6.021 31.329-8.266 8.572-25.41 26.94-25.41 46.84 0 21.022 13.674 39.39 36.941 39.39a46.78 46.78 0 0 0 9.694-1.02l5.102 21.022a11.72 11.72 0 0 1 .408 3.163c0 8.878-9.388 14.695-17.858 14.695-5.306 0-11.633-4.592-12.144-8.674 1.225.918 2.653 1.225 4.082 1.225 5.102 0 10.817-4.49 10.817-8.878 0-5.102-3.572-10.103-10.001-10.307zM89.19 12.287c4.592 1.123 7.96 13.572 7.96 21.43-.102 11.123-12.042 23.675-18.675 30.818-2.041-8.368-4.388-14.491-4.388-27.247 0-13.47 11.327-24.593 15.103-25.002zm-5.102 86.434c-8.776 3.368-12.144 10.001-12.144 18.777 0 1.02 0 2.041.102 3.061.918 12.144 9.286 18.777 14.083 20.103-5.715-4.592-9.694-8.776-9.797-16.328 0-6.939 2.959-12.246 11.021-14.083l9.286 37.349c-2.347.714-7.347 1.02-10.817 1.02-1.123 0-2.143 0-2.755-.102-16.94-1.735-24.9-17.552-24.9-31.226.102-15.001 18.062-32.043 21.94-36.329zm5.715 11.123c1.939-.306 3.878-.51 5.715-.51 9.184 0 16.021 4.082 17.348 9.899.408 2.041.612 3.98.612 5.919 0 9.899-5.715 17.96-14.491 21.838zm161.329-20.511h70.157V76.577h-70.157v12.756m432.107-44.646l52.618-12.756V19.175l-52.618 12.756v12.756m363.543 114.803h70.157v-12.756h-70.157v12.756m165.827-6.378l52.618 12.756v-12.756l-52.618-12.756v12.756m105.236 6.378l52.618-6.378v-12.756l-52.618 6.378v12.756m117.195 12.756l52.618 12.756v-12.756l-52.618-12.756v12.756" class="C E"/><path d="M31.89 395.474h1757.923M31.89 369.963h1757.923M31.89 344.451h1757.923M31.89 318.939h1757.923M31.89 293.427h1757.923" class="B D F"/><path d="M112.15 330.266c0 2.653 2.041 5.715 5.919 5.715 3.47 0 5.919-3.061 5.919-5.715 0-3.163-2.449-5.817-5.919-5.817-3.878 0-5.919 2.653-5.919 5.817zm0-22.961c0 2.653 2.041 5.511 5.919 5.511 3.47 0 5.919-2.857 5.919-5.511 0-3.163-2.449-5.715-5.919-5.715-3.878 0-5.919 2.551-5.919 5.715zm-60.514 70.311c23.063-11.225 56.228-27.043 56.228-59.596 0-15.613-14.083-25.002-28.471-25.002-10.103 0-25.92 9.49-25.92 22.552 0 7.551 6.225 11.123 12.246 11.123 5.817 0 11.429-3.266 11.429-9.694 0-4.49-3.368-8.47-8.266-8.47-.612 0-1.327.102-2.041.204-1.327.204-3.163.816-3.878.816-2.245 0-3.266-1.225-3.266-2.755 0-.51.102-.918.306-1.429 3.47-5.613 8.572-8.062 15.817-9.184.714-.102 1.429-.204 2.143-.204 10.817 0 15.103 13.266 15.103 22.859 0 6.837-2.551 16.94-6.531 23.879-9.082 15.919-19.389 22.348-35.512 32.655z" class="C E"/><path d="M251.132 161.882V77.374" class="B D F"/><use xlink:href="#B" class="C E"/><path d="M321.29 161.882V77.374" class="B D F"/><g class="C E"><use xlink:href="#B" x="70.157"/><path d="M277.103 153.929l4.592-1.633c1.123-.408 1.633-2.959 1.633-5.306 0-2.041-.408-3.878-1.327-3.878-.102 0-.204.102-.306.102l-4.592 1.633v-12.96c0-.51-.51-.714-1.02-.714s-1.02.204-1.02.714v13.674l-8.98 3.368v-13.776c0-.51-.612-.714-1.123-.714s-1.02.204-1.02.714v14.491l-4.694 1.939c-.816.408-1.327 2.857-1.327 5.102 0 1.939.306 3.776 1.327 3.776l4.694-1.735v18.164l-4.694 1.735c-.918.408-1.327 2.755-1.327 5 0 2.143.408 4.082 1.327 4.082l4.694-1.837v13.776c0 .51.51.816 1.02.816s1.123-.306 1.123-.816v-14.593l8.98-3.266v15.001c0 .51.51.714 1.02.714s1.02-.204 1.02-.714v-15.715l4.592-1.633c1.123-.408 1.633-3.061 1.633-5.306 0-2.041-.408-3.776-1.327-3.776-.102 0-.204.102-.306.102l-4.592 1.633zm-2.041.816v18.062l-8.98 3.266V158.01z"/></g><path d="M416.959 149.126V63.821" class="B D F"/><g class="C E"><use xlink:href="#B" x="165.827" y="-12.755"/><use xlink:href="#C"/></g><path d="M453.632 93.319v85.305" class="B D F"/><use xlink:href="#B" x="232.795" y="-76.535" class="C E"/><path d="M550.099 149.126V63.821" class="B D F"/><g class="C E"><use xlink:href="#B" x="298.966" y="-12.755"/><use xlink:href="#C" x="133.14"/></g><path d="M586.772 93.319v85.305" class="B D F"/><use xlink:href="#B" x="365.935" y="-76.535" class="C E"/><path d="M683.239 149.126V32.728" class="B D F"/><use xlink:href="#B" x="432.106" y="-12.755" class="C E"/><path d="M735.857 85.346V19.972" class="B D F"/><use xlink:href="#B" x="484.724" y="-76.535" class="C E"/><path d="M809.203 93.319v85.305" class="B D F"/><g class="C E"><use xlink:href="#D"/><path d="M969.628 87.904c-3.674 1.123-12.348 4.286-15.817 4.286-.51 0-.918 0-1.123-.204 1.123-2.143 1.633-3.98 1.633-5.409 0-3.572-2.755-5.102-5.817-5.102-3.674 0-7.756 2.041-7.756 5.511 0 6.021 5.204 7.858 10.817 7.858 4.898 0 10.205-1.327 12.96-2.449l-15.613 35.104h3.061z"/></g><path d="M994.164 93.319v85.305" class="B D F"/><g class="C E"><use xlink:href="#B" x="773.326" y="-76.535"/><path d="M995.407 178.42c1.735-13.062 13.266-26.94 19.899-38.676 4.082-7.245 5.817-13.878 5.817-20.511 0-8.164-2.551-16.43-6.735-25.92l-.408.306c3.266 8.266 4.694 15.919 4.694 22.757 0 14.899-8.266 26.94-24.287 35.614v26.532z"/></g><path d="M1046.782 80.563v78.13" class="B D F"/><use xlink:href="#B" x="825.945" y="-89.291" class="C E"/><path d="M1116.939 80.563v78.13" class="B D F"/><g class="C E"><use xlink:href="#B" x="896.102" y="-89.291"/><path d="M1103.048 64.637l4.592-1.633c1.123-.408 1.633-2.959 1.633-5.306 0-2.041-.408-3.878-1.327-3.878-.102 0-.204.102-.306.102l-4.592 1.633v-12.96c0-.51-.51-.714-1.02-.714s-1.02.204-1.02.714v13.674l-8.98 3.368V45.861c0-.51-.612-.714-1.123-.714s-1.02.204-1.02.714v14.491l-4.694 1.939c-.816.408-1.327 2.857-1.327 5.102 0 1.939.306 3.776 1.327 3.776l4.694-1.735v18.164l-4.694 1.735c-.918.408-1.327 2.755-1.327 5 0 2.143.408 4.082 1.327 4.082l4.694-1.837v13.776c0 .51.51.816 1.02.816s1.123-.306 1.123-.816V95.762l8.98-3.266v15.001c0 .51.51.714 1.02.714s1.02-.204 1.02-.714V91.782l4.592-1.633c1.123-.408 1.633-3.061 1.633-5.306 0-2.041-.408-3.776-1.327-3.776-.102 0-.204.102-.306.102l-4.592 1.633zm-2.041.816v18.062l-8.98 3.266V68.719z"/></g><path d="M1212.609 67.807v84.508" class="B D F"/><use xlink:href="#B" x="991.771" y="-102.047" class="C E"/><path d="M1265.227 93.319v71.752" class="B D F"/><use xlink:href="#B" x="1044.389" y="-76.535" class="C E"/><path d="M1317.845 80.563v78.13" class="B D F"/><use xlink:href="#B" x="1097.007" y="-89.291" class="C E"/><path d="M1370.463 67.807v84.508" class="B D F"/><use xlink:href="#B" x="1149.626" y="-102.047" class="C E"/><path d="M1435.04 67.807v103.642" class="B D F"/><use xlink:href="#B" x="1214.202" y="-102.047" class="C E"/><path d="M1487.658 106.075v78.13" class="B D F"/><use xlink:href="#B" x="1266.82" y="-63.779" class="C E"/><path d="M1540.276 80.563v85.305" class="B D F"/><g class="C E"><use xlink:href="#B" x="1319.439" y="-89.291"/><use xlink:href="#E"/><use xlink:href="#F"/></g><path d="M416.959 353.22v-85.305" class="B D F"/><use xlink:href="#D" x="-422.539" y="267.874" class="C E"/><path d="M586.772 310.169v85.305" class="B D F"/><use xlink:href="#D" x="-222.431" y="216.85" class="C E"/><path d="M839.498 353.22v-85.305" class="B D F"/><use xlink:href="#B" x="588.366" y="191.339" class="C E"/><path d="M875.374 297.413V408.23" class="B D F"/><g class="C E"><use xlink:href="#B" x="654.537" y="127.56"/><use xlink:href="#B" x="654.537" y="153.071"/></g><path d="M941.546 310.169v110.817" class="B D F"/><g class="C E"><use xlink:href="#B" x="720.708" y="140.315"/><use xlink:href="#B" x="720.708" y="165.827"/><use xlink:href="#F" x="825.945"/></g><path d="M1212.609 310.169v85.305" class="B D F"/><use xlink:href="#D" x="403.406" y="216.85" class="C E"/><path d="M1435.04 310.169v98.061" class="B D F"/><g class="C E"><use xlink:href="#D" x="625.837" y="216.85"/><use xlink:href="#D" x="596.339" y="229.606"/><use xlink:href="#E" y="267.874"/></g></g><defs ><path id="B" d="M220.04 168.827c0 6.531 5.409 10.205 12.246 10.205 9.082 0 19.389-7.551 19.389-16.123 0-6.531-5.409-10.103-12.246-10.103-9.082 0-19.389 7.449-19.389 16.021z"/><path id="C" d="M417.182 63.719v26.532c16.021 8.674 24.287 20.716 24.287 35.614 0 6.837-1.429 14.491-4.694 22.757l.408.306c4.184-9.49 6.735-17.756 6.735-25.92 0-6.633-1.735-13.266-5.817-20.511-6.633-11.735-18.164-25.614-19.899-38.676z"/><path id="D" d="M818.304 79.434c-4.184 2.551-10.307 7.858-10.307 13.98 0 1.735.408 3.47 1.633 5.306 2.041 3.061 5 4.184 8.266 4.184 4.49 0 9.388-2.143 12.45-4.082 6.633-4.286 9.592-9.592 9.592-13.98 0-1.633-.408-3.163-1.123-4.388-1.633-2.755-5-4.592-9.286-4.592-3.368 0-7.245 1.123-11.225 3.572zm2.959 4.796c3.368-2.143 7.756-4.286 11.021-4.286 1.735 0 3.061.612 3.878 2.143.408.714.612 1.531.612 2.245 0 3.674-5 7.041-9.388 9.797-3.674 2.347-8.368 4.694-11.735 4.694-1.531 0-2.755-.51-3.47-1.735-.306-.51-.408-1.123-.408-1.735 0-3.674 4.898-8.368 9.49-11.123z"/><path id="E" d="M1648.701 89.537c0 9.797 12.756 12.552 21.838 12.552h.51c8.572-.102 21.124-2.857 21.124-12.756 0-8.572-12.858-12.654-21.532-12.654-9.082 0-21.94 4.082-21.94 12.858zm13.266-8.062c1.531-1.531 4.184-2.347 6.837-2.347 2.143 0 4.286.51 6.021 1.735 3.266 2.347 5.817 8.368 5.817 12.756 0 1.123-.102 2.143-.51 2.959-1.123 2.245-5.204 3.878-8.98 3.878-1.633 0-3.266-.306-4.49-1.02-3.674-2.041-6.837-7.347-6.837-12.144 0-2.143.612-4.184 2.143-5.817z"/><path id="F" d="M224.53 303.734c4.694 5.817 6.633 11.531 6.633 17.042 0 6.633-2.857 12.858-6.939 18.573v.714l8.98 14.287c-1.735-.408-3.368-.612-4.694-.612-6.021 0-8.368 3.572-8.368 8.368 0 6.633 4.796 15.613 11.327 20.205l.204-.408c-2.449-3.368-3.878-7.654-3.878-11.327 0-4.592 2.041-8.368 6.633-8.368 2.551 0 6.021 1.225 10.307 4.082l.408-.306c-6.531-6.429-9.899-14.389-9.899-22.246 0-6.531 2.347-13.062 7.245-18.573v-.714l-17.45-21.124z"/></defs></svg>