<svg xmlns="http://www.w3.org/2000/svg" xmlns:xlink="http://www.w3.org/1999/xlink" width="312.918" height="88.392" viewBox="0 0 939.153 265.095" xmlns:v="https://vecta.io/nano"><g fill="none" fill-rule="evenodd" stroke="#000"><g stroke-linecap="butt" stroke-width="2.392" stroke-linejoin="bevel"><path d="M0 153.112h939.153"/><path d="M0 127.6h939.153" stroke="#72ac51"/><path d="M0 102.1h939.153M0 76.577h939.153M0 51.065h939.153"/></g><g fill="#000" stroke="none"><path d="M46.177 163.93c-7.756.102-12.96 6.633-12.96 11.53 0 11.43 11.123 17.552 20 17.552 8.164 0 20.614-5.817 20.614-17.042 0-1.327-.102-2.653-.5-4.082l-5.204-21.022C81.7 145.15 87.2 130.15 87.312 122.19v-.5c0-15.5-10.205-23.063-21.022-24.695-1.123-.204-2.45-.204-3.776-.204-2.755 0-5.715.306-7.347.918L50.26 79.026c12.348-12.552 19.9-26.43 19.9-42.452v-.612c-.204-17.654-11.633-34.186-15.92-34.9-4.592 1.53-15.5 19.287-15.715 32.96v1.123c0 13.062 3.368 20.614 6.02 31.33-8.266 8.572-25.4 26.94-25.4 46.84 0 21.022 13.674 39.4 36.94 39.4a46.78 46.78 0 0 0 9.694-1.02l5.102 21.022a11.72 11.72 0 0 1 .408 3.163c0 8.878-9.388 14.695-17.858 14.695-5.306 0-11.633-4.592-12.144-8.674 1.225.918 2.653 1.225 4.082 1.225 5.102 0 10.817-4.5 10.817-8.878 0-5.102-3.572-10.103-10-10.307zM57.3 12.287c4.592 1.123 7.96 13.572 7.96 21.43-.102 11.123-12.042 23.675-18.675 30.818-2.04-8.368-4.388-14.5-4.388-27.247 0-13.47 11.327-24.593 15.103-25.002zM52.197 98.72c-8.776 3.368-12.144 10-12.144 18.777 0 1.02 0 2.04.102 3.06.918 12.144 9.286 18.777 14.083 20.103-5.715-4.592-9.694-8.776-9.797-16.328 0-6.94 2.96-12.246 11.02-14.083l9.286 37.35c-2.347.714-7.347 1.02-10.817 1.02-1.123 0-2.143 0-2.755-.102-16.94-1.735-24.9-17.552-24.9-31.226.102-15 18.062-32.043 21.94-36.33l3.98 17.756zm5.715 11.123c1.94-.306 3.878-.5 5.715-.5 9.184 0 16.02 4.082 17.348 9.9.408 2.04.612 3.98.612 5.92 0 9.9-5.715 17.96-14.5 21.838l-9.184-37.145zM316.7 245.287h10.447v14.946q-2.438.778-4.96 1.177-2.523.4-5.844.4-6.98 0-10.868-4.14-3.9-4.162-3.9-11.646 0-4.793 1.913-8.387 1.934-3.616 5.55-5.508 3.616-1.913 8.47-1.913 4.92 0 9.165 1.808l-1.387 3.153q-4.162-1.766-8-1.766-5.613 0-8.766 3.342-3.153 3.342-3.153 9.27 0 6.222 3.027 9.438 3.048 3.216 8.934 3.216 3.195 0 6.243-.736v-9.46h-6.874v-3.195zM597.423 261.4l-10.426-27.243h-.168q.294 3.237.294 7.694v19.55h-3.3v-30.733h5.38l9.733 25.35h.168l9.817-25.35h5.34v30.733h-3.574V241.59q0-3.405.294-7.4h-.168l-10.5 27.2h-2.88zm28.2 0h-3.5v-23.04h3.5v23.04zm-3.784-29.282q0-1.198.6-1.745.6-.568 1.47-.568.84 0 1.45.568.6.568.6 1.745 0 1.177-.6 1.766-.6.568-1.45.568-.883 0-1.47-.568-.6-.6-.6-1.766zm26.823 26.192h-.2q-2.417 3.5-7.23 3.5-4.52 0-7.042-3.1-2.502-3.1-2.502-8.787 0-5.697 2.523-8.85 2.523-3.153 7.02-3.153 4.688 0 7.2 3.405h.273l-.147-1.66-.084-1.62v-9.375h3.5v32.7h-2.838l-.462-3.1zm-6.98.6q3.574 0 5.17-1.934 1.62-1.955 1.62-6.285v-.736q0-4.898-1.64-6.98-1.62-2.102-5.192-2.102-3.07 0-4.7 2.396-1.62 2.375-1.62 6.727 0 4.414 1.62 6.664 1.62 2.25 4.75 2.25zm33.383-.6h-.2q-2.417 3.5-7.23 3.5-4.52 0-7.042-3.1-2.502-3.1-2.502-8.787 0-5.697 2.523-8.85 2.523-3.153 7.02-3.153 4.688 0 7.2 3.405h.273l-.147-1.66-.084-1.62v-9.375h3.5v32.7h-2.838l-.462-3.1zm-6.98.6q3.574 0 5.17-1.934 1.62-1.955 1.62-6.285v-.736q0-4.898-1.64-6.98-1.62-2.102-5.192-2.102-3.07 0-4.7 2.396-1.62 2.375-1.62 6.727 0 4.414 1.62 6.664 1.62 2.25 4.75 2.25zm21.2 2.5h-3.5v-32.7h3.5v32.7zm17.175.4q-5.108 0-8.072-3.1-2.943-3.1-2.943-8.64 0-5.57 2.733-8.85 2.754-3.28 7.378-3.28 4.33 0 6.853 2.86 2.523 2.838 2.523 7.505v2.207h-15.87q.105 4.057 2.04 6.16 1.955 2.102 5.487 2.102 3.72 0 7.357-1.556v3.1q-1.85.8-3.5 1.135-1.64.357-3.973.357zm-.946-20.958q-2.775 0-4.435 1.808-1.64 1.808-1.934 5.003H711.2q0-3.3-1.47-5.045-1.47-1.766-4.204-1.766zM745.8 233.4q-5.066 0-8 3.384-2.922 3.363-2.922 9.228 0 6.033 2.817 9.333 2.838 3.28 8.072 3.28 3.216 0 7.336-1.156v3.132q-3.195 1.198-7.883 1.198-6.8 0-10.5-4.12-3.68-4.12-3.68-11.7 0-4.75 1.766-8.324 1.787-3.574 5.13-5.508 3.363-1.934 7.904-1.934 4.835 0 8.45 1.766l-1.514 3.07q-3.5-1.64-6.98-1.64z"/><use xlink:href="#B"/></g><path d="M630.62 178.624h74.144" stroke-linecap="butt" stroke-width="2.392" stroke-linejoin="bevel"/><use xlink:href="#B" x="351.585" y="51.023" fill="#000" stroke="none"/></g><defs ><path id="B" d="M294.183 127.805c0 9.797 12.756 12.552 21.838 12.552h.5c8.572-.102 21.124-2.857 21.124-12.756 0-8.572-12.858-12.654-21.532-12.654-9.082 0-21.94 4.082-21.94 12.858zm13.266-8.062c1.53-1.53 4.184-2.347 6.837-2.347 2.143 0 4.286.5 6.02 1.735 3.266 2.347 5.817 8.368 5.817 12.756 0 1.123-.102 2.143-.5 2.96-1.123 2.245-5.204 3.878-8.98 3.878-1.633 0-3.266-.306-4.5-1.02-3.674-2.04-6.837-7.347-6.837-12.144 0-2.143.612-4.184 2.143-5.817z"/></defs></svg>