<?xml version="1.0" encoding="UTF-8" standalone="no"?>
<svg
   width="491.694"
   height="84.994"
   viewBox="0 0 1475.699 254.904"
   version="1.1"
   id="svg925"
   sodipodi:docname="alterations-de-courtoisie.svg"
   inkscape:version="1.1 (c4e8f9e, 2021-05-24)"
   xmlns:inkscape="http://www.inkscape.org/namespaces/inkscape"
   xmlns:sodipodi="http://sodipodi.sourceforge.net/DTD/sodipodi-0.dtd"
   xmlns:xlink="http://www.w3.org/1999/xlink"
   xmlns="http://www.w3.org/2000/svg"
   xmlns:svg="http://www.w3.org/2000/svg">
  <sodipodi:namedview
     id="namedview927"
     pagecolor="#ffffff"
     bordercolor="#666666"
     borderopacity="1.0"
     inkscape:pageshadow="2"
     inkscape:pageopacity="0.0"
     inkscape:pagecheckerboard="0"
     showgrid="false"
     inkscape:zoom="2.3246165"
     inkscape:cx="411.89589"
     inkscape:cy="38.070795"
     inkscape:window-width="1312"
     inkscape:window-height="907"
     inkscape:window-x="0"
     inkscape:window-y="25"
     inkscape:window-maximized="0"
     inkscape:current-layer="g914" />
  <style
     id="style824"><![CDATA[.B{stroke:none}.C{fill:#000}.D{stroke-linecap:butt}.E{stroke-linejoin:bevel}]]></style>
  <g
     fill="none"
     stroke="#000"
     fill-rule="evenodd"
     id="g914">
    <path
       d="M473.563 51.065v102.047M795.65 51.065v102.047m338.031-102.047v102.047"
       stroke-width="3.189"
       class="D E"
       id="path826" />
    <g
       class="B C"
       id="g856">
      <use
         xlink:href="#B"
         id="use828" />
      <use
         xlink:href="#C"
         id="use830" />
      <use
         xlink:href="#B"
         x="155.463"
         id="use832" />
      <use
         xlink:href="#C"
         x="155.463"
         id="use834" />
      <use
         xlink:href="#B"
         x="331.654"
         id="use836" />
      <use
         xlink:href="#C"
         x="331.654"
         id="use838" />
      <use
         xlink:href="#B"
         x="467.983"
         id="use840" />
      <use
         xlink:href="#C"
         x="467.983"
         id="use842" />
      <use
         xlink:href="#D"
         id="use844" />
      <use
         xlink:href="#E"
         id="use846" />
      <use
         xlink:href="#D"
         x="144.3"
         id="use848" />
      <use
         xlink:href="#E"
         x="144.3"
         id="use850" />
      <use
         xlink:href="#D"
         x="328.46"
         id="use852" />
      <use
         xlink:href="#E"
         x="328.46"
         id="use854" />
    </g>
    <g
       class="D E"
       id="g862">
      <path
         d="M1014.095 172.246c35.079 27.106 141.909 27.106 177.785 0"
         stroke-width="1.594"
         id="path858" />
      <path
         d="M1014.095 172.246c35.079 23.12 141.909 23.12 177.785 0-35.876 31.093-142.707 31.093-177.785 0"
         stroke-width=".797"
         class="C"
         id="path860" />
    </g>
    <g
       class="B C"
       id="g868">
      <use
         xlink:href="#D"
         x="487.11"
         id="use864" />
      <use
         xlink:href="#E"
         x="487.11"
         id="use866" />
    </g>
    <path
       d="M0 153.112h1475.699M0 127.6h1475.699M0 102.089h1475.699M0 76.577h1475.699M0 51.065h1475.699"
       stroke-width="2.392"
       class="D E"
       id="path870" />
    <g
       class="B C"
       id="g892">
      <path
         d="M46.177 163.929c-7.756.102-12.96 6.633-12.96 11.531 0 11.429 11.123 17.552 20.001 17.552 8.164 0 20.614-5.817 20.614-17.042 0-1.327-.102-2.653-.51-4.082l-5.204-21.022c13.572-5.715 19.083-20.716 19.185-28.675v-.51c0-15.511-10.205-23.063-21.022-24.695-1.123-.204-2.449-.204-3.776-.204-2.755 0-5.715.306-7.347.918L50.26 79.025c12.348-12.552 19.899-26.43 19.899-42.452v-.612c-.204-17.654-11.633-34.186-15.919-34.9-4.592 1.531-15.511 19.287-15.715 32.961v1.123c0 13.062 3.368 20.614 6.021 31.329-8.266 8.572-25.41 26.94-25.41 46.84 0 21.022 13.674 39.39 36.941 39.39a46.78 46.78 0 0 0 9.694-1.02l5.102 21.022a11.72 11.72 0 0 1 .408 3.163c0 8.878-9.388 14.695-17.858 14.695-5.306 0-11.633-4.592-12.144-8.674 1.225.918 2.653 1.225 4.082 1.225 5.102 0 10.817-4.49 10.817-8.878 0-5.102-3.572-10.103-10.001-10.307zM57.3 12.287c4.592 1.123 7.96 13.572 7.96 21.43-.102 11.123-12.042 23.675-18.675 30.818-2.041-8.368-4.388-14.491-4.388-27.247 0-13.47 11.327-24.593 15.103-25.002zm-5.102 86.434c-8.776 3.368-12.144 10.001-12.144 18.777 0 1.02 0 2.041.102 3.061.918 12.144 9.286 18.777 14.083 20.103-5.715-4.592-9.694-8.776-9.797-16.328 0-6.939 2.959-12.246 11.021-14.083l9.286 37.349c-2.347.714-7.347 1.02-10.817 1.02-1.123 0-2.143 0-2.755-.102-16.94-1.735-24.9-17.552-24.9-31.226.102-15.001 18.062-32.043 21.94-36.329zm5.715 11.123c1.939-.306 3.878-.51 5.715-.51 9.184 0 16.021 4.082 17.348 9.899.408 2.041.612 3.98.612 5.919 0 9.899-5.715 17.96-14.491 21.838zm70.105-70.719l4.592-1.633c1.123-.408 1.633-2.959 1.633-5.306 0-2.041-.408-3.878-1.327-3.878-.102 0-.204.102-.306.102l-4.592 1.633v-12.96c0-.51-.51-.714-1.02-.714s-1.02.204-1.02.714v13.674l-8.98 3.368V20.349c0-.51-.612-.714-1.123-.714s-1.02.204-1.02.714V34.84l-4.694 1.939c-.816.408-1.327 2.857-1.327 5.102 0 1.939.306 3.776 1.327 3.776l4.694-1.735v18.164l-4.694 1.735c-.918.408-1.327 2.755-1.327 5 0 2.143.408 4.082 1.327 4.082l4.694-1.837v13.776c0 .51.51.816 1.02.816s1.123-.306 1.123-.816V70.25l8.98-3.266v15.001c0 .51.51.714 1.02.714s1.02-.204 1.02-.714V66.27l4.592-1.633c1.123-.408 1.633-3.061 1.633-5.306 0-2.041-.408-3.776-1.327-3.776-.102 0-.204.102-.306.102l-4.592 1.633zm-2.041.816v18.062l-8.98 3.266V43.207z"
         id="path872" />
      <use
         xlink:href="#F"
         id="use874" />
      <use
         xlink:href="#F"
         x="331.653"
         id="use876" />
      <use
         xlink:href="#F"
         x="467.982"
         id="use878" />
      <use
         xlink:href="#G"
         id="use880" />
      <use
         xlink:href="#G"
         x="184.16"
         id="use882" />
      <use
         xlink:href="#H"
         id="use884" />
      <use
         xlink:href="#H"
         x="145.895"
         id="use886" />
      <path
         d="M329.887 175.154v-54.799l-15.613 5.511v-20.511h-2.551v54.799l15.613-5.409v20.409zm-15.613-41.023l13.062-4.796v17.144l-13.062 4.694z"
         id="path888" />
      <use
         xlink:href="#H"
         x="331.653"
         id="use890" />
    </g>
    <path
       d="M509.898 128.417l4.592-1.633c1.123-.408 1.633-2.959 1.633-5.306 0-2.041-.408-3.878-1.327-3.878-.102 0-.204.102-.306.102l-4.592 1.633v-12.96c0-.51-.51-.714-1.02-.714s-1.02.204-1.02.714v13.674l-8.98 3.368V109.64c0-.51-.612-.714-1.123-.714s-1.02.204-1.02.714v14.491l-4.694 1.939c-.816.408-1.327 2.857-1.327 5.102 0 1.939.306 3.776 1.327 3.776l4.694-1.735v18.164l-4.694 1.735c-.918.408-1.327 2.755-1.327 5 0 2.143.408 4.082 1.327 4.082l4.694-1.837v13.776c0 .51.51.816 1.02.816s1.123-.306 1.123-.816v-14.593l8.98-3.266v15.001c0 .51.51.714 1.02.714s1.02-.204 1.02-.714v-15.715l4.592-1.633c1.123-.408 1.633-3.061 1.633-5.306 0-2.041-.408-3.776-1.327-3.776-.102 0-.204.102-.306.102l-4.592 1.633zm-2.041.816v18.062l-8.98 3.266v-18.062z"
       fill="#72ac51"
       class="B"
       id="path894" />
    <g
       class="C B"
       id="g902">
      <use
         xlink:href="#H"
         x="467.982"
         id="use896" />
      <use
         xlink:href="#H"
         x="644.173"
         y="12.756"
         id="use898" />
      <use
         xlink:href="#H"
         x="798.041"
         y="12.756"
         id="use900" />
    </g>
    <path
       d="M964.621 143.418c1.531-1.429 3.47-2.143 5.102-2.143 2.551 0 4.592 1.633 4.592 5.409 0 5.817-6.123 12.756-10.001 16.123zm17.45 3.266c0-6.837-3.368-9.184-7.449-9.184-3.368 0-7.143 1.633-10.001 3.572v-34.696h-2.347v63.269c5.613-3.674 19.797-16.226 19.797-22.961z"
       fill="#72b651"
       class="B"
       id="path904"
       style="fill:#000000" />
    <g
       class="C B"
       id="g912">
      <use
         xlink:href="#H"
         x="982.204"
         y="12.756"
         id="use906" />
      <use
         xlink:href="#H"
         x="1131.289"
         y="12.756"
         id="use908" />
      <path
         d="M1315.281 187.91v-54.799l-15.613 5.511V118.11h-2.551v54.799l15.613-5.409v20.409zm-15.613-41.023l13.062-4.796v17.144l-13.062 4.694z"
         id="path910"
         style="fill:#72b651;fill-opacity:1" />
    </g>
  </g>
  <defs
     id="defs923">
    <path
       id="B"
       d="M197.45 225.914h-5.865v20.327h-3.489v-20.327h-4.12v-1.577l4.12-1.261v-1.282q0-8.493 7.42-8.493 1.829 0 4.288.736l-.904 2.796q-2.018-.652-3.447-.652-1.976 0-2.922 1.324-.946 1.303-.946 4.204v1.492h5.865z" />
    <path
       id="C"
       d="M215.865 246.241l-.694-3.279h-.168q-1.724 2.165-3.447 2.943-1.703.757-4.267.757-3.426 0-5.381-1.766-1.934-1.766-1.934-5.024 0-6.979 11.162-7.315l3.91-.126v-1.429q0-2.712-1.177-3.994-1.156-1.303-3.721-1.303-2.88 0-6.517 1.766l-1.072-2.67q1.703-.925 3.721-1.45 2.039-.526 4.078-.526 4.12 0 6.096 1.829 1.997 1.829 1.997 5.865v15.724zm-7.883-2.459q3.258 0 5.108-1.787 1.871-1.787 1.871-5.003v-2.081l-3.489.147q-4.162.147-6.012 1.303-1.829 1.135-1.829 3.553 0 1.892 1.135 2.88 1.156.988 3.216.988z" />
    <path
       id="D"
       d="M863.798 246.241v-14.988q0-2.754-1.177-4.12-1.177-1.387-3.658-1.387-3.258 0-4.814 1.871-1.556 1.871-1.556 5.76v12.865h-3.489v-14.988q0-2.754-1.177-4.12-1.177-1.387-3.679-1.387-3.279 0-4.814 1.976-1.514 1.955-1.514 6.432v12.087h-3.489v-23.039h2.838l.568 3.153h.168q.988-1.682 2.775-2.628 1.808-.946 4.036-.946 5.402 0 7.063 3.91h.168q1.03-1.808 2.985-2.859 1.955-1.051 4.456-1.051 3.91 0 5.844 2.018 1.955 1.997 1.955 6.411v15.03z" />
    <path
       id="E"
       d="M877.945 246.241h-3.489v-23.039h3.489zm-3.784-29.282q0-1.198.589-1.745.589-.568 1.471-.568.841 0 1.45.568.61.568.61 1.745 0 1.177-.61 1.766-.61.568-1.45.568-.883 0-1.471-.568-.589-.589-.589-1.766z" />
    <path
       id="F"
       d="M235.567 235.398l-5.734 1.829v-10.38l5.734-1.928zm0-24.813v8.897l-5.734 1.977v-8.996h-1.483v9.392l-3.361 1.087v5.437l3.361-1.087v10.38l-3.361 1.087v5.437l3.361-1.087v8.502h1.483v-8.996l5.734-1.878v8.996h1.483v-9.392l3.46-1.087v-5.437l-3.46 1.087v-10.38l3.46-1.087v-5.437l-3.46 1.087v-8.502z" />
    <path
       id="G"
       d="M1031.301 247.854l3.46-2.768c4.3-3.46 9.886-5.882 9.886-11.369 0-3.806-2.521-6.426-6.228-6.426-2.274 0-2.867.247-5.338 3.065l.395-17.794h-2.175zm5.635-18.388c2.224 0 3.658 1.977 3.658 4.35 0 3.015-2.323 6.426-7.019 10.182-.346-1.038-.494-2.471-.494-4.251 0-.989.148-3.312.395-6.92.939-1.433 1.73-3.361 3.46-3.361z" />
    <path
       id="H"
       d="M191.339 140.56c0 9.797 12.756 12.552 21.838 12.552h.51c8.572-.102 21.124-2.857 21.124-12.756 0-8.572-12.858-12.654-21.532-12.654-9.082 0-21.94 4.082-21.94 12.858zm13.266-8.062c1.531-1.531 4.184-2.347 6.837-2.347 2.143 0 4.286.51 6.021 1.735 3.266 2.347 5.817 8.368 5.817 12.756 0 1.123-.102 2.143-.51 2.959-1.123 2.245-5.204 3.878-8.98 3.878-1.633 0-3.266-.306-4.49-1.02-3.674-2.041-6.837-7.347-6.837-12.144 0-2.143.612-4.184 2.143-5.817z" />
  </defs>
</svg>
