<svg xmlns="http://www.w3.org/2000/svg" width="313.187" height="65.469" viewBox="0 0 939.951 196.347" fill="none" fill-rule="evenodd" stroke="#000" xmlns:v="https://vecta.io/nano"><g stroke-linecap="butt" stroke-width="2.392" stroke-linejoin="bevel"><path d="M0 153.112h420.945M0 127.6h420.945M0 102.1h420.945M0 76.577h420.945M0 51.065h420.945m102.047 102.047h416.96"/><path d="M522.992 127.6h416.96m-416.96-25.5h416.96m-416.96-25.513h416.96m-416.96-25.512h416.96"/></g><path d="M46.177 163.93c-7.756.102-12.96 6.633-12.96 11.53 0 11.43 11.123 17.552 20 17.552 8.164 0 20.614-5.817 20.614-17.042 0-1.327-.102-2.653-.5-4.082l-5.204-21.022C81.7 145.15 87.2 130.15 87.312 122.19v-.5c0-15.5-10.205-23.063-21.022-24.695-1.123-.204-2.45-.204-3.776-.204-2.755 0-5.715.306-7.347.918L50.26 79.026c12.348-12.552 19.9-26.43 19.9-42.452v-.612c-.204-17.654-11.633-34.186-15.92-34.9-4.592 1.53-15.5 19.287-15.715 32.96v1.123c0 13.062 3.368 20.614 6.02 31.33-8.266 8.572-25.4 26.94-25.4 46.84 0 21.022 13.674 39.4 36.94 39.4a46.78 46.78 0 0 0 9.694-1.02l5.102 21.022a11.72 11.72 0 0 1 .408 3.163c0 8.878-9.388 14.695-17.858 14.695-5.306 0-11.633-4.592-12.144-8.674 1.225.918 2.653 1.225 4.082 1.225 5.102 0 10.817-4.5 10.817-8.878 0-5.102-3.572-10.103-10-10.307zM57.3 12.287c4.592 1.123 7.96 13.572 7.96 21.43-.102 11.123-12.042 23.675-18.675 30.818-2.04-8.368-4.388-14.5-4.388-27.247 0-13.47 11.327-24.593 15.103-25.002zM52.197 98.72c-8.776 3.368-12.144 10-12.144 18.777 0 1.02 0 2.04.102 3.06.918 12.144 9.286 18.777 14.083 20.103-5.715-4.592-9.694-8.776-9.797-16.328 0-6.94 2.96-12.246 11.02-14.083l9.286 37.35c-2.347.714-7.347 1.02-10.817 1.02-1.123 0-2.143 0-2.755-.102-16.94-1.735-24.9-17.552-24.9-31.226.102-15 18.062-32.043 21.94-36.33l3.98 17.756zm5.715 11.123c1.94-.306 3.878-.5 5.715-.5 9.184 0 16.02 4.082 17.348 9.9.408 2.04.612 3.98.612 5.92 0 9.9-5.715 17.96-14.5 21.838l-9.184-37.145zm70.106-70.718l4.592-1.633c1.123-.408 1.633-2.96 1.633-5.306 0-2.04-.408-3.878-1.327-3.878-.102 0-.204.102-.306.102l-4.592 1.633v-12.96c0-.5-.5-.714-1.02-.714s-1.02.204-1.02.714v13.674l-8.98 3.368V20.35c0-.5-.612-.714-1.123-.714s-1.02.204-1.02.714v14.5l-4.694 1.94c-.816.408-1.327 2.857-1.327 5.102 0 1.94.306 3.776 1.327 3.776l4.694-1.735v18.164l-4.694 1.735c-.918.408-1.327 2.755-1.327 5 0 2.143.408 4.082 1.327 4.082l4.694-1.837v13.776c0 .5.5.816 1.02.816s1.123-.306 1.123-.816V70.25l8.98-3.266v15c0 .5.5.714 1.02.714s1.02-.204 1.02-.714V66.27l4.592-1.633c1.123-.408 1.633-3.06 1.633-5.306 0-2.04-.408-3.776-1.327-3.776-.102 0-.204.102-.306.102l-4.592 1.633V39.125zm-2.04.816v18.062l-8.98 3.266V43.207l8.98-3.266zm33.93 37.452l4.592-1.633c1.123-.408 1.633-2.96 1.633-5.306 0-2.04-.408-3.878-1.327-3.878-.102 0-.204.102-.306.102l-4.592 1.633V55.35c0-.5-.5-.714-1.02-.714s-1.02.204-1.02.714v13.674l-8.98 3.368V58.616c0-.5-.612-.714-1.123-.714s-1.02.204-1.02.714v14.5l-4.694 1.94c-.816.408-1.327 2.857-1.327 5.102 0 1.94.306 3.776 1.327 3.776l4.694-1.735v18.164l-4.694 1.735c-.918.408-1.327 2.755-1.327 5 0 2.143.408 4.082 1.327 4.082l4.694-1.837V123.1c0 .5.5.816 1.02.816s1.123-.306 1.123-.816v-14.593l8.98-3.266v15c0 .5.5.714 1.02.714s1.02-.204 1.02-.714v-15.715l4.592-1.633c1.123-.408 1.633-3.06 1.633-5.306 0-2.04-.408-3.776-1.327-3.776-.102 0-.204.102-.306.102l-4.592 1.633V77.393zm-2.04.816V96.27l-8.98 3.266V81.475l8.98-3.266zm33.93-51.84l4.592-1.633c1.123-.408 1.633-2.96 1.633-5.306 0-2.04-.408-3.878-1.327-3.878-.102 0-.204.102-.306.102l-4.592 1.633V4.327c0-.5-.5-.714-1.02-.714s-1.02.204-1.02.714V18l-8.98 3.368V7.593c0-.5-.612-.714-1.123-.714s-1.02.204-1.02.714v14.5l-4.694 1.94c-.816.408-1.327 2.857-1.327 5.102 0 1.94.306 3.776 1.327 3.776l4.694-1.735V49.33l-4.694 1.735c-.918.408-1.327 2.755-1.327 5 0 2.143.408 4.082 1.327 4.082l4.694-1.837v13.776c0 .5.5.816 1.02.816s1.123-.306 1.123-.816V57.494l8.98-3.266v15c0 .5.5.714 1.02.714s1.02-.204 1.02-.714V53.514l4.592-1.633c1.123-.408 1.633-3.06 1.633-5.306 0-2.04-.408-3.776-1.327-3.776-.102 0-.204.102-.306.102l-4.592 1.633V26.37zm-2.04.816v18.062l-8.98 3.266V30.45l8.98-3.266zM569.17 163.93c-7.756.102-12.96 6.633-12.96 11.53 0 11.43 11.123 17.552 20 17.552 8.164 0 20.614-5.817 20.614-17.042 0-1.327-.102-2.653-.5-4.082l-5.204-21.022c13.572-5.715 19.083-20.716 19.185-28.675v-.5c0-15.5-10.205-23.063-21.022-24.695-1.123-.204-2.45-.204-3.776-.204-2.755 0-5.715.306-7.347.918l-4.898-18.675c12.348-12.552 19.9-26.43 19.9-42.452v-.612c-.204-17.654-11.633-34.186-15.92-34.9-4.592 1.53-15.5 19.287-15.715 32.96v1.123c0 13.062 3.368 20.614 6.02 31.33-8.266 8.572-25.4 26.94-25.4 46.84 0 21.022 13.674 39.4 36.94 39.4a46.78 46.78 0 0 0 9.694-1.02l5.102 21.022a11.72 11.72 0 0 1 .408 3.163c0 8.878-9.388 14.695-17.858 14.695-5.306 0-11.633-4.592-12.144-8.674 1.225.918 2.653 1.225 4.082 1.225 5.102 0 10.817-4.5 10.817-8.878 0-5.102-3.572-10.103-10-10.307zm11.123-151.642c4.592 1.123 7.96 13.572 7.96 21.43-.102 11.123-12.042 23.675-18.675 30.818-2.04-8.368-4.388-14.5-4.388-27.247 0-13.47 11.327-24.593 15.103-25.002zM575.2 98.72c-8.776 3.368-12.144 10-12.144 18.777 0 1.02 0 2.04.102 3.06.918 12.144 9.286 18.777 14.083 20.103-5.715-4.592-9.694-8.776-9.797-16.328 0-6.94 2.96-12.246 11.02-14.083l9.286 37.35c-2.347.714-7.347 1.02-10.817 1.02-1.123 0-2.143 0-2.755-.102-16.94-1.735-24.9-17.552-24.9-31.226.102-15 18.062-32.043 21.94-36.33l3.98 17.756zm5.715 11.123c1.94-.306 3.878-.5 5.715-.5 9.184 0 16.02 4.082 17.348 9.9.408 2.04.612 3.98.612 5.92 0 9.9-5.715 17.96-14.5 21.838l-9.184-37.145zm52.86-17.45c1.53-1.43 3.47-2.143 5.102-2.143 2.55 0 4.592 1.633 4.592 5.4 0 5.817-6.123 12.756-10 16.123l.306-19.4zm17.45 3.266c0-6.837-3.368-9.184-7.45-9.184-3.368 0-7.143 1.633-10 3.572V55.35h-2.347v63.27c5.613-3.674 19.797-16.226 19.797-22.96zm11.25-41.534c1.53-1.43 3.47-2.143 5.102-2.143 2.55 0 4.592 1.633 4.592 5.4 0 5.817-6.123 12.756-10 16.123l.306-19.4zm17.45 3.266c0-6.837-3.368-9.184-7.45-9.184-3.368 0-7.143 1.633-10 3.572V17.083h-2.347v63.27c5.613-3.674 19.797-16.226 19.797-22.96z" fill="#000" stroke="none"/></svg>