<svg xmlns="http://www.w3.org/2000/svg" xmlns:xlink="http://www.w3.org/1999/xlink" width="312.918" height="71.698" viewBox="0 0 939.153 215.026" xmlns:v="https://vecta.io/nano"><g fill="none" stroke="#000" fill-rule="evenodd"><path d="M0 142.404h939.153M0 116.892h939.153M0 91.381h939.153M0 65.869h939.153M0 40.357h939.153" stroke-linecap="butt" stroke-width="2.392" stroke-linejoin="bevel"/><g fill="#000" stroke="none"><path d="M80.26 77.196c0 2.653 2.041 5.715 5.919 5.715 3.47 0 5.919-3.061 5.919-5.715 0-3.163-2.449-5.817-5.919-5.817-3.878 0-5.919 2.653-5.919 5.817zm0-22.961c0 2.653 2.041 5.511 5.919 5.511 3.47 0 5.919-2.857 5.919-5.511 0-3.163-2.449-5.715-5.919-5.715-3.878 0-5.919 2.551-5.919 5.715zm-60.514 70.311c23.063-11.225 56.228-27.043 56.228-59.596 0-15.613-14.083-25.002-28.471-25.002-10.103 0-25.92 9.49-25.92 22.552 0 7.551 6.225 11.123 12.246 11.123 5.817 0 11.429-3.266 11.429-9.694 0-4.49-3.368-8.47-8.266-8.47-.612 0-1.327.102-2.041.204-1.327.204-3.163.816-3.878.816-2.245 0-3.266-1.225-3.266-2.755 0-.51.102-.918.306-1.429 3.47-5.613 8.572-8.062 15.817-9.184.714-.102 1.429-.204 2.143-.204 10.817 0 15.103 13.266 15.103 22.859 0 6.837-2.551 16.94-6.531 23.879-9.082 15.919-19.389 22.348-35.512 32.655zm293.305 67.54h-5.865v20.327h-3.489v-20.327h-4.12v-1.577l4.12-1.261v-1.282q0-8.493 7.42-8.493 1.829 0 4.288.736l-.904 2.796q-2.018-.652-3.447-.652-1.976 0-2.922 1.324-.946 1.303-.946 4.204v1.492h5.865z"/><use xlink:href="#B"/><path d="M585.425 209.323h-.189q-2.417 3.511-7.231 3.511-4.52 0-7.042-3.09-2.502-3.09-2.502-8.787 0-5.697 2.523-8.85 2.523-3.153 7.021-3.153 4.688 0 7.189 3.405h.273l-.147-1.661-.084-1.619v-9.375h3.489v32.709h-2.838zm-6.979.589q3.574 0 5.171-1.934 1.619-1.955 1.619-6.285v-.736q0-4.898-1.64-6.979-1.619-2.102-5.192-2.102-3.069 0-4.709 2.396-1.619 2.375-1.619 6.727 0 4.414 1.619 6.664 1.619 2.249 4.751 2.249zm37.586-9.039q0 5.634-2.838 8.808-2.838 3.153-7.841 3.153-3.09 0-5.487-1.45-2.396-1.45-3.7-4.162-1.303-2.712-1.303-6.348 0-5.634 2.817-8.766 2.817-3.153 7.82-3.153 4.835 0 7.673 3.216 2.859 3.216 2.859 8.703zm-17.553 0q0 4.414 1.766 6.727 1.766 2.312 5.192 2.312 3.426 0 5.192-2.291 1.787-2.312 1.787-6.748 0-4.393-1.787-6.664-1.766-2.291-5.234-2.291-3.426 0-5.171 2.249-1.745 2.249-1.745 6.706zm44.04 11.961q-5.003 0-7.757-3.069-2.733-3.09-2.733-8.724 0-5.781 2.775-8.934 2.796-3.153 7.946-3.153 1.661 0 3.321.357 1.661.357 2.607.841l-1.072 2.964q-1.156-.462-2.523-.757-1.366-.315-2.417-.315-7.021 0-7.021 8.955 0 4.246 1.703 6.517 1.724 2.27 5.087 2.27 2.88 0 5.907-1.24v3.09q-2.312 1.198-5.823 1.198zm21.042 0q-5.108 0-8.072-3.111-2.943-3.111-2.943-8.64 0-5.571 2.733-8.85 2.754-3.279 7.378-3.279 4.33 0 6.853 2.859 2.523 2.838 2.523 7.505v2.207h-15.871q.105 4.057 2.039 6.159 1.955 2.102 5.487 2.102 3.721 0 7.357-1.556v3.111q-1.85.799-3.511 1.135-1.64.357-3.973.357zm-.946-20.958q-2.775 0-4.435 1.808-1.64 1.808-1.934 5.003h12.045q0-3.3-1.471-5.045-1.471-1.766-4.204-1.766zm31.111 20.537V197.51q0-2.817-1.282-4.204-1.282-1.387-4.015-1.387-3.616 0-5.297 1.955-1.682 1.955-1.682 6.453v12.087h-3.489v-23.039h2.838l.568 3.153h.168q1.072-1.703 3.006-2.628 1.934-.946 4.309-.946 4.162 0 6.264 2.018 2.102 1.997 2.102 6.411v15.03zm18.078-2.459q.925 0 1.787-.126.862-.147 1.366-.294v2.67q-.568.273-1.682.441-1.093.189-1.976.189-6.685 0-6.685-7.042v-13.706h-3.3v-1.682l3.3-1.45 1.471-4.919h2.018v5.339h6.685v2.712h-6.685v13.559q0 2.081.988 3.195.988 1.114 2.712 1.114zm18.289-21q1.535 0 2.754.252l-.483 3.237q-1.429-.315-2.523-.315-2.796 0-4.793 2.27-1.976 2.27-1.976 5.655v12.36h-3.489v-23.039h2.88l.399 4.267h.168q1.282-2.249 3.09-3.468 1.808-1.219 3.973-1.219z"/><use xlink:href="#B" x="419.858"/><path d="M764.609 212.413h-3.489v-32.709h3.489z"/><use xlink:href="#C"/></g><path d="M630.62 14.845h74.144" stroke-linecap="butt" stroke-width="2.392" stroke-linejoin="bevel"/><use xlink:href="#C" x="351.585" y="-51.024" fill="#000" stroke="none"/></g><defs ><path id="B" d="M331.466 212.413l-.694-3.279h-.168q-1.724 2.165-3.447 2.943-1.703.757-4.267.757-3.426 0-5.381-1.766-1.934-1.766-1.934-5.024 0-6.979 11.162-7.315l3.91-.126v-1.429q0-2.712-1.177-3.994-1.156-1.303-3.721-1.303-2.88 0-6.517 1.766l-1.072-2.67q1.703-.925 3.721-1.45 2.039-.526 4.078-.526 4.12 0 6.096 1.829 1.997 1.829 1.997 5.865v15.724zm-7.883-2.459q3.258 0 5.108-1.787 1.871-1.787 1.871-5.003v-2.081l-3.489.147q-4.162.147-6.012 1.303-1.829 1.135-1.829 3.553 0 1.892 1.135 2.88 1.156.988 3.216.988z"/><path id="C" d="M294.183 66.073c0 9.797 12.756 12.552 21.838 12.552h.51c8.572-.102 21.124-2.857 21.124-12.756 0-8.572-12.858-12.654-21.532-12.654-9.082 0-21.94 4.082-21.94 12.858zm13.266-8.062c1.531-1.531 4.184-2.347 6.837-2.347 2.143 0 4.286.51 6.021 1.735 3.266 2.347 5.817 8.368 5.817 12.756 0 1.123-.102 2.143-.51 2.959-1.123 2.245-5.204 3.878-8.98 3.878-1.633 0-3.266-.306-4.49-1.02-3.674-2.041-6.837-7.347-6.837-12.144 0-2.143.612-4.184 2.143-5.817z"/></defs></svg>