<svg xmlns="http://www.w3.org/2000/svg" xmlns:xlink="http://www.w3.org/1999/xlink" width="570.323" height="120.484" viewBox="0 0 1711.683 361.342" xmlns:v="https://vecta.io/nano"><style><![CDATA[.B{stroke-linecap:butt}.C{stroke-width:2.392}.D{stroke-linejoin:bevel}.E{stroke:none}]]></style><g fill="none" fill-rule="evenodd" stroke="#000"><g class="B C D"><path d="M0 231.643h271.86M0 206.13h271.86M0 180.62h271.86M0 155.108h271.86M0 129.596h271.86m39.862 102.047H564.45M311.722 206.13H564.45m-252.728-25.5H564.45m-252.728-25.512H564.45m-252.728-25.512H564.45m39.86 102.047h251.93M604.3 206.13h251.93m-251.93-25.5h251.93M604.3 155.108h251.93M604.3 129.596h251.93m40.66 102.047h246.348M896.9 206.13h246.348M896.9 180.62h246.348M896.9 155.108h246.348M896.9 129.596h246.348m39.852 102.047h246.348M1183.1 206.13h246.348m-246.348-25.5h246.348M1183.1 155.108h246.348M1183.1 129.596h246.348m40.67 102.047h241.565"/><path d="M1470.118 206.13h241.565m-241.565-25.5h241.565m-241.565-25.512h241.565m-241.565-25.512h241.565"/></g><g fill="#000" class="E"><path d="M46.176 242.46c-7.756.102-12.96 6.633-12.96 11.53 0 11.43 11.123 17.552 20 17.552 8.164 0 20.614-5.817 20.614-17.042 0-1.327-.102-2.653-.5-4.082l-5.204-21.022C81.7 223.684 87.2 208.683 87.3 200.723v-.5c0-15.5-10.205-23.063-21.022-24.695-1.123-.204-2.45-.204-3.776-.204-2.755 0-5.715.306-7.347.918l-4.898-18.675c12.348-12.552 19.9-26.43 19.9-42.452v-.612c-.204-17.654-11.633-34.186-15.92-34.9-4.592 1.53-15.5 19.287-15.715 32.96v1.123c0 13.062 3.368 20.614 6.02 31.33-8.266 8.572-25.4 26.94-25.4 46.84 0 21.022 13.674 39.4 36.94 39.4a46.78 46.78 0 0 0 9.694-1.02l5.102 21.022a11.72 11.72 0 0 1 .408 3.163c0 8.878-9.388 14.695-17.858 14.695-5.306 0-11.633-4.592-12.144-8.674 1.225.918 2.653 1.225 4.082 1.225 5.102 0 10.817-4.5 10.817-8.878 0-5.102-3.572-10.103-10-10.307zM57.3 90.818c4.592 1.123 7.96 13.572 7.96 21.43-.102 11.123-12.042 23.675-18.675 30.818-2.04-8.368-4.388-14.5-4.388-27.247 0-13.47 11.327-24.593 15.103-25.002zm-5.102 86.434c-8.776 3.368-12.144 10-12.144 18.777 0 1.02 0 2.04.102 3.06.918 12.144 9.286 18.777 14.083 20.103-5.715-4.592-9.694-8.776-9.797-16.328 0-6.94 2.96-12.246 11.02-14.083l9.286 37.35c-2.347.714-7.347 1.02-10.817 1.02-1.123 0-2.143 0-2.755-.102-16.94-1.735-24.9-17.552-24.9-31.226.102-15 18.062-32.043 21.94-36.33l3.98 17.756zm5.715 11.123c1.94-.306 3.878-.5 5.715-.5 9.184 0 16.02 4.082 17.348 9.9.408 2.04.612 3.98.612 5.92 0 9.9-5.715 17.96-14.5 21.838l-9.184-37.145zM357.9 242.46c-7.756.102-12.96 6.633-12.96 11.53 0 11.43 11.123 17.552 20 17.552 8.164 0 20.614-5.817 20.614-17.042 0-1.327-.102-2.653-.5-4.082l-5.204-21.022c13.572-5.715 19.083-20.716 19.185-28.675v-.5c0-15.5-10.205-23.063-21.022-24.695-1.123-.204-2.45-.204-3.776-.204-2.755 0-5.715.306-7.347.918l-4.898-18.675c12.348-12.552 19.9-26.43 19.9-42.452v-.612c-.204-17.654-11.633-34.186-15.92-34.9-4.592 1.53-15.5 19.287-15.715 32.96v1.123c0 13.062 3.368 20.614 6.02 31.33-8.266 8.572-25.4 26.94-25.4 46.84 0 21.022 13.674 39.4 36.94 39.4a46.78 46.78 0 0 0 9.694-1.02l5.102 21.022a11.72 11.72 0 0 1 .408 3.163c0 8.878-9.388 14.695-17.858 14.695-5.306 0-11.633-4.592-12.144-8.674 1.225.918 2.653 1.225 4.082 1.225 5.102 0 10.817-4.5 10.817-8.878 0-5.102-3.572-10.103-10-10.307zm11.123-151.642c4.592 1.123 7.96 13.572 7.96 21.43-.102 11.123-12.042 23.675-18.675 30.818-2.04-8.368-4.388-14.5-4.388-27.247 0-13.47 11.327-24.593 15.103-25.002zm-5.102 86.434c-8.776 3.368-12.144 10-12.144 18.777 0 1.02 0 2.04.102 3.06.918 12.144 9.286 18.777 14.083 20.103-5.715-4.592-9.694-8.776-9.797-16.328 0-6.94 2.96-12.246 11.02-14.083l9.286 37.35c-2.347.714-7.347 1.02-10.817 1.02-1.123 0-2.143 0-2.755-.102-16.94-1.735-24.9-17.552-24.9-31.226.102-15 18.062-32.043 21.94-36.33l3.98 17.756zm5.715 11.123c1.94-.306 3.878-.5 5.715-.5 9.184 0 16.02 4.082 17.348 9.9.408 2.04.612 3.98.612 5.92 0 9.9-5.715 17.96-14.5 21.838l-9.184-37.145z"/><use xlink:href="#B"/><path d="M650.487 242.46c-7.756.102-12.96 6.633-12.96 11.53 0 11.43 11.123 17.552 20 17.552 8.164 0 20.614-5.817 20.614-17.042 0-1.327-.102-2.653-.5-4.082l-5.204-21.022c13.572-5.715 19.083-20.716 19.185-28.675v-.5c0-15.51-10.205-23.063-21.022-24.695-1.123-.204-2.45-.204-3.776-.204-2.755 0-5.715.306-7.347.918l-4.898-18.675c12.348-12.552 19.9-26.43 19.9-42.452v-.612c-.204-17.654-11.633-34.186-15.92-34.9-4.592 1.53-15.51 19.287-15.715 32.96v1.123c0 13.062 3.368 20.614 6.02 31.33-8.266 8.572-25.4 26.94-25.4 46.84 0 21.022 13.674 39.4 36.94 39.4a46.78 46.78 0 0 0 9.694-1.02l5.102 21.022c.306 1.123.408 2.143.408 3.163 0 8.878-9.388 14.695-17.858 14.695-5.306 0-11.633-4.592-12.144-8.674 1.225.918 2.653 1.225 4.082 1.225 5.102 0 10.817-4.5 10.817-8.878 0-5.102-3.572-10.103-10-10.307zM661.6 90.818c4.592 1.123 7.96 13.572 7.96 21.43-.102 11.123-12.042 23.675-18.675 30.818-2.04-8.368-4.388-14.49-4.388-27.247 0-13.47 11.327-24.593 15.103-25.002zm-5.102 86.434c-8.776 3.368-12.144 10-12.144 18.777 0 1.02 0 2.04.102 3.06.918 12.144 9.286 18.777 14.083 20.103-5.715-4.592-9.694-8.776-9.797-16.328 0-6.94 2.96-12.246 11.02-14.083l9.286 37.35c-2.347.714-7.347 1.02-10.817 1.02-1.123 0-2.143 0-2.755-.102-16.94-1.735-24.9-17.552-24.9-31.226.102-15 18.062-32.043 21.94-36.33l3.98 17.756zm5.715 11.123c1.94-.306 3.878-.5 5.715-.5 9.184 0 16.02 4.082 17.348 9.9.408 2.04.612 3.98.612 5.92 0 9.9-5.715 17.96-14.49 21.838l-9.184-37.145z"/><use xlink:href="#B" x="302.156" y="-217.648"/><use xlink:href="#C"/><use xlink:href="#C" x="286.21"/><use xlink:href="#B" x="839.498" y="-53.415"/><use xlink:href="#C" x="573.218"/><path d="M1527.303 119.532c.102-.408.102-.714.102-1.123 0-2.45-1.94-4.5-3.674-5.51 2.347-.714 5.102-3.674 5.613-6.02.102-.408.102-.816.102-1.225 0-3.47-3.163-5.51-6.735-5.51-4.184 0-8.674 3.06-9.592 7.45-.102.612-.204 1.225-.204 1.837 0 2.143.918 3.674 2.55 4.694-2.04.714-5.41 3.368-5.715 5.41-.204.816-.204 1.53-.204 2.245 0 4.082 2.55 7.04 6.94 7.04 5.613 0 9.694-3.98 10.817-9.286zm-.714-12.144c-.306 1.94-1.837 3.776-3.98 4.5-2.245-1.735-5.817-3.47-5.817-5.51v-.408c.714-2.45 3.163-4.388 5.613-4.388 2.857 0 4.388 1.53 4.388 4.184 0 .5-.102 1.02-.204 1.633zM1523.017 123c-.5 2.755-3.572 4.184-6.123 4.184-3.266 0-5-2.45-5-5.51 0-.612.102-1.225.204-1.94.408-1.94 1.837-3.368 4.388-4.5 2.143 2.143 6.633 4.694 6.633 7.245 0 .204-.102.306-.102.5z"/></g><path d="M131.545 257.155h74.144" class="B C D"/><g fill="#000" class="E"><use xlink:href="#D"/><use xlink:href="#D" x="304.547" y="-89.292"/></g><path d="M734.262 257.155h74.144m-74.144 25.512h74.144m-74.144 25.513h74.144m-74.144 25.52h74.144" class="B C D"/><use xlink:href="#D" x="602.717" y="89.29" fill="#000" class="E"/><path d="M1014.094 104.084h74.144" class="B C D"/><use xlink:href="#D" x="882.549" y="-153.072" fill="#000" class="E"/><path d="M1307.48 104.084h74.144m-74.144-25.512h74.144M1307.48 53.06h74.144m-74.144-25.5h74.144" class="B C D"/><g fill="#000" class="E"><use xlink:href="#D" x="1175.935" y="-242.363"/><use xlink:href="#D" x="1444.607" y="-63.78"/></g></g><defs ><path id="B" d="M368.907 289.345c.102-.408.102-.714.102-1.123 0-2.45-1.94-4.5-3.674-5.51 2.347-.714 5.102-3.674 5.613-6.02.102-.408.102-.816.102-1.225 0-3.47-3.163-5.51-6.735-5.51-4.184 0-8.674 3.06-9.592 7.45-.102.612-.204 1.225-.204 1.837 0 2.143.918 3.674 2.55 4.694-2.04.714-5.41 3.368-5.715 5.41-.204.816-.204 1.53-.204 2.245 0 4.082 2.55 7.04 6.94 7.04 5.613 0 9.694-3.98 10.817-9.286zm-.714-12.144c-.306 1.94-1.837 3.776-3.98 4.5-2.245-1.735-5.817-3.47-5.817-5.51v-.408c.714-2.45 3.163-4.388 5.613-4.388 2.857 0 4.388 1.53 4.388 4.184 0 .5-.102 1.02-.204 1.633zm-3.572 15.613c-.5 2.755-3.572 4.184-6.123 4.184-3.266 0-5-2.45-5-5.51 0-.612.102-1.225.204-1.94.408-1.94 1.837-3.368 4.388-4.5 2.143 2.143 6.633 4.694 6.633 7.245 0 .204-.102.306-.102.5z"/><path id="C" d="M977.16 166.435c0 2.653 2.04 5.715 5.92 5.715 3.47 0 5.92-3.06 5.92-5.715 0-3.163-2.45-5.817-5.92-5.817-3.878 0-5.92 2.653-5.92 5.817zm0-22.96c0 2.653 2.04 5.51 5.92 5.51 3.47 0 5.92-2.857 5.92-5.51 0-3.163-2.45-5.715-5.92-5.715-3.878 0-5.92 2.55-5.92 5.715zm-60.514 70.31c23.063-11.225 56.228-27.043 56.228-59.596 0-15.613-14.083-25.002-28.47-25.002-10.103 0-25.92 9.5-25.92 22.552 0 7.55 6.225 11.123 12.246 11.123 5.817 0 11.43-3.266 11.43-9.694 0-4.5-3.368-8.47-8.266-8.47-.612 0-1.327.102-2.04.204-1.327.204-3.163.816-3.878.816-2.245 0-3.266-1.225-3.266-2.755 0-.5.102-.918.306-1.43 3.47-5.613 8.572-8.062 15.817-9.184.714-.102 1.43-.204 2.143-.204 10.817 0 15.103 13.266 15.103 22.86 0 6.837-2.55 16.94-6.53 23.88-9.082 15.92-19.39 22.348-35.512 32.655l.612 2.245z"/><path id="D" d="M146.693 257.36c0 9.797 12.756 12.552 21.838 12.552h.5c8.572-.102 21.124-2.857 21.124-12.756 0-8.572-12.858-12.654-21.532-12.654-9.082 0-21.94 4.082-21.94 12.858zm13.266-8.062c1.53-1.53 4.184-2.347 6.837-2.347 2.143 0 4.286.5 6.02 1.735 3.266 2.347 5.817 8.368 5.817 12.756 0 1.123-.102 2.143-.5 2.96-1.123 2.245-5.204 3.878-8.98 3.878-1.633 0-3.266-.306-4.5-1.02-3.674-2.04-6.837-7.347-6.837-12.144 0-2.143.612-4.184 2.143-5.817z"/></defs></svg>