<svg xmlns="http://www.w3.org/2000/svg" xmlns:xlink="http://www.w3.org/1999/xlink" width="228.994" height="158.736" viewBox="0 0 687.275 476.063" xmlns:v="https://vecta.io/nano"><style><![CDATA[.B{stroke-linecap:butt}.C{stroke-linejoin:bevel}.D{fill:#000}.E{stroke:none}.F{stroke-width:2.392}]]></style><g fill="none" stroke="#000" fill-rule="evenodd"><path d="M33.484 65.776v344.409" stroke-width="3.189" class="B C"/><path d="M0 238.667c9.184 6.544 15.307 15.498 15.307 27.897 0 16.876-12.926 47.873-12.926 76.459 0 18.943 5.442 39.952 22.79 66.127-8.504-15.498-14.286-28.242-14.286-45.462v-4.133c1.02-25.831 14.286-55.45 14.286-74.737 0-24.109-6.803-34.097-24.491-46.84 18.028-11.71 24.491-23.42 24.491-46.84 0-19.287-13.266-48.906-14.286-74.737v-3.789c0-16.876 6.463-29.619 14.286-45.462v-1.378c-17.348 24.797-22.79 48.906-22.79 67.16 0 28.93 12.926 59.583 12.926 76.459 0 12.399-6.123 21.353-15.307 27.897z" class="D E"/><path d="M31.889 167.823h538.14m-538.14-25.512h538.14M31.889 116.8h538.14M31.889 91.288h538.14M31.889 65.776h538.14" class="B C F"/><path d="M78.066 178.64c-7.756.102-12.96 6.633-12.96 11.531 0 11.429 11.123 17.552 20.001 17.552 8.164 0 20.614-5.817 20.614-17.042 0-1.327-.102-2.653-.51-4.082l-5.204-21.022c13.572-5.715 19.083-20.716 19.185-28.675v-.51c0-15.511-10.205-23.063-21.022-24.695-1.123-.204-2.449-.204-3.776-.204-2.755 0-5.715.306-7.347.918l-4.898-18.675c12.348-12.552 19.899-26.43 19.899-42.452v-.612c-.204-17.654-11.633-34.186-15.919-34.9-4.592 1.531-15.511 19.287-15.715 32.961v1.123c0 13.062 3.368 20.614 6.021 31.329-8.266 8.572-25.41 26.94-25.41 46.84 0 21.022 13.674 39.39 36.941 39.39a46.78 46.78 0 0 0 9.694-1.02l5.102 21.022c.306 1.123.408 2.143.408 3.163 0 8.878-9.388 14.695-17.858 14.695-5.306 0-11.633-4.592-12.144-8.674 1.225.918 2.653 1.225 4.082 1.225 5.102 0 10.817-4.49 10.817-8.878 0-5.102-3.572-10.103-10.001-10.307zM89.189 26.998c4.592 1.123 7.96 13.572 7.96 21.43-.102 11.123-12.042 23.675-18.675 30.818-2.041-8.368-4.388-14.491-4.388-27.247 0-13.47 11.327-24.593 15.103-25.002zm-5.102 86.434c-8.776 3.368-12.144 10.001-12.144 18.777 0 1.02 0 2.041.102 3.061.918 12.144 9.286 18.777 14.083 20.103-5.715-4.592-9.694-8.776-9.797-16.328 0-6.939 2.959-12.246 11.021-14.083l9.286 37.349c-2.347.714-7.347 1.02-10.817 1.02-1.123 0-2.143 0-2.755-.102-16.94-1.735-24.9-17.552-24.9-31.226.102-15.001 18.062-32.043 21.94-36.329zm5.715 11.123c1.939-.306 3.878-.51 5.715-.51 9.184 0 16.021 4.082 17.348 9.899.408 2.041.612 3.98.612 5.919 0 9.899-5.715 17.96-14.491 21.838z" class="D E"/><path d="M31.889 410.185h538.14m-538.14-25.511h538.14m-538.14-25.512h538.14M31.889 333.65h538.14m-538.14-25.512h538.14" class="B C F"/><path d="M112.149 344.977c0 2.653 2.041 5.715 5.919 5.715 3.47 0 5.919-3.061 5.919-5.715 0-3.163-2.449-5.817-5.919-5.817-3.878 0-5.919 2.653-5.919 5.817zm0-22.961c0 2.653 2.041 5.511 5.919 5.511 3.47 0 5.919-2.857 5.919-5.511 0-3.163-2.449-5.715-5.919-5.715-3.878 0-5.919 2.551-5.919 5.715zm-60.514 70.311c23.063-11.225 56.228-27.043 56.228-59.596 0-15.613-14.083-25.002-28.471-25.002-10.103 0-25.92 9.49-25.92 22.552 0 7.551 6.225 11.123 12.246 11.123 5.817 0 11.429-3.266 11.429-9.694 0-4.49-3.368-8.47-8.266-8.47-.612 0-1.327.102-2.041.204-1.327.204-3.163.816-3.878.816-2.245 0-3.266-1.225-3.266-2.755 0-.51.102-.918.306-1.429 3.47-5.613 8.572-8.062 15.817-9.184.714-.102 1.429-.204 2.143-.204 10.817 0 15.103 13.266 15.103 22.859 0 6.837-2.551 16.94-6.531 23.879-9.082 15.919-19.389 22.348-35.512 32.655z" class="D E"/><path d="M372.312 209.28l89.291 19.134m-89.291 41.456l89.291-22.323" class="B C F"/><path d="M508.091 249.89h-.189q-2.417 3.511-7.231 3.511-4.52 0-7.042-3.09-2.502-3.09-2.502-8.787 0-5.697 2.523-8.85 2.523-3.153 7.021-3.153 4.688 0 7.189 3.405h.273l-.147-1.661-.084-1.619v-9.375h3.489v32.709h-2.838zm-6.979.589q3.574 0 5.171-1.934 1.619-1.955 1.619-6.285v-.736q0-4.898-1.64-6.979-1.619-2.102-5.192-2.102-3.069 0-4.709 2.396-1.619 2.375-1.619 6.727 0 4.414 1.619 6.664 1.619 2.249 4.751 2.249zm37.586-9.039q0 5.634-2.838 8.808-2.838 3.153-7.841 3.153-3.09 0-5.487-1.45-2.396-1.45-3.7-4.162-1.303-2.712-1.303-6.348 0-5.634 2.817-8.766 2.817-3.153 7.82-3.153 4.835 0 7.673 3.216 2.859 3.216 2.859 8.703zm-17.553 0q0 4.414 1.766 6.727 1.766 2.312 5.192 2.312 3.426 0 5.192-2.291 1.787-2.312 1.787-6.748 0-4.393-1.787-6.664-1.766-2.291-5.234-2.291-3.426 0-5.171 2.249-1.745 2.249-1.745 6.706zm44.04 11.961q-5.003 0-7.757-3.069-2.733-3.09-2.733-8.724 0-5.781 2.775-8.934 2.796-3.153 7.946-3.153 1.661 0 3.321.357 1.661.357 2.607.841l-1.072 2.964q-1.156-.462-2.523-.757-1.366-.315-2.417-.315-7.021 0-7.021 8.955 0 4.246 1.703 6.517 1.724 2.27 5.087 2.27 2.88 0 5.907-1.24v3.09q-2.312 1.198-5.823 1.198zm21.042 0q-5.108 0-8.072-3.111-2.943-3.111-2.943-8.64 0-5.571 2.733-8.85 2.754-3.279 7.378-3.279 4.33 0 6.853 2.859 2.523 2.838 2.523 7.505v2.207h-15.871q.105 4.057 2.039 6.159 1.955 2.102 5.487 2.102 3.721 0 7.357-1.556v3.111q-1.85.799-3.511 1.135-1.64.357-3.973.357zm-.946-20.958q-2.775 0-4.435 1.808-1.64 1.808-1.934 5.003h12.045q0-3.3-1.471-5.045-1.471-1.766-4.204-1.766zm31.111 20.537v-14.904q0-2.817-1.282-4.204-1.282-1.387-4.015-1.387-3.616 0-5.297 1.955-1.682 1.955-1.682 6.453v12.087h-3.489v-23.039h2.838l.568 3.153h.168q1.072-1.703 3.006-2.628 1.934-.946 4.309-.946 4.162 0 6.264 2.018 2.102 1.997 2.102 6.411v15.03zm18.078-2.459q.925 0 1.787-.126.862-.147 1.366-.294v2.67q-.568.273-1.682.441-1.093.189-1.976.189-6.685 0-6.685-7.042v-13.706h-3.3v-1.682l3.3-1.45 1.471-4.919h2.018v5.339h6.685v2.712h-6.685v13.559q0 2.081.988 3.195.988 1.114 2.712 1.114zm18.289-21q1.535 0 2.754.252l-.483 3.237q-1.429-.315-2.523-.315-2.796 0-4.793 2.27-1.976 2.27-1.976 5.655v12.36h-3.489v-23.039h2.88l.399 4.267h.168q1.282-2.249 3.09-3.468 1.808-1.219 3.973-1.219zm21.231 23.459l-.694-3.279h-.168q-1.724 2.165-3.447 2.943-1.703.757-4.267.757-3.426 0-5.381-1.766-1.934-1.766-1.934-5.024 0-6.979 11.162-7.315l3.91-.126v-1.429q0-2.712-1.177-3.994-1.156-1.303-3.721-1.303-2.88 0-6.517 1.766l-1.072-2.67q1.703-.925 3.721-1.45 2.039-.526 4.078-.526 4.12 0 6.096 1.829 1.997 1.829 1.997 5.865v15.724zm-7.883-2.459q3.258 0 5.108-1.787 1.871-1.787 1.871-5.003v-2.081l-3.489.147q-4.162.147-6.012 1.303-1.829 1.135-1.829 3.553 0 1.892 1.135 2.88 1.156.988 3.216.988zm21.168 2.459h-3.489v-32.709h3.489z" class="D E"/><path d="M281.427 193.335h74.144M281.427 40.264h74.144m-74.144-25.512h74.144" class="B C F"/><g class="D E"><use xlink:href="#B"/><use xlink:href="#B" y="89.292"/><use xlink:href="#B" y="178.583"/></g><path d="M281.427 435.697h74.144m-74.144 25.512h74.144m-74.144-178.583h74.144" class="B C F"/><g class="D E"><use xlink:href="#B" y="446.457"/><use xlink:href="#B" y="357.166"/><use xlink:href="#B" y="267.874"/></g></g><defs ><path id="B" d="M296.574 14.956c0 9.797 12.756 12.552 21.838 12.552h.51c8.572-.102 21.124-2.857 21.124-12.756 0-8.572-12.858-12.654-21.532-12.654-9.082 0-21.94 4.082-21.94 12.858zm13.266-8.062c1.531-1.531 4.184-2.347 6.837-2.347 2.143 0 4.286.51 6.021 1.735 3.266 2.347 5.817 8.368 5.817 12.756 0 1.123-.102 2.143-.51 2.959-1.123 2.245-5.204 3.878-8.98 3.878-1.633 0-3.266-.306-4.49-1.02-3.674-2.041-6.837-7.347-6.837-12.144 0-2.143.612-4.184 2.143-5.817z"/></defs></svg>