<svg xmlns="http://www.w3.org/2000/svg" xmlns:xlink="http://www.w3.org/1999/xlink" width="491.694" height="79.68" viewBox="0 0 1475.699 238.97" xmlns:v="https://vecta.io/nano"><g fill="none" stroke="#000" fill-rule="evenodd"><path d="M782.097 52.186v102.047" stroke-linecap="butt" stroke-width="3.189" stroke-linejoin="bevel"/><g fill="#000" stroke="none"><use xlink:href="#B"/><use xlink:href="#C"/><use xlink:href="#D"/><use xlink:href="#B" x="161.043"/><use xlink:href="#C" x="161.043"/><use xlink:href="#D" x="161.043"/><use xlink:href="#B" x="323.681"/><use xlink:href="#C" x="323.681"/><path d="M516.09 231.418H512.6V198.71h3.489z"/><use xlink:href="#B" x="477.549"/><use xlink:href="#C" x="477.549"/><use xlink:href="#D" x="477.549"/><use xlink:href="#B" x="675.261"/><use xlink:href="#C" x="675.261"/><use xlink:href="#D" x="675.261"/><use xlink:href="#B" x="837.111"/><use xlink:href="#C" x="837.111"/><use xlink:href="#D" x="837.111"/><use xlink:href="#B" x="996.551"/><use xlink:href="#C" x="996.551"/><use xlink:href="#D" x="996.551"/><use xlink:href="#B" x="1161.581"/><use xlink:href="#C" x="1161.581"/><use xlink:href="#D" x="1161.581"/></g><path d="M0 154.233h1475.699M0 128.721h1475.699M0 103.21h1475.699M0 77.698h1475.699M0 52.186h1475.699" stroke-linecap="butt" stroke-linejoin="bevel" stroke-width="2.392"/><g fill="#000" stroke="none"><path d="M46.177 165.05c-7.756.102-12.96 6.633-12.96 11.531 0 11.429 11.123 17.552 20.001 17.552 8.164 0 20.614-5.817 20.614-17.042 0-1.327-.102-2.653-.51-4.082l-5.204-21.022c13.572-5.715 19.083-20.716 19.185-28.675v-.51c0-15.511-10.205-23.063-21.022-24.695-1.123-.204-2.449-.204-3.776-.204-2.755 0-5.715.306-7.347.918l-4.898-18.675c12.348-12.552 19.899-26.43 19.899-42.452v-.612c-.204-17.654-11.633-34.186-15.919-34.9-4.592 1.531-15.511 19.287-15.715 32.961v1.123c0 13.062 3.368 20.614 6.021 31.329-8.266 8.572-25.41 26.94-25.41 46.84 0 21.022 13.674 39.39 36.941 39.39a46.78 46.78 0 0 0 9.694-1.02l5.102 21.022c.306 1.123.408 2.143.408 3.163 0 8.878-9.388 14.695-17.858 14.695-5.306 0-11.633-4.592-12.144-8.674 1.225.918 2.653 1.225 4.082 1.225 5.102 0 10.817-4.49 10.817-8.878 0-5.102-3.572-10.103-10.001-10.307zM57.3 13.408c4.592 1.123 7.96 13.572 7.96 21.43-.102 11.123-12.042 23.675-18.675 30.818-2.041-8.368-4.388-14.491-4.388-27.247 0-13.47 11.327-24.593 15.103-25.002zm-5.102 86.434c-8.776 3.368-12.144 10.001-12.144 18.777 0 1.02 0 2.041.102 3.061.918 12.144 9.286 18.777 14.083 20.103-5.715-4.592-9.694-8.776-9.797-16.328 0-6.939 2.959-12.246 11.021-14.083l9.286 37.349c-2.347.714-7.347 1.02-10.817 1.02-1.123 0-2.143 0-2.755-.102-16.94-1.735-24.9-17.552-24.9-31.226.102-15.001 18.062-32.043 21.94-36.329zm5.715 11.123c1.939-.306 3.878-.51 5.715-.51 9.184 0 16.021 4.082 17.348 9.899.408 2.041.612 3.98.612 5.919 0 9.899-5.715 17.96-14.491 21.838z"/><use xlink:href="#E"/><use xlink:href="#F"/><use xlink:href="#F" x="153.071"/><use xlink:href="#E" x="676.061"/><use xlink:href="#G"/><use xlink:href="#G" x="167.421"/><use xlink:href="#H"/><use xlink:href="#G" x="330.059"/><path d="M451.993 119.027c1.531-1.429 3.47-2.143 5.102-2.143 2.551 0 4.592 1.633 4.592 5.409 0 5.817-6.123 12.756-10.001 16.123zm17.45 3.266c0-6.837-3.368-9.184-7.449-9.184-3.368 0-7.143 1.633-10.001 3.572V81.984h-2.347v63.269c5.613-3.674 19.797-16.226 19.797-22.961z"/><use xlink:href="#G" x="487.116"/><use xlink:href="#G" x="675.266"/><use xlink:href="#G" x="843.484"/><use xlink:href="#H" x="676.063"/><use xlink:href="#G" x="996.555" y="-89.292"/><use xlink:href="#G" x="1161.585"/><path d="M1300.93 163.52V108.72l-15.613 5.511V93.719h-2.551v54.799l15.613-5.409v20.409zm-15.613-41.023l13.062-4.796v17.144l-13.062 4.694z"/></g></g><defs ><path id="B" d="M157.283 225.133q0 3.216-2.396 4.961-2.396 1.745-6.727 1.745-4.583 0-7.147-1.45v-3.237q1.661.841 3.553 1.324 1.913.483 3.679.483 2.733 0 4.204-.862 1.471-.883 1.471-2.67 0-1.345-1.177-2.291-1.156-.967-4.541-2.27-3.216-1.198-4.583-2.081-1.345-.904-2.018-2.039-.652-1.135-.652-2.712 0-2.817 2.291-4.435 2.291-1.64 6.285-1.64 3.721 0 7.273 1.514l-1.24 2.838q-3.468-1.429-6.285-1.429-2.48 0-3.742.778-1.261.778-1.261 2.144 0 .925.462 1.577.483.652 1.535 1.24 1.051.589 4.036 1.703 4.099 1.492 5.529 3.006 1.45 1.514 1.45 3.805z"/><path id="C" d="M182.823 219.878q0 5.634-2.838 8.808-2.838 3.153-7.841 3.153-3.09 0-5.487-1.45-2.396-1.45-3.7-4.162-1.303-2.712-1.303-6.348 0-5.634 2.817-8.766 2.817-3.153 7.82-3.153 4.835 0 7.673 3.216 2.859 3.216 2.859 8.703zm-17.553 0q0 4.414 1.766 6.727 1.766 2.312 5.192 2.312 3.426 0 5.192-2.291 1.787-2.312 1.787-6.748 0-4.393-1.787-6.664-1.766-2.291-5.234-2.291-3.426 0-5.171 2.249-1.745 2.249-1.745 6.706z"/><path id="D" d="M192.409 231.418h-3.489V198.71h3.489z"/><path id="E" d="M370.301 220.574l-5.734 1.829v-10.38l5.734-1.928zm0-24.813v8.897l-5.734 1.977v-8.996h-1.483v9.392l-3.361 1.087v5.437l3.361-1.087v10.38l-3.361 1.087v5.437l3.361-1.087v8.502h1.483v-8.996l5.734-1.878v8.996h1.483v-9.392l3.46-1.087v-5.437l-3.46 1.087V209.7l3.46-1.087v-5.437l-3.46 1.087v-8.502z"/><path id="F" d="M524.252 233.03l3.46-2.768c4.3-3.46 9.886-5.882 9.886-11.369 0-3.806-2.521-6.426-6.228-6.426-2.274 0-2.867.247-5.338 3.065l.395-17.794h-2.175zm5.635-18.388c2.224 0 3.658 1.977 3.658 4.35 0 3.015-2.323 6.426-7.019 10.182-.346-1.038-.494-2.471-.494-4.251 0-.989.148-3.312.395-6.92.939-1.433 1.73-3.361 3.46-3.361z"/><path id="G" d="M146.693 128.926c0 9.797 12.756 12.552 21.838 12.552h.51c8.572-.102 21.124-2.857 21.124-12.756 0-8.572-12.858-12.654-21.532-12.654-9.082 0-21.94 4.082-21.94 12.858zm13.266-8.062c1.531-1.531 4.184-2.347 6.837-2.347 2.143 0 4.286.51 6.021 1.735 3.266 2.347 5.817 8.368 5.817 12.756 0 1.123-.102 2.143-.51 2.959-1.123 2.245-5.204 3.878-8.98 3.878-1.633 0-3.266-.306-4.49-1.02-3.674-2.041-6.837-7.347-6.837-12.144 0-2.143.612-4.184 2.143-5.817z"/><path id="H" d="M301.02 116.782l4.592-1.633c1.123-.408 1.633-2.959 1.633-5.306 0-2.041-.408-3.878-1.327-3.878-.102 0-.204.102-.306.102l-4.592 1.633V94.74c0-.51-.51-.714-1.02-.714s-1.02.204-1.02.714v13.674l-8.98 3.368V98.005c0-.51-.612-.714-1.123-.714s-1.02.204-1.02.714v14.491l-4.694 1.939c-.816.408-1.327 2.857-1.327 5.102 0 1.939.306 3.776 1.327 3.776l4.694-1.735v18.164l-4.694 1.735c-.918.408-1.327 2.755-1.327 5 0 2.143.408 4.082 1.327 4.082l4.694-1.837v13.776c0 .51.51.816 1.02.816s1.123-.306 1.123-.816v-14.593l8.98-3.266v15.001c0 .51.51.714 1.02.714s1.02-.204 1.02-.714v-15.715l4.592-1.633c1.123-.408 1.633-3.061 1.633-5.306 0-2.041-.408-3.776-1.327-3.776-.102 0-.204.102-.306.102l-4.592 1.633zm-2.041.816v18.062l-8.98 3.266v-18.062z"/></defs></svg>