<svg xmlns="http://www.w3.org/2000/svg" xmlns:xlink="http://www.w3.org/1999/xlink" width="491.694" height="192.786" viewBox="0 0 1475.699 578.187" xmlns:v="https://vecta.io/nano"><style><![CDATA[.B{fill:#000}.C{stroke:none}.D{stroke-linecap:butt}.E{stroke-width:2.392}.F{stroke-linejoin:bevel}]]></style><g fill="none" stroke="#000" fill-rule="evenodd"><g class="B C"><use xlink:href="#B"/><use xlink:href="#C"/><use xlink:href="#D"/><use xlink:href="#E"/><use xlink:href="#F"/><use xlink:href="#G"/><use xlink:href="#H"/><use xlink:href="#C" x="482.757"/><path d="M830.741 268.564h-3.489v-32.709h3.489z"/><use xlink:href="#I"/><use xlink:href="#H" x="328.468"/><use xlink:href="#G" x="499.571"/><path d="M1026.33 268.564h-3.489v-32.709h3.489zm124.111 0h-3.489v-32.709h3.489z"/><use xlink:href="#I" x="319.7"/><use xlink:href="#B" x="1151.222"/><use xlink:href="#C" x="1151.222"/><use xlink:href="#B" x="1.594" y="306.141"/><use xlink:href="#C" x="1.594" y="306.141"/><use xlink:href="#J"/><use xlink:href="#I" x="-505.738" y="306.141"/><use xlink:href="#H" x="-173.8" y="306.141"/><use xlink:href="#G" x="-2.697" y="306.141"/><path d="M524.062 574.705h-3.489v-32.709h3.489z"/><use xlink:href="#B" x="496.683" y="306.141"/><use xlink:href="#C" x="496.683" y="306.141"/><use xlink:href="#J" x="495.088"/><use xlink:href="#I" x="-10.65" y="306.141"/><use xlink:href="#B" x="825.152" y="306.141"/><use xlink:href="#C" x="825.152" y="306.141"/><use xlink:href="#D" x="829.93" y="306.141"/><use xlink:href="#E" x="829.93" y="306.141"/><use xlink:href="#F" x="835.517" y="306.141"/><use xlink:href="#G" x="835.517" y="306.141"/></g><path d="M0 153.112h1475.699M0 127.6h1475.699M0 102.089h1475.699M0 76.577h1475.699M0 51.065h1475.699" class="D E F"/><path d="M46.177 163.929c-7.756.102-12.96 6.633-12.96 11.531 0 11.429 11.123 17.552 20.001 17.552 8.164 0 20.614-5.817 20.614-17.042 0-1.327-.102-2.653-.51-4.082l-5.204-21.022c13.572-5.715 19.083-20.716 19.185-28.675v-.51c0-15.511-10.205-23.063-21.022-24.695-1.123-.204-2.449-.204-3.776-.204-2.755 0-5.715.306-7.347.918L50.26 79.025c12.348-12.552 19.899-26.43 19.899-42.452v-.612c-.204-17.654-11.633-34.186-15.919-34.9-4.592 1.531-15.511 19.287-15.715 32.961v1.123c0 13.062 3.368 20.614 6.021 31.329-8.266 8.572-25.41 26.94-25.41 46.84 0 21.022 13.674 39.39 36.941 39.39a46.78 46.78 0 0 0 9.694-1.02l5.102 21.022a11.72 11.72 0 0 1 .408 3.163c0 8.878-9.388 14.695-17.858 14.695-5.306 0-11.633-4.592-12.144-8.674 1.225.918 2.653 1.225 4.082 1.225 5.102 0 10.817-4.49 10.817-8.878 0-5.102-3.572-10.103-10.001-10.307zM57.3 12.287c4.592 1.123 7.96 13.572 7.96 21.43-.102 11.123-12.042 23.675-18.675 30.818-2.041-8.368-4.388-14.491-4.388-27.247 0-13.47 11.327-24.593 15.103-25.002zm-5.102 86.434c-8.776 3.368-12.144 10.001-12.144 18.777 0 1.02 0 2.041.102 3.061.918 12.144 9.286 18.777 14.083 20.103-5.715-4.592-9.694-8.776-9.797-16.328 0-6.939 2.959-12.246 11.021-14.083l9.286 37.349c-2.347.714-7.347 1.02-10.817 1.02-1.123 0-2.143 0-2.755-.102-16.94-1.735-24.9-17.552-24.9-31.226.102-15.001 18.062-32.043 21.94-36.329zm5.715 11.123c1.939-.306 3.878-.51 5.715-.51 9.184 0 16.021 4.082 17.348 9.899.408 2.041.612 3.98.612 5.919 0 9.899-5.715 17.96-14.491 21.838zm746.908-24.772a4.3 4.3 0 0 0 4.439 4.286c2.602 0 4.439-2.296 4.439-4.286 0-2.373-1.837-4.363-4.439-4.363-2.908 0-4.439 1.99-4.439 4.363zm0-17.22c0 1.99 1.531 4.133 4.439 4.133 2.602 0 4.439-2.143 4.439-4.133 0-2.373-1.837-4.286-4.439-4.286-2.908 0-4.439 1.913-4.439 4.286zm-45.386 52.733c17.297-8.419 42.171-20.282 42.171-44.697 0-11.71-10.562-18.751-21.353-18.751-7.577 0-19.44 7.118-19.44 16.914 0 5.664 4.669 8.342 9.184 8.342 4.363 0 8.572-2.449 8.572-7.271 0-3.368-2.526-6.352-6.199-6.352-.459 0-.995.077-1.531.153-.995.153-2.373.612-2.908.612-1.684 0-2.449-.918-2.449-2.066 0-.383.077-.689.23-1.071 2.602-4.209 6.429-6.046 11.863-6.888.536-.077 1.071-.153 1.607-.153 8.113 0 11.327 9.95 11.327 17.144 0 5.128-1.913 12.705-4.898 17.909-6.812 11.94-14.542 16.761-26.634 24.491zm668.78 34.262c-5.817.077-9.72 4.975-9.72 8.649 0 8.572 8.342 13.164 15.001 13.164 6.123 0 15.46-4.363 15.46-12.781 0-.995-.077-1.99-.383-3.061l-3.903-15.766c10.179-4.286 14.312-15.537 14.389-21.506v-.383c0-11.633-7.654-17.297-15.766-18.522-.842-.153-1.837-.153-2.832-.153-2.066 0-4.286.23-5.511.689l-3.674-14.006c9.261-9.414 14.924-19.823 14.924-31.839v-.459c-.153-13.241-8.725-25.639-11.94-26.175-3.444 1.148-11.633 14.465-11.786 24.721v.842c0 9.797 2.526 15.46 4.516 23.496-6.199 6.429-19.057 20.205-19.057 35.13 0 15.766 10.256 29.543 27.706 29.543a35.14 35.14 0 0 0 7.271-.765l3.827 15.766a8.77 8.77 0 0 1 .306 2.373c0 6.659-7.041 11.021-13.394 11.021-3.98 0-8.725-3.444-9.108-6.506.918.689 1.99.918 3.061.918 3.827 0 8.113-3.368 8.113-6.659 0-3.827-2.679-7.577-7.5-7.73zm8.342-113.732c3.444.842 5.97 10.179 5.97 16.072-.077 8.342-9.031 17.756-14.006 23.114-1.531-6.276-3.291-10.868-3.291-20.435 0-10.103 8.495-18.445 11.327-18.751zm-3.827 64.826c-6.582 2.526-9.108 7.5-9.108 14.083 0 .765 0 1.531.077 2.296.689 9.108 6.965 14.083 10.562 15.077-4.286-3.444-7.271-6.582-7.347-12.246 0-5.204 2.22-9.184 8.266-10.562l6.965 28.012c-1.76.536-5.511.765-8.113.765-.842 0-1.607 0-2.066-.077-12.705-1.301-18.675-13.164-18.675-23.42.077-11.251 13.547-24.032 16.455-27.247zm4.286 8.342c1.454-.23 2.908-.383 4.286-.383 6.888 0 12.016 3.061 13.011 7.424.306 1.531.459 2.985.459 4.439 0 7.424-4.286 13.47-10.868 16.379z" class="B C"/><path d="M0 465.632h1475.699M0 440.12h1475.699M0 414.608h1475.699M0 389.096h1475.699M0 363.585h1475.699" class="D E F"/><g class="B C"><path d="M46.177 476.449c-7.756.102-12.96 6.633-12.96 11.531 0 11.429 11.123 17.552 20.001 17.552 8.164 0 20.614-5.817 20.614-17.042 0-1.327-.102-2.653-.51-4.082l-5.204-21.022c13.572-5.715 19.083-20.716 19.185-28.675v-.51c0-15.511-10.205-23.063-21.022-24.695-1.123-.204-2.449-.204-3.776-.204-2.755 0-5.715.306-7.347.918l-4.898-18.675c12.348-12.552 19.899-26.43 19.899-42.452v-.612c-.204-17.654-11.633-34.186-15.919-34.9-4.592 1.531-15.511 19.287-15.715 32.961v1.123c0 13.062 3.368 20.614 6.021 31.329-8.266 8.572-25.41 26.94-25.41 46.84 0 21.022 13.674 39.39 36.941 39.39a46.78 46.78 0 0 0 9.694-1.02l5.102 21.022c.306 1.123.408 2.143.408 3.163 0 8.878-9.388 14.695-17.858 14.695-5.306 0-11.633-4.592-12.144-8.674 1.225.918 2.653 1.225 4.082 1.225 5.102 0 10.817-4.49 10.817-8.878 0-5.102-3.572-10.103-10.001-10.307zM57.3 324.807c4.592 1.123 7.96 13.572 7.96 21.43-.102 11.123-12.042 23.675-18.675 30.818-2.041-8.368-4.388-14.491-4.388-27.247 0-13.47 11.327-24.593 15.103-25.002zm-5.102 86.434c-8.776 3.368-12.144 10.001-12.144 18.777 0 1.02 0 2.041.102 3.061.918 12.144 9.286 18.777 14.083 20.103-5.715-4.592-9.694-8.776-9.797-16.328 0-6.939 2.959-12.246 11.021-14.083l9.286 37.349c-2.347.714-7.347 1.02-10.817 1.02-1.123 0-2.143 0-2.755-.102-16.94-1.735-24.9-17.552-24.9-31.226.102-15.001 18.062-32.043 21.94-36.329zm5.715 11.123c1.939-.306 3.878-.51 5.715-.51 9.184 0 16.021 4.082 17.348 9.899.408 2.041.612 3.98.612 5.919 0 9.899-5.715 17.96-14.491 21.838z"/><use xlink:href="#K"/><use xlink:href="#K" x="159.449" y="12.756"/></g><path d="M457.618 178.624h74.144" class="D E F"/><use xlink:href="#K" x="326.073" y="25.512" class="B C"/><path d="M624.242 178.624h74.144" class="D E F"/><g class="B C"><use xlink:href="#K" x="492.697" y="38.268"/><use xlink:href="#K" x="673.671" y="-102.047"/><use xlink:href="#K" x="833.917" y="-89.291"/><use xlink:href="#K" x="993.366" y="-102.047"/><use xlink:href="#K" x="1151.22" y="-63.779"/><use xlink:href="#K" y="312.52"/><use xlink:href="#K" x="164.232" y="299.764"/><use xlink:href="#K" x="330.059" y="287.008"/><use xlink:href="#K" x="495.089" y="312.52"/><use xlink:href="#K" x="659.321" y="299.764"/><use xlink:href="#K" x="823.553" y="312.52"/><use xlink:href="#K" x="987.785" y="325.276"/></g><path d="M1291.536 491.144h74.144" class="D E F"/><use xlink:href="#K" x="1159.99" y="338.032" class="B C"/></g><defs ><path id="B" d="M174.976 268.564v-14.988q0-2.754-1.177-4.12-1.177-1.387-3.658-1.387-3.258 0-4.814 1.871-1.556 1.871-1.556 5.76v12.865h-3.489v-14.988q0-2.754-1.177-4.12-1.177-1.387-3.679-1.387-3.279 0-4.814 1.976-1.514 1.955-1.514 6.432v12.087h-3.489v-23.039h2.838l.568 3.153h.168q.988-1.682 2.775-2.628 1.808-.946 4.036-.946 5.402 0 7.063 3.91h.168q1.03-1.808 2.985-2.859 1.955-1.051 4.456-1.051 3.91 0 5.844 2.018 1.955 1.997 1.955 6.411v15.03z"/><path id="C" d="M189.123 268.564h-3.489v-23.039h3.489zm-3.784-29.282q0-1.198.589-1.745.589-.568 1.471-.568.841 0 1.45.568.61.568.61 1.745 0 1.177-.61 1.766-.61.568-1.45.568-.883 0-1.471-.568-.589-.589-.589-1.766z"/><path id="D" d="M320.352 245.105q1.535 0 2.754.252l-.483 3.237q-1.429-.315-2.523-.315-2.796 0-4.793 2.27-1.976 2.27-1.976 5.655v12.36h-3.489v-23.039h2.88l.399 4.267h.168q1.282-2.249 3.09-3.468 1.808-1.219 3.973-1.219z"/><path id="E" d="M337.148 268.985q-5.108 0-8.072-3.111-2.943-3.111-2.943-8.64 0-5.571 2.733-8.85 2.754-3.279 7.378-3.279 4.33 0 6.853 2.859 2.523 2.838 2.523 7.505v2.207h-15.871q.105 4.057 2.039 6.159 1.955 2.102 5.487 2.102 3.721 0 7.357-1.556v3.111q-1.85.799-3.511 1.135-1.64.357-3.973.357zm-.946-20.958q-2.775 0-4.435 1.808-1.64 1.808-1.934 5.003h12.045q0-3.3-1.471-5.045-1.471-1.766-4.204-1.766zm-2.586-6.075q1.009-1.303 2.165-3.153 1.177-1.85 1.85-3.216h4.246v.441q-.925 1.366-2.754 3.363-1.829 1.997-3.174 3.09h-2.333z"/><path id="F" d="M486.566 265.474h-.189q-2.417 3.511-7.231 3.511-4.52 0-7.042-3.09-2.502-3.09-2.502-8.787 0-5.697 2.523-8.85 2.523-3.153 7.021-3.153 4.688 0 7.189 3.405h.273l-.147-1.661-.084-1.619v-9.375h3.489v32.709h-2.838zm-6.979.589q3.574 0 5.171-1.934 1.619-1.955 1.619-6.285v-.736q0-4.898-1.64-6.979-1.619-2.102-5.192-2.102-3.069 0-4.709 2.396-1.619 2.375-1.619 6.727 0 4.414 1.619 6.664 1.619 2.249 4.751 2.249z"/><path id="G" d="M517.173 257.024q0 5.634-2.838 8.808-2.838 3.153-7.841 3.153-3.09 0-5.487-1.45-2.396-1.45-3.7-4.162-1.303-2.712-1.303-6.348 0-5.634 2.817-8.766 2.817-3.153 7.82-3.153 4.835 0 7.673 3.216 2.859 3.216 2.859 8.703zm-17.553 0q0 4.414 1.766 6.727 1.766 2.312 5.192 2.312 3.426 0 5.192-2.291 1.787-2.312 1.787-6.748 0-4.393-1.787-6.664-1.766-2.291-5.234-2.291-3.426 0-5.171 2.249-1.745 2.249-1.745 6.706z"/><path id="H" d="M662.736 262.279q0 3.216-2.396 4.961-2.396 1.745-6.727 1.745-4.583 0-7.147-1.45v-3.237q1.661.841 3.553 1.324 1.913.483 3.679.483 2.733 0 4.204-.862 1.471-.883 1.471-2.67 0-1.345-1.177-2.291-1.156-.967-4.541-2.27-3.216-1.198-4.583-2.081-1.345-.904-2.018-2.039-.652-1.135-.652-2.712 0-2.817 2.291-4.435 2.291-1.64 6.285-1.64 3.721 0 7.273 1.514l-1.24 2.838q-3.468-1.429-6.285-1.429-2.48 0-3.742.778-1.261.778-1.261 2.144 0 .925.462 1.577.483.652 1.535 1.24 1.051.589 4.036 1.703 4.099 1.492 5.529 3.006 1.45 1.514 1.45 3.805z"/><path id="I" d="M852.351 268.564l-.694-3.279h-.168q-1.724 2.165-3.447 2.943-1.703.757-4.267.757-3.426 0-5.381-1.766-1.934-1.766-1.934-5.024 0-6.979 11.162-7.315l3.91-.126v-1.429q0-2.712-1.177-3.994-1.156-1.303-3.721-1.303-2.88 0-6.517 1.766l-1.072-2.67q1.703-.925 3.721-1.45 2.039-.526 4.078-.526 4.12 0 6.096 1.829 1.997 1.829 1.997 5.865v15.724zm-7.883-2.459q3.258 0 5.108-1.787 1.871-1.787 1.871-5.003v-2.081l-3.489.147q-4.162.147-6.012 1.303-1.829 1.135-1.829 3.553 0 1.892 1.135 2.88 1.156.988 3.216.988z"/><path id="J" d="M328.198 554.378h-5.865v20.327h-3.489v-20.327h-4.12v-1.577l4.12-1.261v-1.282q0-8.493 7.42-8.493 1.829 0 4.288.736l-.904 2.796q-2.018-.652-3.447-.652-1.976 0-2.922 1.324-.946 1.303-.946 4.204v1.492h5.865z"/><path id="K" d="M146.693 153.316c0 9.797 12.756 12.552 21.838 12.552h.51c8.572-.102 21.124-2.857 21.124-12.756 0-8.572-12.858-12.654-21.532-12.654-9.082 0-21.94 4.082-21.94 12.858zm13.266-8.062c1.531-1.531 4.184-2.347 6.837-2.347 2.143 0 4.286.51 6.021 1.735 3.266 2.347 5.817 8.368 5.817 12.756 0 1.123-.102 2.143-.51 2.959-1.123 2.245-5.204 3.878-8.98 3.878-1.633 0-3.266-.306-4.49-1.02-3.674-2.041-6.837-7.347-6.837-12.144 0-2.143.612-4.184 2.143-5.817z"/></defs></svg>