<svg xmlns="http://www.w3.org/2000/svg" width="104.394" height="61.145" viewBox="0 0 313.317 183.385" fill="none" fill-rule="evenodd" stroke="#000" xmlns:v="https://vecta.io/nano"><path d="M0 120.194h313.317M0 94.682h313.317M0 69.17h313.317M0 43.66h313.317M0 18.147h313.317" stroke-linecap="butt" stroke-width="2.392" stroke-linejoin="bevel"/><path d="M46.036 150.145c1.02-1.633 1.94-2.347 2.755-2.347.816.204 1.123.714 1.123 1.53 0 .408-.102 1.02-.306 1.53l-2.96 9.082c-.204.714-.408 1.43-.408 2.143 0 1.53.816 2.755 3.266 2.755 6.43 0 13.47-9.286 13.47-15.4 0-1.94-.816-2.857-2.45-2.857-1.53 0-2.347.918-2.347 2.653 0 1.123 1.43 4.082 1.43 5.306 0 2.857-3.878 8.062-7.04 8.062-.714 0-1.43-.306-1.43-1.327 0-.204 0-.408.102-.714l2.755-8.164c.306-.714.408-1.327.408-2.04 0-2.04-1.327-3.776-3.98-3.776-1.735 0-3.266 1.225-4.388 3.572zm18.777-11.43c.612-1.02 2.04-2.347 2.96-2.347.102 0 .204.102.306.102.5.204.714.714.714 1.43 0 .408-.102.816-.204 1.327l-4.082 13.47c-.714 1.94-1.02 3.878-1.02 6.02 0 3.368 2.55 6.123 6.633 6.123 6.53 0 11.735-5.817 11.735-12.246 0-3.98-1.837-6.02-5.613-6.02-2.347 0-4.286 1.123-6.02 3.47l2.755-8.776c.204-.816.408-1.735.408-2.653 0-1.94-.816-3.674-3.266-3.674s-3.98 1.02-5.306 3.776zM75.63 148c1.633 0 2.245.918 2.245 2.347 0 1.837-1.02 4.592-1.94 6.94l-.306.714c-1.633 4.082-3.368 6.225-5.102 6.225-.204 0-.306-.102-.5-.102-1.43-.408-2.143-1.735-2.143-3.98 0-1.735.408-3.776 1.225-6.225 1.327-3.163 4.592-5.92 6.53-5.92zM38 168.947c.102-.408.102-.918.102-1.327 0-3.266-2.55-5.92-4.796-7.245 2.96-.816 6.53-4.694 7.143-7.756.102-.5.204-1.123.204-1.633 0-4.388-4.082-6.94-8.572-6.94-5.4 0-11.225 3.878-12.348 9.5-.204.816-.306 1.633-.306 2.347 0 2.653 1.123 4.694 3.266 6.123-2.45.816-6.735 4.286-7.245 6.94a12.67 12.67 0 0 0-.306 2.755c0 5.204 3.266 9.082 8.98 9.082 6.837 0 12.552-5.102 13.878-11.837zm-1.02-15.613c-.408 2.347-2.245 5-5.102 5.817-2.755-2.245-7.45-4.5-7.45-7.04 0-.204 0-.408.102-.612.714-3.163 3.98-5.613 7.143-5.613 3.47 0 5.613 2.143 5.613 5.306a7.77 7.77 0 0 1-.306 2.143zm-4.5 20.103c-.816 3.572-4.592 5.204-7.858 5.204-4.184 0-6.43-3.368-6.43-7.245 0-.714 0-1.43.204-2.143.5-2.55 2.45-4.5 5.613-5.817 2.55 2.55 8.572 6.123 8.572 9.388 0 .204-.102.408-.102.612z" fill="#000" stroke="none"/><g stroke-linecap="butt" stroke-linejoin="bevel" stroke-width="3.986"><path d="M309.33 180.785v-39.862"/><path d="M50.227 179.2H309.33" stroke-dasharray="19, 16"/></g></svg>