<svg xmlns="http://www.w3.org/2000/svg" width="104.394" height="59.943" viewBox="0 0 313.317 179.772" fill="none" fill-rule="evenodd" stroke="#000" xmlns:v="https://vecta.io/nano"><path d="M0 176.375h313.317M0 150.863h313.317M0 125.352h313.317M0 99.84h313.317M0 74.328h313.317" stroke-linecap="butt" stroke-width="2.392" stroke-linejoin="bevel"/><path d="M44.442 17.38c1.02-1.633 1.94-2.347 2.755-2.347.816.204 1.123.714 1.123 1.53 0 .408-.102 1.02-.306 1.53l-2.96 9.082c-.204.714-.408 1.53-.408 2.245 0 1.53.816 2.653 3.266 2.653 6.43 0 13.47-9.286 13.47-15.4 0-1.94-.816-2.857-2.45-2.857-1.53 0-2.347.918-2.347 2.653 0 1.123 1.43 4.082 1.43 5.306 0 2.857-3.878 8.062-7.04 8.062-.714 0-1.43-.306-1.43-1.327 0-.204 0-.408.102-.714l2.755-8.164c.306-.714.408-1.327.408-2.04 0-2.04-1.327-3.776-3.98-3.776-1.735 0-3.266 1.225-4.388 3.572zm35.206.714c.204-.714.306-1.225.306-1.735 0-1.225-.612-1.94-1.837-2.143-.204 0-.306-.102-.5-.102-1.123 0-2.04.918-2.755 2.653-.918-1.94-2.04-2.96-3.368-2.96-4.388 0-7.245 3.368-9.184 7.347-.714 1.43-1.123 3.06-1.123 4.592 0 3.266 1.633 6.327 4.898 6.327 2.347 0 4.286-1.43 5.613-4.184 0 2.755 1.02 4.184 3.163 4.184 2.96 0 4.388-1.43 5.102-4.184-.714 1.837-1.43 2.755-2.245 2.755-.102 0-.306 0-.5-.102-.612-.204-.918-.714-.918-1.43 0-.408.102-.918.306-1.43l3.06-9.592zM66.8 22.992c.918-2.96 1.53-4.694 1.735-5 .714-1.43 1.94-2.857 3.266-2.857.204 0 .408 0 .612.102 1.123.306 1.43 1.327 1.43 2.653 0 1.837-.714 4.184-1.225 5.4-1.633 5-3.368 7.45-5.204 7.45-.204 0-.5 0-.714-.102-.918-.5-1.225-1.327-1.225-2.347 0-1.633.816-3.572 1.327-5.306zM36.406 36.18c.102-.408.102-.918.102-1.327 0-3.266-2.55-5.92-4.796-7.245 2.96-.816 6.53-4.694 7.143-7.756.102-.5.204-1.123.204-1.633 0-4.388-4.082-6.94-8.572-6.94-5.4 0-11.225 3.878-12.348 9.5-.204.816-.306 1.633-.306 2.347 0 2.653 1.123 4.694 3.266 6.123-2.45.816-6.735 4.286-7.245 6.94a12.67 12.67 0 0 0-.306 2.755c0 5.204 3.266 9.082 8.98 9.082 6.837 0 12.552-5.102 13.878-11.837zm-1.02-15.613c-.408 2.347-2.245 5-5.102 5.817-2.755-2.245-7.45-4.5-7.45-7.04 0-.204 0-.408.102-.612.714-3.163 3.98-5.613 7.143-5.613 3.47 0 5.613 2.143 5.613 5.306a7.77 7.77 0 0 1-.306 2.143zm-4.5 20.103c-.816 3.572-4.592 5.204-7.858 5.204-4.184 0-6.43-3.368-6.43-7.245 0-.714 0-1.43.204-2.143.5-2.55 2.45-4.5 5.613-5.817 2.55 2.55 8.572 6.123 8.572 9.388 0 .204-.102.408-.102.612z" fill="#000" stroke="none"/><g stroke-linecap="butt" stroke-linejoin="bevel" stroke-width="3.986"><path d="M308.534 14.535v39.862"/><path d="M84.508 16.13h224.026" stroke-dasharray="19, 16"/></g></svg>