<svg xmlns="http://www.w3.org/2000/svg" width="104.394" height="58.87" viewBox="0 0 313.317 176.554" fill="none" fill-rule="evenodd" stroke="#000" xmlns:v="https://vecta.io/nano"><path d="M0 173.156h313.317M0 147.644h313.317M0 122.133h313.317M0 96.62h313.317M0 71.1h313.317" stroke-linecap="butt" stroke-width="2.392" stroke-linejoin="bevel"/><path d="M102.583 15.672c.204-.714.306-1.225.306-1.735 0-1.225-.612-1.94-1.837-2.143-.204 0-.306-.102-.5-.102-1.123 0-2.04.918-2.755 2.653-.918-1.94-2.04-2.96-3.368-2.96-4.388 0-7.245 3.368-9.184 7.347-.714 1.43-1.123 3.06-1.123 4.592 0 3.266 1.633 6.327 4.898 6.327 2.347 0 4.286-1.43 5.613-4.184 0 2.755 1.02 4.184 3.163 4.184 2.96 0 4.388-1.43 5.102-4.184-.714 1.837-1.43 2.755-2.245 2.755-.102 0-.306 0-.5-.102-.612-.204-.918-.714-.918-1.43 0-.408.102-.918.306-1.43l3.06-9.592zM89.725 20.57c.918-2.96 1.53-4.694 1.735-5 .714-1.43 1.94-2.857 3.266-2.857.204 0 .408 0 .612.102 1.123.306 1.43 1.327 1.43 2.653 0 1.837-.714 4.184-1.225 5.4-1.633 5-3.368 7.45-5.204 7.45-.204 0-.5 0-.714-.102-.918-.5-1.225-1.327-1.225-2.347 0-1.633.816-3.572 1.327-5.306zm-5 .204c-1.43 2.755-3.47 5.102-4.5 5.102-.204-.102-.306-.408-.306-.714 0-.612.408-1.53.612-2.347 0-.102.102-.306.102-.5 0-.102.102-.306.102-.408.5-1.837 1.225-4.388 1.225-6.43 0-2.347-.816-4.184-3.368-4.184-1.837 0-3.572.918-5.204 2.55 0-1.735-1.225-2.55-3.47-2.55-2.347 0-4.388.918-6.225 2.55 0-1.633-1.02-2.55-3.06-2.55-3.572 0-6.735 3.776-8.164 9.5 1.123-2.755 2.347-5.306 4.286-6.02.102 0 .204-.102.306-.102.5 0 .714.714.714 1.53l-3.572 13.47h5.204l2.04-7.55c.408-1.633 2.755-7.756 5.102-7.756.408.204.612.816.612 1.633 0 1.123-.306 2.45-.5 3.266l-2.755 10.4H69.1l2.55-9.286c.714-2.653 2.55-6.43 4.388-6.43.204 0 .306 0 .5.102.408.204.612.612.612 1.225 0 1.02-.408 2.55-.816 3.98L74.1 28.04c0 .204-.102.306-.102.408 0 1.02 1.02 1.633 2.143 1.633 4.184 0 7.245-5 8.572-9.286zM48.383 33.658c.204-.918.306-1.735.306-2.55 0-4.5-3.06-7.04-8.266-7.04-2.347 0-4.592.918-6.735 2.857l1.94-9.286c.204.816 2.55 1.123 5.204 1.123 2.96 0 6.327-.5 7.143-1.327 1.225-1.225 2.857-2.96 3.163-5-2.857.714-5.92 1.123-8.776 1.123a26.67 26.67 0 0 1-7.654-1.123l-3.47 16.736h1.94c1.53-2.04 3.47-3.06 5.817-3.06 3.266 0 4.592 2.653 4.592 5.613 0 .816-.102 1.633-.306 2.347-1.12 4.69-3.878 10.1-9.08 10.1-.816 0-3.572-.918-3.572-2.143a.22.22 0 0 1 .204-.204h.612c2.04 0 3.674-.5 4.286-3.776.102-.408.102-.714.102-1.02 0-1.735-1.123-2.653-3.266-2.653-2.55 0-4.082 1.327-4.592 3.878-.204.816-.306 1.53-.306 2.245 0 3.368 2.143 5.102 6.327 5.102 6.225 0 13.062-5.817 14.4-11.94zM25.22 44.17c-1.02 0-2.96-.408-2.96-1.633l6.327-30.104h-6.633l-7.858 13.164 1.02.918 5.5-7.96-5.102 23.98c-.306 1.123-2.347 1.633-3.47 1.633l-.306 1.43h13.164l.306-1.43z" fill="#000" stroke="none"/><g stroke-linecap="butt" stroke-linejoin="bevel" stroke-width="3.986"><path d="M308.534 12.113v39.862"/><path d="M107.628 13.707h200.905" stroke-dasharray="19, 16"/></g></svg>